<svg version="1.1" id="Layer_1" xmlns="http://www.w3.org/2000/svg" x="0px" y="0px" viewBox="0 0 1080 379.7" fill="#114A65" class="fill-off-white"><g><path d="M659.3,79l87.9,204.8h24.2v16.3h-85.9v-16.3h26l-25.8-60.6h-84.6l-24.9,60.6h25.8v16.3h-70.3v-16.3h25.5 L643,76h15L659.3,79L659.3,79z M642.8,121.8l-34.6,84.7h70.4L642.8,121.8L642.8,121.8z M811.4,94.9C825.3,82.8,844.9,76,867,76 c23.1,0,46.7,10.2,63.4,32.5c13.8,18.4,22.8,45.1,22.8,81.2c0,36.1-9.6,62.8-24.1,81.2c-17.6,22.3-42.5,32.5-66.7,32.5 c-19.3,0-34.7-6.4-45.8-15.7c-13.4-11.2-20.5-26.7-20.7-40.8v-0.2c0.2-6.9,2.7-12.5,6.7-16.5c4.2-4.2,9.9-6.5,16.4-6.5 c6.1,0,11.1,2.4,14.6,5.9c4,4,6.1,9.5,6.1,14.8c0,7.6-3.9,11.3-7.8,15c-2.2,2.1-4.5,4.2-4.7,7.1c0.2,4.5,3.4,10.1,10.1,14.3 c5.7,3.6,14,6.1,25.1,6.1c16.5,0,30.1-6.4,39.5-21.1c9.6-15.1,15.1-38.8,15.4-73.1c-5.8,4.4-12.5,8.4-20.2,11.4 c-9.9,3.9-21.3,6.3-34,6.3c-20,0-39.3-6.4-53-18.8c-12.5-11.2-20.4-27.3-20.4-47.9C789.7,123.3,797.9,106.6,811.4,94.9L811.4,94.9z M835.8,181.3c6.9,8,17.2,12.6,31.1,12.6c9.5,0,18.4-2.2,26.6-5.9c8.5-3.9,16.2-9.6,23.1-16.4c-1.4-27.6-6.6-47.1-14.7-59.9 c-8.5-13.4-20.5-19.3-34.9-19.3c-14.7,0-24.7,4.9-31.3,12.7c-8,9.6-11.1,23.9-11.1,39C824.6,159.6,828.3,172.5,835.8,181.3 L835.8,181.3z M1050.2,84.2v199.5h29.8v16.3h-94.2v-16.3h30.2V109.2l-29.6,14.4L979,109l58-29.6h13.2V84.2z"></path><path d="M123.8,161.4c-1.5-1.5-3.5-3.3-4.6-4.4c-7.4-7.5-14.9-15-22.4-22.5c-4.9-5-9.9-9.9-14.9-14.8 c-1.7-1.7-3.5-3.4-5.3-5.1c-0.2-0.2-0.5-0.5-0.8-0.7c-0.6,0.6-1.3,1.3-1.8,1.8c-2.1,2.1-4.2,4.2-6.3,6.3c-3.3,3.3-6.5,6.6-9.8,9.9 L0,189.9c0.6,0.6,1.2,1.3,1.7,1.8c2,2.1,4.1,4.1,6.1,6.2c3.3,3.3,6.7,6.6,10.1,9.9l40.2,40.2c3.4,3.4,6.7,6.7,10,10l8,7.9 c0.3-0.3,0.6-0.6,0.9-0.9c2.1-2.1,4.2-4.1,6.2-6.2c6-6,11.9-11.9,17.9-17.9c9-9.1,18-18.2,27.1-27.2l52.3-52.4 c-1.2-1.2-2.7-2.5-3.7-3.5c-1-1-2-2-3-3l-11.6-11.5c-0.3-0.3-0.6-0.6-0.9-0.9c-0.7,0.7-1.4,1.4-2,2c-2.9,2.8-5.8,5.7-8.6,8.5 c-8.3,8.3-16.6,16.6-24.9,24.9c-12.3,12.3-24.5,24.5-36.7,36.9c-1.8,1.8-3.5,3.6-5.3,5.3c-1.5,1.5-4.5,4.8-6.2,5.8l-2,1.3l-37.2-37 l37.3-37.5l2.1,1.6c1.9,1.4,4,3.7,5.6,5.4c3,3,5.9,6,8.9,9c2.9,3,5.9,6,8.9,9c0.8,0.8,2.1,2.1,3.3,3.2L123.8,161.4L123.8,161.4z M199.2,218.5l9.5,9.4c1.9,1.9,3.8,3.9,5.7,5.8c1,1,2.4,2.6,3.8,3.8l76-76.1l-19.1-19.2c-1,1-2.1,2.3-2.7,2.9l-35.1,35.1 c-6.6,6.6-13.3,13.2-20,19.9c-4.4,4.4-8.8,8.8-13.1,13.2c-1.5,1.6-3.1,3.1-4.6,4.7C199.4,218.2,199.3,218.4,199.2,218.5 L199.2,218.5z M256.1,104.7l19.2-19.2c0.6,0.6,1.2,1.2,1.7,1.7c2.1,2.1,4.3,4.2,6.4,6.3c3.3,3.3,6.6,6.7,9.9,10l40,40.1 c3.3,3.3,6.7,6.6,10,9.9c2.1,2.1,4.2,4.2,6.3,6.4c0.5,0.5,1,1,1.5,1.5l-19.3,19.1c-1-1-1.9-2.1-2.9-3l-35-34.9 c-6.7-6.7-13.4-13.4-20-20.2C268.1,116.6,261.8,110.8,256.1,104.7L256.1,104.7z M142.1,218.4c1.3-1.3,3-2.8,3.9-3.7 c2.9-2.9,5.7-5.8,8.6-8.7c1.8-1.8,3.7-3.7,5.6-5.5c0.4-0.4,0.8-0.8,1.3-1.3c0.6,0.6,1.2,1.2,1.8,1.8c2.7,2.7,5.4,5.4,8.1,8 c7.8,7.8,15.6,15.6,23.4,23.4c11.6,11.7,23.2,23.3,34.9,35c1.6,1.6,3.3,3.2,4.9,4.8c0.8,0.8,1.9,1.8,2.9,2.9l-19.3,19.2 c-1-1-1.9-2.1-2.8-3c-1.7-1.7-3.3-3.3-5-5c-3.4-3.3-6.7-6.7-10.1-10.1c-6.7-6.6-13.3-13.3-19.9-20L142.1,218.4L142.1,218.4z M113.9,76.2c12.7-12.7,25.3-25.5,38.1-38.1c6.7-6.6,13.3-13.5,20-20.1c4.3-4.3,8.6-8.6,12.9-12.9c1.5-1.5,3.1-3,4.6-4.5 c0.1-0.1,0.3-0.3,0.5-0.4l47.5,47.7c-1.3,1.3-3,2.8-3.8,3.7L222,63.1c-0.8,0.8-2.4,2.6-3.7,3.8l-28.6-28.4l-36.9,37l1,2 c0.6,1.2,3.1,3.5,4,4.5c2.4,2.4,4.8,4.8,7.2,7.2c3.5,3.5,7.1,7,10.6,10.5c14.1,14.3,28.4,28.4,42.5,42.6l19.1,19.1l-19.1,19.1 c-1-1-2-2-2.8-2.8c-2.9-2.9-5.8-5.8-8.7-8.7c-4.5-4.5-9-9.1-13.5-13.7c-13.4-13.6-27.1-27-40.7-40.5c-9.1-9-18.1-18-27.1-27.1 c-3.1-3.1-6.2-6.2-9.3-9.4C115.4,77.7,114.6,77,113.9,76.2L113.9,76.2z M180.7,275.4c-1.6,1.8-4,3.8-5.3,5.1 c-3.5,3.5-7,6.9-10.5,10.4c-1.8,1.8-10.4,10.1-11.1,12l-0.7,1.8l36.1,35.9l1.9-0.8c1.2-0.5,4.1-3.5,5-4.4c3.3-3.2,6.5-6.4,9.8-9.7 c9.7-9.6,19.3-19.3,28.9-29c9.4-9.4,18.7-18.9,28.1-28.3c3.2-3.2,6.5-6.5,9.8-9.7c0.8-0.8,1.8-1.8,2.7-2.7c1.4,1.3,3,3,3.9,4 c1.9,1.9,3.7,3.9,5.7,5.8c1.9,1.9,3.9,3.7,5.8,5.6c0.9,0.9,2.5,2.4,3.8,3.8L242,327.6c-9,9-18,18.1-27.1,27.2 c-5.9,5.9-11.9,11.9-17.8,17.8c-2.1,2.1-4.2,4.1-6.2,6.1c-0.3,0.3-0.6,0.6-1,1l-58.2-58.1c-3.3-3.3-6.6-6.5-9.9-9.8 c-2.1-2.1-4.2-4.2-6.3-6.3c-0.5-0.5-1.1-1.1-1.8-1.8c1.5-1.5,3.1-3,4.6-4.4c7.5-7.4,14.9-14.9,22.4-22.3 c5.1-5.1,10.2-10.2,15.3-15.3c1.7-1.7,3.4-3.5,5.1-5.2c0.1-0.1,0.1-0.1,0.2-0.2c0.5,0.5,1,0.9,1.3,1.3c1.8,1.8,3.6,3.6,5.4,5.4 c2.9,2.9,5.7,5.9,8.6,8.7C177.7,272.5,179.4,274.1,180.7,275.4L180.7,275.4z M199.1,104.6c1.2,1.3,2.9,2.7,3.8,3.6l11.7,11.7 c1.1,1.1,2.5,2.7,3.8,3.9c5.6-5.4,10.9-11.1,16.5-16.5c0.9-0.9,1.8-1.9,2.8-2.8l21.3-21.1c3.5-3.6,7.1-7.1,10.6-10.7 c5.3-5.4,10.6-10.7,16-16c3.6-3.6,7.2-7.2,10.9-10.8c1.1-1.1,4.7-4.9,6-5.6l2-1.1l37,36.9L313,104.6l19,19.1l47.6-47.5 c-6-5.9-11.8-12-17.8-17.8c-6.8-6.6-13.3-13.5-20.1-20.1c-6.8-6.6-13.3-13.5-20.1-20.1c-3.4-3.3-6.7-6.7-10.1-10.1 c-1.7-1.6-3.3-3.4-4.9-5.1c-0.7-0.7-1.9-2-3-3L199.1,104.6L199.1,104.6z M255.9,218.5c3.2-3.2,6.4-6.5,9.6-9.7 c2.4-2.5,4.9-4.9,7.4-7.3c0.6-0.6,1.4-1.4,2.1-2.1l25.5,25.2c18.4,17.8,36,36.3,54.2,54.2c4.5,4.5,9,8.9,13.5,13.4 c2.9,2.9,5.8,5.8,8.7,8.8c0.8,0.9,1.9,1.8,2.8,2.8c-0.6,0.6-1.2,1.2-1.7,1.7c-2.1,2.1-4.2,4.3-6.4,6.4c-3.3,3.3-6.6,6.6-9.9,9.9 l-58.1,58.1c-0.2-0.2-0.4-0.4-0.5-0.5c-1.3-1.3-2.7-2.6-4-3.9c-2.1-2.1-4.2-4.3-6.3-6.5l-25.9-25.9c-2.1-2.1-4.3-4.3-6.4-6.4 c-1.4-1.4-2.9-2.7-4.3-4.2l19.3-19.2c0.6,0.6,1.1,1.1,1.5,1.5c1.1,1.2,2.3,2.4,3.4,3.5c3.5,3.5,6.9,7,10.4,10.4 c2.4,2.4,4.8,4.9,7.3,7.2c1,0.9,3.4,3.5,4.6,4.1l1.9,0.9l36.1-36.1l-0.8-1.9c-0.8-2-4.3-4.9-5.9-6.6l-69.3-69.4 c-1.7-1.7-3.5-3.4-5.3-5.2C258.4,220.9,257,219.6,255.9,218.5L255.9,218.5z M312.8,218.2c0.5,0.5,1,1,1.4,1.4 c1.8,1.9,3.7,3.7,5.5,5.6c2.9,2.9,5.8,5.7,8.7,8.6c0.9,0.9,2.3,2.5,3.6,3.8c0.5-0.5,1.1-1.1,1.5-1.5c2.4-2.5,4.9-5,7.3-7.4 c7.1-7.1,14.2-14.2,21.3-21.3c10.6-10.5,21.3-21,31.8-31.7l23.4-23.3l37.6,37.6l-37.1,37.2l-2-1.2c-1-0.6-2.4-2-3.2-2.9 c-1.6-1.5-3.2-3.1-4.7-4.7c-2.3-2.3-4.6-4.7-6.9-7c-2.3-2.3-4.6-4.7-6.9-7.1c-1.4-1.4-2.9-2.9-4.3-4.3c-0.2-0.2-0.5-0.5-0.8-0.8 l-19.2,19.1c0.1,0.1,0.2,0.2,0.3,0.3c1.5,1.5,2.9,3,4.4,4.5c4.2,4.3,8.4,8.5,12.7,12.7c6.4,6.4,12.9,12.8,19.3,19.2 c2.1,2.1,4.3,4.3,6.4,6.4c1.2,1.2,2.9,3.1,4.4,4.6c1-1,2-2.1,2.9-3l35.1-35.1c6.6-6.8,13.5-13.4,20.2-20.1c4.3-4.3,8.7-8.6,12.9-13 c1.5-1.5,3-3.1,4.5-4.7c0.1-0.1,0.2-0.2,0.4-0.4c-0.4-0.4-0.7-0.7-1.1-1.1c-2.3-2.3-4.6-4.6-6.9-6.9c-6.7-6.7-13.4-13.4-20-20 c-9.9-10-19.8-20-29.8-29.9c-3.3-3.3-6.6-6.7-9.9-10c-2.1-2.1-4.2-4.3-6.4-6.4c-0.5-0.5-1.2-1.2-1.9-1.9c-0.3,0.3-0.6,0.6-0.8,0.8 c-1.4,1.4-2.8,2.7-4.2,4.1c-2.2,2.2-4.4,4.6-6.7,6.8c-4.6,4.4-9.1,8.9-13.5,13.5c-8.9,9.2-18.1,18.1-27.1,27.1 c-9.1,9-18,18.2-27.1,27.1l-20.2,20.3C316.5,214.8,314.4,216.5,312.8,218.2z"></path></g></svg>