<svg width="170" height="60" viewBox="0 0 170 60" fill="none" xmlns="http://www.w3.org/2000/svg">
<path d="M38.4767 41.1598H34.4062L41.8174 20.1084H46.5252L53.9467 41.1598H49.8762L44.2535 24.4256H44.0891L38.4767 41.1598ZM38.6104 32.9057H49.7117V35.9689H38.6104V32.9057ZM61.9334 41.4373C60.6931 41.4373 59.583 41.1187 58.6031 40.4814C57.6231 39.8441 56.8487 38.9189 56.2799 37.7061C55.7111 36.4932 55.4268 35.0198 55.4268 33.2861C55.4268 31.5317 55.7146 30.0517 56.2903 28.8456C56.8727 27.6326 57.6574 26.7178 58.6442 26.1011C59.6309 25.4775 60.7308 25.1657 61.9438 25.1657C62.8688 25.1657 63.6295 25.3233 64.2256 25.6385C64.8218 25.9469 65.2947 26.3203 65.6441 26.7589C65.9936 27.1906 66.2643 27.5984 66.4561 27.9821H66.6104V20.1084H70.3416V41.1598H66.6823V38.6723H66.4561C66.2643 39.0561 65.9867 39.4637 65.6236 39.8955C65.2604 40.3204 64.7807 40.6835 64.1845 40.985C63.5884 41.2866 62.8379 41.4373 61.9334 41.4373ZM62.9716 38.3845C63.7596 38.3845 64.4313 38.172 64.9863 37.7472C65.5413 37.3155 65.9627 36.7158 66.2506 35.9484C66.5384 35.1808 66.6823 34.2865 66.6823 33.2655C66.6823 32.2445 66.5384 31.3571 66.2506 30.6033C65.9696 29.8495 65.5516 29.2636 64.9966 28.8456C64.4484 28.4275 63.7734 28.2185 62.9716 28.2185C62.1424 28.2185 61.4504 28.4344 60.8952 28.8661C60.3402 29.2979 59.9221 29.894 59.6412 30.6547C59.3602 31.4154 59.2197 32.2855 59.2197 33.2655C59.2197 34.2523 59.3602 35.1328 59.6412 35.9072C59.929 36.6747 60.3504 37.2812 60.9056 37.7266C61.4675 38.1651 62.1561 38.3845 62.9716 38.3845Z" fill="#7D8180"/>
<path d="M75.5703 20.1084H80.237L86.4866 35.3625H86.7333L92.9829 20.1084H97.6496V41.1598H93.9903V26.6973H93.795L87.977 41.0982H85.2429L79.4249 26.6664H79.2296V41.1598H75.5703V20.1084ZM101.638 41.1598V25.3713H105.359V41.1598H101.638ZM103.509 23.1305C102.919 23.1305 102.412 22.9352 101.987 22.5446C101.562 22.1471 101.35 21.6709 101.35 21.1158C101.35 20.5539 101.562 20.0776 101.987 19.687C102.412 19.2896 102.919 19.0908 103.509 19.0908C104.105 19.0908 104.612 19.2896 105.03 19.687C105.455 20.0776 105.667 20.5539 105.667 21.1158C105.667 21.6709 105.455 22.1471 105.03 22.5446C104.612 22.9352 104.105 23.1305 103.509 23.1305ZM112.906 31.9087V41.1598H109.185V25.3713H112.742V28.0541H112.927C113.29 27.1701 113.869 26.4677 114.664 25.9469C115.466 25.4261 116.456 25.1657 117.635 25.1657C118.724 25.1657 119.673 25.3987 120.482 25.8647C121.297 26.3307 121.928 27.0057 122.373 27.8897C122.825 28.7736 123.048 29.8461 123.041 31.107V41.1598H119.32V31.6825C119.32 30.6272 119.046 29.8016 118.498 29.2054C117.957 28.6092 117.206 28.3111 116.247 28.3111C115.596 28.3111 115.017 28.455 114.51 28.7428C114.009 29.0238 113.615 29.4315 113.328 29.9661C113.047 30.5005 112.906 31.1481 112.906 31.9087ZM134.708 25.3713V28.2494H125.632V25.3713H134.708ZM127.872 21.5886H131.593V36.4109C131.593 36.9112 131.669 37.295 131.82 37.5621C131.977 37.8227 132.183 38.0008 132.436 38.0967C132.69 38.1927 132.971 38.2406 133.279 38.2406C133.512 38.2406 133.725 38.2234 133.916 38.1892C134.115 38.1549 134.266 38.1242 134.369 38.0967L134.996 41.0057C134.797 41.0742 134.513 41.1496 134.143 41.2318C133.779 41.314 133.334 41.362 132.806 41.3757C131.874 41.4031 131.035 41.2626 130.288 40.9542C129.541 40.6391 128.948 40.1525 128.51 39.4946C128.078 38.8368 127.866 38.0144 127.872 37.0277V21.5886Z" fill="#3FB488"/>
</svg>
