<svg width="170" height="60" viewBox="0 0 170 60" fill="none" xmlns="http://www.w3.org/2000/svg">
<path d="M57.7656 39.0434L63.3816 21.7633H66.9936L72.6096 39.0434H70.0056L64.8336 23.2753H65.4816L60.3696 39.0434H57.7656ZM60.6816 35.1434V32.7914H69.7056V35.1434H60.6816ZM74.7625 39.0434V26.0834H76.9945V29.2274L76.6825 28.8194C76.8425 28.4034 77.0505 28.0234 77.3065 27.6794C77.5625 27.3274 77.8585 27.0394 78.1945 26.8154C78.5225 26.5754 78.8865 26.3914 79.2865 26.2634C79.6945 26.1274 80.1105 26.0474 80.5345 26.0234C80.9585 25.9914 81.3665 26.0114 81.7585 26.0834V28.4354C81.3345 28.3234 80.8625 28.2914 80.3425 28.3394C79.8305 28.3874 79.3585 28.5514 78.9265 28.8314C78.5185 29.0954 78.1945 29.4154 77.9545 29.7914C77.7225 30.1674 77.5545 30.5874 77.4505 31.0514C77.3465 31.5074 77.2945 31.9914 77.2945 32.5034V39.0434H74.7625ZM84.2837 23.9593V21.5233H86.7917V23.9593H84.2837ZM84.2837 39.0434V26.0834H86.7917V39.0434H84.2837ZM95.3513 39.3914C93.7753 39.3914 92.4913 39.0434 91.4993 38.3474C90.5073 37.6514 89.8993 36.6714 89.6753 35.4074L92.2433 35.0114C92.4033 35.6834 92.7713 36.2154 93.3473 36.6074C93.9313 36.9914 94.6553 37.1834 95.5193 37.1834C96.3033 37.1834 96.9153 37.0234 97.3553 36.7034C97.8033 36.3834 98.0273 35.9434 98.0273 35.3834C98.0273 35.0554 97.9473 34.7914 97.7873 34.5914C97.6353 34.3834 97.3113 34.1874 96.8153 34.0034C96.3193 33.8194 95.5633 33.5914 94.5473 33.3194C93.4353 33.0314 92.5513 32.7234 91.8953 32.3954C91.2473 32.0594 90.7833 31.6714 90.5033 31.2314C90.2313 30.7834 90.0953 30.2434 90.0953 29.6114C90.0953 28.8274 90.3033 28.1434 90.7193 27.5594C91.1353 26.9754 91.7193 26.5234 92.4713 26.2034C93.2313 25.8834 94.1193 25.7234 95.1353 25.7234C96.1273 25.7234 97.0113 25.8794 97.7873 26.1914C98.5633 26.5034 99.1913 26.9474 99.6713 27.5234C100.151 28.0914 100.439 28.7594 100.535 29.5274L97.9673 29.9953C97.8793 29.3713 97.5873 28.8794 97.0913 28.5194C96.5953 28.1594 95.9513 27.9634 95.1593 27.9314C94.3993 27.8994 93.7833 28.0274 93.3113 28.3154C92.8393 28.5954 92.6033 28.9834 92.6033 29.4794C92.6033 29.7674 92.6913 30.0114 92.8673 30.2114C93.0513 30.4114 93.4033 30.6034 93.9233 30.7874C94.4433 30.9714 95.2113 31.1914 96.2273 31.4474C97.3153 31.7274 98.1793 32.0394 98.8193 32.3834C99.4593 32.7194 99.9153 33.1234 100.187 33.5954C100.467 34.0594 100.607 34.6234 100.607 35.2874C100.607 36.5674 100.139 37.5714 99.2033 38.2994C98.2753 39.0274 96.9913 39.3914 95.3513 39.3914ZM103.503 39.0434V21.7633H106.011V39.0434H103.503ZM118.71 39.0434V32.6714C118.71 32.1674 118.666 31.6514 118.578 31.1234C118.498 30.5874 118.338 30.0914 118.098 29.6354C117.866 29.1794 117.534 28.8114 117.102 28.5314C116.678 28.2514 116.122 28.1114 115.434 28.1114C114.986 28.1114 114.562 28.1874 114.162 28.3394C113.762 28.4834 113.41 28.7194 113.106 29.0474C112.81 29.3754 112.574 29.8074 112.398 30.3434C112.23 30.8794 112.146 31.5314 112.146 32.2994L110.586 31.7114C110.586 30.5354 110.806 29.4994 111.246 28.6034C111.686 27.6994 112.318 26.9954 113.142 26.4914C113.966 25.9874 114.962 25.7354 116.13 25.7354C117.026 25.7354 117.778 25.8794 118.386 26.1674C118.994 26.4554 119.486 26.8354 119.862 27.3074C120.246 27.7714 120.538 28.2794 120.738 28.8314C120.938 29.3834 121.074 29.9234 121.146 30.4514C121.218 30.9794 121.254 31.4434 121.254 31.8434V39.0434H118.71ZM109.602 39.0434V26.0834H111.846V29.8274H112.146V39.0434H109.602ZM125.568 39.0434V25.6274C125.568 25.2994 125.58 24.9514 125.604 24.5834C125.628 24.2074 125.696 23.8393 125.808 23.4793C125.928 23.1113 126.124 22.7753 126.396 22.4713C126.724 22.1113 127.084 21.8553 127.476 21.7033C127.868 21.5513 128.256 21.4633 128.64 21.4393C129.032 21.4153 129.392 21.4033 129.72 21.4033H131.352V23.4673H129.84C129.248 23.4673 128.804 23.6153 128.508 23.9113C128.22 24.1994 128.076 24.6114 128.076 25.1474V39.0434H125.568ZM123.42 28.0994V26.0834H131.352V28.0994H123.42ZM133.263 39.0434V26.0834H135.495V29.2274L135.183 28.8194C135.343 28.4034 135.551 28.0234 135.807 27.6794C136.063 27.3274 136.359 27.0394 136.695 26.8154C137.023 26.5754 137.387 26.3914 137.787 26.2634C138.195 26.1274 138.611 26.0474 139.035 26.0234C139.459 25.9914 139.867 26.0114 140.259 26.0834V28.4354C139.835 28.3234 139.363 28.2914 138.843 28.3394C138.331 28.3874 137.859 28.5514 137.427 28.8314C137.019 29.0954 136.695 29.4154 136.455 29.7914C136.223 30.1674 136.055 30.5874 135.951 31.0514C135.847 31.5074 135.795 31.9914 135.795 32.5034V39.0434H133.263ZM145.829 39.4034C144.869 39.4034 144.065 39.2274 143.417 38.8754C142.769 38.5154 142.277 38.0434 141.941 37.4594C141.613 36.8674 141.449 36.2194 141.449 35.5154C141.449 34.8594 141.565 34.2834 141.797 33.7874C142.029 33.2914 142.373 32.8714 142.829 32.5274C143.285 32.1754 143.845 31.8914 144.509 31.6754C145.085 31.5074 145.737 31.3594 146.465 31.2314C147.193 31.1034 147.957 30.9834 148.757 30.8714C149.565 30.7594 150.365 30.6474 151.157 30.5354L150.245 31.0394C150.261 30.0234 150.045 29.2714 149.597 28.7834C149.157 28.2874 148.397 28.0394 147.317 28.0394C146.637 28.0394 146.013 28.1994 145.445 28.5194C144.877 28.8314 144.481 29.3514 144.257 30.0794L141.917 29.3594C142.237 28.2474 142.845 27.3634 143.741 26.7074C144.645 26.0514 145.845 25.7234 147.341 25.7234C148.501 25.7234 149.509 25.9234 150.365 26.3234C151.229 26.7154 151.861 27.3394 152.261 28.1954C152.469 28.6194 152.597 29.0674 152.645 29.5394C152.693 30.0114 152.717 30.5194 152.717 31.0634V39.0434H150.497V36.0794L150.929 36.4634C150.393 37.4554 149.709 38.1954 148.877 38.6834C148.053 39.1634 147.037 39.4034 145.829 39.4034ZM146.273 37.3514C146.985 37.3514 147.597 37.2274 148.109 36.9794C148.621 36.7234 149.033 36.3994 149.345 36.0074C149.657 35.6154 149.861 35.2074 149.957 34.7834C150.093 34.3994 150.169 33.9674 150.185 33.4874C150.209 33.0074 150.221 32.6234 150.221 32.3354L151.037 32.6354C150.245 32.7554 149.525 32.8634 148.877 32.9594C148.229 33.0554 147.641 33.1514 147.113 33.2474C146.593 33.3354 146.129 33.4434 145.721 33.5714C145.377 33.6914 145.069 33.8354 144.797 34.0034C144.533 34.1714 144.321 34.3754 144.161 34.6154C144.009 34.8554 143.933 35.1474 143.933 35.4914C143.933 35.8274 144.017 36.1394 144.185 36.4274C144.353 36.7074 144.609 36.9314 144.953 37.0994C145.297 37.2674 145.737 37.3514 146.273 37.3514Z" fill="#364054"/>
<path d="M28.0695 14.8111C28.2829 15.3452 31.6962 21.4868 35.7495 28.4829L43.0562 41.1935H46.1495C47.8029 41.1935 49.1895 41.0332 49.1362 40.7662C49.1362 40.5526 45.7229 34.5178 41.5629 27.308L33.9362 14.2236L30.8429 14.0634C28.0695 13.9032 27.7495 14.01 28.0695 14.8111Z" fill="#FFC117"/>
<path d="M22.5139 31.4207C19.7406 36.334 17.3939 40.4996 17.2872 40.7666C17.1806 40.9803 18.5139 41.1939 20.2206 41.1939H23.3672L25.6606 37.1351C26.9406 34.9454 28.0072 33.183 28.1138 33.2899C28.1672 33.3967 29.8738 36.2806 31.8472 39.6985C33.7672 43.1699 35.5805 46.0004 35.8472 46.0004C36.1138 46.0004 36.9138 44.8789 37.6605 43.5437L39.0473 41.0871L33.6605 31.7945C30.6738 26.6676 28.1138 22.502 27.9538 22.502C27.7405 22.5554 25.2872 26.5607 22.5139 31.4207Z" fill="#FCCE00"/>
</svg>
