<svg width="170" height="57" viewBox="0 0 170 57" fill="none" xmlns="http://www.w3.org/2000/svg">
<path d="M30.3573 28.1633C30.3637 28.267 30.3452 28.3708 30.3033 28.4658C30.1663 28.4134 30.0349 28.3472 29.9112 28.2684C29.7349 28.1549 29.5647 28.0321 29.4013 27.9005C28.7094 27.3259 28.07 26.6908 27.4908 26.0028C26.8982 25.3247 26.3655 24.5966 25.8984 23.8266C25.7931 23.6427 25.6982 23.453 25.6143 23.2584C25.5378 23.1058 25.481 22.9439 25.4453 22.7769C25.5071 22.7708 25.5696 22.7752 25.63 22.7897L25.9908 22.8948L26.1797 22.7158L29.2962 20.3096C29.3146 20.355 29.3359 20.3991 29.3573 20.4431C29.8221 21.3938 30.4079 22.2804 31.1002 23.0809C31.7192 23.8132 32.4181 24.474 33.184 25.0511L30.3203 27.7954L30.3573 28.1633Z" fill="url(#paint0_linear_328_14335)"/>
<path d="M31.6314 19.0123C31.5188 19.1275 31.3769 19.21 31.2209 19.2509C31.0719 19.2918 30.9181 19.3128 30.7635 19.3134H30.7522L30.7053 19.2978C30.4726 19.2177 30.2355 19.1513 29.9951 19.0989C29.9018 19.0785 29.8064 19.0699 29.711 19.0733L29.7039 19.0875C29.7068 19.1001 29.7068 19.1133 29.7039 19.1259C29.697 19.3247 29.7374 19.5224 29.8218 19.7026C29.8654 19.85 29.9235 19.9927 29.9951 20.1287C30.4929 20.9884 31.0738 21.7972 31.7295 22.5435C32.3658 23.3085 33.0746 24.0101 33.8459 24.6387C33.9547 24.7348 34.0717 24.8213 34.1954 24.8972C34.3677 25.0101 34.5609 25.0874 34.7636 25.1245C34.8261 25.1145 34.8445 25.1245 34.8687 25.1074C34.9094 25.0416 34.9283 24.9645 34.9226 24.8873C34.912 24.6535 34.8699 24.4223 34.7976 24.1998L34.782 24.1429V24.1216L34.7905 24.062V24.1046C34.7697 23.94 34.7872 23.7727 34.8417 23.616C34.8714 23.5359 34.9169 23.4625 34.9755 23.4003C35.034 23.3381 35.1044 23.2883 35.1826 23.2537C35.2289 23.2364 35.2764 23.2222 35.3246 23.2111C34.3459 22.6571 33.7806 22.0449 33.0604 21.2225C32.4482 20.481 32.0263 19.9057 31.6471 18.998C31.64 19.0023 31.6371 19.0123 31.6314 19.0123Z" fill="url(#paint1_linear_328_14335)"/>
<path d="M32.4677 16.8814C32.2291 16.8601 31.9989 16.9141 31.9407 17.0632C31.8583 17.1939 31.8725 17.4226 31.9293 17.6385C31.9906 17.8652 32.0723 18.0858 32.1737 18.2976C32.3552 18.6691 32.5732 19.0217 32.8242 19.3502C33.1016 19.7595 33.4033 20.1517 33.7276 20.5249C34.364 21.2806 34.82 21.8843 35.6026 22.4581C35.7948 22.5977 35.9987 22.7203 36.212 22.8246C36.3958 22.9268 36.6043 22.9759 36.8143 22.9667C36.8571 22.9643 36.899 22.9529 36.9371 22.9333C36.9753 22.9138 37.0089 22.8864 37.0359 22.853C37.0982 22.7664 37.1387 22.666 37.1538 22.5604C37.1637 22.495 37.1698 22.4291 37.1722 22.363C36.5955 22.4056 35.6481 21.5107 34.445 20.0902C33.1751 18.6044 32.4563 17.4013 32.6907 16.907C32.6169 16.8944 32.5424 16.8858 32.4677 16.8814Z" fill="url(#paint2_linear_328_14335)"/>
<path d="M27.8588 30.4965C27.9053 30.4025 27.9406 30.3033 27.9639 30.201C28.0236 29.9602 28.071 29.7165 28.106 29.4709V29.5021C28.0974 29.3341 28.1295 29.1664 28.1997 29.0135C28.2354 28.9451 28.2836 28.8839 28.3417 28.8331C27.5122 28.2536 27.0349 27.684 26.3915 26.9524C25.748 26.1953 25.2665 25.647 24.8048 24.7266L24.7835 24.6953C24.7087 24.7372 24.6296 24.771 24.5477 24.7962C24.3893 24.8453 24.2249 24.8721 24.0591 24.8757H24.0491L23.9611 24.8473C23.761 24.7681 23.5468 24.7313 23.3318 24.7393C23.2572 24.7454 23.1855 24.7714 23.1244 24.8146C23.0985 24.8334 23.0752 24.8553 23.0548 24.88C23.0363 24.9084 23.0548 24.9141 23.0349 24.9268C23.0119 25.0795 23.0236 25.2353 23.069 25.3828C23.0951 25.5124 23.1381 25.638 23.1968 25.7564C23.6418 26.6293 24.1939 27.4434 24.8403 28.1797C25.4653 28.9338 26.1809 29.608 26.971 30.1868C27.161 30.3128 27.3605 30.4239 27.5676 30.5192C27.7565 30.6044 27.7295 30.5192 27.8034 30.5064C27.8148 30.5064 27.8474 30.4922 27.8375 30.5135C27.8275 30.5348 27.8432 30.5192 27.8588 30.4965Z" fill="url(#paint3_linear_328_14335)"/>
<path d="M45.6558 37.4926C45.6797 37.5105 45.7066 37.524 45.7353 37.5323C45.8673 37.3279 46.0472 37.1586 46.2593 37.0393C46.4714 36.92 46.7094 36.8543 46.9527 36.8477C47.2931 36.8441 47.6238 36.9614 47.8859 37.1786C47.8955 37.1712 47.9041 37.1626 47.9115 37.1531C47.9235 37.1391 47.9323 37.1226 47.937 37.1048C47.6586 36.9098 47.4575 36.6232 47.3689 36.2951C47.313 36.0717 47.3095 35.8383 47.3588 35.6133C47.4081 35.3884 47.5088 35.1778 47.653 34.9982C47.6417 34.9705 47.6242 34.9457 47.6018 34.9258C47.5768 34.9108 47.5494 34.9002 47.5208 34.8945C47.3863 35.082 47.2103 35.2358 47.0065 35.3439C46.8028 35.4521 46.5767 35.5117 46.3461 35.5181C45.9975 35.5207 45.6597 35.3977 45.3944 35.1715C45.3745 35.1786 45.3731 35.1815 45.3561 35.2042C45.3561 35.2042 45.3333 35.2326 45.3362 35.2425C45.6257 35.4386 45.8346 35.7327 45.9243 36.0707C45.9819 36.3073 45.9813 36.5543 45.9224 36.7906C45.8635 37.0269 45.7481 37.2453 45.5862 37.4272C45.6047 37.4535 45.6284 37.4757 45.6558 37.4926Z" fill="#7D5CE3"/>
<path d="M56.6294 36.9546C56.6294 36.9546 49.3481 41.7842 43.0853 39.6535L43.0455 39.6393L42.9177 39.5924C42.51 39.4404 42.1023 39.2657 41.689 39.0668C41.4603 38.9589 41.2288 38.8424 40.9972 38.716H40.9873L40.956 38.6975C40.8651 38.6478 40.7742 38.5981 40.6833 38.5455L40.4716 38.422L40.4134 38.385C40.1478 38.2259 39.8921 38.0583 39.6449 37.885C39.5867 37.8452 39.527 37.8041 39.4688 37.7614L39.3665 37.6862C37.2693 36.0905 35.554 34.0477 34.3452 31.706C32.4461 32.5015 31.1776 31.0228 32.3765 29.2912C32.1206 28.8575 31.8119 28.4572 31.4574 28.0995L31.3907 28.1364C31.598 29.912 29.8978 29.9702 28.8338 29.1393C28.6918 29.6819 28.9958 30.2941 28.7898 30.8765C28.5057 31.7998 27.2614 31.5299 26.6506 31.2131C25.5739 32.8992 20.1506 27.993 22.1733 26.1151C21.777 25.2458 21.902 23.5966 23.2415 23.76C23.7571 23.7884 24.0256 24.2231 24.5199 24.0952C23.919 22.9674 24.0796 21.3182 25.75 21.7103C26.8111 20.9404 27.8935 20.2074 29.027 19.5384C28.6861 17.0185 30.6563 19.3424 31.4319 18.5654C30.8963 17.5796 31.098 15.6747 32.6208 16.5327C33.6151 15.6946 39.0128 21.9304 37.75 22.6875C38.1435 23.9972 36.5043 23.9972 35.7614 23.466C34.9475 23.6918 35.5711 24.4603 35.6336 25.0072C35.7898 26.1932 34.3168 25.8822 33.7358 25.4333C33.5171 25.7174 33.2945 25.9953 33.0682 26.2671C33.3381 26.6023 34.1549 27.5981 34.4233 27.6876C36.1847 26.993 37.4063 28.2557 36.4759 29.8722L37.8623 31.3367C39.0753 32.5147 40.6567 33.2395 42.341 33.3893C42.7489 33.4187 43.1583 33.4235 43.5668 33.4035C43.9533 33.3797 44.3377 33.3298 44.7174 33.2543C50.9674 32.1762 55.074 26.9461 55.074 20.7216C55.074 16.3551 51.9873 12.2656 47.6549 9.94887C45.0284 8.69139 42.1577 8.0261 39.2458 8C39.1194 8.0071 38.993 8.00852 38.8665 8.01847C38.1486 8.01891 37.4312 8.05779 36.7174 8.13494C26.7571 9.29404 19 17.7941 19 28.0924C19 39.172 27.9901 48.1904 39.0412 48.1904C41.9786 48.1906 44.8796 47.5401 47.5356 46.2856C51.4947 44.2422 54.6846 40.9702 56.6265 36.9603L56.6294 36.9546ZM40.8722 18.8708C40.9077 18.8253 40.9106 18.8196 40.9489 18.8068C41.4806 19.2591 42.1572 19.5051 42.8552 19.5C43.3171 19.4878 43.7699 19.3688 44.1783 19.1524C44.5866 18.9361 44.9393 18.6282 45.2089 18.2529C45.2661 18.2624 45.3211 18.2826 45.3708 18.3125C45.4153 18.3518 45.4507 18.4002 45.4745 18.4546C45.1835 18.8136 44.9795 19.235 44.8785 19.686C44.7774 20.137 44.7821 20.6052 44.8921 21.054C45.0687 21.7114 45.471 22.2856 46.0285 22.6762C46.0183 22.7126 45.9998 22.7461 45.9745 22.7742C45.9602 22.7929 45.9435 22.8096 45.9248 22.8239C45.3994 22.3904 44.738 22.156 44.0569 22.162C43.5693 22.1755 43.0923 22.3073 42.6669 22.5461C42.2415 22.7849 41.8806 23.1235 41.6151 23.5327C41.5577 23.5179 41.504 23.4913 41.4574 23.4546C41.4108 23.4174 41.3701 23.3734 41.3367 23.3239C41.6615 22.9595 41.8929 22.5217 42.0112 22.0482C42.1294 21.5746 42.131 21.0794 42.0157 20.6051C41.8353 19.9282 41.4167 19.3391 40.8367 18.9461C40.8282 18.9276 40.8694 18.8708 40.8722 18.8708ZM37.9844 13.3452C38.0476 13.2623 38.134 13.2 38.2326 13.1663C38.3312 13.1325 38.4376 13.1287 38.5384 13.1554C38.6391 13.182 38.7297 13.238 38.7986 13.3162C38.8676 13.3943 38.9118 13.4912 38.9257 13.5945C38.9396 13.6978 38.9226 13.8029 38.8768 13.8965C38.8309 13.9901 38.7584 14.068 38.6683 14.1204C38.5782 14.1728 38.4745 14.1973 38.3705 14.1908C38.2665 14.1842 38.1667 14.147 38.0839 14.0838C37.9729 13.9986 37.9002 13.8729 37.8816 13.7343C37.863 13.5956 37.8999 13.4553 37.9844 13.3438V13.3452ZM28.4148 12.6705C28.478 12.5876 28.5644 12.5253 28.663 12.4915C28.7616 12.4578 28.868 12.454 28.9687 12.4806C29.0695 12.5073 29.1601 12.5633 29.229 12.6415C29.298 12.7196 29.3422 12.8165 29.3561 12.9198C29.37 13.0231 29.353 13.1282 29.3071 13.2218C29.2613 13.3154 29.1887 13.3933 29.0986 13.4457C29.0085 13.4981 28.9049 13.5225 28.8009 13.516C28.6969 13.5095 28.5971 13.4723 28.5142 13.4091C28.459 13.3673 28.4127 13.3149 28.3778 13.2551C28.3429 13.1952 28.3202 13.1291 28.3109 13.0605C28.3017 12.9918 28.3061 12.922 28.3239 12.8551C28.3418 12.7882 28.3726 12.7254 28.4148 12.6705ZM26.3012 14.2216C26.403 14.087 26.5426 13.9857 26.7021 13.9305C26.8617 13.8753 27.034 13.8688 27.1973 13.9117C27.3606 13.9546 27.5074 14.045 27.6192 14.1715C27.7311 14.2979 27.8028 14.4548 27.8253 14.6221C27.8479 14.7894 27.8203 14.9596 27.746 15.1112C27.6716 15.2628 27.554 15.3888 27.4079 15.4735C27.2618 15.5581 27.0939 15.5974 26.9254 15.5864C26.757 15.5755 26.5956 15.5148 26.4617 15.412C26.2834 15.2747 26.1667 15.0725 26.1369 14.8496C26.1071 14.6266 26.1666 14.4008 26.3026 14.2216H26.3012ZM29.0838 36.4205C29.0205 36.5032 28.9341 36.5653 28.8355 36.5988C28.7369 36.6324 28.6306 36.6361 28.53 36.6093C28.4293 36.5825 28.3389 36.5265 28.2701 36.4484C28.2012 36.3702 28.1571 36.2734 28.1432 36.1702C28.1293 36.067 28.1464 35.962 28.1921 35.8684C28.2379 35.7749 28.3104 35.697 28.4004 35.6446C28.4904 35.5922 28.5939 35.5676 28.6978 35.574C28.8018 35.5804 28.9015 35.6175 28.9844 35.6805C29.0397 35.7223 29.0863 35.7747 29.1213 35.8346C29.1563 35.8946 29.1792 35.9608 29.1886 36.0296C29.1979 36.0983 29.1936 36.1683 29.1759 36.2353C29.1582 36.3024 29.1274 36.3654 29.0853 36.4205H29.0838ZM32.6463 43.6336C32.5286 43.788 32.3677 43.9041 32.1841 43.967C32.0004 44.03 31.8021 44.0371 31.6144 43.9874C31.4267 43.9376 31.258 43.8334 31.1296 43.6877C31.0011 43.5421 30.9188 43.3616 30.893 43.1692C30.8671 42.9767 30.8989 42.781 30.9844 42.6066C31.0698 42.4322 31.2051 42.2871 31.373 42.1897C31.541 42.0922 31.734 42.0467 31.9278 42.059C32.1216 42.0713 32.3074 42.1407 32.4617 42.2586C32.5643 42.3366 32.6505 42.4341 32.7154 42.5454C32.7803 42.6567 32.8226 42.7798 32.8399 42.9075C32.8572 43.0352 32.8491 43.1651 32.8162 43.2897C32.7832 43.4143 32.726 43.5312 32.6478 43.6336H32.6463ZM42.9617 42.6137C42.8984 42.6965 42.8119 42.7586 42.7132 42.7923C42.6145 42.8259 42.5081 42.8295 42.4074 42.8026C42.3067 42.7758 42.2162 42.7196 42.1474 42.6413C42.0786 42.563 42.0345 42.4661 42.0208 42.3628C42.0071 42.2594 42.0243 42.1543 42.0704 42.0608C42.1164 41.9673 42.1891 41.8895 42.2793 41.8373C42.3695 41.7851 42.4732 41.7608 42.5772 41.7675C42.6813 41.7743 42.781 41.8117 42.8637 41.8751C42.9189 41.9169 42.9653 41.9693 43.0001 42.0291C43.035 42.089 43.0577 42.1551 43.067 42.2237C43.0762 42.2924 43.0718 42.3622 43.054 42.4291C43.0362 42.496 43.0053 42.5588 42.9631 42.6137H42.9617Z" fill="url(#paint4_linear_328_14335)"/>
<path d="M67.2529 29.7978H63.4957L62.9134 31.5634H59.8125L63.6875 21.0137H67.0852L70.9461 31.5634H67.8352L67.2529 29.7978ZM66.5185 27.5833L65.3821 24.1415L64.2301 27.5833H66.5185Z" fill="#7E57E4"/>
<path d="M77.6428 23.8715C78.3017 24.411 78.7427 25.171 78.8842 26.0108H76.1385C76.0877 25.7401 75.9352 25.4992 75.7124 25.3375C75.4804 25.1823 75.2057 25.1038 74.9269 25.113C74.7482 25.1002 74.5708 25.1504 74.4254 25.2551C74.3682 25.3034 74.3228 25.3643 74.293 25.4331C74.2632 25.5018 74.2497 25.5765 74.2536 25.6514C74.2536 25.8616 74.3757 26.0179 74.62 26.123C75.0115 26.272 75.4143 26.3894 75.8246 26.4738C76.3705 26.5853 76.9078 26.7353 77.4325 26.9227C77.8609 27.0858 78.2418 27.3534 78.5405 27.7011C78.8539 28.06 79.0111 28.5439 79.0121 29.1528C79.0191 29.619 78.8773 30.0753 78.6073 30.4554C78.3087 30.8579 77.901 31.1665 77.4325 31.3446C76.854 31.572 76.2358 31.6816 75.6144 31.667C74.4373 31.667 73.4998 31.4128 72.8018 30.9042C72.1039 30.3957 71.6778 29.6675 71.5234 28.7196H74.3516C74.3621 28.8566 74.4034 28.9896 74.4722 29.1086C74.541 29.2276 74.6357 29.3296 74.7493 29.4071C75.0041 29.5665 75.3013 29.6448 75.6016 29.6315C75.7879 29.6444 75.9728 29.5916 76.1243 29.4824C76.1824 29.4358 76.2289 29.3765 76.2602 29.309C76.2915 29.2414 76.3068 29.1676 76.3047 29.0932C76.3048 28.9766 76.2679 28.8629 76.1992 28.7687C76.1305 28.6745 76.0336 28.6046 75.9226 28.569C75.5279 28.4206 75.1197 28.3107 74.7038 28.2409C74.1699 28.14 73.6446 27.9975 73.1328 27.8147C72.7197 27.6577 72.3518 27.401 72.0618 27.0676C71.7493 26.721 71.593 26.2442 71.593 25.6372C71.5847 25.2802 71.6603 24.9262 71.8138 24.6037C71.9672 24.2813 72.1943 23.9993 72.4766 23.7806C73.0646 23.3015 73.9022 23.0647 74.9894 23.0704C76.1002 23.0657 76.9846 23.3327 77.6428 23.8715Z" fill="#7C57E4"/>
<path d="M85.299 29.0486V31.5628H84.0874C83.059 31.5628 82.254 31.3085 81.6726 30.8C81.0912 30.2915 80.8018 29.4487 80.8047 28.2716V25.6224H79.7266V23.1679H80.8047V21.1338H83.7521V23.1679H85.2635V25.6224H83.7578V28.3313C83.748 28.4304 83.7582 28.5305 83.7877 28.6256C83.8172 28.7208 83.8655 28.8091 83.9297 28.8852C84.0945 29.0103 84.3005 29.0686 84.5064 29.0486H85.299Z" fill="#844EEE"/>
<path d="M90.831 23.5426C91.3077 23.2493 91.8565 23.0939 92.4162 23.0938V26.2358H91.5639C90.901 26.2358 90.4072 26.3632 90.0824 26.6179C89.7576 26.8726 89.5928 27.3139 89.5881 27.9418V31.5625H86.6406V23.1676H89.5881V24.7386C89.906 24.2506 90.3311 23.8415 90.831 23.5426Z" fill="#8350E5"/>
<path d="M99.6051 23.5801C100.26 23.9171 100.803 24.4372 101.168 25.0772C101.541 25.7813 101.736 26.566 101.736 27.3628C101.736 28.1596 101.541 28.9442 101.168 29.6483C100.8 30.2854 100.258 30.8042 99.6051 31.144C98.9032 31.489 98.1315 31.6684 97.3494 31.6684C96.5673 31.6684 95.7956 31.489 95.0937 31.144C94.437 30.807 93.8915 30.2876 93.5227 29.6483C93.1487 28.943 92.9531 28.1568 92.9531 27.3585C92.9531 26.5602 93.1487 25.774 93.5227 25.0687C93.8904 24.4303 94.4364 23.913 95.0937 23.5801C95.7972 23.2407 96.5683 23.0645 97.3494 23.0645C98.1305 23.0645 98.9015 23.2407 99.6051 23.5801ZM96.338 26.0574C96.0681 26.3557 95.9346 26.7903 95.9346 27.3585C95.9346 27.9267 96.0681 28.3755 96.338 28.6753C96.4642 28.8202 96.6207 28.9355 96.7965 29.0131C96.9723 29.0907 97.163 29.1286 97.3551 29.1241C97.5456 29.1277 97.7346 29.0886 97.9081 29.0097C98.0816 28.9308 98.2353 28.8141 98.3579 28.6682C98.6278 28.3642 98.7627 27.9276 98.7627 27.3585C98.7627 26.7894 98.6278 26.3557 98.3579 26.0574C98.234 25.9133 98.08 25.7983 97.9067 25.7204C97.7333 25.6426 97.545 25.6039 97.3551 25.6071C97.1624 25.6025 96.9711 25.6404 96.7948 25.7183C96.6185 25.7961 96.4616 25.9119 96.3352 26.0574H96.338Z" fill="#8848F0"/>
<path d="M109.877 20.9688V28.0014C109.877 29.1984 109.563 30.1084 108.934 30.7316C108.305 31.3547 107.422 31.6667 106.285 31.6676C105.059 31.6676 104.089 31.3286 103.374 30.6506C102.659 29.9726 102.303 28.9849 102.305 27.6875H105.208C105.208 28.5758 105.523 29.0194 106.151 29.0185C106.68 29.0185 106.944 28.6795 106.944 28.0014V20.9688H109.877Z" fill="#8A49E4"/>
<path d="M120.068 23.168V31.5629H117.136V30.1566C116.895 30.607 116.532 30.9802 116.088 31.2333C115.596 31.5118 115.038 31.6518 114.473 31.6382C113.504 31.6382 112.743 31.3162 112.19 30.6722C111.637 30.0283 111.36 29.1481 111.359 28.0316V23.168H114.293V27.6779C114.268 28.0919 114.405 28.4994 114.675 28.8143C114.806 28.9521 114.965 29.0601 115.142 29.1309C115.319 29.2018 115.509 29.2338 115.699 29.2248C115.893 29.234 116.088 29.2014 116.269 29.1291C116.449 29.0568 116.613 28.9466 116.747 28.8058C117.006 28.5217 117.136 28.1325 117.136 27.6239V23.168H120.068Z" fill="#8C46E2"/>
<path d="M126.337 23.4448C126.758 23.6898 127.093 24.0583 127.296 24.5002V20.4902H130.244V31.5698H127.296V30.2346C127.092 30.6761 126.758 31.0441 126.337 31.2886C125.873 31.5522 125.346 31.6843 124.812 31.6707C124.171 31.6788 123.541 31.4991 123.001 31.1536C122.44 30.7882 121.996 30.2689 121.722 29.6579C121.416 28.9322 121.258 28.1524 121.258 27.3645C121.258 26.5767 121.416 25.7969 121.722 25.0712C121.998 24.4632 122.441 23.9466 123.001 23.5826C123.541 23.2381 124.171 23.0589 124.812 23.0669C125.345 23.052 125.873 23.1826 126.337 23.4448ZM124.67 26.0939C124.386 26.3979 124.244 26.8198 124.244 27.3582C124.244 27.8965 124.386 28.334 124.67 28.6366C124.812 28.7877 124.985 28.9066 125.177 28.9852C125.369 29.0639 125.576 29.1005 125.783 29.0925C125.988 29.0977 126.192 29.059 126.381 28.9789C126.569 28.8987 126.739 28.7791 126.877 28.628C127.161 28.3198 127.31 27.8951 127.31 27.3567C127.31 26.8184 127.168 26.4093 126.877 26.0996C126.733 25.954 126.561 25.8385 126.371 25.7596C126.182 25.6808 125.979 25.6402 125.773 25.6402C125.568 25.6402 125.365 25.6808 125.176 25.7596C124.986 25.8385 124.814 25.954 124.67 26.0996V26.0939Z" fill="#8F41EB"/>
<path d="M136.518 23.4447C136.942 23.6877 137.28 24.0566 137.484 24.5001V23.1677H140.411V31.4731C140.421 32.2038 140.267 32.9275 139.96 33.591C139.66 34.2257 139.176 34.755 138.57 35.1095C137.94 35.4883 137.147 35.6776 136.19 35.6776C134.884 35.6776 133.842 35.3732 133.065 34.7643C132.289 34.1554 131.838 33.3225 131.712 32.2657H134.599C134.659 32.5306 134.82 32.7616 135.048 32.9092C135.329 33.0724 135.651 33.1504 135.976 33.1336C136.974 33.1336 137.473 32.5801 137.473 31.4731V30.2344C137.268 30.6776 136.931 31.046 136.507 31.2884C136.04 31.5516 135.51 31.6836 134.974 31.6705C134.333 31.6787 133.704 31.499 133.163 31.1535C132.603 30.7875 132.159 30.2684 131.885 29.6577C131.579 28.9318 131.422 28.1521 131.422 27.3644C131.422 26.5768 131.579 25.797 131.885 25.0711C132.161 24.4634 132.604 23.947 133.163 23.5824C133.704 23.238 134.333 23.0588 134.974 23.0668C135.514 23.0504 136.048 23.181 136.518 23.4447ZM134.842 26.0938C134.558 26.3978 134.416 26.8192 134.416 27.358C134.416 27.8968 134.558 28.323 134.842 28.6364C134.984 28.7876 135.156 28.9069 135.347 28.9865C135.538 29.0661 135.743 29.1041 135.95 29.0981C136.155 29.1034 136.358 29.0646 136.547 28.9845C136.735 28.9044 136.904 28.7847 137.043 28.6336C137.332 28.3249 137.477 27.9011 137.477 27.3623C137.477 26.8235 137.332 26.4044 137.043 26.1052C136.904 25.9545 136.735 25.8352 136.547 25.7553C136.358 25.6754 136.155 25.6368 135.95 25.6421C135.743 25.6338 135.536 25.6698 135.344 25.7477C135.152 25.8256 134.978 25.9436 134.835 26.0938H134.842Z" fill="#983BE2"/>
<path d="M150.014 27.8964H144.465C144.514 28.8433 144.929 29.3168 145.708 29.3168C145.961 29.3255 146.211 29.2517 146.418 29.1066C146.606 28.9708 146.743 28.7764 146.808 28.554H149.92C149.812 29.1381 149.56 29.686 149.187 30.1478C148.802 30.6259 148.31 31.0073 147.751 31.2614C147.155 31.535 146.506 31.6732 145.85 31.6663C145.078 31.6821 144.314 31.5043 143.629 31.1492C142.99 30.8105 142.467 30.29 142.124 29.6535C141.77 28.9408 141.586 28.1559 141.586 27.3601C141.586 26.5644 141.77 25.7794 142.124 25.0668C142.47 24.4319 142.996 23.9138 143.636 23.5782C144.325 23.2401 145.082 23.0637 145.849 23.0625C146.617 23.0613 147.375 23.2352 148.065 23.5711C148.692 23.8994 149.209 24.404 149.553 25.0228C149.918 25.6923 150.101 26.4454 150.085 27.2074C150.084 27.4389 150.06 27.6697 150.014 27.8964ZM146.747 25.6975C146.501 25.4756 146.179 25.3575 145.849 25.3679C145.502 25.3528 145.162 25.4707 144.898 25.6975C144.636 25.9542 144.484 26.3023 144.472 26.6691H147.09C147.109 26.2415 146.995 25.9162 146.755 25.6975H146.747Z" fill="#923FDC"/>
<defs>
<linearGradient id="paint0_linear_328_14335" x1="25.4382" y1="24.3891" x2="33.1769" y2="24.3891" gradientUnits="userSpaceOnUse">
<stop stop-color="#6F76FE"/>
<stop offset="0.99" stop-color="#6F76FE"/>
</linearGradient>
<linearGradient id="paint1_linear_328_14335" x1="29.6911" y1="22.062" x2="35.3232" y2="22.062" gradientUnits="userSpaceOnUse">
<stop stop-color="#6F76FE"/>
<stop offset="0.99" stop-color="#6F76FE"/>
</linearGradient>
<linearGradient id="paint2_linear_328_14335" x1="31.8825" y1="19.9326" x2="37.1722" y2="19.9326" gradientUnits="userSpaceOnUse">
<stop stop-color="#6F76FE"/>
<stop offset="0.99" stop-color="#6F76FE"/>
</linearGradient>
<linearGradient id="paint3_linear_328_14335" x1="23.0221" y1="27.6257" x2="28.3375" y2="27.6257" gradientUnits="userSpaceOnUse">
<stop stop-color="#6F76FE"/>
<stop offset="0.99" stop-color="#6F76FE"/>
</linearGradient>
<linearGradient id="paint4_linear_328_14335" x1="13.196" y1="-15.5427" x2="56.8822" y2="60.1251" gradientUnits="userSpaceOnUse">
<stop stop-color="#21D4FD"/>
<stop offset="0.04" stop-color="#29CBFD"/>
<stop offset="0.12" stop-color="#3EB1FE"/>
<stop offset="0.16" stop-color="#4F9DFE"/>
<stop offset="0.41" stop-color="#6583FE"/>
<stop offset="0.93" stop-color="#9D3FFF"/>
<stop offset="1" stop-color="#A536FF"/>
</linearGradient>
</defs>
</svg>
