<svg id="TBI-English" xmlns="http://www.w3.org/2000/svg" width="51.852" height="51.98" viewBox="0 0 51.852 51.98">
  <path id="Path_1" data-name="Path 1" d="M38.38,22.874H31.766V16.287A14.807,14.807,0,0,0,16.959,1.48h-.713A14.8,14.8,0,0,0,1.44,16.285V53.2H38.332A14.831,14.831,0,0,0,53.162,38.37v-.713A14.784,14.784,0,0,0,38.379,22.873Z" transform="translate(-1.365 -1.403)" fill="#004697"/>
  <path id="Path_2" data-name="Path 2" d="M105.667,217.372a5.043,5.043,0,0,1,1.374-.143h3v-2.406h1.452V213.5H102.81v1.323h5.8v1.062h-1.732a4.275,4.275,0,0,0-2.649.657,2.506,2.506,0,0,0-.834,2.068,2.564,2.564,0,0,0,.993,2.266,5.06,5.06,0,0,0,2.857.667,8.048,8.048,0,0,0,1.6-.138v1.452h1.429v-2.185a1.334,1.334,0,0,0,.293-.837.916.916,0,0,0-.405-.827,2.035,2.035,0,0,0-1.1-.239h-.15l-.527,1.274a7.1,7.1,0,0,1-2.648-.049,1.08,1.08,0,0,1-.655-.433,1.718,1.718,0,0,1-.2-.906,1.7,1.7,0,0,1,.186-.871A.993.993,0,0,1,105.667,217.372Z" transform="translate(-97.477 -202.425)" fill="#fff"/>
  <path id="Path_3" data-name="Path 3" d="M125.862,417.32H110.831V416.6a2.284,2.284,0,0,0-.492-1.543,2.929,2.929,0,0,0-1.613-.819A14.261,14.261,0,0,0,105.78,414h-.216v1.349h.216a17.3,17.3,0,0,1,2.395.12,1.672,1.672,0,0,1,.968.392,1.345,1.345,0,0,1,.259.915v.544H102.81v1.321h6.446V419.8a6.781,6.781,0,0,0-.811-.194,8.09,8.09,0,0,0-1.375-.1,4.756,4.756,0,0,0-2.659.593,2.812,2.812,0,0,0-.008,4.082,4.606,4.606,0,0,0,2.654.6,8.128,8.128,0,0,0,1.39-.1,6.091,6.091,0,0,0,.811-.2v1.58h1.429V418.64h6.409v1.209h-.179a6.989,6.989,0,0,0-3.445.659,2.457,2.457,0,0,0-1.152,2.287,2.549,2.549,0,0,0,1.046,2.274,5.186,5.186,0,0,0,2.891.684,7.58,7.58,0,0,0,2.723-.446l.131-.052v-1.43l-.3.119a6.85,6.85,0,0,1-2.49.415,3.72,3.72,0,0,1-1.939-.388,1.6,1.6,0,0,1-.27-2.162,1.841,1.841,0,0,1,.975-.464,10.3,10.3,0,0,1,1.98-.149h1.461V418.64h3.932a2.678,2.678,0,0,1,.456.726,2.313,2.313,0,0,1,.2.924.845.845,0,0,1-.494.87,5.216,5.216,0,0,1-1.912.251h-.8v1.1l3.189,3.552h1.682v-.276l-2.826-3.064a3.718,3.718,0,0,0,1.9-.555,1.987,1.987,0,0,0,.746-1.716,4.453,4.453,0,0,0-.145-1.119,4.563,4.563,0,0,0-.237-.689h1.641Zm-16.606,3.745v1.909l-2.645-2.113c.184-.008.392-.011.622-.011a10.863,10.863,0,0,1,1.253.06,5,5,0,0,1,.772.156Zm-1.374,2.358c-.185.008-.387.012-.608.012a7.366,7.366,0,0,1-1.521-.117.976.976,0,0,1-.616-.349,1.5,1.5,0,0,1-.181-.827,1.887,1.887,0,0,1,.094-.645.729.729,0,0,1,.137-.233l2.7,2.159Z" transform="translate(-97.477 -392.525)" fill="#59ffb9"/>
  <path id="Path_4" data-name="Path 4" d="M209.452,696.085a1.053,1.053,0,0,0,.744-.255,1.051,1.051,0,0,0,0-1.426,1.04,1.04,0,0,0-.744-.255,1.051,1.051,0,0,0-.744.255,1.051,1.051,0,0,0,0,1.426A1.04,1.04,0,0,0,209.452,696.085Z" transform="translate(-197.618 -658.143)" fill="#fff"/>
  <path id="Path_5" data-name="Path 5" d="M113.531,679.807a2.687,2.687,0,0,1-.21-1.009.947.947,0,0,1,.345-.845,2.676,2.676,0,0,1,1.417-.25,7.094,7.094,0,0,1,2.4.385,7.423,7.423,0,0,1,2.19,1.307l.363.3v-1.477l-.072-.058a7.678,7.678,0,0,0-4.906-1.781,4.006,4.006,0,0,0-2.324.576,1.944,1.944,0,0,0-.837,1.681,3.181,3.181,0,0,0,.219,1.17h-9.3v1.32h5.772v.878h-2.42a2.92,2.92,0,0,0-1.874.48,1.78,1.78,0,0,0-.6,1.456,2.021,2.021,0,0,0,.588,1.548,1.88,1.88,0,0,0,.545.347l.022.009c.027.011.052.022.083.032l.012,0c.171.052.415.1.5.119l.032.006a4.463,4.463,0,0,0,1.206-.018c.246-.033.487-.071.716-.113a6.109,6.109,0,0,1,1.052-.131.841.841,0,0,1,.538.136.614.614,0,0,1,.156.48.7.7,0,0,1-.341.667,3.116,3.116,0,0,1-1.452.222,6.263,6.263,0,0,1-1.49-.148l-.442-1.057a1.758,1.758,0,0,0-1.127-.021l-.021.007c-.03.011-.059.025-.08.034l-.029.013a.625.625,0,0,0-.055.033.9.9,0,0,0-.415.816,1.23,1.23,0,0,0,.309.83v2.114h1.428v-1.4a8.2,8.2,0,0,0,1.776.17,4.692,4.692,0,0,0,2.576-.548,2.027,2.027,0,0,0,.849-1.808,1.962,1.962,0,0,0-.475-1.389,2.213,2.213,0,0,0-1.66-.525,5.392,5.392,0,0,0-.729.052c-.242.033-.47.071-.678.112a6.254,6.254,0,0,1-1.1.132,1.066,1.066,0,0,1-.639-.147.652.652,0,0,1-.171-.531.548.548,0,0,1,.2-.494,1.779,1.779,0,0,1,.906-.148h3.762v-2.223h2.22v7.418h1.428v-7.418h6.484V682h-2.437a2.918,2.918,0,0,0-1.874.48,1.765,1.765,0,0,0-.6,1.445,2.043,2.043,0,0,0,.587,1.553,2.392,2.392,0,0,0,1.7.556,5.4,5.4,0,0,0,.712-.052c.252-.033.5-.071.738-.112a6.442,6.442,0,0,1,1.042-.132.8.8,0,0,1,.523.136.612.612,0,0,1,.156.48.684.684,0,0,1-.363.663,3.605,3.605,0,0,1-1.588.225,8.618,8.618,0,0,1-3.309-.585l-.307-.127v1.427l.114.055a6.092,6.092,0,0,0,1.563.456,11.448,11.448,0,0,0,1.968.17,4.481,4.481,0,0,0,2.565-.576,2.05,2.05,0,0,0,.845-1.792,1.951,1.951,0,0,0-.476-1.377,2.164,2.164,0,0,0-1.631-.525,5.421,5.421,0,0,0-.721.052c-.243.032-.481.069-.706.11-.085.009-.248.034-.494.074a3.967,3.967,0,0,1-.643.059.989.989,0,0,1-.609-.147.657.657,0,0,1-.171-.531.548.548,0,0,1,.2-.494,1.785,1.785,0,0,1,.907-.148H121.6v-2.223h2.847a2.072,2.072,0,0,1,.442,1.193.635.635,0,0,1-.259.59,2.341,2.341,0,0,1-1.165.186h-.627v.379a2.7,2.7,0,0,0,1.014,2.291,4.63,4.63,0,0,0,2.821.752,6.933,6.933,0,0,0,1.79-.219v2.246h1.43v-7.417h2.379v7.417h1.43v-7.417h1.553v-1.319Zm14.93,5.153a8.1,8.1,0,0,1-1.7.166,4.93,4.93,0,0,1-1.737-.241,1.291,1.291,0,0,1-.648-.523,2.518,2.518,0,0,0,1.407-.443,1.7,1.7,0,0,0,.594-1.423,2.5,2.5,0,0,0-.142-.852,2.837,2.837,0,0,0-.259-.514h2.486v3.832Z" transform="translate(-97.477 -641.295)" fill="#fff"/>
  <g id="Group_51" data-name="Group 51" transform="translate(0 0)">
    <path id="Path_6" data-name="Path 6" d="M37.03,21.5H30.4V14.88A14.862,14.862,0,0,0,15.558,0h-.715A14.862,14.862,0,0,0,0,14.88v37.1H36.985a14.886,14.886,0,0,0,14.867-14.9v-.717A14.838,14.838,0,0,0,37.033,21.5" transform="translate(0 0)" fill="#004697" fill-rule="evenodd"/>
  </g>
  <path id="Path_7" data-name="Path 7" d="M94.105,469.468c0-1.462-.363-2.362-1.541-2.362s-1.54.9-1.54,2.362.363,2.362,1.54,2.362,1.541-.9,1.541-2.362m1.945-.009c0,2.669-1.162,3.791-2.957,3.791a2.045,2.045,0,0,1-1.978-.9v.781H89.2V464.05H88.47v-1.42H90.8a.316.316,0,0,1,.315.316v3.533a2.4,2.4,0,0,1,1.994-.818c1.78,0,2.941,1.131,2.941,3.8m11.674,3.774h0Zm1.575-1.421H108c-.9-.109-.9-.8-.9-1.478v-3.146h1.87v-1.421h-1.867v-2.179h-1.919v7.019a2.286,2.286,0,0,0,2.542,2.624l.08,0h1.565v-1.421H109.3Zm4.937,0h-1.3c-.9-.109-.9-.8-.9-1.478v-3.146h1.867v-1.421h-1.867v-2.179h-1.919v7.019a2.286,2.286,0,0,0,2.542,2.624l.079,0h1.565v-1.421Zm4.144-4.848c-1,0-1.458.578-1.452,1.917h2.9c.008-1.338-.453-1.917-1.452-1.917m-3.443,2.495c0-2.452,1.145-3.832,3.5-3.832,2.1,0,3.361,1.089,3.361,3.838v.368a.407.407,0,0,1-.406.4h-4.442c-.008,1.109.84,1.6,2.158,1.6a4.338,4.338,0,0,0,1.664-.345v1.437a3.979,3.979,0,0,1-1.935.363c-2.315,0-3.9-.95-3.9-3.824m-14.346-2.5c-1,0-1.458.578-1.452,1.917h2.9c.008-1.338-.453-1.917-1.452-1.917m-3.444,2.495c0-2.452,1.145-3.832,3.5-3.832,2.1,0,3.361,1.089,3.361,3.838,0,.124,0,.253,0,.368a.407.407,0,0,1-.406.4h-4.44c-.01,1.106.84,1.594,2.158,1.594a4.341,4.341,0,0,0,1.664-.345v1.437a3.986,3.986,0,0,1-1.936.363c-2.315,0-3.9-.95-3.9-3.824m30.145-3.824a2.073,2.073,0,0,0-1.983,1.314v-.865a.316.316,0,0,0-.315-.316h-2.377v1.421h.856v5.948H125.3v-3.38a2.7,2.7,0,0,1,.726-2.031,1.9,1.9,0,0,1,1.253-.381h.571v-1.712Z" transform="translate(-83.881 -438.633)" fill="#59ffb9" fill-rule="evenodd"/>
  <path id="Path_8" data-name="Path 8" d="M101.44,241.87a1.03,1.03,0,1,1,1.031,1.024A1,1,0,0,1,101.44,241.87Zm2,9.334h-1.913v-7.366h1.914V251.2Zm18.4-9.334a1.03,1.03,0,1,1,1.03,1.024.995.995,0,0,1-1.03-1.024Zm2,9.334h-1.911l0-7.366h1.914Zm-11.4,0H110.2a.316.316,0,0,1-.316-.316v-3.9c0-.644,0-1.825-1.154-1.825-1.367,0-1.452,1.669-1.452,2.56V251.2h-1.834v-5.945h-.726v-1.42h2.219a.316.316,0,0,1,.316.316v.682a2.117,2.117,0,0,1,2.132-1.124c2.422,0,2.422,2.04,2.422,3.04v3.032h.646Zm5.942-3.676c0-1.47-.363-2.379-1.541-2.379s-1.541.909-1.541,2.379.363,2.371,1.541,2.371S118.389,249,118.389,247.528Zm1.829,3.676h-1.923l.007-.781a2.051,2.051,0,0,1-1.98.9c-1.8,0-2.957-1.124-2.957-3.792s1.161-3.8,2.941-3.8a2.4,2.4,0,0,1,1.994.818V240.7h1.919Zm10.205-3.668c0-1.462-.363-2.362-1.541-2.362s-1.54.9-1.54,2.362.363,2.363,1.54,2.363S130.423,249,130.423,247.536Zm1.829,3.668h-1.771v-.882a2.376,2.376,0,0,1-2.142,1c-1.8,0-2.941-1.115-2.941-3.784s1.145-3.784,2.949-3.784a2.327,2.327,0,0,1,2.127.992v-.908h1.779Zm-26.639-27.218h-1.3c-.9-.109-.9-.8-.9-1.478V219.36h1.871V217.94h-1.867v-2.181H101.5v7.022a2.286,2.286,0,0,0,2.542,2.624v0h1.648v-1.421Zm8.327,1.421h-2.272a.316.316,0,0,1-.315-.317v-3.9c0-.644,0-1.825-1.154-1.825-1.368,0-1.368,1.669-1.368,2.561V225.4h-1.919V216.32h-.726V214.9h2.334a.316.316,0,0,1,.315.317v3.607a2.214,2.214,0,0,1,2.019-.909c2.423,0,2.423,2.04,2.423,3.04v3.031h.668Zm4.19-6.27c-1,0-1.459.578-1.452,1.919h2.9c.008-1.339-.453-1.919-1.452-1.919m-3.444,2.495c0-2.453,1.145-3.833,3.5-3.833,2.1,0,3.361,1.089,3.361,3.839v.369a.406.406,0,0,1-.406.4h-4.444c-.009,1.107.84,1.6,2.158,1.6a4.332,4.332,0,0,0,1.664-.346v1.437a3.976,3.976,0,0,1-1.935.363c-2.316,0-3.9-.949-3.9-3.823" transform="translate(-96.178 -203.753)" fill="#fff" fill-rule="evenodd"/>
</svg>
