<svg width="170" height="60" viewBox="0 0 170 60" fill="none" xmlns="http://www.w3.org/2000/svg">
<path d="M87.2669 25.6386H80.8125V10.4512H86.9877C90.1177 10.4512 91.8547 12.1042 91.8547 14.3678C91.8547 16.2164 90.761 17.3702 89.3032 17.8492C90.997 18.1545 92.1971 19.7417 92.1971 21.5263C92.1971 23.9417 90.3753 25.6386 87.2653 25.6386H87.2669ZM86.5588 12.9104H83.8145V16.7174H86.5588C87.9734 16.7174 88.7896 16.0646 88.7896 14.8249C88.7896 13.5851 87.9751 12.9104 86.5588 12.9104ZM86.7733 19.0687H83.8145V23.159H86.8381C88.2959 23.159 89.1536 22.4405 89.1536 21.1569C89.1536 19.8733 88.231 19.0687 86.7733 19.0687Z" fill="#366315"/>
<path d="M94.6094 9.53711H97.6114V15.0865C98.3826 14.0643 99.7124 13.4115 101.3 13.4115C103.979 13.4115 105.931 15.24 105.931 18.5679V25.6387H102.929V18.9812C102.929 17.0448 101.878 16.0007 100.291 16.0007C98.7035 16.0007 97.6114 17.0448 97.6114 18.9812V25.6387H94.6094V9.53711Z" fill="#366315"/>
<path d="M113.433 13.3904C115.342 13.3904 116.65 14.3046 117.358 15.3048V13.586H120.381V25.6394H117.358V23.8768C116.65 24.9209 115.3 25.8351 113.412 25.8351C110.41 25.8351 108.008 23.3337 108.008 19.5689C108.008 15.8041 110.41 13.3887 113.433 13.3887V13.3904ZM114.205 16.0672C112.597 16.0672 111.075 17.285 111.075 19.5706C111.075 21.8561 112.597 23.1599 114.205 23.1599C115.812 23.1599 117.356 21.8983 117.356 19.6127C117.356 17.3272 115.855 16.0655 114.205 16.0655V16.0672Z" fill="#366315"/>
<path d="M126.307 25.64H123.305V13.5866H126.307V15.4571C127.056 14.2174 128.301 13.4111 129.952 13.4111V16.6092H129.159C127.379 16.6092 126.307 17.3058 126.307 19.6335V25.6383V25.64Z" fill="#366315"/>
<path d="M136.629 13.3904C138.537 13.3904 139.845 14.3046 140.553 15.3048V13.586H143.577V25.6394H140.553V23.8768C139.845 24.9209 138.495 25.8351 136.607 25.8351C133.605 25.8351 131.203 23.3337 131.203 19.5689C131.203 15.8041 133.605 13.3887 136.629 13.3887V13.3904ZM137.4 16.0672C135.793 16.0672 134.27 17.285 134.27 19.5706C134.27 21.8561 135.793 23.1599 137.4 23.1599C139.007 23.1599 140.552 21.8983 140.552 19.6127C140.552 17.3272 139.051 16.0655 137.4 16.0655V16.0672Z" fill="#366315"/>
<path d="M146.993 16.0861H145.578V13.5847H146.993V10.6025H150.016V13.583H152.676V16.0844H150.016V21.9155C150.016 22.7201 150.337 23.0692 151.281 23.0692H152.674V25.6364H150.788C148.515 25.6364 146.993 24.6581 146.993 21.8936V16.0861Z" fill="#366315"/>
<path d="M88.0038 35.5566C91.3283 35.5566 94.0294 37.3631 95.0367 40.4735H91.5843C90.8762 39.0161 89.5896 38.2976 87.9822 38.2976C85.3659 38.2976 83.5008 40.234 83.5008 43.3241C83.5008 46.4142 85.3659 48.3505 87.9822 48.3505C89.5896 48.3505 90.8778 47.632 91.5843 46.1527H95.0367C94.0294 49.2867 91.3266 51.0696 88.0038 51.0696C83.6936 51.0696 80.4141 47.8715 80.4141 43.3241C80.4141 38.7766 83.6953 35.5566 88.0038 35.5566Z" fill="#29A71A"/>
<path d="M102.261 38.6911C104.17 38.6911 105.478 39.6054 106.186 40.6056V38.8868H109.21V50.9402H106.186V49.1776C105.478 50.2217 104.128 51.1359 102.24 51.1359C99.2379 51.1359 96.8359 48.6345 96.8359 44.8697C96.8359 41.1049 99.2379 38.6895 102.261 38.6895V38.6911ZM103.033 41.368C101.425 41.368 99.9028 42.5858 99.9028 44.8713C99.9028 47.1569 101.425 48.4607 103.033 48.4607C104.64 48.4607 106.184 47.199 106.184 44.9135C106.184 42.628 104.683 41.3663 103.033 41.3663V41.368Z" fill="#29A71A"/>
<path d="M112.618 41.3872H111.203V38.8857H112.618V35.9053H115.641V38.8857H118.301V41.3872H115.641V47.2182C115.641 48.0228 115.962 48.3719 116.906 48.3719H118.299V50.9392H116.413C114.14 50.9392 112.618 49.9609 112.618 47.1963V41.3872Z" fill="#29A71A"/>
<path d="M120.938 41.3872H119.523V38.8857H120.938V35.9053H123.962V38.8857H126.621V41.3872H123.962V47.2182C123.962 48.0228 124.282 48.3719 125.227 48.3719H126.62V50.9392H124.733C122.461 50.9392 120.938 49.9609 120.938 47.1963V41.3872Z" fill="#29A71A"/>
<path d="M128.789 34.8379H131.791V50.9395H128.789V34.8379Z" fill="#29A71A"/>
<path d="M139.937 51.1342C136.485 51.1342 133.977 48.6969 133.977 44.9118C133.977 41.1268 136.422 38.6895 139.937 38.6895C143.453 38.6895 145.792 41.061 145.792 44.6521C145.792 45.0434 145.77 45.4347 145.705 45.8277H137.022C137.171 47.6123 138.373 48.6125 139.874 48.6125C141.161 48.6125 141.869 47.9598 142.254 47.1552H145.493C144.849 49.3749 142.876 51.1376 139.939 51.1376L139.937 51.1342ZM137.042 43.78H142.682C142.638 42.1911 141.395 41.1909 139.851 41.1909C138.415 41.1909 137.278 42.127 137.042 43.78Z" fill="#29A71A"/>
<path d="M25.3524 29.6306C25.1795 28.6253 25.0365 27.6132 24.9268 26.5928C24.9385 26.9116 24.9867 28.2458 24.9518 28.6759C24.7556 31.1014 24.119 33.4983 22.234 35.1142C21.1436 36.0486 16.7353 36.9797 18.9345 38.8925C20.6316 40.37 24.1938 43.5664 29.6825 43.2358C27.8191 39.6026 26.5774 35.6067 25.7313 31.6058C25.5934 30.9496 25.467 30.2918 25.3524 29.6306Z" fill="#366315"/>
<path d="M67.7505 36.2041C66.6318 34.8598 65.1308 33.8427 64.3429 32.2268C63.4137 30.3225 62.8918 28.0235 62.5677 25.9336C62.6142 27.0283 62.6009 28.1264 62.5278 29.2194V29.2312C62.5278 29.2548 62.5244 29.2784 62.5228 29.302C62.3815 31.3413 62.059 33.3654 61.5603 35.3456C61.5387 35.435 61.5155 35.5244 61.4938 35.6138L61.4772 35.6812C61.1747 36.8653 60.8456 37.9263 60.5397 38.8338L60.5331 38.8506C60.4965 38.9603 60.4583 39.0665 60.4217 39.1728C60.3968 39.2453 60.3718 39.3179 60.3452 39.3904C60.3386 39.4089 60.3319 39.4258 60.327 39.4444C60.2505 39.6586 60.174 39.8745 60.0942 40.0921C60.0909 40.0988 60.0893 40.1056 60.0859 40.114C62.1953 40.0971 63.1511 40.0819 64.0853 39.9504C65.5198 39.7463 69.5258 38.3395 67.7505 36.2058H67.7488L67.7505 36.2041Z" fill="#29A71A"/>
<path d="M55.8254 11.0299C55.4381 10.6655 54.9777 10.3889 54.4741 10.2236C52.6938 9.56579 51.5036 10.2118 51.6848 12.2173C51.8378 13.9007 52.5708 15.4576 52.9581 17.0836C54.8032 24.8308 50.7374 31.6654 44.9844 36.3411C44.9877 36.3411 44.991 36.3444 44.9943 36.3461C46.733 37.1895 49.6702 38.3803 50.8471 38.6839C53.879 39.4666 56.9591 40.0063 60.0874 40.1143C60.0907 40.1059 60.0924 40.0991 60.0957 40.0907C60.1522 39.9389 60.2071 39.7871 60.2603 39.6353C60.2836 39.5712 60.3052 39.5071 60.3284 39.443L60.3467 39.389C60.3717 39.3181 60.3966 39.2456 60.4232 39.1714C60.4598 39.0668 60.4963 38.9589 60.5329 38.8492L60.5395 38.8324C60.847 37.9249 61.1745 36.8639 61.477 35.6799L61.4937 35.6124C61.5153 35.523 61.5385 35.4336 61.5601 35.3442C62.0588 33.3623 62.3796 31.3399 62.5226 29.3006C62.5226 29.277 62.5259 29.2534 62.5276 29.2298V29.218C63.2091 18.3857 57.7221 12.6694 55.8221 11.0265H55.8238L55.8254 11.0299Z" fill="#366315"/>
<path d="M60.0803 40.1165C56.952 40.0069 53.8719 39.4688 50.84 38.6862C49.6631 38.3825 46.7243 37.19 44.9873 36.3483C44.984 36.3483 44.9806 36.345 44.9773 36.3433C41.8307 34.7965 39.093 32.5127 36.9903 29.679C35.1569 27.1556 34.1279 24.1853 33.4231 21.1475C33.4082 21.08 33.3916 21.0125 33.3766 20.9451C32.8696 18.7641 32.6984 16.5174 32.8729 14.2841C33.0159 12.6598 33.4015 11.0625 33.4713 9.4297C33.5212 8.26585 33.4215 6.02249 32.1233 5.5249C30.235 4.80129 28.7622 7.36007 27.9677 8.70778C26.5964 11.0338 25.7869 13.6229 25.2599 16.2762C24.5867 19.6682 24.5535 23.1564 24.9208 26.5922C25.0305 27.611 25.1718 28.6231 25.3464 29.6301C25.4611 30.2913 25.5874 30.9491 25.7253 31.6052C26.5698 35.6062 27.8114 39.6021 29.6748 43.2353C29.7928 43.4664 29.9142 43.6958 30.0372 43.9235C30.3065 44.4211 30.5957 44.9085 30.9015 45.3825C32.4657 47.7861 34.4205 49.9164 36.4966 51.8562C39.1362 54.3222 42.479 56.353 46.1741 55.9482C50.2 55.5063 53.2901 52.3875 55.5125 49.095C57.4075 46.3136 58.9417 43.2943 60.0754 40.1148L60.0803 40.1165Z" fill="#29A71A"/>
</svg>
