<svg width="170" height="60" viewBox="0 0 170 60" fill="none" xmlns="http://www.w3.org/2000/svg">
<path d="M15.2578 42.4163L17.1643 43.0272V27.026L15.2578 26.1826V42.4163Z" fill="#12233B"/>
<path d="M19.625 27.0268L30.7922 21.9287L30.7269 34.7083L19.625 39.8959V35.0187L25.3984 32.5728V29.9531L19.625 32.399V27.0268ZM28.5105 30.1636L27.7163 30.0166V31.0156L28.5105 30.1636ZM27.2711 31.2318V29.9734L25.8445 29.9038L25.8484 32.4111L27.2711 31.2318Z" fill="#12233B"/>
<path d="M19.625 42.8033V44.8286L30.7818 39.8645L30.7926 37.7061L19.625 42.8033Z" fill="#12233B"/>
<mask id="mask0_344_14532" style="mask-type:luminance" maskUnits="userSpaceOnUse" x="15" y="15" width="141" height="30">
<path d="M155.005 15H15.2422V44.8287H155.005V15Z" fill="white"/>
</mask>
<g mask="url(#mask0_344_14532)">
<path d="M21.454 18.2921L16.3594 26.0558C18.0319 23.2259 20.6171 18.5506 21.0399 16.7695L21.454 18.2921Z" fill="#12233B"/>
<path d="M24.6271 17.476L16.3594 26.0549C19.069 22.552 24.1888 16.5041 24.3561 15.043L24.6271 17.476Z" fill="#12233B"/>
<path d="M27.3618 17.8441L16.3594 26.0552C20.065 22.5795 27.0903 16.8347 27.3039 15L27.3618 17.8441Z" fill="#12233B"/>
<path d="M30.052 19.3525L16.3594 26.0553C21.0861 23.1092 29.557 17.5775 29.979 16.0303C29.9478 16.8387 30.0832 18.5441 30.052 19.3525Z" fill="#12233B"/>
<path d="M19.436 19.4284L16.3594 26.0555C17.4076 23.3944 18.2964 20.6731 19.021 17.9062L19.436 19.4284Z" fill="#12233B"/>
<path d="M37.8984 16.7646H46.9521V18.9953H40.1287V23.0369H46.9521V25.2675H40.1287V30.8572H46.9521V33.0878H37.8984V16.7646ZM53.0851 16.7646H57.0437C60.1802 16.7646 62.5128 17.5926 64.0417 19.2486C65.5173 20.7699 66.3412 22.8067 66.3381 24.926C66.3393 25.9842 66.1303 27.0321 65.7234 28.0089C65.3164 28.9857 64.7195 29.872 63.9674 30.6164C62.3843 32.2654 60.0851 33.0893 57.0696 33.0878H53.0851V16.7646ZM55.3158 18.9426V30.8572H55.4429C56.6905 30.884 57.9381 30.8094 59.1736 30.6341C60.0253 30.4778 60.8346 30.1439 61.5487 29.6541C62.3032 29.1486 62.9184 28.4613 63.3375 27.6555C63.7836 26.8107 64.0121 25.868 64.0024 24.9126C64.0135 23.6958 63.6433 22.506 62.9437 21.5104C62.3356 20.5783 61.4476 19.863 60.4074 19.4674C59.123 19.0747 57.7825 18.8974 56.4402 18.9426H55.3158ZM72.3134 16.7646H74.544V26.7979C74.544 28.2807 74.9014 29.4296 75.6161 30.2446C76.0003 30.6583 76.4713 30.9819 76.9953 31.1922C77.5193 31.4024 78.0834 31.4941 78.647 31.4606C79.2014 31.4937 79.7567 31.4112 80.2776 31.2185C80.7985 31.0258 81.2737 30.727 81.6731 30.341C82.3936 29.5931 82.755 28.5405 82.7573 27.183V16.7646H84.9879V27.0257C84.9879 29.0246 84.418 30.6224 83.2782 31.819C82.6869 32.4211 81.9755 32.892 81.1903 33.201C80.405 33.51 79.5635 33.6503 78.7205 33.6126C77.8601 33.651 77.0012 33.509 76.199 33.1956C75.3968 32.8822 74.669 32.4045 74.0624 31.7931C72.8944 30.5826 72.3111 28.7938 72.3125 26.4265L72.3134 16.7646ZM91.5939 16.1084L103.666 28.5037V16.7646H105.897V33.8491L93.8263 21.4927V33.0878H91.5956L91.5939 16.1084ZM112.529 16.7646H121.583V18.9953H114.76V23.0369H121.583V25.2675H114.76V30.8572H121.583V33.0878H112.529V16.7646ZM127.06 16.7646H129.514L133.157 22.7304L136.774 16.7646H139.261L134.398 24.7864L139.392 33.0865H136.939L133.157 26.8376L129.365 33.0878H126.876L131.912 24.7816L127.06 16.7646ZM144.657 16.7646H154.682V18.9953H150.772V33.0883H148.541V18.9953H144.657V16.7646Z" fill="#12233B"/>
<path d="M37.6325 42.1728L37.8728 41.5676C38.0132 41.6663 38.1681 41.7424 38.3319 41.7933C38.4902 41.849 38.6562 41.8795 38.8239 41.8836C39.0495 41.8946 39.2708 41.8193 39.4429 41.6731C39.5187 41.6062 39.5788 41.5235 39.6192 41.4308C39.6595 41.3381 39.679 41.2377 39.6764 41.1366C39.6771 40.9765 39.6321 40.8195 39.5467 40.684C39.3716 40.4789 39.1471 40.3218 38.8944 40.2275L38.5053 40.0464C38.2267 39.9352 37.9864 39.7455 37.8136 39.5004C37.678 39.2704 37.6101 39.0068 37.6178 38.74C37.6134 38.5721 37.6453 38.4052 37.7111 38.2507C37.777 38.0963 37.8754 37.9578 37.9995 37.8447C38.2673 37.6023 38.6195 37.4746 38.9804 37.4889C39.3696 37.4509 39.7604 37.5421 40.0927 37.7483L39.8986 38.3211C39.7745 38.2402 39.6392 38.178 39.497 38.1365C39.336 38.0806 39.1672 38.0507 38.9968 38.0478C38.9005 38.0425 38.804 38.0566 38.7132 38.0893C38.6225 38.1221 38.5393 38.1728 38.4685 38.2385C38.4045 38.3027 38.3543 38.3794 38.3212 38.4638C38.288 38.5482 38.2725 38.6385 38.2757 38.7292C38.2744 38.8448 38.298 38.9593 38.3449 39.065C38.389 39.1631 38.455 39.2497 38.5377 39.3184C38.6959 39.4305 38.8651 39.5264 39.0426 39.6046L39.4378 39.7922C39.7172 39.9078 39.9574 40.1015 40.1294 40.3503C40.2709 40.6013 40.3398 40.8867 40.3283 41.1747C40.3294 41.3511 40.2908 41.5256 40.2154 41.6851C40.14 41.8447 40.0296 41.9852 39.8925 42.0963C39.5633 42.3619 39.1477 42.4967 38.7253 42.475C38.3379 42.4865 37.9561 42.381 37.6294 42.1724" fill="#12233B"/>
<path d="M43.6971 39.1527L43.3876 39.5936C43.2889 39.5106 43.1741 39.4489 43.0504 39.4125C42.898 39.3567 42.7371 39.3274 42.5748 39.326C42.4215 39.3195 42.2688 39.3483 42.1284 39.4102C41.988 39.4721 41.8637 39.5655 41.7651 39.6831C41.5516 39.9633 41.4454 40.3106 41.4656 40.6623C41.4416 41.0043 41.5513 41.3423 41.7716 41.6051C41.8823 41.7159 42.0152 41.8021 42.1615 41.858C42.3078 41.9138 42.4643 41.9382 42.6207 41.9293C42.9322 41.9182 43.2311 41.8035 43.4701 41.6034L43.717 42.1303C43.3417 42.3581 42.9081 42.4712 42.4693 42.4559C42.2482 42.4629 42.0281 42.4237 41.8229 42.3409C41.6178 42.258 41.4322 42.1333 41.2779 41.9747C41.1163 41.7986 40.9915 41.5921 40.9106 41.3672C40.8298 41.1423 40.7946 40.9035 40.8072 40.6649C40.7955 40.4182 40.8327 40.1717 40.9166 39.9395C41.0005 39.7073 41.1295 39.494 41.2961 39.3118C41.5488 39.0722 41.8636 38.9083 42.2048 38.8386C42.5459 38.7688 42.8998 38.796 43.2263 38.9171C43.3948 38.9707 43.5536 39.0506 43.6971 39.154" fill="#12233B"/>
<path d="M46.5473 42.3923V40.1772C46.56 39.9532 46.491 39.7322 46.3532 39.5552C46.2851 39.4786 46.2006 39.4184 46.106 39.379C46.0114 39.3396 45.9091 39.3221 45.8068 39.3278C45.6455 39.3306 45.488 39.3767 45.3507 39.4614C45.2121 39.5375 45.0923 39.6437 45.0001 39.7722V42.3923H44.375V37.4209H45.0001V39.2543C45.1012 39.1103 45.241 38.9978 45.4034 38.9301C45.583 38.8448 45.7792 38.8005 45.978 38.8004C46.1425 38.792 46.3067 38.8209 46.4586 38.8847C46.6104 38.9485 46.746 39.0458 46.8551 39.1691C47.0804 39.4549 47.1934 39.8131 47.1728 40.1764V42.3915L46.5473 42.3923Z" fill="#12233B"/>
<path d="M47.8232 40.6208C47.8008 40.1421 47.9575 39.6722 48.2628 39.3027C48.4131 39.1458 48.5934 39.0205 48.7929 38.9343C48.9924 38.8481 49.2072 38.8027 49.4245 38.8008C49.6419 38.799 49.8574 38.8407 50.0584 38.9235C50.2593 39.0063 50.4417 39.1285 50.5946 39.2829C50.868 39.6767 51.0137 40.1451 51.0119 40.6246C51.0101 41.104 50.861 41.5713 50.5847 41.9631C50.4324 42.1194 50.2503 42.2435 50.0491 42.3281C49.848 42.4127 49.6319 42.456 49.4137 42.4556C49.1955 42.4551 48.9796 42.4109 48.7788 42.3255C48.578 42.2401 48.3963 42.1152 48.2447 41.9584C47.947 41.5772 47.7973 41.1012 47.8232 40.6182M48.4816 40.6182C48.4816 41.5027 48.7943 41.9448 49.4197 41.9445C49.5549 41.9488 49.689 41.9184 49.8091 41.8562C49.9293 41.794 50.0316 41.7021 50.1061 41.5892C50.2863 41.2986 50.3729 40.9596 50.3543 40.6182C50.3543 39.745 50.0427 39.3084 49.4197 39.3084C49.2858 39.305 49.1531 39.3352 49.0339 39.3961C48.9146 39.457 48.8124 39.5468 48.7366 39.6572C48.5517 39.9423 48.4623 40.2789 48.4816 40.6182Z" fill="#12233B"/>
<path d="M51.456 40.6208C51.4336 40.1421 51.5903 39.6722 51.8956 39.3027C52.046 39.1458 52.2262 39.0205 52.4257 38.9343C52.6252 38.8481 52.84 38.8027 53.0574 38.8008C53.2747 38.799 53.4902 38.8407 53.6912 38.9235C53.8921 39.0063 54.0745 39.1285 54.2275 39.2829C54.5008 39.6767 54.6465 40.1451 54.6447 40.6246C54.6429 41.104 54.4938 41.5713 54.2175 41.9631C54.0652 42.1194 53.8831 42.2435 53.6819 42.3281C53.4808 42.4127 53.2647 42.456 53.0465 42.4556C52.8283 42.4551 52.6124 42.4109 52.4116 42.3255C52.2108 42.2401 52.0292 42.1152 51.8775 41.9584C51.5799 41.5772 51.4302 41.1012 51.456 40.6182M52.1144 40.6182C52.1144 41.5027 52.4271 41.9448 53.0525 41.9445C53.1877 41.9488 53.3218 41.9184 53.442 41.8562C53.5621 41.794 53.6644 41.7021 53.739 41.5892C53.9191 41.2986 54.0057 40.9596 53.9871 40.6182C53.9871 39.745 53.6756 39.3084 53.0525 39.3084C52.9186 39.305 52.786 39.3352 52.6667 39.3961C52.5474 39.457 52.4452 39.5468 52.3694 39.6572C52.1845 39.9423 52.0951 40.2789 52.1144 40.6182Z" fill="#12233B"/>
<path d="M55.3438 41.3947V37.4219H55.9693V41.2892C55.9647 41.3708 55.9768 41.4524 56.0049 41.5291C56.0329 41.6058 56.0762 41.676 56.1323 41.7354C56.1885 41.7901 56.2553 41.8328 56.3286 41.8608C56.4019 41.8889 56.4801 41.9016 56.5585 41.8983V42.4577C55.7487 42.4577 55.3438 42.1034 55.3438 41.3947Z" fill="#12233B"/>
<path d="M60.0178 38.1626V39.5027H61.6108V40.0621H60.0178V41.7999H62.2035V42.3926H59.3594V37.5703H62.2394V38.1626H60.0178Z" fill="#12233B"/>
<path d="M65.6509 42.3931L64.3639 40.3224C64.217 40.3224 63.9844 40.3111 63.6662 40.2899V42.3931H63.0078V37.5708C63.032 37.5708 63.2026 37.5626 63.5197 37.5461C63.8367 37.5297 64.0672 37.5215 64.2113 37.5215C65.3699 37.5215 65.9492 37.9826 65.9492 38.9048C65.9514 39.2014 65.8528 39.49 65.6695 39.7232C65.5085 39.9481 65.2729 40.1085 65.0046 40.1758L66.4035 42.3944L65.6509 42.3931ZM63.6662 38.163V39.7301C63.8189 39.7515 63.9729 39.7625 64.127 39.763C64.4278 39.7865 64.7287 39.7202 64.9916 39.5723C65.0891 39.4896 65.1647 39.3842 65.2117 39.2654C65.2588 39.1466 65.2758 39.018 65.2614 38.891C65.2707 38.7767 65.2487 38.6619 65.1976 38.5592C65.1466 38.4564 65.0685 38.3695 64.9717 38.3078C64.6874 38.17 64.3719 38.1089 64.0566 38.1306C63.9909 38.1306 63.8612 38.1414 63.6675 38.163" fill="#12233B"/>
<path d="M67.549 40.5355V42.3944H66.8906V37.57C67.3886 37.5483 67.6892 37.5374 67.7924 37.5371C69.1925 37.5371 69.8925 38.0056 69.8925 38.9425C69.8925 40.0261 69.2737 40.5681 68.0362 40.5684C67.9613 40.5684 67.7989 40.5574 67.549 40.5355ZM67.549 38.1622V39.9433C67.8279 39.9649 67.9748 39.9761 67.99 39.9761C68.8064 39.9761 69.2147 39.6547 69.2147 39.0117C69.2147 38.4232 68.7791 38.1292 67.9078 38.1298C67.7876 38.1326 67.6678 38.1434 67.549 38.1622Z" fill="#12233B"/>
<path d="M81.3459 38.1626V39.5027H82.9389V40.0621H81.3459V41.7999H83.5316V42.3926H80.6875V37.5703H83.5675V38.1626H81.3459Z" fill="#12233B"/>
<path d="M85.7292 40.1514H84.3203V40.7272H85.7292V40.1514Z" fill="#12233B"/>
<path d="M86.7812 42.3922V37.5703H87.4396V41.7995H89.6184V42.3922H86.7812Z" fill="#12233B"/>
<path d="M93.1094 40.6911H90.5684C90.557 40.8643 90.5811 41.0381 90.6394 41.2016C90.6977 41.3652 90.7889 41.5151 90.9073 41.6421C91.01 41.7392 91.131 41.8147 91.2633 41.8645C91.3956 41.9142 91.5364 41.9371 91.6776 41.9318C92.0046 41.9425 92.3238 41.8309 92.5729 41.6188L92.8362 42.0697C92.7083 42.1848 92.5565 42.2702 92.3918 42.32C92.1235 42.4152 91.8404 42.462 91.5557 42.4583C91.347 42.4625 91.1395 42.4248 90.9456 42.3473C90.7517 42.2699 90.5754 42.1543 90.427 42.0074C90.252 41.8332 90.1154 41.6242 90.0261 41.394C89.9367 41.1638 89.8966 40.9174 89.9082 40.6707C89.8964 40.4138 89.9374 40.1572 90.0285 39.9166C90.1197 39.6761 90.2591 39.4568 90.4382 39.2722C90.5837 39.1214 90.7584 39.0018 90.9516 38.9209C91.1449 38.8399 91.3527 38.7993 91.5622 38.8015C91.7776 38.7891 91.9934 38.8203 92.1964 38.8932C92.3995 38.9662 92.5858 39.0794 92.7441 39.226C92.8837 39.3681 92.9925 39.5373 93.0638 39.7232C93.1351 39.9092 93.1674 40.1078 93.1587 40.3067C93.1599 40.4356 93.1433 40.5641 93.1094 40.6885M91.592 39.3259C91.34 39.3201 91.0953 39.4109 90.908 39.5796C90.7208 39.7484 90.6051 39.9824 90.5848 40.2337H92.5366C92.5435 40.0001 92.4584 39.7732 92.2997 39.6017C92.208 39.5082 92.0975 39.4352 91.9755 39.3876C91.8535 39.3399 91.7228 39.3192 91.592 39.3259Z" fill="#12233B"/>
<path d="M95.7959 41.9862C95.6545 42.1489 95.477 42.2763 95.2775 42.358C95.0781 42.4398 94.8622 42.4737 94.6473 42.457C94.5132 42.4581 94.3802 42.4318 94.2565 42.3798C94.1328 42.3277 94.021 42.2511 93.928 42.1544C93.8288 42.0571 93.7507 41.9404 93.6986 41.8116C93.6466 41.6827 93.6216 41.5446 93.6254 41.4057C93.6258 41.228 93.6685 41.0529 93.7501 40.895C93.8317 40.7371 93.9497 40.601 94.0944 40.4978C94.4389 40.2406 94.8614 40.1098 95.291 40.1273C95.4439 40.1316 95.595 40.1608 95.7384 40.2138C95.7384 39.6432 95.4838 39.358 94.9746 39.3583C94.8108 39.3476 94.6465 39.37 94.4915 39.4242C94.3366 39.4785 94.1942 39.5634 94.0728 39.6739L93.8095 39.1508C93.9576 39.0403 94.1242 38.9571 94.3015 38.9052C94.4948 38.8388 94.6975 38.8037 94.9019 38.8015C95.1016 38.7652 95.307 38.7778 95.5007 38.8382C95.6943 38.8986 95.8705 39.005 96.0141 39.1483C96.1578 39.2916 96.2646 39.4675 96.3254 39.661C96.3863 39.8546 96.3993 40.0599 96.3636 40.2596V41.5237C96.3477 41.6423 96.3652 41.7629 96.414 41.8721C96.4628 41.9814 96.5409 42.0749 96.6398 42.1423V42.4553C96.4433 42.4674 96.2469 42.4299 96.0687 42.3463C95.9359 42.2656 95.8389 42.1373 95.7972 41.9875M95.738 40.6612C95.6021 40.6267 95.4634 40.6047 95.3234 40.5955C95.045 40.5835 94.7711 40.6696 94.5496 40.8389C94.4583 40.9051 94.3838 40.9916 94.3318 41.0916C94.2799 41.1917 94.252 41.3025 94.2505 41.4152C94.2505 41.7815 94.4666 41.9646 94.8989 41.9646C95.0643 41.9599 95.2262 41.9167 95.372 41.8384C95.5177 41.7601 95.6432 41.649 95.7384 41.5137L95.738 40.6612Z" fill="#12233B"/>
<path d="M99.2725 39.467C99.1532 39.3785 99.0094 39.3291 98.8609 39.3257C98.747 39.3281 98.6352 39.3571 98.5343 39.4102C98.4335 39.4633 98.3464 39.5392 98.2799 39.6317C98.1133 39.8398 98.0254 40.1001 98.0318 40.3666V42.3876H97.4062V38.8661H98.0301V39.4281C98.1203 39.236 98.2645 39.0743 98.445 38.9626C98.6255 38.8509 98.8346 38.7941 99.0468 38.7991C99.2095 38.8051 99.3713 38.8249 99.5306 38.8584L99.2725 39.467Z" fill="#12233B"/>
<path d="M102.148 42.3918V40.3414C102.172 40.0675 102.113 39.7926 101.978 39.5529C101.908 39.4727 101.82 39.4103 101.722 39.371C101.623 39.3317 101.516 39.3167 101.41 39.3273C101.252 39.3318 101.098 39.3765 100.963 39.457C100.819 39.5315 100.696 39.64 100.604 39.773V42.3931H99.9766V38.8664H100.405L100.602 39.3208C100.706 39.1494 100.856 39.0101 101.034 38.9185C101.212 38.827 101.412 38.7866 101.612 38.802C102.385 38.802 102.771 39.2717 102.771 40.2109V42.3931L102.148 42.3918Z" fill="#12233B"/>
<path d="M103.955 42.3924V39.394H103.469V38.8674H104.578V42.3924H103.955ZM104.297 37.5342C104.348 37.5334 104.399 37.5431 104.446 37.5626C104.494 37.5822 104.536 37.6112 104.572 37.6479C104.608 37.683 104.637 37.7252 104.657 37.7719C104.676 37.8186 104.686 37.8688 104.685 37.9194C104.686 37.9706 104.676 38.0213 104.656 38.0686C104.637 38.116 104.608 38.159 104.572 38.1952C104.536 38.2313 104.493 38.26 104.445 38.2794C104.398 38.2989 104.347 38.3088 104.296 38.3085C104.246 38.3092 104.195 38.2995 104.149 38.28C104.102 38.2605 104.06 38.2316 104.025 38.1952C103.97 38.1415 103.933 38.0728 103.917 37.9977C103.902 37.9226 103.909 37.8446 103.938 37.7738C103.967 37.7029 104.017 37.6423 104.081 37.5998C104.145 37.5573 104.22 37.5347 104.296 37.5351" fill="#12233B"/>
<path d="M107.755 42.3918V40.3414C107.78 40.0681 107.721 39.7937 107.587 39.5542C107.518 39.474 107.43 39.4116 107.331 39.3723C107.232 39.333 107.125 39.318 107.019 39.3286C106.862 39.3331 106.708 39.3777 106.572 39.4583C106.428 39.5328 106.305 39.6413 106.213 39.7743V42.3944H105.586V38.8664H106.014L106.211 39.3208C106.315 39.1494 106.465 39.0101 106.643 38.9185C106.822 38.827 107.022 38.7866 107.222 38.802C107.994 38.802 108.381 39.2717 108.381 40.2109V42.3931L107.755 42.3918Z" fill="#12233B"/>
<path d="M109.132 43.3582L109.471 42.858C109.763 43.0767 110.113 43.2038 110.478 43.2233C110.71 43.2351 110.941 43.1845 111.148 43.0768C111.218 43.0443 111.278 42.9932 111.321 42.929C111.364 42.8649 111.389 42.7901 111.393 42.7128C111.393 42.4275 111.187 42.285 110.774 42.2852C110.646 42.2928 110.518 42.3103 110.392 42.3376C110.25 42.368 110.105 42.3856 109.96 42.3903C109.46 42.3903 109.21 42.2017 109.21 41.8244C109.212 41.7617 109.23 41.7004 109.26 41.6456C109.291 41.5907 109.334 41.5438 109.386 41.5084C109.514 41.4088 109.663 41.3392 109.822 41.3048C109.633 41.2115 109.468 41.0744 109.342 40.905C109.216 40.7355 109.132 40.5385 109.097 40.3302C109.062 40.1219 109.077 39.9082 109.14 39.7068C109.204 39.5054 109.315 39.322 109.463 39.1718C109.59 39.0504 109.739 38.9552 109.902 38.8918C110.065 38.8284 110.239 38.7981 110.414 38.8026C110.702 38.7865 110.986 38.8622 111.228 39.0188L111.54 38.6436L111.948 39.0287L111.573 39.3119C111.742 39.5493 111.827 39.8368 111.813 40.1281C111.823 40.4582 111.704 40.7791 111.481 41.0229C111.254 41.2672 110.942 41.4155 110.609 41.4375L110.092 41.4902C110.007 41.5035 109.924 41.5273 109.845 41.5611C109.742 41.6044 109.69 41.655 109.69 41.7207C109.69 41.8106 109.798 41.8555 110.013 41.8555C110.161 41.8498 110.308 41.8327 110.454 41.8045C110.6 41.7762 110.749 41.7591 110.898 41.7535C111.19 41.7357 111.478 41.824 111.71 42.0021C111.807 42.0878 111.884 42.1946 111.935 42.3144C111.985 42.4342 112.008 42.5639 112.001 42.6938C112.002 42.8514 111.963 43.0068 111.886 43.1447C111.81 43.2826 111.699 43.3984 111.565 43.481C111.236 43.6914 110.851 43.796 110.461 43.7806C110.215 43.7778 109.972 43.7365 109.74 43.6582C109.522 43.5942 109.316 43.4942 109.131 43.3621M110.457 39.3102C110.357 39.3072 110.258 39.3263 110.166 39.3661C110.074 39.4059 109.992 39.4655 109.925 39.5406C109.789 39.6944 109.715 39.8945 109.72 40.1004C109.712 40.3212 109.782 40.5377 109.919 40.7112C109.984 40.7904 110.066 40.8534 110.16 40.8954C110.253 40.9373 110.355 40.957 110.457 40.9529C110.556 40.9573 110.655 40.9383 110.745 40.8973C110.835 40.8564 110.914 40.7947 110.976 40.7173C111.108 40.5395 111.174 40.3215 111.164 40.1004C111.169 39.8951 111.096 39.6953 110.961 39.5406C110.899 39.4671 110.822 39.4084 110.735 39.3685C110.647 39.3287 110.552 39.3087 110.456 39.3102" fill="#12233B"/>
<path d="M126.478 42.3917L125.905 39.2948L124.852 42.4579H124.688L123.607 39.2948L123.047 42.3922H122.422L123.324 37.5703H123.623L124.772 41.0888L125.832 37.5703H126.128L127.106 42.3922L126.478 42.3917Z" fill="#12233B"/>
<path d="M127.37 40.6208C127.348 40.1421 127.504 39.6722 127.81 39.3027C127.96 39.1458 128.14 39.0205 128.34 38.9343C128.539 38.8481 128.754 38.8027 128.971 38.8008C129.189 38.799 129.404 38.8407 129.605 38.9235C129.806 39.0063 129.989 39.1285 130.142 39.2829C130.415 39.6767 130.561 40.1451 130.559 40.6246C130.557 41.104 130.408 41.5713 130.132 41.9631C129.979 42.1194 129.797 42.2435 129.596 42.3281C129.395 42.4127 129.179 42.456 128.961 42.4556C128.742 42.4551 128.526 42.4109 128.326 42.3255C128.125 42.2401 127.943 42.1152 127.792 41.9584C127.494 41.5772 127.344 41.1012 127.37 40.6182M128.028 40.6182C128.028 41.5027 128.341 41.9448 128.967 41.9445C129.102 41.9488 129.236 41.9185 129.356 41.8562C129.476 41.794 129.578 41.7021 129.653 41.5892C129.833 41.2987 129.92 40.9597 129.901 40.6182C129.901 39.745 129.59 39.3084 128.967 39.3084C128.833 39.305 128.7 39.3352 128.581 39.3961C128.461 39.457 128.359 39.5468 128.284 39.6572C128.099 39.9423 128.009 40.2789 128.028 40.6182Z" fill="#12233B"/>
<path d="M131.737 42.1387L131.516 42.4577H131.203V37.4219H131.829V39.1269C131.919 39.0243 132.034 38.9471 132.163 38.9029C132.315 38.8374 132.479 38.8027 132.645 38.8009C132.865 38.7931 133.085 38.8339 133.287 38.9204C133.49 39.007 133.672 39.1371 133.819 39.3015C134.124 39.6503 134.284 40.1021 134.268 40.5651C134.296 41.0678 134.136 41.563 133.817 41.9528C133.663 42.1214 133.474 42.2541 133.262 42.3413C133.051 42.4286 132.824 42.4683 132.596 42.4577C132.427 42.4575 132.26 42.4257 132.104 42.3639C131.966 42.3166 131.841 42.2397 131.737 42.1387ZM131.829 39.6041V41.6359C131.829 41.6714 131.907 41.729 132.063 41.8088C132.171 41.874 132.292 41.915 132.418 41.929C132.583 41.9452 132.75 41.9263 132.908 41.8735C133.066 41.8208 133.211 41.7354 133.333 41.623C133.546 41.3249 133.644 40.9603 133.609 40.5958C133.629 40.2539 133.514 39.9179 133.287 39.6612C133.173 39.5477 133.038 39.4592 132.888 39.4015C132.738 39.3437 132.578 39.3179 132.418 39.3257C132.305 39.3361 132.196 39.3697 132.097 39.4243C131.996 39.4647 131.905 39.5251 131.829 39.602" fill="#12233B"/>
<path d="M135.257 42.3924V39.394H134.773V38.8674H135.883V42.3924H135.257ZM135.6 37.5342C135.651 37.5334 135.702 37.5431 135.749 37.5626C135.796 37.5822 135.839 37.6112 135.875 37.6479C135.911 37.683 135.94 37.7252 135.959 37.7719C135.979 37.8186 135.988 37.8688 135.988 37.9194C135.988 37.9706 135.978 38.0213 135.959 38.0686C135.939 38.116 135.911 38.159 135.874 38.1952C135.838 38.2313 135.795 38.26 135.748 38.2794C135.701 38.2989 135.65 38.3088 135.599 38.3085C135.548 38.3092 135.498 38.2995 135.451 38.28C135.405 38.2605 135.362 38.2316 135.327 38.1952C135.272 38.1415 135.235 38.0728 135.22 37.9977C135.204 37.9226 135.212 37.8446 135.241 37.7738C135.27 37.7029 135.32 37.6423 135.383 37.5998C135.447 37.5573 135.522 37.5347 135.599 37.5351" fill="#12233B"/>
<path d="M136.93 41.3947V37.4219H137.555V41.2892C137.55 41.3708 137.562 41.4524 137.59 41.5291C137.618 41.6058 137.662 41.676 137.718 41.7354C137.774 41.7902 137.841 41.8329 137.914 41.8609C137.988 41.889 138.066 41.9017 138.144 41.8983V42.4577C137.334 42.4577 136.929 42.1034 136.93 41.3947Z" fill="#12233B"/>
<path d="M141.844 40.6911H139.303C139.291 40.8643 139.316 41.0381 139.374 41.2016C139.432 41.3652 139.523 41.5151 139.642 41.6421C139.744 41.7392 139.865 41.8147 139.998 41.8645C140.13 41.9142 140.271 41.9371 140.412 41.9318C140.739 41.9425 141.058 41.8309 141.307 41.6188L141.571 42.0697C141.443 42.1848 141.291 42.2702 141.126 42.32C140.858 42.4152 140.575 42.462 140.29 42.4583C140.081 42.4625 139.874 42.4248 139.68 42.3473C139.486 42.2699 139.31 42.1543 139.161 42.0074C138.986 41.8332 138.85 41.6242 138.76 41.394C138.671 41.1638 138.631 40.9174 138.643 40.6707C138.631 40.4138 138.672 40.1572 138.763 39.9166C138.854 39.6761 138.993 39.4568 139.173 39.2722C139.318 39.1214 139.493 39.0018 139.686 38.9209C139.879 38.8399 140.087 38.7993 140.297 38.8015C140.512 38.7891 140.728 38.8203 140.931 38.8932C141.134 38.9662 141.32 39.0794 141.478 39.226C141.618 39.3681 141.727 39.5373 141.798 39.7232C141.87 39.9092 141.902 40.1078 141.893 40.3067C141.894 40.4356 141.878 40.5641 141.844 40.6885M140.326 39.3259C140.074 39.3201 139.83 39.4109 139.642 39.5796C139.455 39.7484 139.339 39.9824 139.319 40.2337H141.271C141.278 40.0001 141.193 39.7732 141.034 39.6017C140.942 39.5082 140.832 39.4352 140.71 39.3876C140.588 39.3399 140.457 39.3192 140.326 39.3259Z" fill="#12233B"/>
<path d="M146.993 42.3909L146.66 41.3737H144.866L144.511 42.3909H143.773L145.732 37.5029H145.905L147.721 42.3909H146.993ZM145.788 38.767L145.041 40.89H146.473L145.788 38.767Z" fill="#12233B"/>
<path d="M148.797 42.1977V43.7743H148.172V38.8668H148.797V39.1565C148.909 39.0417 149.042 38.951 149.19 38.8899C149.338 38.8288 149.497 38.7986 149.656 38.8011C149.873 38.789 150.09 38.8246 150.292 38.9053C150.493 38.9861 150.675 39.11 150.824 39.2685C151.096 39.6623 151.242 40.13 151.242 40.6091C151.241 41.0881 151.094 41.5555 150.821 41.9487C150.67 42.1212 150.482 42.2568 150.271 42.3449C150.059 42.4331 149.831 42.4715 149.602 42.4571C149.44 42.4549 149.278 42.4283 149.124 42.378C148.999 42.352 148.885 42.2889 148.796 42.1969M148.796 39.6264V41.6811C148.862 41.7596 148.949 41.8183 149.046 41.8506C149.164 41.9024 149.29 41.9299 149.418 41.9314C150.196 41.9314 150.585 41.4925 150.585 40.6146C150.615 40.2661 150.517 39.9187 150.309 39.6372C150.192 39.5254 150.053 39.4399 149.9 39.3865C149.747 39.3331 149.585 39.3131 149.424 39.3277C149.311 39.3345 149.201 39.3659 149.101 39.4198C148.989 39.4707 148.886 39.5409 148.798 39.6273" fill="#12233B"/>
<path d="M152.554 42.1977V43.7743H151.93V38.8668H152.555V39.1565C152.667 39.0417 152.8 38.951 152.948 38.8899C153.096 38.8288 153.254 38.7986 153.414 38.8011C153.631 38.789 153.848 38.8246 154.05 38.9053C154.251 38.9861 154.433 39.11 154.581 39.2685C154.854 39.6623 155 40.13 154.999 40.6091C154.999 41.0881 154.852 41.5555 154.578 41.9487C154.428 42.1212 154.24 42.2568 154.029 42.3449C153.817 42.4331 153.589 42.4715 153.36 42.4571C153.198 42.4549 153.036 42.4283 152.882 42.378C152.757 42.352 152.642 42.2889 152.554 42.1969M152.554 39.6264V41.6811C152.62 41.7596 152.707 41.8183 152.804 41.8506C152.921 41.9024 153.048 41.9299 153.176 41.9314C153.954 41.9314 154.343 41.4925 154.343 40.6146C154.373 40.2661 154.275 39.9187 154.067 39.6372C153.95 39.5254 153.811 39.4399 153.658 39.3865C153.505 39.3331 153.343 39.3131 153.182 39.3277C153.069 39.3345 152.958 39.3659 152.859 39.4198C152.746 39.4707 152.644 39.5409 152.556 39.6273" fill="#12233B"/>
<path d="M75.38 38.7295C75.647 38.7318 75.9074 38.8131 76.1283 38.9631C76.3492 39.1132 76.5207 39.3252 76.6213 39.5726C76.7219 39.8199 76.747 40.0915 76.6935 40.3531C76.64 40.6148 76.5103 40.8547 76.3207 41.0427C76.131 41.2307 75.89 41.3584 75.6279 41.4096C75.3658 41.4609 75.0945 41.4334 74.848 41.3307C74.6015 41.228 74.3909 41.0546 74.2428 40.8324C74.0947 40.6103 74.0156 40.3492 74.0156 40.0822C74.0163 39.9037 74.0521 39.7272 74.1211 39.5626C74.19 39.3981 74.2907 39.2487 74.4175 39.1231C74.5442 38.9975 74.6944 38.898 74.8595 38.8305C75.0247 38.763 75.2015 38.7287 75.38 38.7295Z" fill="#12233B"/>
<path d="M117.16 38.7295C117.427 38.7316 117.688 38.8128 117.909 38.9627C118.13 39.1126 118.302 39.3246 118.402 39.572C118.503 39.8193 118.528 40.0909 118.475 40.3526C118.421 40.6143 118.292 40.8543 118.102 41.0424C117.913 41.2305 117.672 41.3583 117.409 41.4096C117.147 41.4609 116.876 41.4335 116.629 41.3308C116.383 41.2281 116.172 41.0547 116.024 40.8325C115.876 40.6103 115.797 40.3492 115.797 40.0822C115.798 39.722 115.943 39.3772 116.199 39.1235C116.454 38.8698 116.8 38.7281 117.16 38.7295Z" fill="#12233B"/>
</g>
</svg>
