<svg width="170" height="60" viewBox="0 0 170 60" fill="none" xmlns="http://www.w3.org/2000/svg">
<path d="M44.3072 29.6341C44.3072 31.6422 43.7117 33.6053 42.596 35.2751C41.4803 36.9448 39.8945 38.2462 38.0392 39.0147C36.1839 39.7832 34.1423 39.9843 32.1727 39.5925C30.2031 39.2008 28.3939 38.2337 26.9739 36.8137C25.5539 35.3937 24.5869 33.5845 24.1951 31.6149C23.8033 29.6453 24.0044 27.6038 24.7729 25.7484C25.5414 23.8931 26.8428 22.3073 28.5126 21.1917C30.1823 20.076 32.1454 19.4805 34.1536 19.4805C35.487 19.4805 36.8073 19.7431 38.0392 20.2534C39.2711 20.7636 40.3904 21.5115 41.3333 22.4544C42.2761 23.3972 43.024 24.5166 43.5343 25.7484C44.0445 26.9803 44.3072 28.3007 44.3072 29.6341Z" fill="#4267B2"/>
<path d="M44.3047 19.8105V22.4632C45.7901 22.9851 47.0767 23.9553 47.987 25.2398C48.8972 26.5244 49.3861 28.0599 49.3861 29.6343C49.3861 31.2087 48.8972 32.7442 47.987 34.0287C47.0767 35.3133 45.7901 36.2835 44.3047 36.8053V39.458C46.484 38.8973 48.415 37.6278 49.7937 35.8494C51.1725 34.071 51.9207 31.8846 51.9207 29.6343C51.9207 27.384 51.1725 25.1976 49.7937 23.4192C48.415 21.6408 46.484 20.3713 44.3047 19.8105Z" fill="#707070"/>
<path d="M65.3924 38.2637C64.1727 38.2637 63.1205 37.9945 62.2359 37.4561C61.3568 36.9121 60.6783 36.1539 60.2002 35.1814C59.7277 34.2034 59.4915 33.0661 59.4915 31.7694C59.4915 30.4727 59.7277 29.3299 60.2002 28.3409C60.6783 27.3464 61.3431 26.5717 62.1947 26.0168C63.0518 25.4564 64.0518 25.1762 65.1946 25.1762C65.8539 25.1762 66.505 25.286 67.1479 25.5058C67.7907 25.7256 68.3759 26.0827 68.9033 26.5772C69.4308 27.0662 69.8511 27.7146 70.1643 28.5222C70.4774 29.3299 70.634 30.3244 70.634 31.5057V32.3298H60.876V30.6485H68.6561C68.6561 29.9343 68.5132 29.2969 68.2275 28.7365C67.9473 28.1761 67.5462 27.7338 67.0242 27.4096C66.5078 27.0854 65.8979 26.9234 65.1946 26.9234C64.4199 26.9234 63.7496 27.1157 63.1837 27.5003C62.6233 27.8794 62.1919 28.3739 61.8898 28.9837C61.5876 29.5936 61.4365 30.2475 61.4365 30.9452V32.0661C61.4365 33.0221 61.6013 33.8325 61.931 34.4973C62.2661 35.1567 62.7304 35.6594 63.3238 36.0055C63.9172 36.3462 64.6067 36.5165 65.3924 36.5165C65.9034 36.5165 66.3649 36.4451 66.777 36.3022C67.1946 36.1539 67.5544 35.9341 67.8566 35.6429C68.1588 35.3462 68.3923 34.9781 68.5572 34.5386L70.4362 35.066C70.2384 35.7034 69.906 36.2638 69.439 36.7473C68.972 37.2253 68.3951 37.5989 67.7083 37.8681C67.0215 38.1319 66.2495 38.2637 65.3924 38.2637ZM73.2961 38V36.5165L82.3947 22.9345H73.1972V21.1213H84.8342V22.6048L75.7356 36.1869H84.9331V38H73.2961ZM94.8889 38V21.1213H100.592C101.911 21.1213 102.993 21.3466 103.839 21.7971C104.685 22.2422 105.312 22.8548 105.718 23.635C106.125 24.4152 106.328 25.3025 106.328 26.297C106.328 27.2915 106.125 28.1733 105.718 28.9425C105.312 29.7118 104.688 30.3161 103.847 30.7557C103.007 31.1897 101.933 31.4068 100.625 31.4068H96.0098V29.5607H100.559C101.46 29.5607 102.185 29.4288 102.735 29.1651C103.29 28.9013 103.691 28.5277 103.938 28.0442C104.191 27.5552 104.317 26.9728 104.317 26.297C104.317 25.6212 104.191 25.0306 103.938 24.5251C103.685 24.0196 103.282 23.6295 102.727 23.3548C102.172 23.0746 101.438 22.9345 100.526 22.9345H96.9328V38H94.8889ZM102.834 30.4178L106.987 38H104.614L100.526 30.4178H102.834ZM114.642 38.2637C113.422 38.2637 112.37 37.9945 111.485 37.4561C110.606 36.9121 109.928 36.1539 109.45 35.1814C108.977 34.2034 108.741 33.0661 108.741 31.7694C108.741 30.4727 108.977 29.3299 109.45 28.3409C109.928 27.3464 110.592 26.5717 111.444 26.0168C112.301 25.4564 113.301 25.1762 114.444 25.1762C115.103 25.1762 115.754 25.286 116.397 25.5058C117.04 25.7256 117.625 26.0827 118.153 26.5772C118.68 27.0662 119.101 27.7146 119.414 28.5222C119.727 29.3299 119.883 30.3244 119.883 31.5057V32.3298H110.125V30.6485H117.905C117.905 29.9343 117.763 29.2969 117.477 28.7365C117.197 28.1761 116.796 27.7338 116.274 27.4096C115.757 27.0854 115.147 26.9234 114.444 26.9234C113.669 26.9234 112.999 27.1157 112.433 27.5003C111.873 27.8794 111.441 28.3739 111.139 28.9837C110.837 29.5936 110.686 30.2475 110.686 30.9452V32.0661C110.686 33.0221 110.851 33.8325 111.18 34.4973C111.516 35.1567 111.98 35.6594 112.573 36.0055C113.167 36.3462 113.856 36.5165 114.642 36.5165C115.153 36.5165 115.614 36.4451 116.026 36.3022C116.444 36.1539 116.804 35.9341 117.106 35.6429C117.408 35.3462 117.642 34.9781 117.807 34.5386L119.686 35.066C119.488 35.7034 119.155 36.2638 118.688 36.7473C118.221 37.2253 117.644 37.5989 116.958 37.8681C116.271 38.1319 115.499 38.2637 114.642 38.2637ZM127.985 38.2637C126.798 38.2637 125.776 37.9835 124.919 37.4231C124.062 36.8627 123.403 36.0907 122.941 35.1072C122.48 34.1237 122.249 33.0001 122.249 31.7364C122.249 30.4507 122.485 29.3162 122.958 28.3327C123.436 27.3437 124.1 26.5717 124.952 26.0168C125.809 25.4564 126.809 25.1762 127.952 25.1762C128.842 25.1762 129.644 25.341 130.358 25.6706C131.073 26.0003 131.658 26.4618 132.114 27.0552C132.57 27.6486 132.853 28.3409 132.963 29.1321H131.018C130.869 28.5552 130.54 28.0442 130.029 27.5992C129.523 27.1486 128.842 26.9234 127.985 26.9234C127.227 26.9234 126.562 27.1212 125.99 27.5168C125.425 27.9069 124.982 28.459 124.664 29.1733C124.35 29.8821 124.194 30.7145 124.194 31.6705C124.194 32.6485 124.348 33.5001 124.655 34.2254C124.968 34.9506 125.408 35.5138 125.974 35.9149C126.545 36.316 127.216 36.5165 127.985 36.5165C128.49 36.5165 128.949 36.4286 129.361 36.2528C129.773 36.077 130.122 35.8242 130.408 35.4946C130.694 35.1649 130.897 34.7693 131.018 34.3078H132.963C132.853 35.055 132.581 35.7281 132.147 36.327C131.718 36.9204 131.15 37.3929 130.441 37.7445C129.738 38.0907 128.919 38.2637 127.985 38.2637ZM144.773 28.1761L143.026 28.6706C142.916 28.3794 142.754 28.0964 142.539 27.8217C142.331 27.5415 142.045 27.3107 141.682 27.1294C141.32 26.9481 140.855 26.8574 140.29 26.8574C139.515 26.8574 138.869 27.036 138.353 27.3931C137.842 27.7448 137.586 28.1926 137.586 28.7365C137.586 29.22 137.762 29.6019 138.114 29.8821C138.465 30.1623 139.015 30.3958 139.762 30.5826L141.641 31.0441C142.773 31.3189 143.616 31.7392 144.171 32.3051C144.726 32.8655 145.004 33.588 145.004 34.4726C145.004 35.1979 144.795 35.8462 144.377 36.4176C143.965 36.989 143.388 37.4396 142.647 37.7692C141.905 38.0989 141.042 38.2637 140.059 38.2637C138.768 38.2637 137.699 37.9835 136.853 37.4231C136.007 36.8627 135.471 36.044 135.246 34.9671L137.092 34.5056C137.268 35.1869 137.6 35.6979 138.089 36.0385C138.584 36.3792 139.229 36.5495 140.026 36.5495C140.932 36.5495 141.652 36.3572 142.185 35.9726C142.724 35.5825 142.993 35.1155 142.993 34.5715C142.993 34.132 142.839 33.7638 142.531 33.4672C142.224 33.165 141.751 32.9397 141.114 32.7913L139.004 32.2969C137.845 32.0221 136.993 31.5963 136.449 31.0194C135.911 30.437 135.641 29.709 135.641 28.8354C135.641 28.1211 135.842 27.4893 136.243 26.9398C136.649 26.3904 137.202 25.9591 137.899 25.6459C138.603 25.3327 139.399 25.1762 140.29 25.1762C141.542 25.1762 142.526 25.4509 143.24 26.0003C143.96 26.5497 144.471 27.275 144.773 28.1761Z" fill="#707070"/>
</svg>
