<svg width="170" height="60" viewBox="0 0 170 60" fill="none" xmlns="http://www.w3.org/2000/svg">
<path d="M113.107 13.0633C112.989 12.8593 112.535 12.4563 111.745 11.8542C110.886 11.1924 110.364 10.9312 110.177 11.0705C109.748 11.394 109.288 11.7621 108.797 12.1751C108.262 12.628 107.842 13.0062 107.537 13.3097C106.971 13.8421 106.461 14.3247 106.007 14.7577C105.155 15.5786 104.452 16.2828 103.898 16.8699C103.861 16.84 103.373 16.5365 102.434 15.9593C101.519 15.397 101.056 15.106 101.043 15.0861C100.832 15.2303 100.39 15.6359 99.7186 16.3026C99.0469 16.9745 98.7109 17.3427 98.7109 17.4073L101.734 20.0048C101.74 20.0097 102.577 20.7512 104.244 22.229C104.312 22.2688 104.371 22.2887 104.421 22.2887C104.707 21.9055 105.145 21.3608 105.736 20.6541C106.601 19.6341 107.497 18.6364 108.423 17.6611C109.058 16.9944 110.096 15.9942 111.54 14.6606C112.622 13.6555 113.144 13.1231 113.107 13.0633Z" fill="#2DD4BF"/>
<path d="M90.1297 32.7224C91.4468 31.8504 92.705 31.584 94.0834 31.8276C96.1237 32.176 97.5951 33.6036 97.688 35.6662C97.7968 38.116 97.7492 40.5727 97.7628 43.027C97.7628 43.6622 97.4386 43.9787 96.8039 43.9764C96.2325 43.9764 95.6703 43.9764 95.0877 43.9764C94.2263 43.9604 93.9814 43.7191 93.9769 42.838C93.9655 40.7388 93.9769 38.6397 93.9633 36.5405C93.9496 35.2814 93.2492 34.6439 91.9999 34.669C90.7962 34.6941 90.1728 35.2928 90.1478 36.5769C90.1115 38.5668 90.1342 40.5567 90.1297 42.5489C90.1297 43.8125 89.9642 43.9787 88.7354 43.9809C86.2417 43.9809 86.3165 44.1949 86.3233 41.6017C86.3346 37.4854 86.3233 33.3667 86.3233 29.2481C86.3233 28.5947 86.2372 27.75 86.983 27.5633C87.8109 27.3758 88.6708 27.3843 89.4949 27.5883C89.7965 27.6612 90.0616 28.4649 90.0957 28.9543C90.1863 30.1519 90.1297 31.3405 90.1297 32.7224Z" fill="#212121"/>
<path d="M64.6431 35.1605V41.2167C65.3618 41.2167 66.0328 41.2326 66.7039 41.2167C67.3274 41.1962 67.5721 41.4875 67.6107 42.0955C67.7036 43.9169 67.6606 43.9852 65.8424 43.9852C63.8021 43.9852 61.7617 43.967 59.7214 43.9852C58.9914 43.9852 58.6423 43.7211 58.7035 42.9788C58.7035 42.8969 58.7035 42.8149 58.7035 42.733C58.7035 41.2486 58.7035 41.2486 60.1861 41.2098C60.3697 41.2098 60.5534 41.1803 60.7869 41.1598V35.1605C60.0682 35.1605 59.37 35.1378 58.674 35.1605C58.0347 35.1856 57.8171 34.8918 57.7944 34.2817C57.7241 32.3806 57.7219 32.3693 59.6262 32.3693H60.873C60.873 31.709 60.8458 31.142 60.873 30.5797C60.9615 29.0269 61.832 28.0616 63.267 27.6199C64.9444 27.102 66.7381 27.102 68.4155 27.6199C69.8006 28.0343 70.5261 29.1749 70.4558 30.6092C70.4309 31.0646 70.2586 31.2513 69.812 31.2353C69.3223 31.2217 68.8304 31.2081 68.343 31.2353C67.6628 31.2786 67.1823 31.2353 67.1255 30.3042C67.0825 29.5802 66.3116 29.6075 65.7494 29.6326C65.1872 29.6576 64.616 29.7669 64.5728 30.4977C64.5388 31.0669 64.5728 31.6361 64.5728 32.3669H67.9008C69.7508 32.3669 69.7349 32.3669 69.685 34.2452C69.6669 34.901 69.4289 35.1764 68.7556 35.1559C67.4112 35.1264 66.0782 35.1605 64.6431 35.1605Z" fill="#212121"/>
<path d="M77.9003 35.1607C77.9003 37.0368 77.8709 38.8036 77.9162 40.568C77.9343 41.2806 78.4739 41.5857 79.417 41.5835C80.1402 41.5835 80.725 41.3808 80.8316 40.5566C80.861 40.178 80.87 39.798 80.8589 39.4183C80.8337 39.2016 80.8499 38.9822 80.9064 38.7717C81.3803 37.7586 82.3143 38.2139 83.0692 38.1525C83.6292 38.1092 84.1166 38.3482 84.137 39.0108C84.1843 39.7695 84.1707 40.5309 84.0962 41.2875C84.0378 41.8772 83.8063 42.4362 83.4309 42.8936C83.0555 43.3509 82.5531 43.6857 81.9878 43.8557C80.4074 44.3999 78.7015 44.461 77.0865 44.031C74.9894 43.5073 74.094 42.328 74.0555 40.1605C74.0305 38.8263 74.0555 37.4898 74.0555 36.1557V35.1607C73.3345 35.1607 72.6953 35.1448 72.0491 35.1607C71.5051 35.1767 71.2375 34.9331 71.233 34.3936C71.2171 32.2534 71.1016 32.3444 73.1033 32.3718H74.0555C74.0555 31.7092 74.0555 31.0967 74.0555 30.4843C74.0759 29.2366 74.4341 28.8746 75.656 28.8496H76.4721C77.4514 28.8906 77.8323 29.264 77.8732 30.2611C77.9048 30.9124 77.9095 31.5658 77.9298 32.2192C77.9298 32.2374 77.9616 32.2579 78.0568 32.3672H81.9538C82.8969 32.3672 83.0397 32.5175 83.0556 33.4577C83.0556 33.6854 83.0397 33.8949 83.0556 34.1112C83.1145 34.8785 82.7927 35.1881 82.0037 35.1607C80.6753 35.1152 79.3444 35.1607 77.9003 35.1607Z" fill="#212121"/>
<path d="M34.2658 30.5714V34.5124H36.8683C37.6301 34.5124 38.394 34.4782 39.1512 34.5329C40.1215 34.6035 40.6724 35.2386 40.6339 36.1266C40.5953 37.0146 40.0331 37.5769 39.0243 37.586C37.4759 37.602 35.9275 37.586 34.2839 37.586C34.259 37.9161 34.2182 38.2008 34.2159 38.4967V42.8226C34.2023 43.7014 33.9461 43.9381 33.0824 43.9609C32.6766 43.9609 32.2662 43.9609 31.8582 43.9609C30.6521 43.9609 30.4163 43.7333 30.4141 42.5425C30.4141 39.9531 30.4141 37.3636 30.4141 34.7742C30.4141 32.921 30.4141 31.0677 30.4141 29.2144C30.4141 27.944 30.8085 27.5455 32.0667 27.541H40.312C41.2528 27.541 41.4455 27.746 41.4636 28.6998V29.4376C41.4342 30.3164 41.212 30.5463 40.3301 30.5486C38.3464 30.5782 36.3628 30.5714 34.2658 30.5714Z" fill="#212121"/>
<path d="M134.65 41.1015C135.469 38.8246 136.831 36.7368 136.645 34.1846C136.618 33.7485 136.623 33.3109 136.661 32.8755C136.727 32.0353 137.341 31.9443 137.972 32.0444C138.74 32.1697 140.012 31.4957 140.13 32.7821C140.257 34.2712 140.257 35.924 139.733 37.2833C138.334 40.9101 136.641 44.4254 135.031 47.9681C134.603 48.9106 133.599 49.2044 132.68 48.7694C131.801 48.3552 131.49 47.4603 131.944 46.4927C132.32 45.6845 132.755 44.899 133.195 44.0543C132.222 43.8972 131.821 43.2415 131.492 42.488C131.003 41.3655 130.529 40.2316 129.962 39.148C129.03 37.3186 128.619 35.2661 128.774 33.217C128.826 32.2835 129.03 32.0491 129.937 32.0308H131.245C132.243 32.0308 132.581 32.2927 132.472 33.2967C132.168 36.1107 133.397 38.4969 134.458 40.9398C134.476 40.9808 134.533 41.0058 134.65 41.1015Z" fill="#2DD4BF"/>
<path d="M116.259 41.1736C116.259 39.5799 116.259 38.0704 116.247 36.5496C116.21 36.3667 116.117 36.1997 115.982 36.0714C115.769 35.8256 115.529 35.6161 115.302 35.3748C113.942 34.0087 113.969 33.4349 115.427 32.2192C116.018 31.7274 116.628 31.6864 117.186 32.2192C117.596 32.6521 117.981 33.1083 118.34 33.5852C120.103 31.5361 122.182 31.4314 124.347 32.0734C126.272 32.6471 127.369 34.9968 126.748 36.9184C126.729 36.9993 126.696 37.0763 126.651 37.1461C125.923 38.0385 124.934 37.6014 124.064 37.5855C123.343 37.5855 123.348 36.9025 123.33 36.3469C123.284 34.8397 122.162 34.0702 120.881 34.7122C120.548 34.883 120.153 35.3338 120.14 35.6708C120.067 37.4921 120.106 39.3135 120.106 41.2351C120.786 41.2351 121.402 41.2511 122.017 41.2351C122.631 41.2192 122.958 41.4628 122.985 42.1458C123.062 43.9672 123.032 44.015 121.196 44.015C119.213 44.015 117.228 44.015 115.241 44.015C114.266 44.015 114.191 43.9262 114.18 42.9267V42.8448C114.18 41.2875 114.18 41.2875 115.724 41.2511C115.848 41.2101 115.982 41.1941 116.259 41.1736Z" fill="#2DD4BF"/>
<path d="M104.257 30.5714C103.123 30.5714 102.06 30.5486 101.008 30.5714C100.239 30.5964 99.9333 30.2549 99.906 29.5081C99.8404 27.6434 99.906 27.5479 101.731 27.5479H111.198C112.289 27.5479 112.418 27.6867 112.429 28.7704V29.5058C112.463 30.2685 112.112 30.5919 111.346 30.569C110.294 30.5372 109.242 30.569 108.086 30.569V31.6323V42.5038C108.086 43.7764 107.879 43.9746 106.621 43.9791C104.257 43.9791 104.257 43.9791 104.257 41.5976V30.5714Z" fill="#2DD4BF"/>
<path d="M47.6828 41.2144V34.8099C46.8802 34.8099 46.0958 34.7872 45.3272 34.8099C44.6653 34.8327 44.4204 34.5595 44.4 33.8992C44.3683 32.0254 44.3479 32.0254 46.2499 32.0254H50.0019C51.2601 32.0254 51.4846 32.2348 51.4846 33.4803V40.1831V41.2098C52.3755 41.2098 53.2075 41.2326 54.035 41.2098C54.7309 41.1848 55.0551 41.4785 55.0099 42.1752C55.0064 42.2298 55.0064 42.2845 55.0099 42.3391C55.028 43.9806 55.028 43.9806 53.4229 43.983H45.3409C44.3297 43.983 44.2641 43.9101 44.2527 42.9265C44.2368 41.2189 44.2368 41.2189 45.9212 41.2189L47.6828 41.2144Z" fill="#212121"/>
<path d="M49.233 30.8349H49.1513C47.043 30.9418 47.0135 30.3795 47.2448 28.2189C47.2719 27.9548 47.7821 27.5837 48.1039 27.5359C48.8864 27.463 49.6736 27.4562 50.4571 27.5154C51.0262 27.5382 51.3367 27.9092 51.4025 28.4579C51.4366 28.7823 51.4457 29.1089 51.4297 29.4346C51.4025 30.4547 51.0625 30.8008 50.0468 30.828C49.777 30.8349 49.505 30.8349 49.233 30.8349Z" fill="#212121"/>
<path d="M38.5593 11.1338L35.7082 13.9868L32.8571 11.1338L30.4141 13.5785L33.2651 16.4315L30.4141 19.2845L32.8571 21.7293L35.7082 18.8763L38.5593 21.7293L41.0024 19.2845L38.1513 16.4315L41.0024 13.5785L38.5593 11.1338Z" fill="#212121"/>
<path d="M90.653 11.0342L87.802 13.8872L84.951 11.0342L82.5078 13.4789L85.359 16.3319L82.5078 19.1849L84.951 21.6296L87.802 18.7766L90.653 21.6296L93.0962 19.1849L90.245 16.3319L93.0962 13.4789L90.653 11.0342Z" fill="#212121"/>
<path d="M56.4577 11.0342L53.6067 13.8872L50.7557 11.0342L48.3125 13.4789L51.1635 16.3319L48.3125 19.1849L50.7557 21.6296L53.6067 18.7767L56.4577 21.6296L58.9009 19.1849L56.0497 16.3319L58.9009 13.4789L56.4577 11.0342Z" fill="#212121"/>
<path d="M74.4499 11.0342L71.5989 13.8872L68.7477 11.0342L66.3047 13.4789L69.1557 16.3319L66.3047 19.1849L68.7477 21.6296L71.5989 18.7767L74.4499 21.6296L76.8929 19.1849L74.0419 16.3319L76.8929 13.4789L74.4499 11.0342Z" fill="#212121"/>
</svg>
