<?xml version="1.0" encoding="utf-8"?>
<!-- Generator: Adobe Illustrator 19.0.0, SVG Export Plug-In . SVG Version: 6.00 Build 0)  -->
<svg version="1.1" id="Layer_1" xmlns="http://www.w3.org/2000/svg" xmlns:xlink="http://www.w3.org/1999/xlink" x="0px" y="0px"
	 viewBox="0 0 500 294.4" style="enable-background:new 0 0 500 294.4;" xml:space="preserve">
<style type="text/css">
	.st0{fill:#FDB033;}
	.st1{fill:#49494B;}
	.st2{fill:#FBAF32;}
	.st3{fill:#4A494B;}
</style>
<g id="XMLID_944_">
	<polygon id="XMLID_946_" class="st0" points="0,85.4 0,107.1 252.3,107.1 252.3,233.1 274.9,233.1 274.9,106.8 413.1,107.5 
		413.1,233.1 434.2,233.1 434.2,85.4 	"/>
	<polygon id="XMLID_945_" class="st1" points="0,143 0,164.7 332.3,164.7 332.3,233.1 352.4,233.1 352.4,164.3 479,165.1 479,290.7 
		500,290.7 500,143 	"/>
</g>
<g id="XMLID_2_">
	<path id="XMLID_16_" class="st2" d="M102.5,79.2h-7V48.9c0-6.4-0.9-11.1-2.9-14s-4.8-4.3-8.7-4.3c-2.1,0-4.1,0.4-6.2,1.2
		c-2.1,0.8-4,1.8-5.8,3.2c-1.8,1.4-3.4,3-4.7,4.9s-2.4,4-3,6.2v33.1h-7V25.1h6.4v12.3c2.2-4,5.4-7.1,9.5-9.6
		c4.1-2.4,8.6-3.6,13.4-3.6c3,0,5.5,0.5,7.6,1.6c2.1,1.1,3.7,2.6,5,4.7s2.1,4.5,2.7,7.4c0.5,2.9,0.8,6.1,0.8,9.7L102.5,79.2
		L102.5,79.2z"/>
	<path id="XMLID_13_" class="st2" d="M141,80.1c-4,0-7.5-0.8-10.8-2.3c-3.3-1.5-6.2-3.5-8.6-6.1c-2.4-2.6-4.3-5.6-5.7-9
		c-1.4-3.4-2-7-2-10.9c0-3.8,0.7-7.4,2-10.7c1.3-3.4,3.2-6.3,5.6-8.8c2.4-2.5,5.2-4.5,8.6-6c3.3-1.5,6.9-2.3,10.8-2.3
		c4,0,7.5,0.8,10.8,2.3c3.3,1.5,6.1,3.5,8.5,6c2.4,2.6,4.2,5.5,5.5,8.8c1.3,3.3,2,6.9,2,10.6c0,0.5,0,1.1,0,1.6s-0.1,0.9-0.1,1.2
		h-46.3c0.2,2.9,0.9,5.6,2,8c1.2,2.5,2.6,4.6,4.4,6.4c1.8,1.8,3.8,3.2,6.2,4.2c2.3,1,4.8,1.5,7.4,1.5c1.7,0,3.5-0.2,5.2-0.7
		c1.7-0.5,3.3-1.2,4.8-2c1.4-0.8,2.7-1.9,4-3.1c1.2-1.2,2.1-2.5,2.7-4l6.1,1.6c-0.8,2-2,3.8-3.5,5.4c-1.5,1.6-3.3,3-5.3,4.2
		c-2,1.2-4.2,2.1-6.6,2.8C146.1,79.8,143.6,80.1,141,80.1z M160.9,49.3c-0.2-2.9-0.9-5.6-2-7.9c-1.2-2.4-2.6-4.5-4.3-6.2
		c-1.8-1.7-3.8-3.1-6.1-4.1c-2.3-1-4.8-1.4-7.4-1.4s-5.1,0.5-7.5,1.4c-2.4,1-4.4,2.3-6.2,4.1c-1.8,1.8-3.2,3.8-4.2,6.2
		c-1.1,2.4-1.7,5.1-1.9,7.9H160.9z"/>
	<path id="XMLID_12_" class="st3" d="M258.9,79.2h-7V48.9c0-6.3-1-10.9-3-13.9c-2-3-5-4.5-8.9-4.5c-2.1,0-4,0.4-5.9,1.2
		c-1.8,0.8-3.5,1.8-5.1,3.2c-1.5,1.4-2.9,3-4.1,4.9s-2.1,4-2.7,6.3v33h-7V48.9c0-6.4-1-11.1-2.9-14s-4.9-4.3-8.9-4.3
		c-4.1,0-7.7,1.4-10.9,4.2c-3.2,2.9-5.4,6.5-6.9,11.2v33.1h-7v-54h6.4v12.3c2.2-4.2,5.1-7.4,8.7-9.7s7.6-3.5,11.9-3.5
		c4.6,0,8.2,1.3,10.9,3.8c2.7,2.6,4.4,5.9,5.1,10.1c5.1-9.3,12-13.9,20.8-13.9c3,0,5.6,0.5,7.7,1.6c2.1,1.1,3.8,2.7,5.1,4.7
		c1.3,2,2.2,4.5,2.8,7.4c0.6,2.9,0.9,6,0.9,9.6L258.9,79.2L258.9,79.2z"/>
	<path id="XMLID_9_" class="st3" d="M287.4,80.1c-2.6,0-4.9-0.4-7.1-1.3c-2.2-0.9-4.1-2-5.7-3.6s-2.9-3.3-3.8-5.3
		c-0.9-2-1.3-4.2-1.3-6.6c0-2.4,0.5-4.5,1.6-6.5c1.1-2,2.6-3.7,4.7-5.2c2-1.4,4.4-2.6,7.1-3.4c2.7-0.8,5.8-1.2,9.1-1.2
		c2.7,0,5.6,0.2,8.4,0.7s5.4,1.2,7.6,2.1V45c0-4.8-1.3-8.6-4.1-11.4c-2.7-2.8-6.4-4.2-11.2-4.2c-2.7,0-5.6,0.5-8.5,1.6
		s-5.8,2.7-8.8,4.8l-2.5-4.7c7-4.7,13.7-7,20.3-7c6.8,0,12.1,1.9,16,5.7c3.8,3.8,5.8,9.1,5.8,15.8V70c0,1.9,0.9,2.9,2.6,2.9v6.2
		c-1.2,0.2-2.1,0.3-2.7,0.3c-1.8,0-3.2-0.4-4.2-1.4c-1-0.9-1.5-2.1-1.6-3.7l-0.2-4.2c-2.5,3.2-5.6,5.7-9.4,7.5
		C295.8,79.3,291.8,80.1,287.4,80.1z M289.1,74.8c3.7,0,7-0.7,10.1-2.1c3.1-1.4,5.4-3.2,7-5.5c0.6-0.6,1.1-1.3,1.4-2
		c0.3-0.7,0.4-1.4,0.4-2v-8.8c-2.4-0.9-4.8-1.6-7.3-2.1s-5.1-0.7-7.7-0.7c-5,0-9,1-12.1,3.1c-3.1,2.1-4.7,4.8-4.7,8.2
		c0,1.6,0.3,3.2,1,4.7c0.7,1.4,1.5,2.7,2.7,3.8s2.5,1.9,4.1,2.5C285.5,74.5,287.2,74.8,289.1,74.8z"/>
	<path id="XMLID_8_" class="st3" d="M368.9,79.2L349,51.5l-11.6,10.8v16.9h-7V3.4h7v51.4l30.4-29.7h8l-22.1,22.1l22.9,31.8
		L368.9,79.2L368.9,79.2z"/>
	<path id="XMLID_5_" class="st3" d="M405.8,80.1c-4,0-7.5-0.8-10.8-2.3c-3.3-1.5-6.2-3.5-8.6-6.1c-2.4-2.6-4.3-5.6-5.7-9
		c-1.4-3.4-2-7-2-10.9c0-3.8,0.7-7.4,2-10.7c1.3-3.4,3.2-6.3,5.6-8.8c2.4-2.5,5.2-4.5,8.6-6c3.3-1.5,6.9-2.3,10.8-2.3
		c4,0,7.5,0.8,10.8,2.3c3.3,1.5,6.1,3.5,8.5,6c2.4,2.6,4.2,5.5,5.5,8.8c1.3,3.3,2,6.9,2,10.6c0,0.5,0,1.1,0,1.6s-0.1,0.9-0.1,1.2
		h-46.3c0.2,2.9,0.9,5.6,2,8c1.2,2.5,2.6,4.6,4.4,6.4c1.8,1.8,3.8,3.2,6.2,4.2c2.3,1,4.8,1.5,7.4,1.5c1.7,0,3.5-0.2,5.2-0.7
		c1.7-0.5,3.3-1.2,4.8-2c1.4-0.8,2.7-1.9,4-3.1c1.2-1.2,2.1-2.5,2.7-4l6.1,1.6c-0.8,2-2,3.8-3.5,5.4c-1.5,1.6-3.3,3-5.3,4.2
		c-2,1.2-4.2,2.1-6.6,2.8C411,79.8,408.5,80.1,405.8,80.1z M425.7,49.3c-0.2-2.9-0.9-5.6-2-7.9c-1.2-2.4-2.6-4.5-4.3-6.2
		c-1.8-1.7-3.8-3.1-6.1-4.1c-2.3-1-4.8-1.4-7.4-1.4s-5.1,0.5-7.5,1.4c-2.4,1-4.4,2.3-6.2,4.1c-1.8,1.8-3.2,3.8-4.2,6.2
		c-1.1,2.4-1.7,5.1-1.9,7.9H425.7z"/>
	<path id="XMLID_4_" class="st2" d="M14.5,23.4c0-1.7,0.2-3.5,0.7-5.3c0.5-1.8,1.2-3.4,2.3-4.8c1-1.4,2.3-2.5,3.8-3.4
		c1.5-0.9,3.5-1.4,5.7-1.4c2.6,0,4.9,0.4,7,1.1s3.8,1.6,5,2.6l3.2-5.1c-0.6-0.4-1.4-0.9-2.4-1.5c-1-0.6-2.1-1.1-3.5-1.6
		s-2.9-0.9-4.5-1.3c-1.6-0.4-3.5-0.5-5.4-0.5c-3.3,0-6.2,0.7-8.6,1.9s-4.4,2.9-6,4.9c-1.5,2-2.7,4.3-3.4,6.9
		c-0.7,2.6-1.1,5.1-1.1,7.6v7H0v5.6h7.5v42.8h7V36.3h20v42.8h7V30.7h-27V23.4z"/>
	<rect id="XMLID_3_" x="34.5" y="20.1" class="st3" width="7" height="7"/>
</g>
</svg>
