<?xml version="1.0" encoding="UTF-8"?>
<svg id="Layer_1" data-name="Layer 1" xmlns="http://www.w3.org/2000/svg" width="505.83" height="64.99" xmlns:xlink="http://www.w3.org/1999/xlink" viewBox="0 0 505.83 64.99">
  <defs>
    <style>
      .cls-1 {
        fill: #75bf45;
      }

      .cls-2 {
        fill: #42554a;
      }

      .cls-3 {
        fill: url(#linear-gradient);
      }
    </style>
    <linearGradient id="linear-gradient" x1="16.92" y1="-562.65" x2="16.92" y2="-627.42" gradientTransform="translate(0 -562.45) scale(1 -1)" gradientUnits="userSpaceOnUse">
      <stop offset="0" stop-color="#75bf45"/>
      <stop offset=".21" stop-color="#74bc45"/>
      <stop offset=".4" stop-color="#6ab045"/>
      <stop offset=".58" stop-color="#639e44"/>
      <stop offset=".76" stop-color="#598446"/>
      <stop offset=".93" stop-color="#486449"/>
      <stop offset="1" stop-color="#42554a"/>
    </linearGradient>
  </defs>
  <g>
    <path class="cls-1" d="M62.83,34.59c-1-.02-1.84-.75-2.01-1.74-2.1-14.28-11.73-28.71-28.43-28.71-15.65,.03-28.34,12.72-28.37,28.37,.1,1.11-.72,2.08-1.83,2.18-1.11,.1-2.08-.72-2.18-1.83-.01-.12-.01-.23,0-.35C-.02,14.61,14.47,.08,32.37,.06h.02C48.89,.06,61.96,13.01,64.86,32.31c.14,1.09-.6,2.1-1.69,2.29-.11,.05-.23,.05-.34,0Z"/>
    <path class="cls-1" d="M93.21,64.98c-8.4,.06-16.44-3.44-22.13-9.62-5.7-6.27-9.28-14.16-10.26-22.58-.13-1.12,.67-2.12,1.79-2.25s2.12,.67,2.25,1.79h0c1.87,14.28,11.4,28.63,28.43,28.63,15.69,0,28.41-12.74,28.4-28.43h0c-.1-1.11,.72-2.08,1.83-2.18,1.11-.1,2.08,.72,2.18,1.83,0,.12,0,.23,0,.35-.02,17.93-14.56,32.46-32.49,32.46Z"/>
    <path class="cls-2" d="M118.62,17.9c-.63-.06-1.2-.4-1.54-.94C108.56,3.85,91.02,.14,77.92,8.66c-3.31,2.16-6.14,4.98-8.3,8.3-.67,.91-1.95,1.1-2.86,.43-.83-.61-1.07-1.74-.57-2.64C75.86-.21,95.83-4.5,110.79,5.18c3.83,2.48,7.1,5.74,9.57,9.57,.6,.94,.34,2.2-.6,2.81-.3,.28-.73,.41-1.14,.34Z"/>
    <path class="cls-1" d="M123.66,34.59h-28.17c-1.11,0-2.01-.9-2.01-2.01s.9-2.01,2.01-2.01h28.17c1.09-.02,1.98,.85,2,1.93v.08c-.01,1.11-.9,2.01-2,2.01Z"/>
    <path class="cls-2" d="M32.45,64.98c-11.66,0-22.42-6.28-28.15-16.43-.2-.34-.4-.74-.6-1.08C1.33,42.87,.09,37.76,.08,32.59c0-1.11,.9-2.01,2.01-2.01s2.01,.9,2.01,2.01c-.03,4.54,1.02,9.03,3.07,13.09,.16,.32,.34,.64,.54,.94,7.67,13.67,24.97,18.54,38.64,10.88,2.95-1.65,5.58-3.82,7.76-6.39,1.16-1.38,2.18-2.86,3.07-4.42,.56-.96,1.79-1.28,2.75-.74,.96,.53,1.3,1.74,.77,2.69,0,.02-.02,.04-.03,.05-1.04,1.82-2.24,3.54-3.59,5.15-6.24,7.06-15.2,11.12-24.63,11.14Z"/>
    <path class="cls-3" d="M31.76,64.98C13.87,64.59-.31,49.78,.08,31.89,.46,14.55,14.42,.59,31.76,.21c1.09-.03,1.99,.83,2.01,1.92v.09c.03,1.09-.83,1.99-1.92,2.01h-.09c-15.66,.36-28.07,13.36-27.7,29.02,.35,15.15,12.55,27.35,27.7,27.7,1.09-.03,1.99,.83,2.02,1.92v.17c-.05,1.08-.94,1.94-2.02,1.94Z"/>
  </g>
  <g>
    <path class="cls-2" d="M199.9,31.18v29.38c-2.52,1.32-5.81,2.39-9.87,3.2-4.05,.81-8.16,1.22-12.3,1.22-6.31,0-11.75-1.29-16.31-3.88-4.57-2.58-8.06-6.31-10.5-11.17-2.43-4.87-3.65-10.69-3.65-17.48s1.2-12.53,3.6-17.39c2.4-4.87,5.86-8.59,10.36-11.17S171.05,0,177.18,0c4.45,0,8.53,.68,12.26,2.03,3.72,1.35,6.91,3.35,9.55,5.99l-2.79,5.68c-3.06-2.64-6.08-4.54-9.06-5.68-2.97-1.14-6.29-1.71-9.96-1.71-7.15,0-12.65,2.25-16.49,6.76s-5.77,10.96-5.77,19.37,1.95,15.12,5.86,19.6c3.9,4.48,9.61,6.71,17.12,6.71,5.47,0,10.54-.81,15.23-2.43v-19.37h-15.77v-5.77h22.54Z"/>
    <path class="cls-2" d="M214.86,64.26V.73h7.39v63.53h-7.39Z"/>
    <path class="cls-2" d="M281.9,.72h6.94v63.53h-5.68L244.86,13.16v51.09h-6.94V.72h5.68l38.3,51.09V.72Z"/>
    <path class="cls-2" d="M304.52,64.26V.73h40.19V6.86h-32.89V28.94h31.09v6.13h-31.09v23.07h32.89v6.13h-40.19Z"/>
    <path class="cls-2" d="M352.46,56.96l2.88-5.68c3.12,2.64,6.32,4.54,9.6,5.68,3.27,1.14,7.07,1.71,11.4,1.71,5.11,0,9.04-.99,11.8-2.97s4.15-4.78,4.15-8.38c0-2.1-.66-3.82-1.98-5.14-1.32-1.32-3.06-2.37-5.23-3.15-2.16-.78-5.08-1.59-8.74-2.43-4.93-1.14-8.97-2.34-12.12-3.6-3.15-1.26-5.71-3.06-7.66-5.41-1.95-2.34-2.93-5.41-2.93-9.19s.95-6.8,2.84-9.6c1.89-2.79,4.6-4.96,8.11-6.49C368.09,.78,372.16,0,376.79,0c4.38,0,8.48,.69,12.3,2.07,3.81,1.38,7.04,3.36,9.69,5.95l-2.79,5.68c-3-2.58-6.05-4.46-9.15-5.63s-6.44-1.76-10.05-1.76c-4.93,0-8.79,1.04-11.58,3.11-2.79,2.07-4.19,4.97-4.19,8.7,0,3.19,1.23,5.59,3.69,7.21s6.19,3,11.17,4.15c5.47,1.32,9.76,2.54,12.89,3.65,3.12,1.11,5.72,2.78,7.8,5,2.07,2.22,3.11,5.2,3.11,8.92s-.95,6.76-2.84,9.46c-1.89,2.7-4.61,4.79-8.16,6.26-3.55,1.47-7.69,2.21-12.44,2.21-9.9,0-17.83-2.69-23.78-8.03Z"/>
    <path class="cls-2" d="M458.07,.72l-24.96,33.52v30.01h-7.39v-30.1L400.76,.72h8.56l20.18,27.4L449.68,.72h8.39Z"/>
    <path class="cls-2" d="M458.61,56.96l2.88-5.68c3.12,2.64,6.32,4.54,9.6,5.68,3.27,1.14,7.07,1.71,11.4,1.71,5.11,0,9.04-.99,11.81-2.97,2.76-1.98,4.15-4.78,4.15-8.38,0-2.1-.66-3.82-1.98-5.14-1.32-1.32-3.06-2.37-5.23-3.15-2.16-.78-5.08-1.59-8.74-2.43-4.93-1.14-8.97-2.34-12.12-3.6-3.15-1.26-5.71-3.06-7.66-5.41-1.95-2.34-2.93-5.41-2.93-9.19s.95-6.8,2.84-9.6c1.89-2.79,4.6-4.96,8.11-6.49S478.32,0,482.95,0c4.39,0,8.49,.69,12.3,2.07s7.04,3.36,9.69,5.95l-2.79,5.68c-3.01-2.58-6.05-4.46-9.15-5.63-3.1-1.17-6.45-1.76-10.05-1.76-4.93,0-8.79,1.04-11.58,3.11-2.79,2.07-4.19,4.97-4.19,8.7,0,3.19,1.23,5.59,3.69,7.21s6.19,3,11.17,4.15c5.47,1.32,9.77,2.54,12.89,3.65s5.72,2.78,7.79,5,3.11,5.2,3.11,8.92-.95,6.76-2.84,9.46c-1.89,2.7-4.61,4.79-8.15,6.26-3.55,1.47-7.69,2.21-12.44,2.21-9.91,0-17.84-2.69-23.79-8.03Z"/>
  </g>
</svg>