<svg width="170" height="60" viewBox="0 0 170 60" fill="none" xmlns="http://www.w3.org/2000/svg">
<path d="M78.3359 35.5461L80.3289 32.7121C81.0274 33.4455 81.8674 34.0297 82.7982 34.4291C83.7289 34.8286 84.731 35.0351 85.7439 35.0361C87.7609 35.0361 88.7059 34.1431 88.7059 33.1461C88.7059 30.1841 78.8989 32.2531 78.8989 25.8461C78.8989 23.0121 81.3499 20.6611 85.3599 20.6611C87.7965 20.5689 90.1749 21.4199 91.9999 23.0371L89.9829 25.7441C88.6223 24.5258 86.8551 23.8609 85.0289 23.8801C83.4969 23.8801 82.6289 24.5431 82.6289 25.5651C82.6289 28.2471 92.4099 26.4331 92.4099 32.7921C92.4099 35.9081 90.1629 38.2571 85.5919 38.2571C84.2627 38.3201 82.9345 38.1126 81.6878 37.6473C80.4411 37.182 79.3018 36.4685 78.3389 35.5501" fill="#49C2C6"/>
<path d="M93.9253 38.2537V24.4127H88.9453V21.2207H102.535V24.4127H97.5812V38.2537H93.9253Z" fill="#47C8F5"/>
<path d="M99.0664 29.4441C99.0488 27.6807 99.5555 25.9517 100.522 24.4767C101.489 23.0018 102.872 21.8472 104.496 21.1595C106.12 20.4719 107.911 20.2822 109.643 20.6145C111.375 20.9469 112.969 21.7862 114.223 23.0261C115.477 24.2659 116.335 25.8504 116.687 27.5784C117.039 29.3065 116.87 31.1001 116.2 32.7318C115.531 34.3634 114.393 35.7595 112.929 36.7429C111.465 37.7263 109.742 38.2526 107.979 38.2551C106.804 38.3041 105.631 38.1105 104.535 37.6864C103.438 37.2623 102.44 36.6168 101.604 35.79C100.768 34.9633 100.111 33.9732 99.6743 32.8813C99.2377 31.7895 99.0308 30.6194 99.0664 29.4441ZM113.137 29.4441C113.137 26.2521 111.121 23.8511 107.979 23.8511C104.837 23.8511 102.794 26.2511 102.794 29.4441C102.794 32.6371 104.811 35.0371 107.979 35.0371C111.147 35.0371 113.137 32.6111 113.137 29.4441Z" fill="#6666AF"/>
<path d="M114.828 38.2487V21.2188H122.796C123.542 21.1614 124.292 21.2623 124.997 21.5147C125.701 21.7672 126.345 22.1656 126.885 22.6838C127.425 23.2021 127.849 23.8285 128.13 24.5221C128.411 25.2157 128.543 25.9608 128.516 26.7087C128.516 29.6957 126.474 32.1738 122.796 32.1738H118.458V38.2487H114.828ZM124.814 26.7048C124.816 26.3824 124.75 26.0634 124.62 25.7683C124.49 25.4732 124.3 25.2086 124.062 24.9918C123.823 24.7749 123.542 24.6106 123.236 24.5095C122.93 24.4083 122.606 24.3727 122.285 24.4047H118.458V28.9757H122.289C122.608 29.0076 122.929 28.9727 123.233 28.8732C123.538 28.7736 123.818 28.6117 124.056 28.3978C124.294 28.1839 124.484 27.9226 124.616 27.6307C124.747 27.3389 124.816 27.0228 124.818 26.7028" fill="#EE3A68"/>
<path d="M125.93 35.6027L127.921 32.7687C128.619 33.5025 129.459 34.0868 130.39 34.4863C131.321 34.8857 132.323 35.0921 133.336 35.0927C135.354 35.0927 136.299 34.1997 136.299 33.2027C136.299 30.2397 126.492 32.3097 126.492 25.9027C126.492 23.0687 128.943 20.7177 132.953 20.7177C135.389 20.6255 137.768 21.4766 139.593 23.0937L137.575 25.8007C136.214 24.5831 134.447 23.9183 132.621 23.9367C131.089 23.9367 130.221 24.6017 130.221 25.6217C130.221 28.3037 140.002 26.4897 140.002 32.8487C140.002 35.9647 137.755 38.3137 133.184 38.3137C131.854 38.3768 130.526 38.1694 129.28 37.7041C128.033 37.2388 126.894 36.5252 125.931 35.6067" fill="#F8993A"/>
<path d="M55.5098 41.091L57.1158 39.306C57.6192 39.8916 58.2529 40.3511 58.9659 40.6477C59.6789 40.9443 60.4515 41.0697 61.2218 41.014C62.9308 41.014 64.4098 40.224 64.9958 37.571L65.3018 36.219C64.8371 36.827 64.2391 37.3203 63.5537 37.6608C62.8684 38.0013 62.114 38.18 61.3488 38.183C58.8488 38.183 56.6818 36.683 56.6818 33.158C56.6818 29.332 59.1038 25.584 63.0818 25.584C63.8815 25.5942 64.6686 25.7852 65.384 26.1429C66.0994 26.5005 66.7246 27.0154 67.2128 27.649L67.6198 25.89H70.2978L67.6978 37.57C66.7028 41.981 63.9238 43.206 61.2708 43.206C58.8988 43.206 56.9348 42.67 55.5078 41.09M65.7598 34.153L66.7548 29.69C66.3929 29.1331 65.8919 28.6803 65.3014 28.3764C64.7109 28.0724 64.0513 27.9279 63.3878 27.957C61.0408 27.957 59.4878 30.176 59.4878 32.674C59.4553 33.0876 59.5115 33.5034 59.6527 33.8936C59.7939 34.2837 60.0169 34.6392 60.3066 34.9362C60.5963 35.2332 60.9461 35.4649 61.3326 35.6158C61.7192 35.7666 62.1334 35.8332 62.5478 35.811C63.1699 35.7758 63.7776 35.61 64.3314 35.3243C64.8851 35.0386 65.3725 34.6395 65.7618 34.153" fill="#FFCD05"/>
<path d="M67.6036 32.9559C67.5579 31.0493 68.2706 29.2024 69.5852 27.8206C70.8998 26.4389 72.709 25.6352 74.6156 25.5859C78.3636 25.5859 80.5066 27.8859 80.5066 31.1189C80.5542 33.029 79.843 34.8802 78.5288 36.2671C77.2146 37.654 75.4044 38.4637 73.4946 38.5189C69.7466 38.5189 67.6036 36.1979 67.6036 32.9599M77.7266 31.2509C77.7688 30.8151 77.7153 30.3754 77.5699 29.9623C77.4246 29.5493 77.1908 29.173 76.8849 28.8597C76.579 28.5464 76.2085 28.3037 75.799 28.1484C75.3896 27.9932 74.9513 27.9292 74.5146 27.9609C72.0926 27.9609 70.3836 30.3329 70.3836 32.8609C70.3414 33.2967 70.3948 33.7365 70.5402 34.1495C70.6856 34.5626 70.9193 34.9389 71.2252 35.2522C71.5311 35.5655 71.9017 35.8082 72.3111 35.9634C72.7205 36.1187 73.1588 36.1827 73.5956 36.1509C76.0176 36.1509 77.7266 33.7509 77.7266 31.2509Z" fill="#FFCD05"/>
<path d="M51.394 34.9841C51.394 36.6548 50.8986 38.2879 49.9704 39.677C49.0423 41.0661 47.723 42.1488 46.1795 42.7881C44.636 43.4274 42.9376 43.5947 41.2991 43.2688C39.6605 42.9429 38.1554 42.1384 36.9741 40.957C35.7927 39.7757 34.9882 38.2706 34.6623 36.632C34.3364 34.9935 34.5037 33.295 35.143 31.7516C35.7823 30.2081 36.865 28.8888 38.2541 27.9607C39.6432 27.0325 41.2763 26.5371 42.947 26.5371C44.0563 26.537 45.1548 26.7554 46.1797 27.1798C47.2046 27.6043 48.1358 28.2265 48.9202 29.0109C49.7046 29.7953 50.3268 30.7265 50.7513 31.7514C51.1757 32.7763 51.3941 33.8748 51.394 34.9841Z" fill="#FFCD05"/>
<path d="M47.9639 33.4201C47.0625 33.167 46.1058 33.19 45.2176 33.4861C44.3293 33.7821 43.5502 34.3378 42.9809 35.0811C40.9499 38.4261 43.7879 40.1811 43.7879 40.1811C44.0914 40.4116 44.4393 40.5767 44.8098 40.6659C45.1803 40.755 45.5652 40.7664 45.9403 40.6992C46.3154 40.632 46.6724 40.4877 46.9889 40.2755C47.3054 40.0632 47.5744 39.7876 47.7789 39.4661C48.0001 39.1643 48.139 38.8102 48.182 38.4385C48.2249 38.0668 48.1704 37.6904 48.0238 37.3461C47.8773 37.0018 47.6437 36.7016 47.346 36.4749C47.0483 36.2482 46.6968 36.1029 46.3259 36.0531C45.8978 35.9801 45.4581 36.08 45.1036 36.3308C44.749 36.5817 44.5085 36.9631 44.4349 37.3911C44.3844 37.7003 44.4487 38.0173 44.6157 38.2824C44.7826 38.5475 45.0408 38.7424 45.3414 38.8304C45.6421 38.9184 45.9646 38.8935 46.2481 38.7603C46.5317 38.627 46.7567 38.3948 46.8809 38.1071C46.7983 38.5038 46.5755 38.8574 46.2533 39.1031C45.9312 39.3488 45.5313 39.4702 45.1269 39.4451C43.1649 39.4451 42.3099 36.7601 44.3199 35.3151C46.3299 33.8701 49.3199 35.2911 49.8719 37.5771C50.034 38.2318 50.0379 38.9156 49.8832 39.572C49.7285 40.2284 49.4197 40.8385 48.9823 41.3519C48.545 41.8653 47.9917 42.2671 47.3682 42.5242C46.7447 42.7812 46.069 42.8861 45.3969 42.8301C43.875 42.7131 42.4531 42.0265 41.4151 40.9073C40.3771 39.7881 39.7992 38.3186 39.7969 36.7921C39.8642 35.6856 40.205 34.613 40.7888 33.6705C41.3726 32.7281 42.1811 31.9452 43.1419 31.3922C44.3488 30.7467 45.7152 30.4603 47.0796 30.5666C48.4441 30.6729 49.7496 31.1676 50.8419 31.9921C51.3343 33.274 51.5026 34.6576 51.3319 36.0201C50.5788 34.7589 49.3747 33.8298 47.9639 33.4201Z" fill="white"/>
<path d="M51.4708 29.3391C51.4708 29.3391 50.8408 31.8391 52.0948 31.1291C52.2687 31.0278 52.4253 30.8996 52.5588 30.7491C53.6785 29.569 54.604 28.2189 55.3008 26.7491C55.4015 26.4718 55.3991 26.1676 55.2938 25.8921C55.2207 25.6929 55.0816 25.5247 54.8997 25.4156C54.7177 25.3064 54.5039 25.2628 54.2938 25.2921C54.0055 25.3099 53.7255 25.3958 53.4768 25.5426C53.2281 25.6895 53.0177 25.8932 52.8628 26.1371C52.2578 27.1338 51.7915 28.2083 51.4768 29.3311" fill="#F8993A"/>
<path d="M38.7725 37.9976C38.7725 37.9976 39.0115 37.4615 38.1485 36.9875C38.1485 36.9875 33.1825 33.8645 32.0225 33.9875C32.0225 33.9875 30.4475 33.6305 30.1225 34.7875C30.1225 34.7875 29.9435 35.7995 31.6685 36.6305C33.5794 37.3535 35.549 37.9105 37.5555 38.2956C37.5555 38.2956 38.5675 38.6525 38.7755 37.9955" fill="#49C2C6"/>
<path d="M30.3814 25.565C30.3814 25.565 28.8214 26.987 32.0114 29.552L37.1424 33.123C37.1424 33.123 38.5644 34.372 39.3274 33.991C39.3274 33.991 40.0214 33.644 38.9804 32.291C38.9804 32.291 32.6344 23.554 30.3804 25.564" fill="#47C8F5"/>
<path d="M42.708 30.4348C42.708 30.4348 42.327 30.8898 40.489 28.7758C38.651 26.6618 35.203 22.6758 34.794 20.6278C34.385 18.5798 36.155 17.7848 37.785 19.6568C39.415 21.5288 44.026 29.3568 42.708 30.4368" fill="#6666AF"/>
<path d="M44.0475 17.0082C44.0475 17.0082 42.1165 16.9742 42.9945 20.7292C43.6865 23.4428 44.5711 26.1035 45.6415 28.6912C45.6415 28.6912 45.9935 29.6652 46.5845 29.4912C47.1755 29.3172 47.2455 28.2752 47.2455 28.2752C47.2455 28.2752 47.4185 16.6262 44.0455 17.0092" fill="#EE3A68"/>
</svg>
