<svg width="170" height="60" viewBox="0 0 170 60" fill="none" xmlns="http://www.w3.org/2000/svg">
<path d="M36 10H39.7257V20.9567C40.5448 19.78 41.6559 18.831 42.9526 18.2006C44.2493 17.5703 45.6881 17.2798 47.131 17.357C52.1207 17.357 56.091 20.5119 56.091 26.8611V39.9224H52.4054V27.3815C52.4054 22.8523 49.9105 20.5496 46.1438 20.5496C42.3389 20.5496 39.7237 22.8978 39.7237 27.6687V39.9263H36V10Z" fill="#212121"/>
<path d="M126.422 40.5641H122.523V17.9891H126.422V21.6536C127.744 19.1391 130.274 17.5742 133.998 17.5742V21.4525H132.969C129.245 21.4525 126.423 23.0598 126.423 28.2843L126.422 40.5641Z" fill="#212121"/>
<path d="M73.2483 36.6254C72.0768 37.2169 70.7848 37.538 69.4695 37.5646C68.1543 37.5912 66.8501 37.3226 65.6551 36.7789C64.4601 36.2353 63.4053 35.4308 62.5703 34.426C61.7352 33.4212 61.1415 32.2423 60.834 30.978C60.5264 29.7136 60.5129 28.3968 60.7946 27.1265C61.0762 25.8563 61.6457 24.6657 62.46 23.6445C63.2744 22.6232 64.3124 21.7978 65.4961 21.2304C66.6798 20.663 67.9782 20.3684 69.2937 20.3687C74.0878 20.3687 78.2566 24.2372 77.9944 28.9695C78.3232 30.8004 78.9104 32.5767 79.7389 34.2462C81.0248 31.7573 81.3577 28.893 80.6764 26.1807C79.9951 23.4684 78.3454 21.0907 76.0311 19.4855C73.7168 17.8803 70.8937 17.1557 68.0818 17.4452C65.2698 17.7346 62.6584 19.0185 60.7282 21.0606C58.7981 23.1026 57.6793 25.7653 57.5779 28.5581C57.4764 31.351 58.3992 34.0861 60.1762 36.2597C61.9532 38.4333 64.4648 39.8991 67.2486 40.3871C70.0323 40.8751 72.9006 40.3525 75.3254 38.9156C74.5467 38.2335 73.8501 37.465 73.2493 36.6254H73.2483Z" fill="url(#paint0_linear_328_14270)"/>
<path d="M84.2918 17.375C82.1668 17.372 80.0812 17.9425 78.2601 19.025C79.0385 19.7069 79.7351 20.4751 80.3362 21.3142C81.5079 20.7223 82.8002 20.4008 84.1157 20.374C85.4312 20.3472 86.7358 20.6157 87.9312 21.1594C89.1266 21.703 90.1816 22.5076 91.0169 23.5126C91.8523 24.5176 92.4461 25.6968 92.7537 26.9615C93.0613 28.2261 93.0747 29.5433 92.7929 30.8138C92.5111 32.0844 91.9414 33.2751 91.1267 34.2966C90.312 35.318 89.2736 36.1434 88.0895 36.7107C86.9054 37.278 85.6066 37.5725 84.2908 37.5718C79.4968 37.5718 75.3289 33.7033 75.5901 28.971C75.2622 27.14 74.6753 25.3637 73.8467 23.6943C72.6837 25.9445 72.2962 28.5086 72.7432 30.9964C73.1902 33.4843 74.4471 35.7597 76.3227 37.4764C78.1983 39.1931 80.5899 40.2572 83.1336 40.5066C85.6772 40.756 88.2337 40.1771 90.4139 38.8581C92.5942 37.5391 94.2788 35.5521 95.2114 33.1995C96.1441 30.8469 96.2738 28.2575 95.5807 25.8254C94.8876 23.3932 93.4097 21.2515 91.3719 19.7261C89.3341 18.2007 86.8479 17.3751 84.2918 17.375Z" fill="url(#paint1_linear_328_14270)"/>
<path d="M108.921 17.3828C105.811 17.3828 102.829 18.604 100.63 20.7778C98.4307 22.9516 97.1953 25.8998 97.1953 28.974C97.1953 29.1094 97.2002 29.2429 97.2051 29.3763C97.1983 29.4348 97.195 29.4935 97.1953 29.5524V48.4223C97.1953 48.6294 97.2366 48.8345 97.3168 49.0259C97.397 49.2173 97.5145 49.3912 97.6627 49.5377C97.8109 49.6841 97.9868 49.8003 98.1804 49.8796C98.374 49.9589 98.5816 49.9997 98.7911 49.9997C99.0007 49.9997 99.2082 49.9589 99.4018 49.8796C99.5954 49.8003 99.7713 49.6841 99.9194 49.5377C100.068 49.3912 100.185 49.2173 100.265 49.0259C100.346 48.8345 100.387 48.6294 100.387 48.4223V36.92C101.719 38.3183 103.382 39.3674 105.225 39.973C107.069 40.5786 109.037 40.7217 110.95 40.3896C112.864 40.0574 114.664 39.2603 116.189 38.07C117.714 36.8797 118.915 35.3334 119.686 33.5702C120.456 31.8071 120.772 29.8822 120.603 27.9688C120.435 26.0554 119.788 24.2133 118.721 22.6083C117.653 21.0033 116.2 19.6855 114.49 18.7736C112.78 17.8616 110.867 17.3841 108.924 17.3838L108.921 17.3828ZM108.921 37.3707C107.241 37.3709 105.598 36.8785 104.201 35.9559C102.804 35.0332 101.715 33.7217 101.072 32.1871C100.429 30.6526 100.26 28.9641 100.588 27.335C100.916 25.7059 101.725 24.2095 102.913 23.035C104.101 21.8605 105.615 21.0607 107.263 20.7367C108.911 20.4127 110.619 20.579 112.172 21.2148C113.724 21.8505 115.051 22.927 115.984 24.3081C116.918 25.6893 117.416 27.313 117.415 28.974C117.415 31.2009 116.52 33.3365 114.927 34.9111C113.334 36.4857 111.174 37.3705 108.921 37.3707Z" fill="#212121"/>
<defs>
<linearGradient id="paint0_linear_328_14270" x1="60.877" y1="37.0415" x2="77.2659" y2="20.4623" gradientUnits="userSpaceOnUse">
<stop stop-color="#FF7479"/>
<stop offset="1" stop-color="#FF3A68"/>
</linearGradient>
<linearGradient id="paint1_linear_328_14270" x1="69.0204" y1="44.3197" x2="82.7933" y2="30.3868" gradientUnits="userSpaceOnUse">
<stop stop-color="#FF7579"/>
<stop offset="0.43" stop-color="#FF536F"/>
<stop offset="1" stop-color="#FF3768"/>
</linearGradient>
</defs>
</svg>
