<svg width="537" height="63" viewBox="0 0 537 63" fill="none" xmlns="http://www.w3.org/2000/svg">
<path d="M51.96 26.6V36.24H13.92V26.6H51.96ZM0.0400001 11.88V1.27999H27.2V11.88H19.84V51.4H27.2V62H0.0400001V51.4H7.36V11.88H0.0400001ZM39.52 11.88V1.27999H66.68V11.88H59.32V51.4H66.68V62H39.52V51.4H46.84V11.88H39.52ZM108.463 1.27999H134.783V11.88H127.703V38.04C127.703 43.1867 126.676 47.6133 124.623 51.32C122.57 55.0267 119.636 57.88 115.823 59.88C112.036 61.88 107.503 62.88 102.223 62.88C96.9965 62.88 92.4765 61.88 88.6631 59.88C84.8765 57.88 81.9565 55.0267 79.9031 51.32C77.8498 47.6133 76.8231 43.1867 76.8231 38.04V11.88H69.7431V1.27999H97.1031V11.88H89.5831V37.76C89.5831 40.56 90.1031 42.9467 91.1431 44.92C92.1831 46.8933 93.6765 48.4133 95.6231 49.48C97.5965 50.52 99.9565 51.04 102.703 51.04C105.476 51.04 107.85 50.52 109.823 49.48C111.796 48.4133 113.316 46.8933 114.383 44.92C115.45 42.92 115.983 40.5333 115.983 37.76V11.88H108.463V1.27999ZM163.453 11.88V1.27999H171.213C177.559 1.27999 182.546 2.6 186.173 5.24C189.799 7.88 191.613 11.7733 191.613 16.92C191.613 22.0133 189.759 25.7467 186.053 28.12C182.373 30.4933 176.973 31.68 169.853 31.68H153.813V26.6H169.813C171.946 26.6 173.666 26.2533 174.973 25.56C176.279 24.84 177.226 23.9067 177.813 22.76C178.426 21.5867 178.733 20.32 178.733 18.96C178.733 16.6133 177.893 14.8533 176.212 13.68C174.533 12.48 172.279 11.88 169.453 11.88H163.453ZM162.653 51.4H170.613C173.759 51.4 176.266 50.7467 178.133 49.44C180.026 48.1067 180.973 46.2 180.973 43.72C180.973 42.6267 180.773 41.6267 180.373 40.72C179.973 39.8133 179.346 39.0267 178.493 38.36C177.639 37.6667 176.533 37.1333 175.173 36.76C173.839 36.3867 172.226 36.2 170.333 36.2H153.813V29.84H170.333C174.119 29.84 177.466 30.12 180.373 30.68C183.306 31.24 185.773 32.1333 187.773 33.36C189.773 34.5867 191.279 36.1867 192.293 38.16C193.333 40.1333 193.853 42.52 193.853 45.32C193.853 50.6267 192.079 54.7333 188.533 57.64C184.986 60.5467 180.093 62 173.853 62H162.653V51.4ZM137.853 11.88V1.27999H165.373V11.88H157.653V51.4H165.373V62H137.853V51.4H145.173V11.88H137.853ZM177.093 29.24H180.933V32.04H177.093V29.24ZM229.974 62.8C224.828 62.8 220.761 61.7333 217.774 59.6C214.788 57.4667 213.014 54.3333 212.454 50.2H210.614L212.014 43.2C212.654 45.9467 214.401 48.1333 217.254 49.76C220.108 51.3867 223.494 52.2 227.414 52.2C230.614 52.2 233.028 51.6267 234.654 50.48C236.281 49.3333 237.094 47.6133 237.094 45.32C237.094 43.7733 236.654 42.48 235.774 41.44C234.894 40.3733 233.481 39.5067 231.534 38.84C229.588 38.1733 226.988 37.64 223.734 37.24C218.268 36.6533 213.721 35.5067 210.094 33.8C206.468 32.0933 203.748 29.8667 201.934 27.12C200.148 24.3467 199.254 21.0267 199.254 17.16C199.254 11.9333 200.921 7.84 204.254 4.88C207.614 1.89333 212.334 0.399997 218.414 0.399997C221.748 0.399997 224.601 0.879997 226.974 1.84C229.348 2.77333 231.228 4.18666 232.614 6.08C234.001 7.97333 234.854 10.3333 235.174 13.16H236.974L235.534 19.92C234.974 17.2 233.321 15.0267 230.574 13.4C227.828 11.7467 224.548 10.92 220.734 10.92C217.988 10.92 215.854 11.4133 214.334 12.4C212.841 13.3867 212.094 14.8 212.094 16.64C212.094 17.92 212.534 19.0667 213.414 20.08C214.321 21.0933 215.761 21.9733 217.734 22.72C219.708 23.4667 222.321 24.0933 225.574 24.6C231.228 25.2933 235.841 26.4667 239.414 28.12C243.014 29.7733 245.668 31.9733 247.374 34.72C249.108 37.4667 249.974 40.8267 249.974 44.8C249.974 50.5067 248.241 54.9333 244.774 58.08C241.308 61.2267 236.374 62.8 229.974 62.8ZM199.494 62V43.2H212.014V62H199.494ZM235.534 19.92V1.27999H248.054V19.92H235.534ZM285.908 63C281.321 63 277.108 62.24 273.268 60.72C269.428 59.1733 266.108 57 263.308 54.2C260.535 51.3733 258.375 48.04 256.828 44.2C255.308 40.3333 254.548 36.0933 254.548 31.48C254.548 26.8933 255.295 22.7067 256.788 18.92C258.281 15.1067 260.361 11.8133 263.028 9.04C265.721 6.26666 268.841 4.12 272.388 2.6C275.961 1.08 279.815 0.319998 283.948 0.319998C287.788 0.319998 291.068 1.01333 293.788 2.39999C296.535 3.76 298.708 5.77333 300.308 8.44C301.935 11.08 302.988 14.3467 303.468 18.24H306.428L303.908 25.56C302.868 21.5067 300.748 18.28 297.548 15.88C294.348 13.48 290.508 12.28 286.028 12.28C282.401 12.28 279.201 13.0933 276.428 14.72C273.681 16.32 271.521 18.5733 269.948 21.48C268.401 24.36 267.628 27.6933 267.628 31.48C267.628 34.36 268.068 37 268.948 39.4C269.855 41.8 271.108 43.88 272.708 45.64C274.335 47.3733 276.268 48.7067 278.508 49.64C280.748 50.5733 283.215 51.04 285.908 51.04C289.001 51.04 291.775 50.44 294.228 49.24C296.708 48.0133 298.761 46.2933 300.388 44.08C302.015 41.8667 303.108 39.2667 303.668 36.28L316.468 38.44C315.588 43.3733 313.748 47.6933 310.948 51.4C308.175 55.08 304.641 57.9333 300.348 59.96C296.081 61.9867 291.268 63 285.908 63ZM303.908 25.56V1.27999H316.388V25.56H303.908ZM358.418 28.48C360.604 28.9867 362.498 29.8533 364.098 31.08C365.724 32.3067 366.818 33.6933 367.378 35.24L373.538 51.4H378.818V62H363.578L356.498 40.6C355.938 38.9733 355.271 37.8533 354.498 37.24C353.751 36.6267 352.618 36.32 351.098 36.32H346.498L358.418 28.48ZM343.018 11.88V1.27999H353.818C361.364 1.27999 367.031 2.73333 370.818 5.64C374.604 8.54666 376.498 12.6 376.498 17.8C376.498 20.2 376.071 22.36 375.218 24.28C374.391 26.2 373.191 27.8533 371.618 29.24C370.044 30.6 368.138 31.6533 365.898 32.4V33.76L354.418 36.32H337.658V26.68H353.418C355.631 26.68 357.498 26.4 359.018 25.84C360.564 25.28 361.724 24.44 362.498 23.32C363.271 22.2 363.658 20.7867 363.658 19.08C363.658 16.5467 362.724 14.72 360.858 13.6C359.018 12.4533 356.564 11.88 353.498 11.88H343.018ZM320.978 11.88V1.27999H348.138V11.88H340.778V51.4H348.258V62H320.978V51.4H328.298V11.88H320.978ZM382.853 11.88V1.27999H410.013V11.88H402.653V51.4H410.013V62H382.853V51.4H390.173V11.88H382.853ZM441.734 11.88V1.27999H449.494C455.84 1.27999 460.827 2.6 464.454 5.24C468.08 7.88 469.894 11.7733 469.894 16.92C469.894 22.0133 468.04 25.7467 464.334 28.12C460.654 30.4933 455.254 31.68 448.134 31.68H432.094V26.6H448.094C450.227 26.6 451.947 26.2533 453.254 25.56C454.56 24.84 455.507 23.9067 456.094 22.76C456.707 21.5867 457.014 20.32 457.014 18.96C457.014 16.6133 456.174 14.8533 454.494 13.68C452.814 12.48 450.56 11.88 447.734 11.88H441.734ZM440.934 51.4H448.894C452.04 51.4 454.547 50.7467 456.414 49.44C458.307 48.1067 459.254 46.2 459.254 43.72C459.254 42.6267 459.054 41.6267 458.654 40.72C458.254 39.8133 457.627 39.0267 456.774 38.36C455.92 37.6667 454.814 37.1333 453.454 36.76C452.12 36.3867 450.507 36.2 448.614 36.2H432.094V29.84H448.614C452.4 29.84 455.747 30.12 458.654 30.68C461.587 31.24 464.054 32.1333 466.054 33.36C468.054 34.5867 469.56 36.1867 470.574 38.16C471.614 40.1333 472.134 42.52 472.134 45.32C472.134 50.6267 470.36 54.7333 466.814 57.64C463.267 60.5467 458.374 62 452.134 62H440.934V51.4ZM416.134 11.88V1.27999H443.654V11.88H435.934V51.4H443.654V62H416.134V51.4H423.454V11.88H416.134ZM455.374 29.24H459.214V32.04H455.374V29.24ZM516.633 26.6V36.24H490.873V26.6H516.633ZM523.633 41.08H536.113V62H476.993V51.4H484.313V11.88H476.993V1.27999H535.393V22.2H522.913V11.88H496.793V51.4H523.633V41.08Z" fill="#191919"/>
</svg>
