<?xml version="1.0" encoding="utf-8"?>
<!-- Generator: Adobe Illustrator 19.0.0, SVG Export Plug-In . SVG Version: 6.00 Build 0)  -->
<svg version="1.1" id="Layer_1" xmlns="http://www.w3.org/2000/svg" xmlns:xlink="http://www.w3.org/1999/xlink" x="0px" y="0px"
	 viewBox="-180 223 139 56" style="enable-background:new -180 223 139 56;" xml:space="preserve">
<style type="text/css">
	.st0{fill:#02B8A5;}
	.st1{fill:#0C1D35;}
</style>
<title>logo</title>
<desc>Created with Sketch.</desc>
<g id="_x32_3.-july">
	<g id="Case-study" transform="translate(-90.000000, -845.000000)">
		<g id="Group-17" transform="translate(90.000000, 835.000000)">
			<g id="logo" transform="translate(0.000000, 10.000000)">
				<g id="Shape" transform="translate(15.000000, 15.000000)">
					<polygon class="st0" points="-180,223.7 -174.6,223.7 -174.6,233.6 -166.4,233.6 -166.4,223.7 -161,223.7 -161,247.5 
						-166.4,247.5 -166.4,238.2 -174.6,238.2 -174.6,247.5 -180,247.5 					"/>
					<polygon class="st0" points="-155.4,244 -155.4,223.7 -150,223.7 -150,242.1 -148.6,243.4 -143.4,243.4 -142.1,242.1 
						-142.1,223.7 -136.6,223.7 -136.6,244 -140.3,247.5 -151.7,247.5 					"/>
					<path class="st0" d="M-130.9,223.7h15.4l3.5,3.5V244l-3.5,3.5h-15.4V223.7z M-118.7,243.5l1.4-1.3v-13.1l-1.4-1.3h-6.8v15.8
						H-118.7z"/>
					<polygon class="st0" points="-106.3,223.7 -100.9,223.7 -100.9,243.3 -91.6,243.3 -91.6,247.5 -106.3,247.5 					"/>
					<polygon class="st0" points="-87.2,223.7 -71.2,223.7 -71.2,227.8 -81.8,227.8 -81.8,233.5 -72.1,233.5 -72.1,237.6 
						-81.8,237.6 -81.8,243.5 -71.2,243.5 -71.2,247.6 -87.2,247.6 					"/>
				</g>
				<g id="Group">
					<polyline id="Shape_1_" class="st1" points="-179.8,244.5 -175.7,244.5 -175.7,227.2 -165.7,227.2 -162.1,227.2 -45.1,227.2 
						-45.1,244.5 -41,244.5 -41,227.2 -41,223.1 -45.1,223.1 -175.7,223.1 -179.8,223.1 -179.8,227.2 -179.8,244.5 					"/>
					<polyline id="Shape_2_" class="st1" points="-179.8,257.3 -179.8,274.6 -179.8,278.7 -175.7,278.7 -45.1,278.7 -41,278.7 
						-41,274.6 -41,257.3 -45.1,257.3 -45.1,274.6 -162.1,274.6 -165.7,274.6 -175.7,274.6 -175.7,257.3 -179.8,257.3 					"/>
					<rect id="Rectangle-path" x="-179.8" y="248.9" class="st0" width="4.1" height="4.1"/>
					<rect id="Rectangle-path_1_" x="-45.1" y="248.9" class="st0" width="4.1" height="4.1"/>
				</g>
			</g>
		</g>
	</g>
</g>
</svg>
