<?xml version="1.0" encoding="UTF-8"?>
<svg width="558px" height="126px" viewBox="0 0 558 126" version="1.1" xmlns="http://www.w3.org/2000/svg" xmlns:xlink="http://www.w3.org/1999/xlink">
    <!-- Generator: Sketch 51.2 (57519) - http://www.bohemiancoding.com/sketch -->
    <title>inlingua</title>
    <desc>Created with Sketch.</desc>
    <defs></defs>
    <g id="SB-WEB-DESIGN" stroke="none" stroke-width="1" fill="none" fill-rule="evenodd">
        <g id="tripoto.svg" transform="translate(-15.000000, -88.000000)" fill="#000000" fill-rule="nonzero">
            <g id="inlingua" transform="translate(15.127879, 88.006044)">
                <path d="M39.8489858,1.98183233 C35.672982,3.75132548 32.9833524,6.44095508 32.9833524,9.41370358 C32.9833524,14.9345222 41.9723776,19.3228652 53.1555743,19.3228652 C64.3387711,19.3228652 73.3277963,14.8637425 73.3277963,9.41370358 C73.3277963,6.65329426 71.1336248,4.24678357 67.5238587,2.47729041 C89.5363536,8.77668604 105.674131,29.1612472 105.674131,53.226354 C105.674131,77.8576987 88.8285563,98.454599 66.1082642,104.329316 C65.3296872,104.612435 64.4095508,104.683215 63.4186346,104.683215 C62.6400576,104.683215 61.9322604,104.612435 61.2952428,104.400096 C54.0757108,102.347484 49.3334691,89.3240144 49.2626894,74.2479327 L49.0503502,66.2498237 L49.0503502,66.0374845 C49.0503502,53.5802527 52.0230987,41.1938006 57.0484593,30.2937228 C55.562085,30.3645025 54.004931,30.506062 52.3769973,30.506062 C42.397056,30.506062 33.5495902,28.3826702 27.0378554,24.7021244 C20.8092395,34.6112861 16.7747951,51.3860812 16.7747951,63.5601941 C16.7747951,75.8758664 19.1105261,88.5454374 26.1177189,98.5961585 C10.5461792,89.3240144 0,72.5492193 0,53.0847946 C0,28.5242296 16.9163545,7.8565496 39.8489858,1.98183233 Z" id="Shape"></path>
                <path d="M138.940602,18.8981869 C138.940602,11.6786548 144.74454,5.87471727 151.964072,5.87471727 C159.183604,5.87471727 164.987542,11.6786548 164.987542,18.8981869 C164.987542,26.1177189 159.183604,31.9216565 151.964072,31.9216565 C144.81532,31.9216565 138.940602,26.0469392 138.940602,18.8981869 Z" id="Shape"></path>
                <polygon id="Shape" points="140.426977 34.115828 163.501167 34.115828 163.501167 98.5961585 140.426977 98.5961585"></polygon>
                <path d="M261.955766,18.8981869 C261.955766,11.6786548 267.759704,5.87471727 274.979236,5.87471727 C282.198768,5.87471727 288.073485,11.6786548 288.073485,18.8981869 C288.073485,26.1177189 282.127988,31.9216565 274.979236,31.9216565 C267.830484,31.9216565 261.955766,26.0469392 261.955766,18.8981869 Z" id="Shape"></path>
                <polygon id="Shape" points="263.51292 34.115828 286.587111 34.115828 286.587111 98.5961585 263.51292 98.5961585"></polygon>
                <polygon id="Shape" points="237.253642 0 260.398612 0 260.398612 98.5961585 237.253642 98.5961585"></polygon>
                <path d="M214.53335,34.115828 C225.291868,34.115828 234.068554,42.8217343 234.139334,53.6510324 L234.139334,98.5961585 L211.065143,98.5961585 C211.065143,98.5961585 211.065143,79.0609541 211.065143,61.5783617 C210.994364,55.7744242 206.181342,50.9614028 200.306625,50.9614028 C194.502687,50.9614028 189.689666,55.7036445 189.689666,61.5783617 L189.689666,98.5253788 L166.615475,98.5253788 L166.615475,34.0450483 L214.60413,34.0450483 L214.60413,34.115828 L214.53335,34.115828 Z" id="Shape"></path>
                <path d="M381.290385,34.115828 C368.266915,34.1866077 357.720736,45.0159058 357.296057,58.0393754 C357.225278,58.0393754 357.225278,53.7925919 357.225278,53.7925919 C357.225278,43.0340735 348.377812,34.2573874 337.619294,34.2573874 L289.701419,34.2573874 L289.701419,98.7377179 L312.77561,98.7377179 L312.77561,61.7907009 C312.77561,55.9159836 317.517851,51.173742 323.392569,51.173742 C329.196506,51.173742 334.080307,55.9159836 334.151087,61.7907009 C334.151087,79.2732933 334.151087,98.8084977 334.151087,98.8084977 L357.225278,98.8084977 L357.225278,74.6726111 C358.216194,88.120759 368.974712,98.8084977 382.210521,98.8084977 L402.028844,98.8084977 C401.958065,104.683215 398.843757,108.292981 394.880092,109.142338 C393.889176,109.354677 393.110599,109.496236 392.048903,109.496236 C390.774868,109.496236 389.713172,109.425457 388.651476,109.142338 C384.900151,108.43454 382.49364,106.098809 382.139741,102.205925 C382.139741,101.781246 382.068962,101.215008 382.068962,101.215008 L358.711652,101.215008 L358.711652,102.701383 C358.711652,108.788439 360.764264,114.733936 364.940268,118.272922 C369.753289,122.661265 378.742315,125.138556 390.987207,125.350895 L392.119683,125.350895 C403.16132,125.138556 412.645803,122.024248 417.388045,117.706685 C421.564049,114.167698 424.466018,108.788439 424.466018,102.701383 L424.466018,34.3281672 L381.290385,34.3281672 L381.290385,34.115828 Z M399.056096,79.2732933 C397.074264,81.3259053 394.313854,82.5999404 391.270326,82.5999404 L390.987207,82.5999404 C387.943679,82.5999404 385.18327,81.3259053 383.201437,79.2732933 C380.582587,76.5128839 379.096213,72.1245409 379.096213,66.674502 C379.096213,61.2244631 380.724147,56.7653404 383.201437,54.004931 C385.18327,51.952319 387.943679,50.6782839 390.987207,50.6782839 L391.270326,50.6782839 C394.313854,50.6782839 397.074264,51.952319 399.056096,54.004931 C401.674946,56.7653404 402.807421,61.2952428 402.807421,66.674502 C402.736642,72.1245409 401.604166,76.5128839 399.056096,79.2732933 Z" id="Shape"></path>
                <path d="M495.174964,72.1953207 C498.85551,63.9848724 509.18935,59.0302916 521.505022,58.8887321 C523.203736,58.8179524 524.973229,58.676393 526.884281,58.676393 C529.290792,58.676393 531.626523,58.7471727 533.820694,58.8887321 L533.820694,57.119239 C533.749915,54.2880499 533.749915,51.5276406 532.33432,49.9704866 C531.060285,48.6964516 529.007673,48.2009935 527.09662,48.2009935 L525.610246,48.2009935 C523.628414,48.2009935 521.858921,48.9795705 520.584886,50.3243853 C519.169291,51.8107595 518.886172,54.1464905 518.815393,56.9776795 L498.218492,56.9776795 L498.218492,56.0575431 C498.218492,48.6256719 499.987985,42.892514 505.084126,38.9288494 C511.949759,33.5495902 519.098511,32.6294537 527.733638,32.7002335 C536.368765,32.6294537 543.517517,33.6911496 550.312371,38.9288494 C555.408511,42.8217343 557.178004,48.6256719 557.178004,56.0575431 L557.178004,56.8361201 L557.178004,98.454599 L511.312742,98.454599 C503.526972,98.454599 497.015237,92.7214412 495.245744,85.4311294 L495.245744,98.454599 L447.327869,98.454599 C436.569351,98.454599 427.721885,89.7486927 427.721885,78.9193946 L427.721885,34.115828 L450.796076,34.115828 C450.796076,34.115828 450.796076,53.6510324 450.796076,71.1336248 C450.866855,76.9375623 455.679877,81.7505837 461.554594,81.7505837 C467.358532,81.7505837 472.171553,77.008342 472.171553,71.1336248 L472.171553,34.115828 L495.245744,34.115828 C495.033405,34.115828 495.033405,72.1953207 495.174964,72.1953207 Z M524.76089,70.4966072 C520.655665,70.4966072 516.97512,73.3277963 516.97512,76.9375623 C516.97512,80.4765486 520.726445,83.3785174 524.831669,83.3785174 C530.918726,83.1661782 533.749915,78.8486149 533.749915,72.7615585 L533.749915,70.567387 L524.76089,70.4966072 Z" id="Shape"></path>
            </g>
        </g>
    </g>
</svg>