<?xml version="1.0" encoding="UTF-8"?>
<svg width="375px" height="92px" viewBox="0 0 375 92" version="1.1" xmlns="http://www.w3.org/2000/svg" xmlns:xlink="http://www.w3.org/1999/xlink">
    <!-- Generator: Sketch 51.2 (57519) - http://www.bohemiancoding.com/sketch -->
    <title>jamboree</title>
    <desc>Created with Sketch.</desc>
    <defs></defs>
    <g id="SB-WEB-DESIGN" stroke="none" stroke-width="1" fill="none" fill-rule="evenodd">
        <g id="tripoto.svg" transform="translate(-107.000000, -105.000000)" fill-rule="nonzero">
            <g id="jamboree" transform="translate(107.161683, 104.897795)">
                <path d="M-1.24042165e-15,80.9321619 C4.23054024,80.8020434 8.52616569,80.9321619 12.6265355,80.0863911 C20.5669341,78.4599091 24.5371334,72.7346924 24.6022186,63.9516893 C24.6022186,44.1086084 24.6022186,20.42703 24.6022186,0.583949126 C24.6022186,0.583949126 33.583981,0.583949126 36.3175607,0.583949126 C36.3175607,1.68995691 36.3826461,42.8074228 36.2524755,62.6505037 C36.2524755,68.8311354 34.9507709,74.8165893 32.0219353,80.3466282 C28.4422475,87.1778529 22.4544058,90.4958762 15.1648596,91.4067063 C10.1532966,92.0572991 4.68613688,92.0572991 -3.55271368e-15,92.0572991 C-1.24042165e-15,88.1537421 -1.24042165e-15,84.8357187 -1.24042165e-15,80.9321619 Z" id="Shape" fill="#008100"></path>
                <path d="M124.898565,68.3106612 C122.034814,68.3106612 119.49649,68.3106612 116.63274,68.3106612 C116.63274,67.5299499 116.63274,49.2482916 116.63274,40.8556444 C116.63274,39.4243403 116.437484,37.8629174 116.112058,36.4966725 C114.680183,31.0967522 108.757426,28.7546181 104.396716,31.6822857 C103.225182,32.462997 102.183818,34.0894792 101.532966,36.1063169 C101.012284,37.6026803 100.947199,39.9448145 100.947199,41.441178 C100.882113,49.6386475 100.947199,67.5299499 100.947199,68.3757205 C98.2136186,68.3757205 95.805465,68.3757205 93.0718851,68.3757205 C93.0067999,67.6600684 92.9417145,47.2965133 92.9417145,37.7978581 C92.9417145,31.6172264 96.911914,25.8269504 102.7045,23.7450535 C109.082853,21.4029192 115.851717,22.8342233 120.017172,27.7136695 C120.277513,28.0389659 120.798195,28.8196774 120.86328,28.8847367 C122.23007,27.1931952 124.508053,25.2414169 126.655866,24.2655277 C137.785441,19.1258444 148.784846,26.672721 148.784846,37.7327988 C148.719761,47.2965133 148.784846,67.6600684 148.784846,68.3757205 C146.181436,68.3757205 143.643112,68.3757205 140.779362,68.3757205 C140.779362,67.6600684 140.779362,49.1181731 140.779362,40.5954073 C140.779362,39.0990439 140.584106,37.4725617 140.128509,36.0412576 C138.826805,32.1377006 136.02814,30.3811001 132.253196,30.576278 C129.129105,30.7063965 126.46061,32.8533527 125.549417,36.4316133 C125.158906,37.7978581 125.028735,39.2291625 125.028735,40.5954073 C124.833479,48.9880545 124.898565,67.3998313 124.898565,68.3106612 Z" id="Shape" fill="#000000"></path>
                <path d="M156.660159,3.12126111 C159.393739,3.12126111 161.866978,3.12126111 164.665643,3.12126111 C164.665643,4.16220962 164.665643,5.07303954 164.665643,5.98386949 C164.665643,19.0607851 164.665643,32.0726414 164.665643,45.1495571 C164.665643,48.9880545 165.576836,52.5663151 167.724649,55.7542199 C172.931468,63.5613336 184.842065,63.3661558 189.853629,55.3638643 C193.042805,50.224181 193.433317,44.7592014 191.350589,39.1641032 C188.617009,31.8124043 179.895588,28.4943808 172.540956,31.8124043 C171.043996,32.5280563 169.156524,33.5690048 167.789734,34.2846571 C167.789734,31.4871079 167.789734,25.9570689 167.789734,25.9570689 C167.789734,25.9570689 168.570757,25.3064762 169.221609,24.9161205 C180.481355,18.4101923 198.184538,25.046239 200.332351,41.1158816 C201.373715,48.7928767 199.746584,55.8192792 194.865192,61.9348517 C188.356668,70.0022025 176.511156,72.0190403 167.789734,66.4239421 C160.500188,61.8047331 156.855415,54.9735086 156.790329,46.4507426 C156.660159,32.8533527 156.790329,19.2559629 156.790329,5.5935138 C156.660159,4.74774315 156.660159,4.03209104 156.660159,3.12126111 Z" id="Shape" fill="#000000"></path>
                <path d="M316.57458,47.1663947 C319.112905,47.5567504 321.716314,48.0772246 324.384808,48.4675803 C324.059381,51.2651295 323.213274,54.5831529 322.041739,57.3807019 C317.68103,66.9444163 306.291113,71.5636254 296.137817,68.8311354 C286.830627,66.2938236 279.996679,57.0554055 279.931592,46.9712169 C279.866508,34.6099535 286.830627,25.1763576 298.090373,23.0294012 C308.764351,21.0125635 317.876285,25.5667133 322.887847,36.9520875 C313.385403,42.4821264 303.817874,48.0121653 293.990003,53.7373821 C292.818469,51.4603073 291.777105,49.3133509 290.540486,46.9712169 C297.634776,42.8724821 304.663982,38.7737473 311.693188,34.740072 C307.918243,29.2100331 298.090373,29.7305073 293.794748,33.2437084 C286.049606,39.7496367 286.635373,53.6723228 294.966282,59.267421 C300.693782,63.170978 311.237591,62.0649702 314.752193,53.3470264 C315.468132,51.4603073 316.053899,49.7037068 316.57458,47.1663947 Z" id="Shape" fill="#000000"></path>
                <path d="M366.234615,47.1663947 C368.772937,47.5567504 371.376347,48.0772246 374.044841,48.4675803 C373.719416,51.2651295 372.873306,54.5831529 371.701774,57.3807019 C367.341063,66.9444163 355.951148,71.5636254 345.79785,68.8311354 C336.490662,66.2938236 329.656712,57.0554055 329.591627,46.9712169 C329.526541,34.6099535 336.490662,25.1763576 347.750407,23.0294012 C358.424386,21.0125635 367.536318,25.5667133 372.547882,36.9520875 C363.045438,42.4821264 353.477907,48.0121653 343.650036,53.7373821 C342.478504,51.4603073 341.437138,49.3133509 340.200519,46.9712169 C347.294811,42.8724821 354.324015,38.7737473 361.35322,34.740072 C357.578278,29.2100331 347.750407,29.7305073 343.454781,33.2437084 C335.709639,39.7496367 336.295406,53.6723228 344.626315,59.267421 C350.353817,63.170978 360.897624,62.0649702 364.412226,53.3470264 C365.193249,51.4603073 365.713932,49.7037068 366.234615,47.1663947 Z" id="Shape" fill="#000000"></path>
                <path d="M85.1965717,68.3106612 C82.3979066,68.3106612 79.6643269,68.3106612 76.8005764,68.3106612 C76.8005764,67.4648906 76.8005764,50.679596 76.8005764,43.0676599 C76.8005764,36.0412576 71.7890135,30.9666336 64.7598082,30.6413372 C54.0207445,30.1859223 47.3820505,37.993036 49.2044372,48.857936 C50.4410566,56.0144571 54.6715968,60.373429 61.8309727,61.3493181 C65.801172,61.8697924 69.0554336,60.0481326 71.9191839,57.3807019 C72.504951,56.7951684 73.0907181,56.1445756 74.0019115,55.1036272 C74.0019115,58.6168282 74.0019115,61.8697924 73.9368261,64.8625192 C73.9368261,64.8625192 73.4161442,65.4480529 73.0256329,65.70829 C66.5171095,70.4576176 59.6831599,70.6527955 52.7841251,66.8142978 C44.9088118,62.4553259 41.2640386,55.4289236 41.0687828,46.4507426 C40.9386125,40.3351702 42.1752318,34.6750127 46.2756017,29.9256852 C50.3108862,25.2414169 55.5177048,22.8992826 61.635717,22.5739862 C67.5584733,22.2486898 73.0256329,23.3546976 77.7768551,27.0630767 C82.7884182,30.9666336 85.0664014,36.366554 85.1965717,42.5471857 C85.3918275,50.8097145 85.1965717,67.8552462 85.1965717,68.3106612 Z" id="Shape" fill="#000000"></path>
                <path d="M256.500909,23.6149349 C258.974147,23.6149349 261.317216,23.6149349 263.855539,23.6149349 C263.855539,25.046239 263.855539,26.4124839 263.855539,27.7787287 C267.630483,23.7450535 271.991195,21.9233934 277.588525,22.8342233 C277.588525,25.3064762 277.588525,27.9088473 277.588525,30.6413372 C276.612246,30.6413372 275.766139,30.6413372 274.985116,30.6413372 C271.340343,30.7063965 268.606762,32.3328785 266.654204,35.4557241 C265.09216,38.1882138 264.766733,41.1158816 264.506393,45.6700313 C264.115881,53.1518486 264.376222,60.6336661 264.376222,68.2456019 C261.772812,68.2456019 259.234489,68.2456019 256.565993,68.2456019 C256.500909,53.4120857 256.500909,38.5785695 256.500909,23.6149349 Z" id="Shape" fill="#000000"></path>
                <ellipse id="Oval" fill="#008100" cx="227.40781" cy="48.5976988" rx="21.0225307" ry="21.014148"></ellipse>
            </g>
        </g>
    </g>
</svg>