<?xml version="1.0" encoding="UTF-8"?>
<svg width="649px" height="105px" viewBox="0 0 649 105" version="1.1" xmlns="http://www.w3.org/2000/svg" xmlns:xlink="http://www.w3.org/1999/xlink">
    <!-- Generator: Sketch 51.2 (57519) - http://www.bohemiancoding.com/sketch -->
    <title>juggernaut-full</title>
    <desc>Created with Sketch.</desc>
    <defs></defs>
    <g id="SB-WEB-DESIGN" stroke="none" stroke-width="1" fill="none" fill-rule="evenodd">
        <g id="Artboard-2" transform="translate(-34.000000, -87.000000)" fill-rule="nonzero">
            <g id="juggernaut-full" transform="translate(34.000000, 87.000000)">
                <g id="juggernaut" transform="translate(0.679379, 2.788593)" fill="#FF4045">
                    <path d="M99.3070682,56.6599915 C98.777885,46.936249 92.0969463,41.181381 87.2020011,38.8000564 C82.4393516,36.4518056 77.6767023,36.7163973 77.6767023,36.7163973 C77.6767023,36.7163973 79.3965479,31.126899 86.2428564,30.9284553 C91.7662067,30.7630855 94.7097887,34.3019986 94.7097887,34.3019986 C94.7097887,34.3019986 96.628078,26.2319537 89.3848821,19.7494588 C82.1416861,13.2669637 73.7739757,13.9284428 68.7467347,15.945954 C63.7194937,17.9634652 60.5113202,21.5023783 60.5113202,21.5023783 C60.5113202,21.5023783 58.1630694,16.9050987 61.7681304,11.5471181 C64.9763039,6.75139479 70.4335063,7.1813562 70.4335063,7.1813562 C70.4335063,7.1813562 66.0677444,0.103530015 56.3440019,0.632713281 C46.6202593,1.16189655 41.1630569,7.54516969 39.0463239,12.5393368 C36.8965168,17.5335039 36.9957387,22.2300053 36.9957387,22.2300053 C36.9957387,22.2300053 31.5054624,20.5763077 30.8439833,14.1599606 C30.1825042,8.04127901 33.9198609,5.19691895 33.9198609,5.19691895 C33.9198609,5.19691895 25.8498162,3.24555566 19.3673212,10.4887516 C12.8848261,17.7650216 13.5463052,26.132732 15.5638165,31.1599729 C17.5813277,36.1872139 20.8556491,38.8992781 20.8556491,38.8992781 C20.8556491,38.8992781 16.4237392,41.5121206 11.0326848,37.9732075 C6.36925722,34.8973297 6.63384886,29.7708668 6.63384886,29.7708668 C6.63384886,29.7708668 -0.443977325,34.1366288 0.151353849,43.8603713 C0.746685024,53.5841139 7.09688421,59.0082423 12.1241252,61.1249754 C17.1182923,63.2417084 21.7486459,62.9440428 21.7486459,62.9440428 C21.7486459,62.9440428 20.3595398,68.1366536 13.8439709,69.1950201 C7.92373306,70.1872388 4.84785533,66.1191425 4.84785533,66.1191425 C4.84785533,66.1191425 2.92956599,74.1891872 10.1727619,80.6716822 C17.4159579,87.1541773 25.7836683,86.4926982 30.8109093,84.475187 C35.8381504,82.4576757 38.914028,78.9849105 38.914028,78.9849105 C38.914028,78.9849105 41.824536,83.780634 37.3926261,89.2709103 C33.9198609,93.5705244 29.1241376,93.1405629 29.1241376,93.1405629 C29.1241376,93.1405629 33.4568256,100.218389 43.1805681,99.6892059 C52.9043106,99.1600226 58.3615131,92.7767495 60.4782462,87.7825824 C62.6280532,82.7884153 62.3303876,78.1911357 62.3303876,78.1911357 C62.3303876,78.1911357 68.0191077,80.142499 68.6805868,86.5257722 C69.242844,92.0160485 65.604709,95.1580741 65.604709,95.1580741 C65.604709,95.1580741 73.6747539,97.0763635 80.1572489,89.8331675 C86.6397438,82.5899715 85.9782647,74.2222612 83.9607535,69.1950201 C81.9432424,64.1677792 78.5035511,61.0919014 78.5035511,61.0919014 C78.5035511,61.0919014 83.8946056,58.512133 88.7895508,62.4810075 C93.4199045,66.2183643 92.7584254,70.749496 92.7584254,70.749496 C92.7584254,70.749496 99.8362516,66.383734 99.3070682,56.6599915 Z" id="Shape"></path>
                </g>
                <g id="juggernaut" transform="translate(119.191490, 0.949553)" fill="#515150">
                    <path d="M23.9589459,18.4900561 C23.9589459,17.1011317 25.087447,16.1462462 26.3027559,16.1462462 L33.4209934,16.1462462 C34.6363023,16.1462462 35.7648034,17.1011317 35.7648034,18.4900561 L35.7648034,80.7312309 C35.7648034,96.0093993 26.649987,103.648484 14.8441296,103.648484 C8.15993086,103.648484 3.03827213,100.783827 0.781269976,98.7004403 C-0.0868077751,98.0927859 -0.17361555,96.7038615 0.260423325,95.8357838 L3.29869546,90.2800862 C3.90634988,89.1515851 5.12165873,89.1515851 6.33696759,89.9328551 C7.89950754,91.0613561 11.5454341,92.9711272 14.4968985,92.9711272 C20.0525961,92.9711272 23.8721382,89.0647773 23.8721382,80.6444231 L23.8721382,18.4900561 L23.9589459,18.4900561 Z" id="Shape"></path>
                    <path d="M51.0429718,18.4900561 C51.0429718,17.2747473 52.1714729,16.1462462 53.3867817,16.1462462 L60.4182115,16.1462462 C61.6335204,16.1462462 62.7620214,17.2747473 62.7620214,18.4900561 L62.7620214,43.7511187 C62.7620214,51.737434 66.5815635,56.0778227 72.8317234,56.0778227 C80.1235765,56.0778227 84.6375808,50.174894 84.9848119,47.9178919 L84.9848119,18.4900561 C84.9848119,16.4934773 85.9396974,16.1462462 87.6758529,16.1462462 L94.0996283,16.1462462 C95.3149371,16.1462462 96.4434382,17.2747473 96.4434382,18.4900561 L96.4434382,63.1092525 C96.4434382,64.3245614 95.3149371,65.4530625 94.0996283,65.4530625 L90.6273173,65.4530625 C89.4120084,65.4530625 88.804354,64.5849847 88.3703151,63.4564836 L87.1550063,59.8973649 C86.0265052,60.8522504 80.9048464,66.6683713 70.9219523,66.6683713 C56.1646305,66.6683713 50.956164,56.1646305 50.956164,43.4038876 L50.956164,18.4900561 L51.0429718,18.4900561 Z" id="Shape"></path>
                    <path d="M116.322419,48.4387385 C116.322419,48.4387385 112.502877,43.9247342 112.502877,36.4592656 C112.502877,25.0006392 121.096846,14.9309373 133.683974,14.9309373 L155.212302,14.9309373 C156.601226,14.9309373 157.556112,15.8858229 157.556112,17.2747473 L157.556112,20.3130194 C157.556112,21.1810971 157.035265,22.3095982 156.167187,22.396406 L149.396181,24.2193693 C149.396181,24.2193693 154.691455,28.1257191 154.691455,37.4141511 C154.691455,47.9178919 146.531524,57.4667471 133.770782,57.4667471 C127.520622,57.4667471 124.048311,55.4701683 123.093425,55.4701683 C122.225347,55.4701683 118.058574,57.5535549 118.058574,61.5467126 C118.058574,64.4113692 120.315576,66.5815635 123.961503,66.5815635 L140.715404,66.5815635 C151.39276,66.5815635 160.073537,72.3976845 160.073537,83.0750408 C160.073537,93.9260127 150.177451,103.561676 133.857589,103.561676 C116.496034,103.561676 109.464604,94.7072827 109.464604,86.7209674 C109.464604,79.3423065 115.541149,75.8699955 116.756458,75.1755333 L116.756458,74.8283022 C114.152224,74.0470322 107.641641,70.7483367 107.641641,62.5015981 C107.554833,52.9527428 116.322419,48.4387385 116.322419,48.4387385 Z M133.683974,93.4919738 C141.23625,93.4919738 147.746833,89.6724317 147.746833,83.769503 C147.746833,81.7729242 146.531524,76.7380732 138.545209,76.7380732 C134.98609,76.7380732 131.253356,76.7380732 127.694237,76.9984966 C126.912967,77.2589199 120.923231,79.2554987 120.923231,84.7243885 C120.923231,89.8460473 126.218505,93.4919738 133.683974,93.4919738 Z M144.274522,36.7196889 C144.274522,30.0354902 140.107749,25.3478703 133.944397,25.3478703 C127.694237,25.3478703 123.093425,30.0354902 123.093425,36.7196889 C123.093425,43.4038876 127.694237,48.0915074 133.944397,48.0915074 C140.107749,48.0915074 144.274522,43.4038876 144.274522,36.7196889 Z" id="Shape"></path>
                    <path d="M172.487049,48.4387385 C172.487049,48.4387385 168.667507,43.9247342 168.667507,36.4592656 C168.667507,25.0006392 177.261477,14.9309373 189.848604,14.9309373 L211.376932,14.9309373 C212.765857,14.9309373 213.720742,15.8858229 213.720742,17.2747473 L213.720742,20.3130194 C213.720742,21.1810971 213.199896,22.3095982 212.331818,22.396406 L205.560812,24.2193693 C205.560812,24.2193693 210.856086,28.1257191 210.856086,37.4141511 C210.856086,47.9178919 202.696155,57.4667471 189.935412,57.4667471 C183.685252,57.4667471 180.212941,55.4701683 179.258056,55.4701683 C178.389978,55.4701683 174.223205,57.5535549 174.223205,61.5467126 C174.223205,64.4113692 176.480207,66.5815635 180.126133,66.5815635 L196.880034,66.5815635 C207.55739,66.5815635 216.238168,72.3976845 216.238168,83.0750408 C216.238168,93.9260127 206.342082,103.561676 190.02222,103.561676 C172.660665,103.561676 165.629235,94.7072827 165.629235,86.7209674 C165.629235,79.3423065 171.705779,75.8699955 172.921088,75.1755333 L172.921088,74.8283022 C170.316855,74.0470322 163.806272,70.7483367 163.806272,62.5015981 C163.806272,52.9527428 172.487049,48.4387385 172.487049,48.4387385 Z M189.848604,93.4919738 C197.400881,93.4919738 203.911464,89.6724317 203.911464,83.769503 C203.911464,81.7729242 202.696155,76.7380732 194.70984,76.7380732 C191.150721,76.7380732 187.417987,76.7380732 183.858868,76.9984966 C183.077598,77.2589199 177.087861,79.2554987 177.087861,84.7243885 C177.087861,89.8460473 182.383136,93.4919738 189.848604,93.4919738 Z M200.439153,36.7196889 C200.439153,30.0354902 196.27238,25.3478703 190.109028,25.3478703 C183.858868,25.3478703 179.258056,30.0354902 179.258056,36.7196889 C179.258056,43.4038876 183.858868,48.0915074 190.109028,48.0915074 C196.27238,48.0915074 200.439153,43.4038876 200.439153,36.7196889 Z" id="Shape"></path>
                    <path d="M246.447274,14.9309373 C259.294824,14.9309373 269.104103,24.5666004 269.104103,37.7613822 C269.104103,38.6294599 269.017295,40.1919999 268.84368,41.0600776 C268.756872,42.2753865 267.715179,43.1434642 266.586677,43.1434642 L233.078876,43.1434642 C233.426107,49.8276629 239.242228,56.3382461 247.228544,56.3382461 C251.65574,56.3382461 255.735706,54.3416672 258.166323,52.7791273 C259.642055,51.9110495 260.510133,51.3902029 261.465019,52.6923195 L264.93733,57.3799394 C265.805408,58.3348249 266.152639,59.3765182 264.676906,60.5918271 C261.117788,63.6300992 254.694012,66.7551791 246.447274,66.7551791 C231.516336,66.7551791 221.707058,55.0361294 221.707058,40.8864621 C221.793866,26.8236025 231.689952,14.9309373 246.447274,14.9309373 Z M257.645477,35.3307645 C257.298246,29.4278358 252.350202,24.3929848 246.273658,24.3929848 C239.589459,24.3929848 234.467801,29.1674125 233.686531,35.3307645 L257.645477,35.3307645 Z" id="Shape"></path>
                    <path d="M280.90996,18.4900561 C280.90996,17.2747473 282.038461,16.1462462 283.25377,16.1462462 L286.812889,16.1462462 C287.680967,16.1462462 288.635852,16.9275162 288.896276,17.8824017 L290.2852,22.0491749 C291.153278,20.833866 295.667282,14.9309373 304.695291,14.9309373 C309.382911,14.9309373 315.025416,16.1462462 313.723299,19.5317494 L310.771835,25.6082937 C310.164181,26.9972181 308.948872,27.1708336 307.820371,26.7367947 C307.039101,26.3895636 305.216137,25.868717 303.653597,25.868717 C296.53536,25.868717 293.063049,31.0771835 292.542202,31.9452613 L292.542202,63.1960603 C292.542202,65.2794469 291.153278,65.5398702 289.243507,65.5398702 L283.340578,65.5398702 C282.125269,65.5398702 280.996768,64.4113692 280.996768,63.1960603 L280.996768,18.4900561 L280.90996,18.4900561 Z" id="Shape"></path>
                    <path d="M322.317269,18.4900561 C322.317269,17.2747473 323.44577,16.1462462 324.661079,16.1462462 L328.220198,16.1462462 C329.175083,16.1462462 329.956353,16.7539006 330.216777,17.6219784 L331.692509,21.7887516 C332.560587,20.833866 339.07117,14.9309373 348.967256,14.9309373 C363.985001,14.9309373 369.540699,25.5214859 369.540699,38.3690366 L369.540699,63.1092525 C369.540699,64.3245614 368.412198,65.4530625 367.196889,65.4530625 L360.165459,65.4530625 C358.776535,65.4530625 357.821649,64.3245614 357.821649,63.1092525 L357.821649,37.84819 C357.821649,29.9486824 354.002107,25.6082937 347.578332,25.6082937 C339.85244,25.6082937 334.557165,31.2507991 333.862703,32.9869546 L333.862703,63.0224448 C333.862703,64.5849847 333.168241,65.3662547 330.998047,65.3662547 L324.661079,65.3662547 C323.44577,65.3662547 322.317269,64.2377536 322.317269,63.0224448 L322.317269,18.4900561 Z" id="Shape"></path>
                    <path d="M401.051921,34.2890712 C406.260388,34.2890712 410.774392,35.7648034 410.774392,35.7648034 C410.8612,28.0389114 409.385468,24.9138315 403.135308,24.9138315 C397.492802,24.9138315 391.937105,26.3895636 389.332872,27.1708336 C387.857139,27.5180647 386.989062,26.5631792 386.641831,25.1742548 L385.686945,20.5734427 C385.339714,19.0109028 386.207792,18.142825 387.249485,17.7087861 C388.117563,17.361555 395.148992,14.8441296 404.263809,14.8441296 C420.062824,14.8441296 421.538556,24.4797926 421.538556,36.8064967 L421.538556,63.0224448 C421.538556,64.2377536 420.410055,65.3662547 419.194746,65.3662547 L415.722435,65.3662547 C414.593934,65.3662547 414.159895,64.845408 413.639049,63.6300992 L412.42374,60.3314037 C409.732699,62.935637 404.871463,66.5815635 397.232379,66.5815635 C388.030755,66.5815635 381.346556,60.3314037 381.346556,50.0880863 C381.346556,41.1468854 388.464794,34.2890712 401.051921,34.2890712 Z M399.576189,57.900786 C404.524232,57.900786 409.211852,54.1680517 410.687584,51.737434 L410.687584,43.8379265 C409.906314,43.3170798 406.520811,41.8413476 402.093614,41.8413476 C396.190686,41.8413476 392.11072,44.8796198 392.11072,50.0012785 C392.023913,54.428475 394.975377,57.900786 399.576189,57.900786 Z" id="Shape"></path>
                    <path d="M436.295878,18.4900561 C436.295878,17.2747473 437.424379,16.1462462 438.639688,16.1462462 L445.671118,16.1462462 C446.886426,16.1462462 448.014928,17.2747473 448.014928,18.4900561 L448.014928,43.7511187 C448.014928,51.737434 451.83447,56.0778227 458.084629,56.0778227 C465.376483,56.0778227 469.890487,50.174894 470.324526,47.9178919 L470.324526,18.4900561 C470.324526,16.4934773 471.279411,16.1462462 473.015567,16.1462462 L479.439342,16.1462462 C480.654651,16.1462462 481.783152,17.2747473 481.783152,18.4900561 L481.783152,63.1092525 C481.783152,64.3245614 480.654651,65.4530625 479.439342,65.4530625 L475.967031,65.4530625 C474.751722,65.4530625 474.144068,64.5849847 473.710029,63.4564836 L472.49472,59.8973649 C471.366219,60.8522504 466.24456,66.6683713 456.261666,66.6683713 C441.504344,66.6683713 436.295878,56.1646305 436.295878,43.4038876 L436.295878,18.4900561 Z" id="Shape"></path>
                    <path d="M500.96767,26.3895636 L495.759204,26.3895636 C494.370279,26.3895636 493.415394,25.2610626 493.415394,24.0457537 L493.415394,18.4900561 C493.415394,17.1011317 494.370279,16.1462462 495.759204,16.1462462 L500.96767,16.1462462 L500.96767,2.4306177 C500.96767,1.21530885 502.096171,0.0868077751 503.31148,0.0868077751 L510.34291,0 C511.558219,0 512.599912,1.12850108 512.599912,2.34380993 L512.599912,16.1462462 L525.18704,16.1462462 C526.575964,16.1462462 527.53085,17.1011317 527.53085,18.4900561 L527.53085,24.0457537 C527.53085,25.2610626 526.575964,26.3895636 525.18704,26.3895636 L512.599912,26.3895636 L512.599912,50.7825485 C512.599912,54.9493217 514.162452,55.7305916 516.506262,55.7305916 C519.110495,55.7305916 522.582806,54.2548595 524.058539,53.4735895 C525.621079,52.6923195 526.402349,53.4735895 526.923195,54.6020906 L529.180197,59.9841726 C529.787852,61.373097 529.267005,62.3279826 528.051696,62.935637 C526.836387,63.716907 519.544534,66.6683713 513.641606,66.6683713 C503.919135,66.6683713 501.054478,60.7654426 501.054478,51.9978573 L501.054478,26.3895636 L500.96767,26.3895636 Z" id="Shape"></path>
                </g>
            </g>
        </g>
    </g>
</svg>