<svg width="170" height="60" viewBox="0 0 170 60" fill="none" xmlns="http://www.w3.org/2000/svg">
<path d="M82.2303 14.8088C82.2338 14.601 82.3192 14.4028 82.4681 14.2576C82.617 14.1123 82.8173 14.0315 83.0254 14.0329C83.1312 14.0286 83.2368 14.0452 83.3361 14.082C83.4354 14.1188 83.5264 14.1749 83.6037 14.2471C83.6811 14.3193 83.7434 14.4061 83.7869 14.5026C83.8304 14.599 83.8543 14.7031 83.8572 14.8088V30.181L93.5319 20.7448C93.6039 20.6662 93.6915 20.6034 93.7892 20.5604C93.8868 20.5175 93.9923 20.4953 94.099 20.4953C94.2056 20.4953 94.3112 20.5175 94.4088 20.5604C94.5064 20.6034 94.594 20.6662 94.666 20.7448C94.746 20.8133 94.8103 20.8983 94.8543 20.994C94.8983 21.0897 94.9211 21.1937 94.9211 21.299C94.9211 21.4043 94.8983 21.5083 94.8543 21.604C94.8103 21.6997 94.746 21.7847 94.666 21.8532L88.354 28.0241L94.7047 35.5627C94.7759 35.6424 94.8305 35.7355 94.8653 35.8365C94.9001 35.9375 94.9144 36.0445 94.9074 36.1511C94.9004 36.2577 94.8722 36.3618 94.8245 36.4574C94.7767 36.553 94.7104 36.6381 94.6294 36.7078C94.4765 36.8209 94.2902 36.8797 94.1 36.8746C93.9767 36.883 93.8532 36.8604 93.7409 36.8086C93.6287 36.7569 93.5312 36.6778 93.4576 36.5787L87.1822 29.1651L83.8399 32.4397V36.1007C83.837 36.2064 83.8131 36.3105 83.7696 36.407C83.7261 36.5034 83.6638 36.5902 83.5864 36.6624C83.5091 36.7346 83.4181 36.7907 83.3188 36.8275C83.2195 36.8643 83.1139 36.881 83.0081 36.8766C82.9043 36.8776 82.8013 36.8581 82.705 36.8192C82.6087 36.7803 82.521 36.7229 82.447 36.6502C82.373 36.5774 82.314 36.4909 82.2735 36.3954C82.233 36.2998 82.2117 36.1973 82.2109 36.0936V14.8088H82.2303Z" fill="#636366"/>
<path d="M97.5584 21.6254C97.5616 21.4227 97.6448 21.2294 97.7899 21.0875C97.9349 20.9457 98.1302 20.8667 98.3332 20.8678C98.4382 20.8611 98.5435 20.8755 98.6428 20.9102C98.7421 20.945 98.8334 20.9993 98.9113 21.07C98.9891 21.1406 99.052 21.2262 99.0961 21.3217C99.1402 21.4171 99.1646 21.5204 99.168 21.6254V30.3092C99.1708 30.9622 99.3027 31.6081 99.5563 32.21C99.8099 32.8118 100.18 33.3577 100.646 33.8161C101.111 34.2746 101.663 34.6366 102.269 34.8814C102.875 35.1261 103.523 35.2488 104.177 35.2424C104.834 35.2514 105.486 35.1309 106.097 34.8877C106.707 34.6445 107.263 34.2835 107.734 33.8252C108.204 33.367 108.58 32.8206 108.838 32.2172C109.097 31.6139 109.234 30.9655 109.242 30.3092V21.6254C109.236 21.4841 109.283 21.3456 109.374 21.237C109.374 21.2004 109.412 21.1627 109.412 21.1444C109.449 21.1444 109.449 21.1078 109.487 21.1078C109.568 21.013 109.674 20.9426 109.793 20.9044H109.85C109.887 20.9044 109.907 20.8678 109.944 20.8678H110.134C110.272 20.9075 110.405 20.9635 110.531 21.0346C110.608 21.1124 110.677 21.1991 110.734 21.2929C110.794 21.3938 110.827 21.5083 110.829 21.6254V35.5932C110.814 36.598 110.6 37.5899 110.2 38.5117C109.799 39.4336 109.22 40.2672 108.496 40.9645C107.772 41.6618 106.917 42.2091 105.98 42.5748C105.043 42.9405 104.042 43.1174 103.037 43.0953C101.875 43.0851 100.73 42.8268 99.677 42.3377C99.4966 42.2384 99.361 42.074 99.2978 41.8782C99.2346 41.6824 99.2486 41.4699 99.337 41.2841C99.4396 41.1103 99.5988 40.977 99.7879 40.9063C99.9771 40.8356 100.185 40.8318 100.376 40.8956C101.207 41.3011 102.117 41.5158 103.042 41.5241C104.65 41.5486 106.202 40.9369 107.36 39.8223C108.518 38.7077 109.187 37.1809 109.222 35.5749V34.5224C108.586 35.2374 107.806 35.8109 106.933 36.2056C106.06 36.6003 105.114 36.8074 104.157 36.8136C102.416 36.8153 100.745 36.1314 99.5062 34.9103C98.2673 33.6892 97.5605 32.0293 97.5391 30.2909V21.6071L97.5584 21.6254Z" fill="#636366"/>
<path d="M120.858 36.889C119.832 36.8856 118.817 36.6733 117.876 36.2653C116.934 35.8572 116.086 35.2618 115.382 34.5155C113.924 33.0037 113.109 30.9863 113.109 28.8872C113.109 26.788 113.924 24.7706 115.382 23.2589C116.085 22.5108 116.934 21.9147 117.877 21.5072C118.82 21.0997 119.836 20.8896 120.864 20.8896C121.891 20.8897 122.907 21.1001 123.85 21.5078C124.792 21.9154 125.642 22.5117 126.345 23.2599C127.794 24.7758 128.603 26.7914 128.603 28.8877C128.603 30.984 127.794 32.9996 126.345 34.5155C125.64 35.263 124.79 35.8591 123.846 36.2672C122.903 36.6753 121.886 36.8869 120.858 36.889ZM120.858 22.4229C120.046 22.4271 119.243 22.5974 118.499 22.9234C117.755 23.2494 117.086 23.7242 116.532 24.3185C115.365 25.551 114.714 27.1839 114.716 28.881C114.717 30.578 115.37 32.2099 116.54 33.4406C117.092 34.0336 117.761 34.5065 118.505 34.8299C119.248 35.1533 120.051 35.3202 120.862 35.3202C121.673 35.3202 122.475 35.1533 123.219 34.8299C123.962 34.5065 124.631 34.0336 125.184 33.4406C126.351 32.2079 127.001 30.5759 127.001 28.8795C127.001 27.1832 126.351 25.5511 125.184 24.3185C124.631 23.724 123.962 23.2491 123.218 22.9229C122.474 22.5967 121.671 22.4262 120.858 22.4219V22.4229Z" fill="#636366"/>
<path d="M131.406 21.6997C131.406 21.593 131.428 21.4875 131.47 21.3897C131.513 21.2918 131.575 21.2038 131.653 21.131C131.731 21.0582 131.823 21.0022 131.924 20.9666C132.025 20.9309 132.132 20.9163 132.238 20.9237C132.443 20.9267 132.639 21.0094 132.783 21.1543C132.928 21.2993 133.01 21.495 133.013 21.6997V25.2285C133.074 25.0915 133.15 24.9616 133.239 24.841C133.912 23.6924 134.864 22.7315 136.007 22.0469C137.15 21.3623 138.447 20.9761 139.779 20.9237C139.882 20.9223 139.984 20.9412 140.08 20.9795C140.176 21.0178 140.263 21.0747 140.336 21.1469C140.41 21.2191 140.468 21.3051 140.508 21.4C140.548 21.4949 140.569 21.5967 140.569 21.6997C140.565 21.9074 140.48 22.1053 140.331 22.2506C140.183 22.3959 139.983 22.4767 139.775 22.4756C138.834 22.5054 137.914 22.757 137.09 23.2098C136.265 23.6626 135.56 24.3038 135.031 25.081C134.198 26.2162 133.537 27.4676 133.07 28.7949C133.031 28.8753 133.011 28.9638 133.013 29.0532V36.0702C133.015 36.1724 132.996 36.274 132.958 36.3689C132.92 36.4638 132.863 36.55 132.79 36.6224C132.718 36.6948 132.632 36.752 132.537 36.7904C132.442 36.8288 132.34 36.8478 132.238 36.8461C132.132 36.852 132.027 36.8366 131.927 36.8008C131.827 36.7649 131.736 36.7094 131.659 36.6376C131.581 36.5658 131.519 36.479 131.475 36.3826C131.432 36.2861 131.408 36.182 131.406 36.0763V21.6997Z" fill="#636366"/>
<path d="M32.7891 31.7516L51.2162 49.5635L69.6433 31.7516C70.8498 30.5814 71.809 29.1811 72.464 27.6339C73.119 26.0867 73.4565 24.4239 73.4565 22.744C73.4565 21.0641 73.119 19.4013 72.464 17.854C71.809 16.3068 70.8498 14.9066 69.6433 13.7363C67.1733 11.3456 63.869 10.0088 60.4297 10.0088C56.9904 10.0088 53.6861 11.3456 51.2162 13.7363L32.7891 31.7516Z" fill="#ED1C24"/>
<path d="M32.7891 31.7526C35.259 34.1433 38.5633 35.4801 42.0026 35.4801C45.4419 35.4801 48.7462 34.1433 51.2162 31.7526C52.4227 30.5823 53.3819 29.1821 54.0369 27.6349C54.6919 26.0876 55.0294 24.4248 55.0294 22.7449C55.0294 21.065 54.6919 19.4022 54.0369 17.855C53.3819 16.3078 52.4227 14.9076 51.2162 13.7373L32.7891 31.7526Z" fill="#B01217"/>
<path d="M50.4211 13.0157C47.9119 10.9479 44.7269 9.87802 41.4767 10.0111C38.2265 10.1441 35.1399 11.4708 32.8084 13.7368C30.5071 15.97 29.1485 18.9983 29.0115 22.2003C28.8744 25.4024 29.9692 28.5355 32.0714 30.9568L50.4211 13.0157Z" fill="#F79678"/>
</svg>
