<?xml version="1.0" encoding="UTF-8"?>
<svg width="386px" height="121px" viewBox="0 0 386 121" version="1.1" xmlns="http://www.w3.org/2000/svg" xmlns:xlink="http://www.w3.org/1999/xlink">
    <!-- Generator: Sketch 51.2 (57519) - http://www.bohemiancoding.com/sketch -->
    <title>lbb</title>
    <desc>Created with Sketch.</desc>
    <defs></defs>
    <g id="SB-WEB-DESIGN" stroke="none" stroke-width="1" fill="none" fill-rule="evenodd">
        <g id="tripoto.svg" transform="translate(-101.000000, -90.000000)" fill="#2AAAB1" fill-rule="nonzero">
            <g id="lbb" transform="translate(100.926120, 90.226605)">
                <g id="Group" transform="translate(0.306004, 0.189476)">
                    <path d="M28.406087,80.9511164 C24.7575987,83.8817682 19.4803211,83.6212659 16.2227423,80.2347349 L0.58636418,65.2558476 L0.58636418,111.885775 C0.58636418,118.137832 7.68788591,121.784865 12.7697088,118.202958 L46.3879219,94.3018635 L80.006135,118.202958 C85.0879578,121.849991 92.1894797,118.202958 92.1894797,111.885775 L92.1894797,52.8168586 L92.1894797,42.7223914 L92.1894797,29.1762672 L28.406087,80.9511164 Z" id="Shape"></path>
                    <path d="M80.7228023,0.195376789 L12.1833446,0.195376789 C5.79849024,0.195376789 0.651515757,5.3402989 0.651515757,11.7226074 L0.651515757,42.7223914 L0.651515757,50.2118349 L16.2878939,66.167606 C19.5454727,69.4890112 24.8227503,69.8146393 28.4712386,66.8839875 L92.3197828,15.1091384 L92.3197828,11.7226074 C92.2546311,5.3402989 87.1076565,0.195376789 80.7228023,0.195376789 Z" id="Shape"></path>
                </g>
                <path d="M141.424317,110.707613 L141.424317,9.50243626 C141.424317,7.80917077 142.7925,6.44153325 144.486441,6.44153325 L156.930392,6.44153325 C158.624333,6.44153325 159.992516,7.80917077 159.992516,9.50243626 L159.992516,96.9009867 C159.992516,97.5522428 160.513729,98.1383731 161.230396,98.1383731 L205.403164,98.1383731 C207.097105,98.1383731 208.465288,99.5060104 208.465288,101.199276 L208.465288,110.707613 C208.465288,112.400879 207.097105,113.768516 205.403164,113.768516 L144.486441,113.768516 C142.7925,113.70339 141.424317,112.335753 141.424317,110.707613 Z" id="Shape"></path>
                <path d="M291.794154,66.4222077 C288.34112,61.8634157 283.454752,58.6071358 277.135049,56.7184936 C282.086569,54.243721 285.735057,50.9874412 288.210817,46.9496541 C290.621425,42.9118673 291.859305,38.6135779 291.859305,33.9896605 C291.859305,29.0401152 290.491122,24.3510723 287.754756,19.8574061 C285.01839,15.3637399 281.174447,11.9772089 276.35323,9.82806425 C271.466862,7.67891958 265.016856,6.57178444 257.003212,6.57178444 L221.821361,6.57178444 C219.475905,6.57178444 217.521357,8.46042673 217.521357,10.8700738 L217.521357,109.535353 C217.521357,111.879874 219.410753,113.833642 221.821361,113.833642 L257.654728,113.833642 C264.36534,113.833642 270.033527,113.247511 274.659289,112.010125 C279.285051,110.837864 283.128994,109.014348 286.191118,106.734952 C289.253242,104.39043 291.794154,101.069025 293.879004,96.7707355 C295.963854,92.4724461 297.00628,87.7834032 297.00628,82.7687323 C296.875977,76.3864238 295.182036,70.9809994 291.794154,66.4222077 Z M235.633495,21.2901692 L251.921389,21.2901692 C257.785031,21.2901692 261.368368,22.0716764 263.778976,22.9834348 C266.189584,23.8951931 268.469889,25.7187098 269.772921,28.258608 C271.075953,30.7985063 271.79262,33.3384047 271.79262,36.65981 C271.79262,40.1765921 270.880498,42.5211136 269.447163,44.865635 C268.07898,47.2101567 265.277462,49.3593013 262.541096,50.3361851 C260.456246,51.1176924 257.980486,51.5735716 253.159269,51.5735716 L235.503192,51.5735716 L235.503192,21.2901692 L235.633495,21.2901692 Z M276.74414,89.9325478 C275.571411,92.3421949 274.072925,94.1657118 272.248681,95.4030979 C270.424437,96.6404843 268.144132,97.5522428 265.472917,98.0732474 C263.909279,98.3988754 261.303216,98.5291266 257.459273,98.5291266 L235.372889,98.5291266 L235.372889,64.5335652 L255.895635,64.5335652 C261.563823,64.5335652 265.863827,65.0545701 268.860799,66.1617051 C271.857771,67.2688404 274.203228,69.1574826 275.897169,71.8927575 C277.59111,74.6280327 278.438081,77.8191868 278.438081,81.5313459 C278.503232,84.7225003 277.916868,87.5229009 276.74414,89.9325478 Z" id="Shape"></path>
                <path d="M380.660902,66.4222077 C377.20787,61.8634157 372.3215,58.6071358 366.001799,56.7184936 C370.953317,54.243721 374.601806,50.9874412 377.077567,46.9496541 C379.488176,42.9118673 380.726053,38.6135779 380.726053,33.9896605 C380.726053,29.0401152 379.35787,24.3510723 376.621504,19.8574061 C373.88514,15.3637399 370.041197,11.9772089 365.219978,9.82806425 C360.333612,7.67891958 353.883604,6.57178444 345.869963,6.57178444 L310.68811,6.57178444 C308.342654,6.57178444 306.388107,8.46042673 306.388107,10.8700738 L306.388107,109.535353 C306.388107,111.879874 308.277502,113.833642 310.68811,113.833642 L346.521477,113.833642 C353.23209,113.833642 358.900277,113.247511 363.526038,112.010125 C368.151799,110.837864 371.995743,109.014348 375.057866,106.734952 C378.119993,104.39043 380.660902,101.069025 382.745754,96.7707355 C384.830603,92.4724461 385.873029,87.7834032 385.873029,82.7687323 C385.742726,76.3864238 384.048785,70.9809994 380.660902,66.4222077 Z M324.500245,21.2901692 L340.788139,21.2901692 C346.65178,21.2901692 350.235118,22.0716764 352.645724,22.9834348 C355.056333,23.8951931 357.33664,25.7187098 358.639671,28.258608 C359.942703,30.7985063 360.659369,33.3384047 360.659369,36.65981 C360.659369,40.1765921 359.747246,42.5211136 358.313911,44.865635 C356.945728,47.2101567 354.14421,49.3593013 351.407844,50.3361851 C349.322995,51.1176924 346.847234,51.5735716 342.026019,51.5735716 L324.369941,51.5735716 L324.369941,21.2901692 L324.500245,21.2901692 Z M365.61089,89.9325478 C364.438161,92.3421949 362.939675,94.1657118 361.115429,95.4030979 C359.291186,96.6404843 357.010879,97.5522428 354.339668,98.0732474 C352.776027,98.3988754 350.169967,98.5291266 346.326023,98.5291266 L324.239638,98.5291266 L324.239638,64.5335652 L344.762385,64.5335652 C350.430572,64.5335652 354.730576,65.0545701 357.727548,66.1617051 C360.72452,67.2688404 363.069978,69.1574826 364.763918,71.8927575 C366.457859,74.6280327 367.30483,77.8191868 367.30483,81.5313459 C367.369982,84.7225003 366.783616,87.5229009 365.61089,89.9325478 Z" id="Shape"></path>
            </g>
        </g>
    </g>
</svg>