<?xml version="1.0" encoding="utf-8"?>
<!-- Generator: Adobe Illustrator 25.2.1, SVG Export Plug-In . SVG Version: 6.00 Build 0)  -->
<svg version="1.1" id="Layer_1" xmlns="http://www.w3.org/2000/svg" xmlns:xlink="http://www.w3.org/1999/xlink" x="0px" y="0px"
	 viewBox="0 0 656 131.2" style="enable-background:new 0 0 656 131.2;" xml:space="preserve">
<style type="text/css">
	.st0{fill:#147BFC;}
	.st1{fill:#FF5952;}
	.st2{fill:#6AB510;}
	.st3{fill:#21C8D8;}
	.st4{fill:#FBB125;}
</style>
<g id="C1_Mock-up" transform="translate(-370.46 -868.86)">
	<path id="Path_5437" class="st0" d="M580.9,951.8v41.5h-22.3v-41.2l-47.2-76.5h23.8l35.2,57.3l35.5-57.3h22L580.9,951.8z"/>
	<path id="Path_5438" class="st0" d="M719.3,993.3l-24.5-34.5c-1,0.1-2.6,0.2-4.6,0.2h-27.1v34.3h-22.3V875.6h49.4
		c9.3-0.2,18.6,1.5,27.2,5c7.2,3,13.4,8,17.7,14.5c4.2,6.7,6.4,14.5,6.2,22.4c0.7,16.7-9.7,31.8-25.5,37.1l27.6,38.7L719.3,993.3z
		 M711.3,900.2c-5-4-12.4-6.1-22.1-6h-26.1V941h26.1c9.7,0,17.1-2,22.1-6.1c5.1-4.3,7.9-10.7,7.5-17.4
		C719.2,910.8,716.4,904.4,711.3,900.2L711.3,900.2z"/>
	<path id="Path_5439" class="st0" d="M844.7,993.3l-24.5-34.5c-1,0.1-2.6,0.2-4.6,0.2h-27.1v34.3h-22.3V875.6h49.4
		c9.3-0.2,18.6,1.5,27.2,5c7.2,3,13.4,8,17.7,14.5c4.2,6.7,6.4,14.5,6.2,22.4c0.7,16.7-9.7,31.8-25.5,37.1l27.6,38.7L844.7,993.3z
		 M836.6,900.2c-5-4-12.4-6.1-22.1-6h-26.1V941h26.1c9.7,0,17.1-2,22.1-6.1c5.1-4.3,7.9-10.7,7.5-17.4
		C844.5,910.8,841.7,904.4,836.6,900.2z"/>
	<g id="Group_7550" transform="translate(370.46 871.018)">
		<g id="Group_7549" transform="translate(0 0)">
			<rect id="Rectangle_2440" x="6.1" y="4.6" class="st0" width="22.3" height="117.7"/>
			<rect id="Rectangle_2441" x="90.5" y="4.6" class="st0" width="22.3" height="117.7"/>
		</g>
	</g>
	<g id="Group_7551" transform="translate(575.358 868.86)">
		<path id="Path_5440" class="st1" d="M436.1,74.4c-0.6,0-1.2-0.1-1.7-0.2c-0.6-0.1-1.1-0.3-1.7-0.5c-0.5-0.2-1.1-0.5-1.5-0.8
			c-0.5-0.3-0.9-0.7-1.4-1.1c-0.4-0.4-0.8-0.9-1.1-1.3c-0.3-0.5-0.6-1-0.8-1.5c-0.2-0.5-0.4-1.1-0.5-1.6c-0.1-0.6-0.2-1.1-0.2-1.7
			c0-2.3,1-4.6,2.6-6.2c2.1-2.1,5.2-3,8.1-2.4c0.6,0.1,1.1,0.3,1.7,0.5c0.5,0.2,1.1,0.5,1.5,0.8c0.5,0.3,0.9,0.7,1.4,1.1
			c1.7,1.6,2.6,3.9,2.6,6.2c0,0.6-0.1,1.2-0.2,1.7c-0.1,0.6-0.3,1.1-0.5,1.6c-0.2,0.5-0.5,1-0.8,1.5c-0.7,1-1.5,1.8-2.5,2.4
			c-0.5,0.3-1,0.6-1.5,0.8c-0.5,0.2-1.1,0.4-1.7,0.5C437.3,74.3,436.7,74.4,436.1,74.4z"/>
		<path id="Path_5441" class="st2" d="M407.1,59.3c-4.2-2.3-5.7-7.6-3.4-11.8c0-0.1,0.1-0.1,0.1-0.2l0,0c2.5-4.2,8-5.6,12.2-3.2l0,0
			c4.2,2.3,5.7,7.6,3.4,11.8c0,0.1-0.1,0.1-0.1,0.2l0,0c-1.6,2.7-4.6,4.4-7.8,4.4l0,0C410,60.5,408.4,60.1,407.1,59.3z"/>
		<path id="Path_5442" class="st3" d="M382.5,45.4c-4.2-2.3-5.7-7.6-3.4-11.8c0-0.1,0.1-0.1,0.1-0.2l0,0c2.5-4.2,8-5.6,12.2-3.2l0,0
			c4.2,2.3,5.7,7.6,3.4,11.8c0,0.1-0.1,0.1-0.1,0.2l0,0c-1.6,2.7-4.6,4.4-7.8,4.4l0,0C385.4,46.6,383.9,46.2,382.5,45.4z"/>
		<path id="Path_5443" class="st4" d="M358,31.5c-4.2-2.3-5.7-7.6-3.4-11.8c0-0.1,0.1-0.1,0.1-0.2l0,0c2.5-4.2,8-5.6,12.2-3.2l0,0
			c4.2,2.3,5.7,7.6,3.4,11.8c0,0.1-0.1,0.1-0.1,0.2l0,0c-1.6,2.7-4.6,4.4-7.8,4.4l0,0C360.9,32.7,359.3,32.3,358,31.5z"/>
		<path id="Path_5444" class="st1" d="M337.9,18.8c-0.6,0-1.2-0.1-1.7-0.2c-0.6-0.1-1.1-0.3-1.7-0.5c-1.1-0.4-2.1-1.1-2.9-1.9
			c-0.4-0.4-0.8-0.8-1.1-1.3c-0.3-0.5-0.6-1-0.8-1.5c-0.2-0.5-0.4-1.1-0.5-1.6c-0.2-1.1-0.2-2.3,0-3.4c0.1-0.6,0.3-1.1,0.5-1.6
			c0.2-0.5,0.5-1,0.8-1.5c0.3-0.5,0.7-0.9,1.1-1.3c3.5-3.4,9.1-3.4,12.7,0c1.7,1.6,2.6,3.9,2.6,6.2c0,1.2-0.2,2.3-0.7,3.4
			c-0.2,0.5-0.5,1-0.8,1.5c-0.3,0.5-0.7,0.9-1.1,1.3C342.5,17.9,340.2,18.8,337.9,18.8z"/>
		<path id="Path_5445" class="st4" d="M328.9,93.4c0.1-4.9,4.1-8.8,9-8.8l0,0c4.9,0,8.9,3.9,9,8.8l0,0c0,4.9-4.1,8.8-9,8.8l0,0
			C333,102.2,329,98.3,328.9,93.4z"/>
		<path id="Path_5446" class="st3" d="M328.9,65.6c0.1-4.9,4.1-8.8,9-8.8l0,0c4.9,0,8.9,3.9,9,8.8l0,0c0,4.9-4.1,8.8-9,8.8
			c0,0,0,0,0,0l0,0C333,74.4,329,70.5,328.9,65.6C328.9,65.6,328.9,65.6,328.9,65.6z"/>
		<path id="Path_5447" class="st2" d="M328.9,37.8c0.1-4.9,4.1-8.8,9-8.8l0,0c4.9,0,8.9,3.9,9,8.8l0,0c0,4.9-4.1,8.8-9,8.8
			c0,0,0,0,0,0l0,0C333,46.6,329,42.7,328.9,37.8C328.9,37.8,328.9,37.8,328.9,37.8z"/>
		<path id="Path_5448" class="st1" d="M337.9,130c-0.6,0-1.2-0.1-1.7-0.2c-0.6-0.1-1.1-0.3-1.7-0.5c-0.5-0.2-1.1-0.5-1.5-0.8
			c-0.5-0.3-0.9-0.7-1.4-1.1c-1.7-1.6-2.6-3.9-2.6-6.2c0-0.6,0.1-1.1,0.2-1.7c0.1-0.6,0.3-1.1,0.5-1.6c0.2-0.5,0.5-1,0.8-1.5
			c0.3-0.5,0.7-0.9,1.1-1.3c0.4-0.4,0.9-0.8,1.4-1.1c0.5-0.3,1-0.6,1.5-0.8c0.5-0.2,1.1-0.4,1.7-0.5c2.9-0.6,5.9,0.3,8.1,2.4
			c0.4,0.4,0.8,0.9,1.1,1.3c0.3,0.5,0.6,1,0.8,1.5c0.2,0.5,0.4,1.1,0.5,1.6c0.1,0.6,0.2,1.1,0.2,1.7c0,2.3-1,4.6-2.6,6.2
			C342.5,129.1,340.2,130,337.9,130z"/>
		<path id="Path_5449" class="st2" d="M354.7,111.7c-2.4-4.1-1.1-9.4,3.1-11.9c0.1,0,0.2-0.1,0.2-0.1l0,0c4.3-2.4,9.7-1,12.2,3.2
			l0,0c2.4,4.1,1.1,9.4-3.1,11.9c-0.1,0-0.1,0.1-0.2,0.1l0,0c-1.4,0.8-2.9,1.2-4.5,1.2l0,0C359.3,116.1,356.3,114.4,354.7,111.7z"/>
		<path id="Path_5450" class="st3" d="M379.2,97.8c-2.4-4.1-1-9.5,3.1-11.9c0.1,0,0.1-0.1,0.2-0.1l0,0c4.3-2.4,9.7-1,12.2,3.2l0,0
			c2.4,4.1,1,9.5-3.1,11.9c-0.1,0-0.1,0.1-0.2,0.1l0,0c-1.4,0.8-2.9,1.2-4.5,1.2l0,0C383.8,102.2,380.9,100.5,379.2,97.8z"/>
		<path id="Path_5451" class="st4" d="M403.8,83.9c-2.4-4.1-1.1-9.4,3.1-11.9c0.1,0,0.2-0.1,0.2-0.1l0,0c4.3-2.4,9.7-1,12.2,3.2l0,0
			c2.4,4.1,1,9.5-3.1,11.9c-0.1,0-0.1,0.1-0.2,0.1l0,0c-1.4,0.8-2.9,1.2-4.5,1.2l0,0C408.4,88.3,405.4,86.6,403.8,83.9z"/>
	</g>
	<rect id="Rectangle_2442" x="382.5" y="925.5" class="st0" width="58.8" height="21.8"/>
</g>
</svg>
