<svg width="170" height="60" viewBox="0 0 170 60" fill="none" xmlns="http://www.w3.org/2000/svg">
<path d="M25.7385 30.3941L22.3585 42.3513C21.9758 43.6138 20.8326 44.4913 19.5228 44.4913C18.213 44.4913 17.1792 43.6688 16.7417 42.5713L9.27342 22.9893C9.10937 22.6068 9 22.0018 9 21.6744C9 20.0294 10.3098 18.7119 11.9451 18.7119C13.2003 18.7119 14.2887 19.4244 14.7262 20.6319L19.252 34.124L22.9054 20.8519C23.1788 19.8644 24.1058 18.7119 25.7411 18.7119C27.2124 18.7119 28.2488 19.7544 28.5222 20.6869L32.1756 34.124L36.6467 20.6319C37.0842 19.4244 38.1727 18.7119 39.4825 18.7119C41.1725 18.7119 42.4276 19.9194 42.4276 21.5644C42.4276 21.8944 42.3182 22.3318 42.1542 22.7169L34.6833 42.6263C34.2458 43.8338 33.212 44.4913 31.9569 44.4913C30.6471 44.4913 29.5039 43.6138 29.1211 42.4063L25.7385 30.3941Z" fill="black"/>
<path d="M55.731 44.764C48.3695 44.764 43.7891 40.5416 43.7891 31.6019C43.7891 22.6071 48.3695 18.3848 55.731 18.3848C63.0925 18.3848 67.673 22.6071 67.673 31.6019C67.673 40.5416 63.0925 44.764 55.731 44.764ZM55.731 23.4296C51.8042 23.4296 49.734 26.172 49.734 31.6019C49.734 36.9767 51.8068 39.7191 55.731 39.7191C59.6579 39.7191 61.728 36.9767 61.728 31.6019C61.7306 26.172 59.6579 23.4296 55.731 23.4296Z" fill="black"/>
<path d="M82.7701 44.764C75.4086 44.764 70.8281 40.5416 70.8281 31.6019C70.8281 22.6071 75.4086 18.3848 82.7701 18.3848C90.1316 18.3848 94.712 22.6071 94.712 31.6019C94.7094 40.5416 90.1316 44.764 82.7701 44.764ZM82.7701 23.4296C78.8432 23.4296 76.7731 26.172 76.7731 31.6019C76.7731 36.9767 78.8458 39.7191 82.7701 39.7191C86.6969 39.7191 88.7671 36.9767 88.7671 31.6019C88.7671 26.172 86.6943 23.4296 82.7701 23.4296Z" fill="black"/>
<path d="M121.97 31.6018C121.97 40.5416 117.663 44.7639 110.301 44.7639C103.703 44.7639 99.0156 41.089 99.0156 33.7942V7.96245C99.0156 6.31752 100.325 5 101.961 5C103.596 5 104.906 6.31752 104.906 7.96245V20.5771C105.997 19.4796 108.286 18.3821 110.903 18.3821C117.77 18.3821 121.97 22.6621 121.97 31.6018ZM104.903 33.7942C104.903 37.5791 107.138 39.7165 110.301 39.7165C114.064 39.7165 116.134 36.9741 116.134 31.5992C116.134 26.1694 114.007 23.4269 110.301 23.4269C107.031 23.4269 104.903 26.2244 104.903 26.2244V33.7942Z" fill="black"/>
<path d="M131.958 7.96245V38.0192C131.958 38.6766 132.612 39.0067 132.994 39.0067C134.52 39.0067 135.721 40.2142 135.721 41.7491C135.721 43.284 134.52 44.4915 132.994 44.4915C128.742 44.4915 126.07 42.0791 126.07 37.4717V7.96245C126.07 6.31752 127.38 5 129.015 5C130.651 5 131.958 6.31752 131.958 7.96245Z" fill="black"/>
<path d="M145.317 42.2963L136.919 22.8269C136.81 22.5518 136.7 22.1694 136.7 21.6744C136.7 20.0294 138.01 18.7119 139.646 18.7119C141.281 18.7119 142.099 19.8644 142.372 20.5769L148.369 35.8239L154.366 20.5769C154.639 19.8644 155.457 18.7119 157.092 18.7119C158.728 18.7119 160.038 20.0294 160.038 21.6744C160.038 22.1668 159.928 22.5518 159.819 22.8269L149.676 45.8612C147.278 51.236 143.843 55.0759 138.39 55.0759C136.81 55.0759 135.555 53.9234 135.555 52.3335C135.555 50.7436 136.81 49.5911 138.39 49.5911C141.88 49.5911 143.515 46.7937 145.317 42.2963Z" fill="black"/>
</svg>
