<svg width="170" height="60" viewBox="0 0 170 60" fill="none" xmlns="http://www.w3.org/2000/svg">
<path d="M22 19H26.3022L32.5235 31.3085L38.67 19H42.882V37.0088H38.4618V25.2657L32.5829 37.0088H30.8712L24.7987 25.1331V37.0088H22V19ZM53.4047 29.9839C53.0089 30.1526 52.6071 30.3485 52.1993 30.5718C51.8103 30.783 51.4415 31.0296 51.0977 31.3085C50.7932 31.5518 50.5251 31.8375 50.3016 32.1568C50.1059 32.4306 49.9993 32.758 49.9964 33.0946C49.9951 33.3439 50.0302 33.5921 50.1005 33.8313C50.1626 34.0472 50.2559 34.2528 50.3776 34.4417C50.4818 34.6046 50.6161 34.7461 50.7735 34.8585C50.9115 34.9591 51.0777 35.0138 51.2485 35.0149C51.6082 35.0053 51.9583 34.8971 52.2607 34.7022C52.608 34.4937 52.9907 34.2357 53.4087 33.9283L53.4047 29.9839ZM57.5423 37.0088H53.4047V35.9222C53.1765 36.1106 52.9532 36.2868 52.7349 36.4507C52.5106 36.6181 52.2686 36.7604 52.0133 36.875C51.7222 37.0029 51.4178 37.0977 51.1056 37.1577C50.7108 37.2318 50.3097 37.2667 49.9081 37.2618C49.3335 37.2701 48.7617 37.1795 48.2178 36.9938C47.7494 36.8341 47.3171 36.5836 46.9455 36.2567C46.6003 35.9469 46.3261 35.5661 46.1419 35.1404C45.9519 34.7013 45.8556 34.2274 45.8593 33.7489C45.8511 33.2612 45.9528 32.7779 46.1569 32.3349C46.3589 31.9133 46.6335 31.5305 46.9681 31.204C47.33 30.8518 47.735 30.5468 48.1735 30.2963C48.6513 30.0202 49.1459 29.7741 49.6544 29.5596C50.1803 29.3363 50.7236 29.1328 51.2841 28.9491C51.8447 28.7655 52.4028 28.5844 52.9586 28.406L53.4051 28.3019V26.9477C53.4051 26.0844 53.2389 25.4718 52.9064 25.1097C52.7391 24.9294 52.5348 24.7875 52.3074 24.6937C52.08 24.6 51.8351 24.5566 51.5893 24.5666C51.3086 24.5591 51.0288 24.602 50.7632 24.6933C50.559 24.7651 50.3751 24.8851 50.2272 25.0432C50.0942 25.1904 49.9974 25.3666 49.9445 25.5578C49.8889 25.7589 49.8613 25.9667 49.8626 26.1754C49.8634 26.4257 49.8359 26.6754 49.7806 26.9196C49.7303 27.149 49.6314 27.365 49.4905 27.5529C49.3398 27.7446 49.143 27.8948 48.9185 27.9896C48.6232 28.1085 48.3063 28.1643 47.9882 28.1535C47.4699 28.1777 46.9626 27.9987 46.5742 27.6547C46.4009 27.4981 46.2634 27.3061 46.1709 27.0917C46.0784 26.8773 46.0332 26.6455 46.0382 26.4121C46.0395 25.9314 46.2074 25.4659 46.5132 25.0951C46.8691 24.662 47.3106 24.3072 47.8101 24.0528C48.4068 23.7415 49.0425 23.5113 49.7003 23.3683C50.4427 23.2016 51.2017 23.1192 51.9626 23.1229C52.8084 23.1092 53.6528 23.1967 54.4779 23.3834C55.0976 23.52 55.6859 23.7725 56.2118 24.1276C56.6413 24.4244 56.9873 24.8266 57.2165 25.2958C57.4399 25.7756 57.5518 26.2997 57.5438 26.8289L57.5423 37.0088ZM63.4659 23.1823L67.4399 31.6956L71.4884 23.1823H74.3014L67.603 37.3065H65.7128L59.1348 23.1823H63.4659Z" fill="url(#paint0_linear_338_14506)"/>
<path d="M76.2344 19.1207H83.9596C84.922 19.1113 85.8819 19.2213 86.8173 19.448C87.6049 19.6344 88.3565 19.9487 89.0424 20.3783C89.6292 20.7466 90.1253 21.2427 90.4936 21.8295C90.8418 22.398 91.0223 23.0532 91.0146 23.7198C91.018 24.1186 90.9705 24.5162 90.8733 24.903C90.7783 25.2665 90.6222 25.6112 90.4117 25.9223C90.174 26.2661 89.8883 26.5742 89.5634 26.8372C89.1548 27.1683 88.7192 27.4646 88.261 27.7227C88.7741 27.8854 89.2643 28.113 89.7197 28.4C90.1517 28.6702 90.5405 29.0038 90.8733 29.3897C91.1922 29.7603 91.4489 30.1802 91.6333 30.6331C91.8194 31.0941 91.9135 31.5871 91.9104 32.0843C91.914 32.7737 91.7479 33.4535 91.4267 34.0636C91.0917 34.6933 90.6204 35.2404 90.0471 35.6648C89.3973 36.1426 88.6696 36.5042 87.8964 36.7337C86.9917 37.0067 86.0506 37.1402 85.1056 37.1295H76.2344V19.1207ZM80.6399 26.9191H83.572C83.9993 26.9262 84.4238 26.8504 84.8222 26.6958C85.1711 26.5589 85.4879 26.3511 85.7524 26.0854C86.0099 25.8202 86.2078 25.503 86.3328 25.1551C86.4697 24.7759 86.5378 24.3752 86.5339 23.9719C86.5387 23.53 86.4526 23.0918 86.2809 22.6846C86.1117 22.2919 85.8485 21.9469 85.5145 21.6799C85.1235 21.3778 84.6755 21.1577 84.1975 21.0327C83.5811 20.8686 82.945 20.7909 82.3073 20.8019H80.6407L80.6399 26.9191ZM80.6399 35.2836H83.0827C83.7107 35.2947 84.3371 35.217 84.9433 35.0528C85.4161 34.9258 85.8589 34.7058 86.2457 34.4056C86.5724 34.1462 86.8317 33.8119 87.0018 33.431C87.1685 33.0436 87.2521 32.6255 87.2472 32.2038C87.2524 31.7254 87.1775 31.2495 87.0255 30.7958C86.8776 30.366 86.6245 29.98 86.2892 29.6731C85.9023 29.3304 85.4451 29.0764 84.9496 28.9289C84.2954 28.7358 83.6151 28.6454 82.9331 28.6609H80.6411L80.6399 35.2836ZM101.299 37.4272C100.364 37.4349 99.4375 37.2528 98.5751 36.892C97.7546 36.5494 97.0034 36.0602 96.3583 35.4483C95.7254 34.8462 95.2171 34.1255 94.8623 33.3273C94.5015 32.5248 94.3164 31.6546 94.3192 30.7748C94.3093 29.7603 94.4807 28.7522 94.8251 27.7979C95.1409 26.9201 95.6263 26.1131 96.2538 25.4228C96.8771 24.7472 97.6351 24.2099 98.4789 23.8453C99.3926 23.455 100.378 23.2605 101.371 23.2744C102.26 23.2632 103.144 23.4171 103.976 23.7285C104.721 24.0073 105.406 24.4268 105.993 24.9639C106.552 25.4825 106.998 26.1107 107.303 26.8094C107.616 27.5248 107.776 28.2982 107.771 29.0793H98.3669C98.3929 29.8084 98.5002 30.5323 98.6867 31.2375C98.85 31.8741 99.1056 32.4834 99.4456 33.0458C99.7358 33.5314 100.12 33.954 100.577 34.2884C100.994 34.5915 101.497 34.7532 102.013 34.75C102.47 34.7501 102.923 34.6697 103.352 34.5125C103.784 34.3561 104.192 34.1407 104.565 33.8724C104.934 33.6081 105.26 33.2895 105.533 32.9275C105.798 32.5812 105.997 32.1895 106.122 31.7715L108.235 32.0843C108.021 32.8301 107.678 33.5327 107.222 34.1606C106.76 34.8053 106.206 35.3787 105.577 35.8628C104.954 36.346 104.262 36.7329 103.524 37.0108C102.813 37.2831 102.06 37.4242 101.299 37.4272ZM103.041 27.6788C103.016 27.3029 102.931 26.9336 102.788 26.585C102.66 26.2705 102.479 25.9808 102.251 25.7288C102.041 25.4962 101.785 25.3088 101.499 25.1781C101.212 25.0481 100.9 24.982 100.584 24.9845C100.321 24.9856 100.063 25.0521 99.832 25.1781C99.5772 25.3164 99.3502 25.5006 99.1622 25.7212C98.9461 25.9745 98.7723 26.2609 98.6476 26.5696C98.5033 26.9236 98.413 27.2972 98.3796 27.678L103.041 27.6788ZM114.858 37.1295H110.75V23.5559H114.858V24.5681C115.302 24.1181 115.811 23.7369 116.368 23.4371C116.906 23.1501 117.507 23.0018 118.117 23.0056C118.467 23.0032 118.816 23.0534 119.152 23.1545C119.453 23.2438 119.739 23.3794 120 23.5563C120.229 23.7108 120.424 23.9109 120.573 24.1441C120.708 24.3552 120.781 24.6004 120.781 24.8511C120.783 25.0796 120.735 25.3057 120.64 25.5134C120.55 25.7113 120.418 25.887 120.253 26.028C120.085 26.1694 119.893 26.2802 119.687 26.3554C119.465 26.4361 119.231 26.4763 118.995 26.4742C118.719 26.4845 118.444 26.431 118.192 26.3178C117.993 26.2194 117.802 26.1075 117.618 25.9829C117.445 25.8639 117.271 25.7522 117.097 25.648C116.895 25.5366 116.666 25.4826 116.435 25.4916C116.283 25.4965 116.136 25.5514 116.018 25.648C115.864 25.768 115.726 25.9082 115.609 26.0648C115.463 26.2562 115.331 26.4576 115.213 26.6677C115.084 26.896 114.965 27.1292 114.857 27.3672L114.858 37.1295ZM126.333 37.1295H122.225V23.5559H126.333V24.5681C126.777 24.1181 127.286 23.7369 127.843 23.4371C128.381 23.1501 128.983 23.0018 129.592 23.0056C129.942 23.0037 130.291 23.0543 130.625 23.1557C130.927 23.245 131.213 23.3806 131.474 23.5575C131.703 23.7119 131.898 23.9121 132.047 24.1453C132.182 24.3564 132.255 24.6016 132.255 24.8523C132.257 25.0808 132.209 25.3069 132.114 25.5146C132.024 25.7125 131.892 25.8882 131.727 26.0292C131.559 26.1706 131.367 26.2814 131.161 26.3566C130.939 26.4373 130.705 26.4775 130.469 26.4753C130.193 26.4857 129.918 26.4322 129.666 26.319C129.467 26.2206 129.276 26.1087 129.092 25.9841C128.919 25.8651 128.745 25.7534 128.571 25.6492C128.369 25.5378 128.14 25.4838 127.909 25.4928C127.757 25.4977 127.61 25.5526 127.492 25.6492C127.338 25.7691 127.2 25.9093 127.083 26.066C126.937 26.2574 126.805 26.4588 126.687 26.6689C126.558 26.8972 126.439 27.1304 126.331 27.3684L126.333 37.1295ZM132.627 23.3029H136.988L141.289 31.6821L145.07 23.3029H148.004L141.155 38.4093C140.913 38.937 140.597 39.4281 140.218 39.8681C139.854 40.293 139.433 40.6659 138.967 40.9765C138.526 41.2718 138.048 41.5094 137.546 41.6835C137.08 41.8479 136.589 41.9333 136.095 41.9364C135.75 41.9382 135.408 41.8932 135.075 41.8026C134.775 41.7231 134.489 41.5976 134.227 41.4305C133.998 41.2853 133.801 41.0955 133.647 40.8724C133.504 40.6642 133.429 40.4175 133.431 40.1654C133.432 39.988 133.463 39.8121 133.52 39.6444C133.584 39.4601 133.691 39.294 133.833 39.1607C134.003 39.004 134.203 38.8828 134.421 38.8044C134.72 38.7012 135.035 38.6533 135.351 38.6631C135.557 38.6539 135.761 38.6975 135.945 38.7897C136.087 38.8698 136.224 38.9593 136.354 39.0577C136.478 39.152 136.605 39.2413 136.734 39.3257C136.882 39.4152 137.053 39.4593 137.225 39.4524C137.306 39.4438 137.383 39.4189 137.454 39.3792C137.524 39.3396 137.586 39.2859 137.635 39.2216C137.794 39.0473 137.936 38.8578 138.059 38.6559C138.203 38.4252 138.335 38.1874 138.455 37.9434C138.579 37.6903 138.685 37.4597 138.775 37.2514L139.25 36.1648L132.627 23.3029Z" fill="url(#paint1_linear_338_14506)"/>
<defs>
<linearGradient id="paint0_linear_338_14506" x1="72.5754" y1="19.4577" x2="60.5015" y2="54.1797" gradientUnits="userSpaceOnUse">
<stop stop-color="#DF407C"/>
<stop offset="1" stop-color="#EB706C"/>
</linearGradient>
<linearGradient id="paint1_linear_338_14506" x1="139.75" y1="22.36" x2="130.003" y2="52.7274" gradientUnits="userSpaceOnUse">
<stop stop-color="#F9B837"/>
<stop offset="1" stop-color="#F8902E"/>
</linearGradient>
</defs>
</svg>
