<?xml version="1.0" encoding="UTF-8"?>
<svg width="500px" height="254px" viewBox="0 0 500 254" version="1.1" xmlns="http://www.w3.org/2000/svg" xmlns:xlink="http://www.w3.org/1999/xlink">
    <!-- Generator: Sketch 51.2 (57519) - http://www.bohemiancoding.com/sketch -->
    <title>Max</title>
    <desc>Created with Sketch.</desc>
    <defs></defs>
    <g id="SB-WEB-DESIGN" stroke="none" stroke-width="1" fill="none" fill-rule="evenodd">
        <g id="tripoto.svg" transform="translate(-44.000000, -24.000000)" fill-rule="nonzero">
            <g id="Max" transform="translate(44.000000, 24.000000)">
                <path d="M64.1,0 L97.7,29.7 C97.7,29.7 112.4,47.4 104.4,72.5 C96,98.9 77.7,102.3 65.8,127 C54.1,151.3 64.7,168.1 64.7,168.1 C64.7,168.1 88.3,176.2 102.7,156.1 C116.9,136.4 100.1,108.1 100.1,108.1 L129.8,134.7 C129.8,134.7 140.2,142.7 138.8,160.5 C137.4,178.1 123.9,191.6 106.8,195.1 C89,198.7 76.2,188.3 76.2,188.3 L38,154.7 C38,154.7 22,131.4 37.3,102.6 C52.6,73.8 68,64.6 69.6,33.6 C70.9,8 64.1,0 64.1,0 Z" id="Shape" fill="#F57A00"></path>
                <path d="M0,210 C0,210 23.6,223.2 46.8,221.6 C70.6,220 84.3,206 104.4,206 C122,206 133.9,217.5 133.9,217.5 L169.7,248.2 C169.7,248.2 153.6,237.9 132.1,236.9 C105.9,235.7 86.6,254 66.1,254 C57.1,254 43.3,247.9 35.8,241.3 L0,210 Z" id="Shape" fill="#1C3C74"></path>
                <g id="Group" transform="translate(169.000000, 39.000000)" fill="#1C3C74">
                    <g id="Shape">
                        <path d="M0.7,97.6 C6.3,97.6 9.9,96.6 11.6,94.6 C13.3,92.7 14.1,89.8 14.1,85.9 L14.1,16.2 C14.1,12.2 13.1,9.6 11.2,8.3 C9.3,7 5.9,6.2 1,5.8 L1,2.1 L38,2.1 L66.9,70 L68.1,70 L96.8,2.1 L133.8,2.1 L133.8,5.8 C128.8,6.2 125.4,7.1 123.6,8.5 C121.8,9.9 120.9,13.5 120.9,19.2 L120.9,84.1 C120.9,89.5 121.8,93 123.6,94.7 C125.4,96.4 128.8,97.3 133.8,97.5 L133.8,101.2 L85.1,101.2 L85.1,97.5 C89.4,97.4 92.7,96.6 94.9,95.3 C97.1,94 98.2,91.1 98.2,86.7 L98.2,15.1 L97.1,15.1 L61.1,101.4 L57.2,101.4 L20.9,16.9 L20.3,16.9 L20.3,83.3 C20.3,88.2 21.2,91.8 23,94 C24.8,96.3 28.8,97.5 35,97.7 L35,101.4 L0.7,101.4 L0.7,97.6 Z"></path>
                        <path d="M133.9,97.6 C137.4,97.4 140.3,95.8 142.4,92.8 C143.8,90.9 145.8,86.8 148.3,80.5 L181,0.2 L185.1,0.2 L217.8,77.3 C221.5,85.9 224.2,91.5 226,94 C227.8,96.5 230.4,97.7 233.7,97.6 L233.7,101.3 L186.2,101.3 L186.2,97.6 C191,97.4 194.1,97 195.6,96.4 C197.1,95.8 197.9,94.2 197.9,91.7 C197.9,90.6 197.5,88.8 196.8,86.5 C196.3,85.1 195.7,83.4 194.9,81.5 L191.2,72.6 L158.3,72.6 C156.1,78.4 154.8,82.2 154.1,84 C152.8,87.8 152.2,90.5 152.2,92.2 C152.2,94.3 153.6,95.8 156.4,96.8 C158.1,97.3 160.6,97.6 163.9,97.7 L163.9,101.4 L133.9,101.4 L133.9,97.6 Z M189,66.7 L174.9,32.7 L173.7,32.7 L160.5,66.7 L189,66.7 Z"></path>
                        <path d="M230.8,97.6 C234.5,96.9 237.2,96.2 238.8,95.5 C241.4,94.3 243.8,92.3 246,89.5 L271,57.2 L242.7,14.5 C240.5,11.4 238.7,9.2 237,8 C235.4,6.8 233.3,6.1 230.9,6 L230.9,2.3 L281.7,2.3 L281.7,6 C277,6.2 273.8,6.6 272.3,7.1 C270.7,7.6 270,8.9 270,10.8 C270,11.7 270.2,12.5 270.6,13.3 C271,14.1 271.5,15.1 272.2,16.2 L286.2,37.4 C294.4,26.8 299.3,20.2 300.9,17.6 C302.5,15 303.3,12.9 303.3,11.2 C303.3,9.1 302.1,7.7 299.7,6.9 C298.3,6.5 295.9,6.2 292.5,6 L292.5,2.3 L329.2,2.3 L329.2,6 C322.8,6.7 317.8,9 314.1,12.9 C310.4,16.9 302.3,26.9 289.9,43.1 L317.2,84.3 C320.5,90 323,93.6 324.6,95 C326.2,96.4 328.3,97.3 330.9,97.7 L330.9,101.4 L281,101.4 L281,97.7 C285.3,97.5 288.1,97.2 289.5,96.8 C291.6,96.2 292.7,94.9 292.7,93.1 C292.7,92.4 292.5,91.4 292,90.1 C291.5,88.8 290.7,87.3 289.6,85.5 L274.7,63 L269.2,70 C264.5,76 261.4,80.1 259.7,82.5 C256.9,86.8 255.5,89.8 255.5,91.5 C255.5,94.1 257.2,95.8 260.6,96.8 C262.5,97.4 264.8,97.7 267.4,97.7 L267.4,101.4 L230.7,101.4 L230.7,97.6 L230.8,97.6 Z"></path>
                    </g>
                    <g transform="translate(0.000000, 135.000000)" id="Shape">
                        <polygon points="0.7 40.1 0.7 1 24.3 1 24.3 7.2 8.2 7.2 8.2 16.9 23.5 16.9 23.5 23 8.2 23 8.2 33.9 24.3 33.9 24.3 40.1 0.7 40.1"></polygon>
                        <path d="M76.6,28.3 C76.6,30.4 76.2,32.3 75.4,33.9 C74.6,35.5 73.5,36.8 72.1,37.8 C70.7,38.8 69,39.6 67,40.1 C65,40.6 62.9,40.8 60.6,40.8 C58.5,40.8 56.6,40.7 54.6,40.4 C52.7,40.2 50.8,39.8 48.9,39.2 L48.9,31.9 C49.8,32.2 50.8,32.5 51.8,32.8 C52.8,33.1 53.8,33.3 54.8,33.5 C55.8,33.7 56.8,33.9 57.8,34 C58.8,34.1 59.8,34.2 60.7,34.2 C62.1,34.2 63.3,34.1 64.3,33.8 C65.3,33.6 66.1,33.2 66.7,32.8 C67.3,32.4 67.8,31.9 68,31.3 C68.2,30.7 68.4,30.1 68.4,29.4 C68.4,28.4 68.1,27.6 67.6,27 C67.1,26.4 66.3,25.8 65.4,25.3 C64.5,24.8 63.5,24.4 62.3,24 C61.2,23.6 60,23.2 58.8,22.7 C57.6,22.2 56.4,21.7 55.3,21.1 C54.2,20.5 53.1,19.8 52.2,18.9 C51.3,18 50.6,17 50,15.8 C49.5,14.6 49.2,13.2 49.2,11.5 C49.2,10 49.5,8.5 50,7.1 C50.6,5.7 51.4,4.5 52.6,3.5 C53.8,2.5 55.3,1.7 57.2,1 C59.1,0.4 61.3,0.1 64,0.1 C64.8,0.1 65.6,0.1 66.4,0.2 C67.2,0.3 68.1,0.4 68.9,0.5 C69.7,0.6 70.5,0.7 71.3,0.9 C72.1,1.1 72.8,1.2 73.4,1.4 L73.4,8.1 C72.8,7.9 72.1,7.6 71.3,7.4 C70.5,7.2 69.8,7 69,6.9 C68.2,6.8 67.4,6.6 66.6,6.6 C65.8,6.5 65,6.5 64.3,6.5 C63,6.5 61.9,6.6 61,6.8 C60.1,7 59.4,7.3 58.8,7.7 C58.2,8.1 57.8,8.5 57.5,9.1 C57.2,9.6 57.1,10.2 57.1,10.9 C57.1,11.7 57.4,12.4 57.9,13 C58.4,13.6 59.2,14.1 60.1,14.6 C61,15.1 62,15.5 63.2,15.9 C64.3,16.3 65.5,16.7 66.7,17.2 C67.9,17.7 69.1,18.2 70.2,18.8 C71.3,19.4 72.4,20.1 73.3,21 C74.2,21.9 74.9,22.9 75.5,24 C76.3,25.3 76.6,26.7 76.6,28.3 Z"></path>
                        <polygon points="117.6 7.1 117.6 40.1 110 40.1 110 7.1 99.3 7.1 99.3 1 128.3 1 128.3 7.1"></polygon>
                        <path d="M173.3,40.1 L171.1,32.4 L157.4,32.4 L155.2,40.1 L147.9,40.1 L159.5,1 L169.8,1 L181.4,40.1 L173.3,40.1 Z M164.4,8.1 L159.3,26.3 L169.5,26.3 L164.4,8.1 Z"></path>
                        <polygon points="219.3 7.1 219.3 40.1 211.8 40.1 211.8 7.1 201.1 7.1 201.1 1 230.1 1 230.1 7.1"></polygon>
                        <polygon points="255.1 40.1 255.1 1 278.7 1 278.7 7.2 262.6 7.2 262.6 16.9 277.9 16.9 277.9 23 262.6 23 262.6 33.9 278.7 33.9 278.7 40.1 255.1 40.1"></polygon>
                        <path d="M331,28.3 C331,30.4 330.6,32.3 329.8,33.9 C329,35.5 327.9,36.8 326.5,37.8 C325.1,38.8 323.4,39.6 321.4,40.1 C319.4,40.6 317.3,40.8 315,40.8 C312.9,40.8 311,40.7 309,40.4 C307.1,40.2 305.2,39.8 303.3,39.2 L303.3,31.9 C304.2,32.2 305.2,32.5 306.2,32.8 C307.2,33.1 308.2,33.3 309.2,33.5 C310.2,33.7 311.2,33.9 312.2,34 C313.2,34.1 314.2,34.2 315.1,34.2 C316.5,34.2 317.7,34.1 318.7,33.8 C319.7,33.6 320.5,33.2 321.1,32.8 C321.7,32.4 322.2,31.9 322.4,31.3 C322.6,30.7 322.8,30.1 322.8,29.4 C322.8,28.4 322.5,27.6 322,27 C321.5,26.4 320.7,25.8 319.8,25.3 C318.9,24.8 317.9,24.4 316.7,24 C315.6,23.6 314.4,23.2 313.2,22.7 C312,22.2 310.8,21.7 309.7,21.1 C308.6,20.5 307.5,19.8 306.6,18.9 C305.7,18 305,17 304.4,15.8 C303.9,14.6 303.6,13.2 303.6,11.5 C303.6,10 303.9,8.5 304.4,7.1 C305,5.7 305.8,4.5 307,3.5 C308.2,2.5 309.7,1.7 311.6,1 C313.5,0.4 315.7,0.1 318.4,0.1 C319.2,0.1 320,0.1 320.8,0.2 C321.6,0.3 322.5,0.4 323.3,0.5 C324.1,0.6 324.9,0.7 325.7,0.9 C326.5,1.1 327.2,1.2 327.8,1.4 L327.8,8.1 C327.2,7.9 326.5,7.6 325.7,7.4 C324.9,7.2 324.2,7 323.4,6.9 C322.6,6.8 321.8,6.6 321,6.6 C320.2,6.5 319.4,6.5 318.7,6.5 C317.4,6.5 316.3,6.6 315.4,6.8 C314.5,7 313.8,7.3 313.2,7.7 C312.6,8.1 312.2,8.5 311.9,9.1 C311.6,9.6 311.5,10.2 311.5,10.9 C311.5,11.7 311.8,12.4 312.3,13 C312.8,13.6 313.6,14.1 314.5,14.6 C315.4,15.1 316.4,15.5 317.6,15.9 C318.7,16.3 319.9,16.7 321.1,17.2 C322.3,17.7 323.5,18.2 324.6,18.8 C325.7,19.4 326.8,20.1 327.7,21 C328.6,21.9 329.3,22.9 329.9,24 C330.7,25.3 331,26.7 331,28.3 Z"></path>
                    </g>
                </g>
            </g>
        </g>
    </g>
</svg>