<svg id="Layer_1" data-name="Layer 1" xmlns="http://www.w3.org/2000/svg" xmlns:xlink="http://www.w3.org/1999/xlink" viewBox="0 0 156.28 63.75"><defs><style>.cls-1{fill:none;}.cls-2{fill:#00306b;}.cls-2,.cls-4{fill-rule:evenodd;}.cls-3{clip-path:url(#clip-path);}.cls-4{fill:#009ee0;}.cls-5{fill:#fff;}.cls-6{fill:#4ec6ee;}.cls-7{fill:#bae5f7;}</style><clipPath id="clip-path" transform="translate(0)"><rect class="cls-1" width="157" height="64"/></clipPath></defs><path class="cls-2" d="M53.06,22.51V2.19h3l3,3.26q1.68,1.82,3.44,3.67t3.33,3.58q1.58,1.71,3,3.39V2.19l.59.06.57.06.61-.06.6-.06V22.57l-2.48-.07q-4.95-5.49-7.5-8.27T55.43,8.17V22.51l-.68-.06-.66-.06-.49.06-.54.06ZM73.7,18.93a3.46,3.46,0,0,1,1.11-2.86,7.36,7.36,0,0,1,2.83-1.32l2.25-.57a3.63,3.63,0,0,0,1.37-.59,1.44,1.44,0,0,0,.5-1.21,2.41,2.41,0,0,0-.92-1.83A2.87,2.87,0,0,0,79,9.83a5.41,5.41,0,0,0-2,.47,3.27,3.27,0,0,0-1.62,1.34h-.23l-.32-1.75a6.12,6.12,0,0,1,2.52-1.51,9.36,9.36,0,0,1,2.9-.5,9,9,0,0,1,2.66.4A5.1,5.1,0,0,1,85,9.57a3.13,3.13,0,0,1,.85,2.25V20.2c0,.77.5,1.15,1.48,1.15V22a10.25,10.25,0,0,1-1.4.57,3.74,3.74,0,0,1-1.14.25,3.17,3.17,0,0,1-3-2.16,4,4,0,0,1-1.66,1.61,4.56,4.56,0,0,1-2.16.55,5.11,5.11,0,0,1-2.16-.43,3.48,3.48,0,0,1-1.49-1.3,4,4,0,0,1-.59-2.14Zm8.06-4.18-2,.73a3.41,3.41,0,0,0-1.4,1,3,3,0,0,0-.53,1.93c0,1.61.52,2.43,1.57,2.49a1.82,1.82,0,0,0,1.83-1.06,5.64,5.64,0,0,0,.48-2.35Zm7.58,7.82V0L90,.06c.23,0,.46,0,.7.06l.64.06L93.45,0V22.57l-2.08-.18-2,.18Zm6.71-3.64a3.46,3.46,0,0,1,1.11-2.86A7.36,7.36,0,0,1,100,14.75l2.25-.57a3.51,3.51,0,0,0,1.36-.59,1.42,1.42,0,0,0,.5-1.21,2.37,2.37,0,0,0-.91-1.83,2.91,2.91,0,0,0-1.87-.72,5.37,5.37,0,0,0-2,.47,3.16,3.16,0,0,0-1.61,1.34h-.24l-.32-1.75a6.14,6.14,0,0,1,2.51-1.51,9.46,9.46,0,0,1,2.9-.5,8.94,8.94,0,0,1,2.66.4,4.92,4.92,0,0,1,2.17,1.29,3.1,3.1,0,0,1,.86,2.25V20.2c0,.77.49,1.15,1.48,1.15V22a10.25,10.25,0,0,1-1.4.57,3.74,3.74,0,0,1-1.14.25,3.19,3.19,0,0,1-3.06-2.16,3.94,3.94,0,0,1-1.65,1.61,4.57,4.57,0,0,1-2.17.55,5.1,5.1,0,0,1-2.15-.43,3.51,3.51,0,0,1-1.5-1.3,4.13,4.13,0,0,1-.58-2.14Zm8-4.18-1.94.73a3.34,3.34,0,0,0-1.4,1,3,3,0,0,0-.53,1.93c0,1.61.52,2.43,1.57,2.49a1.82,1.82,0,0,0,1.83-1.06,5.64,5.64,0,0,0,.47-2.35Zm7.14,7.82V8.17q.75,0,2.07.15,1.27-.12,1.86-.15v2.19a11.58,11.58,0,0,1,1.91-1.73,4.49,4.49,0,0,1,2.66-.75A4.91,4.91,0,0,1,123.11,9c.87.75,1.31,2.24,1.31,4.45v9.1l-2-.18-2.1.18V14.5q0-4.07-2.43-4.14a2.24,2.24,0,0,0-1.86,1,6.08,6.08,0,0,0-.75,3.49v7.7a13.8,13.8,0,0,0-2.07-.18,13.51,13.51,0,0,0-2,.18Zm15.21-7.17a10.42,10.42,0,0,1,.64-3.67A6.2,6.2,0,0,1,129,8.94a5.39,5.39,0,0,1,5.72-.44A3.64,3.64,0,0,1,136.16,10V0l2.05.18L140.28,0V22.51l-.93-.06-.91-.06-1,.06-1.06.06V20a5.74,5.74,0,0,1-1.5,2.05,4.2,4.2,0,0,1-2.77.79,4.77,4.77,0,0,1-3.38-1.16,6.14,6.14,0,0,1-1.76-2.84,12,12,0,0,1-.49-3.4Zm9.84.18q0-5.74-2.61-5.75a2.24,2.24,0,0,0-2.25,1.78,12.57,12.57,0,0,0-.57,3.85,10.49,10.49,0,0,0,.61,3.87,2.08,2.08,0,0,0,1.88,1.55,2.31,2.31,0,0,0,2.34-1.76,10.88,10.88,0,0,0,.6-3.54Zm5.85,3.35a3.46,3.46,0,0,1,1.11-2.86,7.29,7.29,0,0,1,2.83-1.32l2.25-.57a3.51,3.51,0,0,0,1.36-.59,1.42,1.42,0,0,0,.5-1.21,2.4,2.4,0,0,0-.91-1.83,2.91,2.91,0,0,0-1.87-.72,5.37,5.37,0,0,0-2,.47,3.23,3.23,0,0,0-1.62,1.34h-.23l-.32-1.75a6.14,6.14,0,0,1,2.51-1.51,9.46,9.46,0,0,1,2.9-.5,9,9,0,0,1,2.67.4,5,5,0,0,1,2.16,1.29,3.14,3.14,0,0,1,.86,2.25V20.2c0,.77.49,1.15,1.48,1.15V22a10.25,10.25,0,0,1-1.4.57,3.74,3.74,0,0,1-1.14.25,3.19,3.19,0,0,1-3.06-2.16,3.94,3.94,0,0,1-1.65,1.61,4.57,4.57,0,0,1-2.17.55,5.1,5.1,0,0,1-2.15-.43,3.51,3.51,0,0,1-1.5-1.3,4.13,4.13,0,0,1-.58-2.14Zm8.05-4.18-1.94.73a3.34,3.34,0,0,0-1.4,1,3,3,0,0,0-.53,1.93c0,1.61.52,2.43,1.56,2.49a1.82,1.82,0,0,0,1.84-1.06,5.8,5.8,0,0,0,.47-2.35Zm0,0" transform="translate(0)"/><g class="cls-3"><path class="cls-4" d="M53.06,28.56q1.14.07,2.13.18l.86-.08,1.33-.1V46.13a64.34,64.34,0,0,0,6.65-.4A12.35,12.35,0,0,0,63.8,47c.07.34.12.74.18,1.18H53.06Zm12.55,12.5A8.3,8.3,0,0,1,66,38.39a6.51,6.51,0,0,1,1.25-2.21,5.55,5.55,0,0,1,2.1-1.48,7.61,7.61,0,0,1,5.68,0,4.6,4.6,0,0,1,2.2,2,7.31,7.31,0,0,1,.88,3.88c0,.38,0,.67,0,.86h-8.2q0,5.33,4,5.33a5.8,5.8,0,0,0,3.37-1.3l.35.24L77,47.31a7.26,7.26,0,0,1-4.17,1.3,8.75,8.75,0,0,1-3.48-.68,5.73,5.73,0,0,1-2.68-2.36,8.48,8.48,0,0,1-1-4.51ZM74.17,40a12.87,12.87,0,0,0-.45-3.27,1.53,1.53,0,0,0-1.51-1.28,1.84,1.84,0,0,0-1.84,1.47A10.53,10.53,0,0,0,69.91,40Zm5.75,4.84A3.33,3.33,0,0,1,81,42.07a7,7,0,0,1,2.75-1.29l2.19-.55a3.65,3.65,0,0,0,1.33-.58,1.41,1.41,0,0,0,.48-1.17,2.32,2.32,0,0,0-.89-1.78A2.8,2.8,0,0,0,85,36a5.23,5.23,0,0,0-2,.45,3.13,3.13,0,0,0-1.57,1.3h-.23L81,36.05a6,6,0,0,1,2.44-1.47,9.21,9.21,0,0,1,2.83-.49,8.47,8.47,0,0,1,2.58.4,4.77,4.77,0,0,1,2.11,1.26,3,3,0,0,1,.84,2.18v8.15c0,.75.47,1.12,1.43,1.12v.61a10.45,10.45,0,0,1-1.36.56,3.76,3.76,0,0,1-1.11.24,3.1,3.1,0,0,1-3-2.1,3.92,3.92,0,0,1-1.61,1.57,4.54,4.54,0,0,1-2.1.53,5,5,0,0,1-2.1-.42,3.4,3.4,0,0,1-1.46-1.27,4,4,0,0,1-.56-2.08Zm7.83-4.06c-.7.25-1.32.49-1.89.71a3.15,3.15,0,0,0-1.36.95A2.91,2.91,0,0,0,84,44.32c0,1.56.51,2.37,1.52,2.42a1.78,1.78,0,0,0,1.79-1,5.5,5.5,0,0,0,.46-2.28ZM95,48.38v-14c.59,0,1.32.07,2.16.15.82-.08,1.44-.13,1.84-.15v3.55q1.09-3.84,4.72-3.84c0,.23,0,.67-.1,1.34s-.1,1.2-.12,1.63a5.87,5.87,0,0,1,.06.95l-.27.23a4,4,0,0,0-1.64-.31,2.45,2.45,0,0,0-1.9.82A3.56,3.56,0,0,0,99,41.24v7.14l-2-.17-2,.17Zm10.33,0v-14c.48,0,1.16.07,2,.15.83-.08,1.43-.13,1.81-.15v2.13A11,11,0,0,1,111,34.82a4.37,4.37,0,0,1,2.58-.73,4.82,4.82,0,0,1,3.29,1.11c.84.74,1.27,2.18,1.27,4.34v8.84l-1.91-.17-2,.17V40.54q0-4-2.36-4a2.19,2.19,0,0,0-1.82,1,6,6,0,0,0-.72,3.39v7.49a14.31,14.31,0,0,0-2-.17,14,14,0,0,0-2,.17Zm15.92,0v-14q1,0,2.19.15c.76-.08,1.37-.13,1.81-.15v14l-2-.17-.43,0c-.13,0-.3,0-.51,0l-.6.05-.44,0Zm2-20.35a2.23,2.23,0,0,1,1.62.66,2.1,2.1,0,0,1,.69,1.58,2.2,2.2,0,0,1-.69,1.64,2.24,2.24,0,0,1-1.62.67,2.18,2.18,0,0,1-1.59-.67,2.24,2.24,0,0,1-.65-1.64A2.25,2.25,0,0,1,123.24,28Zm5,20.35v-14c.49,0,1.16.07,2,.15.82-.08,1.42-.13,1.81-.15v2.13a10.58,10.58,0,0,1,1.85-1.69,4.38,4.38,0,0,1,2.59-.73,4.81,4.81,0,0,1,3.28,1.11c.84.74,1.27,2.18,1.27,4.34v8.84l-1.9-.17-2.05.17V40.54q0-4-2.36-4a2.18,2.18,0,0,0-1.82,1,6,6,0,0,0-.72,3.39v7.49a14.31,14.31,0,0,0-2-.17,14.15,14.15,0,0,0-2,.17Zm18.57-5.24a4.32,4.32,0,0,1-3.72-4.66,3.42,3.42,0,0,1,2-3.39,11.08,11.08,0,0,1,4.78-.94c1.12,0,2,0,2.62.06H156v1.36l-2.56-.12a3.55,3.55,0,0,1,1.12,1.42,5.36,5.36,0,0,1,.38,1.83,4.61,4.61,0,0,1-.64,2.38,4.27,4.27,0,0,1-1.79,1.63,8.51,8.51,0,0,1-3.54.66.75.75,0,0,0-.31.06h-.47a.89.89,0,0,0-.6.22,1.07,1.07,0,0,0-.35.56,1.3,1.3,0,0,0,.52,1.11,2.83,2.83,0,0,0,1.25.46,16.76,16.76,0,0,0,1.89.13,11.65,11.65,0,0,1,1.61.11,9.28,9.28,0,0,1,1.84.38,3,3,0,0,1,1.34,1,4,4,0,0,1,.6,2.24,5.6,5.6,0,0,1-.94,3.17A6.27,6.27,0,0,1,152.66,55a9.59,9.59,0,0,1-4,.78,9.47,9.47,0,0,1-3-.43,4.65,4.65,0,0,1-2.07-1.29,3.12,3.12,0,0,1-.78-2.05s.05,0,.05-.07a.11.11,0,0,0,0,0,3.16,3.16,0,0,1,.49-1.73,3.19,3.19,0,0,1,1-1,12.81,12.81,0,0,1,1.32-.69l-.18-.23a2,2,0,0,1-1-.75,2.07,2.07,0,0,1-.4-1.27,3.42,3.42,0,0,1,2.71-3.11Zm4.06-4.66a5.7,5.7,0,0,0-.42-2.36,1.53,1.53,0,0,0-1.34-1c-1.3,0-1.95,1.26-1.95,3.77a5.81,5.81,0,0,0,.43,2.39,1.55,1.55,0,0,0,2.94-.16,9.55,9.55,0,0,0,.34-2.68ZM153,51.41a2.66,2.66,0,0,0-.53-1.81,2.49,2.49,0,0,0-1.29-.77,10,10,0,0,0-1.89-.22,1.59,1.59,0,0,1-.49.06,3.93,3.93,0,0,0-2.44.57,2.77,2.77,0,0,0-.79,2,3,3,0,0,0,.62,1.94,3.52,3.52,0,0,0,1.51,1.08,5.38,5.38,0,0,0,1.76.32,4,4,0,0,0,1.81-.41,3.31,3.31,0,0,0,1.27-1.16,3,3,0,0,0,.46-1.65Zm0,0" transform="translate(0)"/><path class="cls-4" d="M28.58,5.41l16.1,24.27A2.35,2.35,0,0,1,44,32.94L19.75,49a2.35,2.35,0,0,1-3.26-.66L.39,24.1a2.35,2.35,0,0,1,.66-3.25L25.32,4.75a2.36,2.36,0,0,1,3.26.66Zm0,0" transform="translate(0)"/><path class="cls-2" d="M27.15,2.82,45.2,25.68a2.35,2.35,0,0,1-.39,3.3L22,47a2.35,2.35,0,0,1-3.3-.39L.6,23.78A2.35,2.35,0,0,1,1,20.48l22.86-18a2.34,2.34,0,0,1,3.3.39Zm0,0" transform="translate(0)"/></g><path class="cls-4" d="M16.42,16.07h3.81L26.54,28V16.07h3.05V33.39H25.78L19.48,21.5V33.39H16.42Zm0,0" transform="translate(0)"/><path class="cls-4" d="M26.31,16.07H29.6V30.8h6v2.59H26.31Zm0,0" transform="translate(0)"/><rect class="cls-5" x="16.34" y="16.08" width="1.95" height="1.95"/><rect class="cls-6" x="18.28" y="16.08" width="1.94" height="1.95"/><rect class="cls-6" x="16.34" y="18.03" width="1.95" height="1.94"/><rect class="cls-5" x="18.28" y="18.03" width="1.94" height="1.94"/><rect class="cls-6" x="20.23" y="18.03" width="1.94" height="1.94"/><rect class="cls-6" x="18.28" y="19.97" width="1.94" height="1.95"/><rect class="cls-7" x="14.4" y="18.03" width="1.94" height="1.94"/><rect class="cls-6" x="12.45" y="16.08" width="1.95" height="1.95"/><rect class="cls-6" x="12.45" y="19.97" width="1.95" height="1.95"/><rect class="cls-5" x="14.4" y="21.91" width="1.94" height="1.94"/><rect class="cls-5" x="8.57" y="18.03" width="1.94" height="1.94"/><path class="cls-2" d="M54.14,60a1.28,1.28,0,0,0,.23.63,1.39,1.39,0,0,0,1.1.38,2.23,2.23,0,0,0,.75-.1.7.7,0,0,0,.55-.71.53.53,0,0,0-.27-.47,2.82,2.82,0,0,0-.86-.29L55,59.3a4.16,4.16,0,0,1-1.34-.48A1.49,1.49,0,0,1,53,57.5a1.81,1.81,0,0,1,.61-1.38,2.61,2.61,0,0,1,1.78-.54,2.74,2.74,0,0,1,1.67.51,1.82,1.82,0,0,1,.73,1.49H56.57a.86.86,0,0,0-.49-.78,1.61,1.61,0,0,0-.76-.15,1.47,1.47,0,0,0-.81.19.64.64,0,0,0-.3.56.52.52,0,0,0,.3.49,3.77,3.77,0,0,0,.81.26l1.07.25a2.68,2.68,0,0,1,1.07.45A1.5,1.5,0,0,1,58,60.1a1.75,1.75,0,0,1-.65,1.4,2.67,2.67,0,0,1-1.83.56,2.94,2.94,0,0,1-1.9-.55,1.8,1.8,0,0,1-.7-1.51ZM60,56.82h-1.2V55.73H60Zm-1.2.54H60v4.55h-1.2Zm7.43-.09a1.51,1.51,0,0,1,.59.11,1.44,1.44,0,0,1,.53.41,1.38,1.38,0,0,1,.26.59,3.76,3.76,0,0,1,0,.67v2.86H66.45V59a1,1,0,0,0-.08-.43.6.6,0,0,0-.59-.32.68.68,0,0,0-.68.41,1.21,1.21,0,0,0-.1.52v2.71H63.82v-2.7a1.42,1.42,0,0,0-.09-.59.58.58,0,0,0-.59-.33.71.71,0,0,0-.68.33,1.36,1.36,0,0,0-.09.56v2.73H61.16V57.38h1.16V58a1.77,1.77,0,0,1,.41-.51,1.4,1.4,0,0,1,.89-.26,1.35,1.35,0,0,1,.84.23,1.26,1.26,0,0,1,.39.54,1.47,1.47,0,0,1,.58-.58,1.74,1.74,0,0,1,.82-.19Zm5.66,2.37a1.79,1.79,0,0,0-.24-.93.84.84,0,0,0-.79-.4.88.88,0,0,0-.89.61,2.41,2.41,0,0,0-.13.83,1.3,1.3,0,0,0,.42,1.1,1,1,0,0,0,.6.19.85.85,0,0,0,.76-.38,1.71,1.71,0,0,0,.27-1Zm-.69-2.37a1.77,1.77,0,0,1,1.35.58,2.45,2.45,0,0,1,.56,1.73,2.79,2.79,0,0,1-.54,1.83,1.79,1.79,0,0,1-1.4.62,1.52,1.52,0,0,1-.9-.26,1.88,1.88,0,0,1-.38-.44v2.36H68.73V57.36h1.14V58a2.16,2.16,0,0,1,.41-.47,1.51,1.51,0,0,1,.94-.3Zm4,4.64H74V55.78h1.18Zm2.37-5.09h-1.2V55.73h1.2Zm-1.2.54h1.2v4.55h-1.2Zm4-1.65h.2l.25,0v1h-.34a.41.41,0,0,0-.32.1.4.4,0,0,0-.09.25v.38h.78v.84h-.78v3.66H78.9V58.25h-.66v-.84h.65v-.29a1.57,1.57,0,0,1,.24-1c.17-.27.58-.4,1.24-.4Zm1.34,7.07h.16a1.82,1.82,0,0,0,.33,0,.55.55,0,0,0,.26-.1.52.52,0,0,0,.2-.3.69.69,0,0,0,.08-.28l-1.67-4.74h1.32l1,3.35.94-3.35h1.26L84,61.83a6.07,6.07,0,0,1-.72,1.6,1.34,1.34,0,0,1-1,.31h-.55Zm5.79-6H86.3V55.73h1.2Zm-1.2.54h1.2v4.55H86.3Zm4.87-.1a1.73,1.73,0,0,1,1.15.37,1.49,1.49,0,0,1,.45,1.22v3.06H91.55V59.15a1.17,1.17,0,0,0-.1-.55.65.65,0,0,0-.66-.35.83.83,0,0,0-.83.51,1.92,1.92,0,0,0-.11.69v2.46H88.66V57.38h1.16V58a1.93,1.93,0,0,1,.43-.51,1.5,1.5,0,0,1,.92-.27Zm4.63,3.67a.9.9,0,0,0,.7-.31,1.46,1.46,0,0,0,.29-1,1.59,1.59,0,0,0-.27-1,.89.89,0,0,0-.74-.34.86.86,0,0,0-.85.59,1.9,1.9,0,0,0-.13.77,1.94,1.94,0,0,0,.13.7.88.88,0,0,0,.87.57Zm-.29-3.67a1.49,1.49,0,0,1,.59.1,1.39,1.39,0,0,1,.7.66v-.66H98v4.3A2.41,2.41,0,0,1,97.67,63a2.18,2.18,0,0,1-2,.76,2.74,2.74,0,0,1-1.42-.33,1.26,1.26,0,0,1-.61-1H95a.54.54,0,0,0,.16.3,1.08,1.08,0,0,0,.65.16.85.85,0,0,0,.85-.43,2,2,0,0,0,.15-.92v-.29a1.51,1.51,0,0,1-.37.44,1.54,1.54,0,0,1-.92.26,1.75,1.75,0,0,1-1.4-.61,2.52,2.52,0,0,1-.52-1.66,2.77,2.77,0,0,1,.51-1.7,1.65,1.65,0,0,1,1.42-.69ZM106,56.85h-3.17v1.31h2.91v1.05h-2.91V60.8h3.33v1.11h-4.58V55.77H106Zm2.8.41a1.46,1.46,0,0,1,.73.18,1.41,1.41,0,0,1,.52.51V55.78h1.2v6.13H110.1v-.63a1.64,1.64,0,0,1-.58.59,1.62,1.62,0,0,1-.81.18,1.67,1.67,0,0,1-1.33-.64,2.49,2.49,0,0,1-.54-1.66,2.86,2.86,0,0,1,.53-1.82,1.73,1.73,0,0,1,1.43-.67Zm.25,3.79a.87.87,0,0,0,.77-.37,1.64,1.64,0,0,0,.27-1,1.47,1.47,0,0,0-.43-1.19.87.87,0,0,0-.6-.22.82.82,0,0,0-.76.39,2.1,2.1,0,0,0,0,2,.85.85,0,0,0,.75.37Zm4.47-3.69V60.1a1.49,1.49,0,0,0,.09.59.64.64,0,0,0,.64.35.81.81,0,0,0,.82-.5,1.69,1.69,0,0,0,.12-.7V57.36h1.2v4.55h-1.15v-.64l-.08.12a.93.93,0,0,1-.16.18,1.89,1.89,0,0,1-.54.35,1.82,1.82,0,0,1-.61.09,1.34,1.34,0,0,1-1.35-.73,2.76,2.76,0,0,1-.2-1.18V57.36ZM120.25,59a1.23,1.23,0,0,0-.18-.46.7.7,0,0,0-.61-.27.81.81,0,0,0-.82.59,2.71,2.71,0,0,0-.11.84,2.48,2.48,0,0,0,.11.8.79.79,0,0,0,.79.57.68.68,0,0,0,.59-.23,1.17,1.17,0,0,0,.21-.58h1.21a1.85,1.85,0,0,1-.39,1,1.88,1.88,0,0,1-1.64.78,1.93,1.93,0,0,1-1.61-.65,2.63,2.63,0,0,1-.52-1.68,2.72,2.72,0,0,1,.57-1.82,2,2,0,0,1,1.58-.65,2.4,2.4,0,0,1,1.39.38,1.78,1.78,0,0,1,.64,1.36Zm4.55.7a1,1,0,0,1-.23.11,1.9,1.9,0,0,1-.32.09L124,60a1.51,1.51,0,0,0-.54.16.54.54,0,0,0-.28.5.53.53,0,0,0,.17.44.61.61,0,0,0,.42.14,1.2,1.2,0,0,0,.71-.23.94.94,0,0,0,.34-.82Zm-.72-.55a1.53,1.53,0,0,0,.47-.11.34.34,0,0,0,.25-.33.4.4,0,0,0-.19-.39,1.24,1.24,0,0,0-.58-.11.75.75,0,0,0-.6.21.9.9,0,0,0-.17.42h-1.14a1.82,1.82,0,0,1,.33-1,2,2,0,0,1,1.62-.6,3,3,0,0,1,1.33.29,1.14,1.14,0,0,1,.58,1.12v2.08c0,.14,0,.32,0,.52a.65.65,0,0,0,.07.32.54.54,0,0,0,.18.14v.18H125a.92.92,0,0,1-.07-.26,1.93,1.93,0,0,1,0-.27,2.31,2.31,0,0,1-.57.45,1.66,1.66,0,0,1-.87.22,1.52,1.52,0,0,1-1-.35,1.26,1.26,0,0,1-.4-1,1.29,1.29,0,0,1,.64-1.21,2.7,2.7,0,0,1,1-.29Zm2.47-.9v-.84h.64V56.13h1.17v1.28h.74v.84h-.74v2.4a.58.58,0,0,0,.07.35s.19.07.43.07H129l.12,0v.89l-.57,0a1.49,1.49,0,0,1-1.14-.28.86.86,0,0,1-.2-.64V58.25Zm4.52-1.43h-1.2V55.73h1.2Zm-1.2.54h1.2v4.55h-1.2Zm4.4,3.71a1,1,0,0,0,.8-.37,1.77,1.77,0,0,0,.27-1.05,1.75,1.75,0,0,0-.27-1,1,1,0,0,0-.8-.37,1,1,0,0,0-.8.37,1.68,1.68,0,0,0-.28,1,1.7,1.7,0,0,0,.28,1.05.93.93,0,0,0,.8.37Zm2.32-1.42a2.62,2.62,0,0,1-.57,1.7,2.51,2.51,0,0,1-3.5,0,2.82,2.82,0,0,1,0-3.4,2.49,2.49,0,0,1,3.5,0,2.62,2.62,0,0,1,.57,1.7ZM140,57.26a1.7,1.7,0,0,1,1.14.37,1.49,1.49,0,0,1,.45,1.22v3.06h-1.22V59.15a1.17,1.17,0,0,0-.1-.55.65.65,0,0,0-.66-.35.82.82,0,0,0-.82.51,1.71,1.71,0,0,0-.12.69v2.46h-1.18V57.38h1.15V58a2.14,2.14,0,0,1,.43-.51,1.51,1.51,0,0,1,.93-.27Zm0,0" transform="translate(0)"/></svg>