<?xml version="1.0" encoding="utf-8"?>
<!-- Generator: Adobe Illustrator 19.0.0, SVG Export Plug-In . SVG Version: 6.00 Build 0)  -->
<svg version="1.1" id="Layer_1" xmlns="http://www.w3.org/2000/svg" xmlns:xlink="http://www.w3.org/1999/xlink" x="0px" y="0px"
	 viewBox="0 206.3 450 89.7" style="enable-background:new 0 206.3 450 89.7;" xml:space="preserve">
<style type="text/css">
	.st0{clip-path:url(#SVGID_2_);fill:#E91D8B;}
	.st1{enable-background:new    ;}
</style>
<g id="XMLID_4_">
	<g id="XMLID_5_">
		<g id="XMLID_6_">
			<g id="XMLID_7_">
				<g>
					<defs>
						<rect id="SVGID_1_" y="207.9" width="78.7" height="82.9"/>
					</defs>
					<clipPath id="SVGID_2_">
						<use xlink:href="#SVGID_1_"  style="overflow:visible;"/>
					</clipPath>
					<path id="XMLID_1_" class="st0" d="M24.6,211.2c0.4-0.2,0.9-0.3,1.3-0.5s0.9-0.4,1.3-0.5c0.9-0.3,1.7-0.6,2.6-0.9
						c-7.6,2-14.8,6.4-20.1,12.6c-1.3,1.6-2.5,3.2-3.6,4.9c-1.1,1.7-2,3.5-2.8,5.4s-1.4,3.8-2,5.8s-0.9,4-1.1,6
						c-0.9,8.1,0.8,16.4,4.4,23.6c3.7,7.1,9.3,13,15.9,17c0.4,0.3,0.9,0.6,1.5,0.9c0.6,0.3,1.2,0.7,1.8,1.1c1.3,0.7,2.6,1.3,3.5,1.7
						s1.9,0.6,2.8,0.9c1,0.3,2,0.5,3,0.7c2,0.4,4.1,0.7,6.3,0.8c2.1,0.1,4.3,0,6.5-0.2c2.2-0.2,4.4-0.7,6.5-1.3
						c4.3-1.2,8.3-3.2,11.8-5.6c1.8-1.2,3.4-2.6,4.9-3.9c1.5-1.4,2.8-2.9,4.1-4.4c2.5-3.1,3.8-6.3,4.4-8.6c0.2-0.6,0.3-1.1,0.4-1.6
						c0.1-0.4,0.2-0.9,0.2-1.2c0.1-0.7,0.1-1,0.1-1c0.2-0.9,0.3-1.9,0.2-2.4c-0.1-0.5-0.3-0.6-0.7,0.2c-0.3,0.9-0.8,2-1.3,3.3
						c-0.3,0.6-0.6,1.2-0.9,1.9c-0.2,0.3-0.4,0.6-0.5,0.9c-0.2,0.3-0.4,0.6-0.5,0.9c-1.4,2.3-2.9,4-3.2,3.8c0,0,0.2-0.4,0.5-1
						c0.2-0.3,0.4-0.6,0.6-0.9c0.2-0.4,0.4-0.7,0.7-1.1c-0.3-0.2,0-1.5,0.4-3.1c0.1-0.4,0.2-0.8,0.3-1.2c0.1-0.4,0.2-0.8,0.3-1.1
						c0.2-0.7,0.4-1.3,0.5-1.7c0.1-0.4,0.3-1.3,0.5-2.6c0.1-0.6,0.2-1.2,0.3-2c0.1-0.7,0.2-1.4,0.2-2.2c0-0.4,0-0.7,0.1-1.1
						c0-0.4,0-0.7,0-1.1c0-0.7,0-1.3,0-1.9s0-1.1-0.1-1.5c0-0.4-0.1-0.8-0.1-0.9c-0.1-1.2-0.4-1.2-0.6-0.4c-0.3,0.8-0.6,2.3-1.2,4.1
						c-0.5,1.8-1.3,3.8-2.1,5.7c-0.9,1.9-1.8,3.6-2.6,4.8c-0.8,1.2-1,1.1-1,0.7s0.1-1.2-0.1-1.2c-0.1,0.3-0.3,0.6-0.4,0.9
						c-0.1,0.3-0.3,0.5-0.4,0.8c-0.3,0.5-0.6,0.9-0.9,1.3c-0.6,0.9-1.3,1.6-2.1,2.8c0,0-0.4,0.4-1,1c-0.3,0.3-0.7,0.7-1.1,1
						c-0.4,0.4-0.9,0.8-1.4,1.2c-1,0.9-2.1,1.7-3.3,2.5c-0.6,0.4-1.2,0.7-1.7,1c-0.5,0.3-1.1,0.6-1.5,0.8c0,0-0.3,0.2-1.1,0.6
						c-0.2,0.1-0.4,0.2-0.7,0.3s-0.6,0.2-0.9,0.4c-0.3,0.1-0.7,0.3-1.1,0.4c-0.2,0.1-0.4,0.1-0.7,0.2c-0.2,0-0.5,0.1-0.7,0.2
						c-0.7,0.2-1,0.3-1.2,0.4s-0.1,0.2-0.1,0.2c0-0.1,0-0.1-0.1-0.3c-0.6,0.3-1.7,0.5-2.7,0.6s-2.1,0.2-2.8,0.3V278
						c-0.7,0.1-1.4,0.2-2.1,0.1c-0.4,0-0.7,0-1.1,0l-1-0.1c-1.4-0.2-2.8-0.4-4.1-0.7c0-0.1,0-0.1,0.1-0.3c-1.3-0.3-2.7-0.8-2.6-0.9
						l0.1-0.3c-0.6-0.3-1.6-0.6-2.4-0.9c-0.4-0.2-0.8-0.3-1-0.4s-0.4-0.3-0.4-0.3c-0.1,0.1-0.1,0.1-0.1,0.3c-1.2-0.6-2.3-1.3-3.3-2
						c-1-0.7-1.9-1.4-2.7-2.2c-1.6-1.5-3-3.1-4.1-4.7c-0.8-1.1-1.5-2.3-2.1-3.6s-1.2-2.6-1.7-4s-0.9-2.9-1.2-4.3
						c-0.3-1.5-0.4-3.1-0.5-4.6c-0.1-1.6,0-3.1,0.1-4.7c0.1-1.6,0.4-3.1,0.9-4.6c0.4-1.5,0.9-3,1.6-4.4c0.7-1.4,1.4-2.8,2.2-4.1
						c0.8-1.1,1.4-2.4,0.3-1.5c0.9-1.1,1.7-2.2,2.7-3.1c0.5-0.5,0.8-0.8,1-1s0.3-0.4,0.4-0.5c0.2-0.3,0.4-0.6,1.5-1.5
						c4.4-3.6,9.8-5.8,15.4-6.4c5.7-0.6,11.4,0.5,16.5,3.1c5.1,2.6,9.4,6.6,12.4,11.4s4.6,10.5,4.8,16.2c0-2.9-0.2-5.4-0.7-7.8
						c-0.6-2.5-1.4-4.9-2.9-7.3c0.1-0.1,0.4-0.2-0.4-1.5c-1.1-1.9-2.5-3.7-4.1-5.4c-1.6-1.6-3.3-3.1-5-4.2c-3.5-2.4-6.9-3.7-8.9-4.6
						c-0.7-0.3-1.4-0.6-2.5-1c-1.1-0.3-2.5-0.7-4.8-0.9c1.5,0.1,3,0.2,4.5,0.5c0-0.1,0.1-0.4,0.1-0.4c-3-0.7-6.5-0.9-9.9-0.6
						s-6.9,1.2-9.7,2.4c0,0-0.1-0.3-0.2-0.4c-1,0.4-1.9,0.9-2.8,1.4c-0.4,0.1-0.5,0-0.4-0.2c0.1-0.2,0.4-0.5,1-0.9
						c1.1-0.8,3-1.7,5.4-2.6c2.4-0.9,5.2-1.4,8-1.6s5.4-0.1,7.4,0.2c0-0.1,0-0.4,0.1-0.6c-1.1-0.2-2.2-0.2-3.3-0.3v-0.4
						c5,0.2,9.5,1.4,13.6,3.4s7.9,4.7,11.3,8.4c-0.3-0.3-0.7-0.7-1-1.1c-0.4-0.4-0.9-0.9-1.3-1.2c-0.5-0.4-0.9-0.8-1.4-1.2
						c-0.4-0.4-0.9-0.7-1.2-0.9c0.1-0.1,0.2-0.3-1.2-1.2c2.8,1.9,5.6,4.5,7.9,7.5c0.6,0.7,1.1,1.5,1.7,2.3c0.5,0.8,1,1.6,1.5,2.4
						c0.9,1.6,1.7,3.2,2.4,4.7c0.4,0.8,0.5,0.7,0.4-0.1c-0.1-0.4-0.2-1.1-0.5-1.9s-0.7-1.8-1.3-3c-1.2-2.2-2.5-4-3.9-5.7
						c-1.4-1.6-2.9-3.2-4.8-4.9l0.2-0.2c1.3,1.1,2.9,2.6,4.3,4.3c1.4,1.6,2.7,3.4,3.7,4.9c0.5,0.7,0.2-0.1-0.2-0.9
						c-0.2-0.4-0.4-0.8-0.5-1s0-0.2,0.2,0.1c1,1.5,1.9,3,2.8,4.5c-1.2-2.4-2.8-5-4.8-7.4s-4.3-4.5-6.3-6.2c-0.7-0.6-1.3-1.2-1.8-1.6
						c-0.5-0.4-0.9-0.8-0.8-0.9c-3.9-2.3-7.6-3.8-11.1-4.9c-3.7-0.9-6.8-1.6-9.6-1.9c-0.9-0.1-3.7-0.2-6.9,0.4
						c-0.4,0.1-0.8,0.1-1.2,0.2c-0.4,0.1-0.8,0.2-1.2,0.3c-0.9,0.2-1.6,0.4-2.5,0.7C27.4,210.1,25.9,210.6,24.6,211.2L24.6,211.2z"
						/>
				</g>
			</g>
		</g>
	</g>
</g>
<g id="XMLID_8_">
	<g id="XMLID_18_" class="st1">
		<path id="XMLID_31_" d="M118.9,221.5c5.3,0,9.9,2.8,13.7,8.3s5.7,12.1,5.7,20.1c0,7.8-1.9,14.5-5.7,19.8
			c-3.8,5.4-8.4,8.1-13.7,8.1c-5.7,0-10.3-2.8-14-8.4c-3.8-5.6-5.6-12.1-5.6-19.8c0-5.2,0.9-9.8,2.6-14.1c1.7-4.3,4.1-7.7,7.1-10.2
			C112.1,222.8,115.4,221.5,118.9,221.5z M118.8,231.5c-3.5,0-6.4,1.7-8.8,5.2c-2.4,3.4-3.5,7.8-3.5,13.2c0,5.9,1.5,10.6,4.5,14
			c2.3,2.7,5,4,8,4c3.4,0,6.3-1.7,8.7-5.3s3.5-7.7,3.5-12.9c0-5.1-1.2-9.4-3.6-12.9C125.2,233.2,122.3,231.5,118.8,231.5z"/>
		<path id="XMLID_30_" d="M142.6,222.9h8l7.8,17.2l7.9-17.2h8l-11.9,26l12.7,27.6h-8l-8.7-18.9l-8.6,18.9h-8.1l12.7-27.6
			L142.6,222.9z"/>
		<path id="XMLID_29_" d="M180.7,222.9h18.6v10h-11.5v9.7h11.5v9.8h-11.5v24.1h-7.1V222.9z"/>
		<path id="XMLID_26_" d="M223.3,221.5c5.3,0,9.9,2.8,13.7,8.3c3.8,5.5,5.7,12.1,5.7,20.1c0,7.8-1.9,14.5-5.7,19.8
			c-3.8,5.4-8.4,8.1-13.7,8.1c-5.7,0-10.3-2.8-14-8.4c-3.8-5.6-5.6-12.1-5.6-19.8c0-5.2,0.9-9.8,2.6-14.1c1.7-4.3,4.1-7.7,7.1-10.2
			C216.6,222.8,219.8,221.5,223.3,221.5z M223.2,231.5c-3.5,0-6.4,1.7-8.8,5.2s-3.5,7.8-3.5,13.2c0,5.9,1.5,10.6,4.5,14
			c2.3,2.7,5,4,8,4c3.4,0,6.3-1.7,8.7-5.3c2.4-3.5,3.5-7.7,3.5-12.9c0-5.1-1.2-9.4-3.6-12.9C229.6,233.3,226.6,231.5,223.2,231.5z"
			/>
		<path id="XMLID_23_" d="M249.9,222.9h7.6c4.1,0,7.1,0.5,8.9,1.5c1.8,1,3.2,2.8,4.2,5.3c1,2.4,1.6,5.4,1.6,8.7
			c0,3.5-0.6,6.5-1.8,8.9c-1.2,2.3-2.9,4.1-5.3,5.4l8.9,23.9h-7.8l-8.4-22.7H257v22.7h-7.1L249.9,222.9L249.9,222.9z M257,243.8h2.2
			c2.2,0,3.8-0.4,4.6-1.3s1.3-2.3,1.3-4.2c0-1.2-0.2-2.2-0.6-3c-0.4-0.9-0.9-1.5-1.7-1.9c-0.8-0.3-2.1-0.6-4-0.6h-2L257,243.8
			L257,243.8L257,243.8z"/>
		<path id="XMLID_20_" d="M279.8,222.9h8.4c5.4,0,9.6,0.9,12.1,2.8c2.7,1.9,4.8,5.1,6.5,9.4c1.7,4.3,2.6,9.4,2.6,15.2
			c0,4.1-0.5,7.9-1.4,11.5c-0.9,3.4-2.2,6.3-4,8.6s-3.5,3.9-5.4,4.7c-2,0.9-5.4,1.3-10.2,1.3h-8.6L279.8,222.9L279.8,222.9z
			 M286.8,232.7v33.8h3.4c3.3,0,5.7-0.5,7.1-1.5c1.5-1,2.7-2.8,3.6-5.4c0.9-2.5,1.4-5.6,1.4-9.4c0-5.7-1.1-10.2-3.4-13.3
			c-2.1-2.8-5.3-4.2-9.6-4.2L286.8,232.7L286.8,232.7z"/>
		<path id="XMLID_19_" d="M350.7,232.2l-5,6.8c-3.4-5.2-7.1-7.7-11.5-7.7c-3.5,0-6.5,1.7-9,5.3s-3.7,7.8-3.7,12.9
			c0,3.5,0.5,6.7,1.6,9.6c1.1,2.8,2.7,5,4.6,6.5c2,1.5,4.1,2.4,6.6,2.4c2.1,0,4-0.5,5.7-1.6c1.7-1.1,3.6-3.1,5.7-6l4.8,7.2
			c-2.8,3.9-5.4,6.5-7.8,8c-2.5,1.5-5.3,2.2-8.4,2.2c-5.9,0-10.6-2.7-14.3-7.9s-5.6-12.1-5.6-20.3c0-5.3,0.9-10.1,2.5-14.2
			c1.7-4.1,4.1-7.5,7.2-10s6.5-3.8,10.2-3.8c3.1,0,6.1,0.9,8.9,2.8C346.2,226.1,348.7,228.8,350.7,232.2z"/>
	</g>
	<g id="XMLID_13_" class="st1">
		<path id="XMLID_15_" d="M394.7,222.9h7.6c4.1,0,7.1,0.5,8.9,1.6c1.8,1,3.3,2.8,4.3,5.3c1,2.4,1.6,5.3,1.6,8.7
			c0,3.8-0.7,6.9-2.1,9.3c-1.4,2.5-3.2,4.2-5.6,5.2c-1.4,0.6-3.9,0.9-7.5,0.9v22.7h-7.1L394.7,222.9L394.7,222.9z M401.8,243.8h2.2
			c1.8,0,3-0.2,3.8-0.5c0.7-0.3,1.2-1,1.6-1.8c0.4-0.9,0.6-1.9,0.6-3c0-2.1-0.5-3.5-1.6-4.5c-0.8-0.7-2.3-1-4.6-1h-2.1L401.8,243.8
			L401.8,243.8z"/>
		<path id="XMLID_14_" d="M443.6,230.1l-5.3,6.6c-1.8-3.7-3.8-5.6-5.7-5.6c-0.9,0-1.7,0.3-2.2,1c-0.6,0.7-0.9,1.5-0.9,2.4
			c0,0.9,0.2,1.7,0.6,2.6c0.5,1,2.3,3.4,5.3,6.9c2.7,3.3,4.4,5.3,5,6.1c1.5,2.1,2.5,4.1,3.1,5.9c0.6,1.9,0.9,4,0.9,6.3
			c0,4.4-1,8-3.2,10.8c-2.2,2.8-4.9,4.3-8.3,4.3c-2.7,0-5-0.9-7-2.8c-2-1.9-3.7-4.8-5.1-8.9l6-5.2c1.8,4.7,3.9,7.1,6.2,7.1
			c1.2,0,2.2-0.5,3.1-1.5c0.9-1,1.2-2.2,1.2-3.5c0-1.2-0.3-2.4-0.9-3.6c-0.6-1.2-2.1-3-4.1-5.6c-4.1-4.7-6.7-8.4-7.9-11
			c-1.2-2.6-1.8-5.2-1.8-7.7c0-3.7,0.9-6.9,2.9-9.6c2-2.7,4.4-4,7.3-4c1.8,0,3.6,0.6,5.3,1.9C439.8,224.6,441.6,226.8,443.6,230.1z"
			/>
	</g>
	<g id="XMLID_9_" class="st1">
		<path id="XMLID_10_" d="M381.1,269.2c-2.2,2.8-4.2,4.8-6.2,6.1c-2,1.2-4.1,1.7-6.5,1.7c-3.8,0-6.7-1.5-8.7-4.3
			c-2.1-2.8-3-6.5-3-11c0-2.7,0.3-5,1.2-7.2c0.8-2.2,1.7-4,3-5.2c1.3-1.2,2.7-2.3,4.2-3c1.2-0.4,2.9-0.9,5.2-1.4
			c4.7-0.9,8.3-1.9,10.4-3.2c0-1.3,0.1-2.1,0.1-2.3c0-3.8-0.5-6.3-1.6-7.8c-1.5-2.1-3.7-3.1-6.6-3.1c-2.7,0-4.8,0.8-6.1,2.2
			c-1.4,1.5-2.2,4.1-2.9,7.9l-5.7-1.2c0.5-3.8,1.4-6.9,2.5-9.2c1.2-2.3,2.9-4.1,5.1-5.4c2.2-1.3,4.8-1.9,7.8-1.9
			c3,0,5.3,0.5,7.1,1.5c1.8,1.1,3.2,2.4,4,4.1c0.9,1.5,1.5,3.7,1.8,6.2c0.2,1.5,0.3,4.4,0.3,8.4v12.1c0,8.4,0.1,13.9,0.3,16.1
			s0.8,4.4,1.5,6.5h-6.1C381.7,273.9,381.3,271.8,381.1,269.2z M380.6,248.9c-2.1,1.4-5.3,2.5-9.6,3.4c-2.4,0.5-4.1,1.2-5,1.8
			c-0.9,0.7-1.7,1.6-2.2,3c-0.5,1.4-0.8,2.8-0.8,4.3c0,2.4,0.6,4.5,1.7,6.1c1.2,1.5,2.9,2.4,5.2,2.4s4.2-0.8,5.9-2.3
			c1.7-1.5,3-3.6,3.9-6.3c0.6-2.1,0.9-5.1,0.9-9.1L380.6,248.9L380.6,248.9z"/>
	</g>
</g>
</svg>
