<?xml version="1.0" encoding="utf-8"?>
<!-- Generator: Adobe Illustrator 19.0.0, SVG Export Plug-In . SVG Version: 6.00 Build 0)  -->
<svg version="1.1" id="Layer_1" xmlns="http://www.w3.org/2000/svg" xmlns:xlink="http://www.w3.org/1999/xlink" x="0px" y="0px"
	 viewBox="37 198 574.7 106" style="enable-background:new 37 198 574.7 106;" xml:space="preserve">
<style type="text/css">
	.st0{fill:#006595;}
	.st1{fill:#0F1312;}
	.st2{fill:#0277AF;}
	.st3{fill:url(#XMLID_2_);}
	.st4{opacity:0.6;fill:#00B7FF;enable-background:new    ;}
	.st5{fill:#FFFFFF;}
	.st6{font-family:'ArialMT';}
	.st7{font-size:37.4019px;}
</style>
<g id="XMLID_570_">
	<g id="XMLID_962_">
		<g id="XMLID_1000_">
			<path id="XMLID_1012_" class="st0" d="M36.8,235v-2.7c0.6,0,1.7-0.1,3.5-0.4c1.8-0.3,3.8-0.7,6-1.3s3.9-1.2,5-1.8
				c0.3-0.2,0.6-0.3,0.8-0.3c0.2,0,0.4,0.1,0.5,0.2c0.1,0.2,0.2,0.4,0.2,0.8c0,0.2,0,0.5,0,1.1c-0.1,0.9-0.1,1.7-0.1,2.5v4.9
				c5.2-4.9,8.5-7.6,9.8-8.2c1.7-0.8,4.2-1.3,7.6-1.3c3.9,0,7.3,0.9,10.2,2.7c2.8,1.8,4.9,4.1,6.2,6.9c1.3,2.8,1.9,5.9,1.9,9.1
				c0,2-0.2,3.8-0.7,5.5c-0.4,1.7-1,3.4-1.7,4.9s-1.5,2.9-2.3,4.2c-0.9,1.3-1.6,2.3-2.4,2.9c-0.4,0.4-1.6,1.3-3.4,2.8
				c-1.8,1.5-3.7,2.7-5.8,3.8s-3.5,1.7-4.3,2c-1.8,0.6-3.6,0.8-5.6,0.8c-1.5,0-3.1-0.2-4.5-0.6c-1.5-0.4-3.1-1-5-1.9v7.4
				c0.2,7.8,0.2,12.5,0.2,13.3h-8.2c0-0.4,0.1-4.8,0.3-13.3v-16.5c0-5.4-0.1-10.8-0.2-16.5c-0.1-5.6-0.3-8.7-0.4-9.2
				c-0.1-0.5-0.4-0.9-0.7-1.2s-0.7-0.4-1.2-0.5L36.8,235z M52.7,263.7c1.6,1.7,3.5,3,5.6,3.9c2.1,1,4.3,1.4,6.6,1.4
				c2.8,0,5.4-0.7,7.7-2.1c2.3-1.4,4.1-3.6,5.5-6.6c1.3-3,2-6.2,2-9.7c0-3.4-0.6-6.3-1.9-8.8s-3.1-4.4-5.5-5.6
				c-2.4-1.3-4.7-1.9-7.1-1.9c-1.8,0-3.5,0.3-5.2,1s-3.3,1.7-4.7,3s-2.3,2.6-2.8,3.8c-0.2,0.6-0.3,1.7-0.3,3.4v18.2H52.7z"/>
			<path id="XMLID_1009_" class="st0" d="M102.4,241.4l-2.5-0.6c0-0.7,0-1.7,0-2.9c0-1.3,0-2.3,0-3.1c3.9-2.6,7.1-4.3,9.7-5.2
				c1.9-0.6,4.1-1,6.5-1c3.5,0,6.5,0.7,8.9,2s4.2,3.2,5.4,5.7c0.8,1.7,1.2,4.1,1.2,7.1l-0.2,8.5v13.8c0,1.5,0.1,2.6,0.4,3.2
				c0.2,0.5,0.5,0.8,0.9,1c0.3,0.2,1,0.3,1.9,0.4l3,0.3v2.6c-2.5-0.2-4.8-0.3-6.7-0.3c-1.9,0-4.3,0.1-7.4,0.3l0.2-8.2
				c-6.3,4.8-10.1,7.4-11.2,8.1c-1.2,0.6-2.7,0.9-4.5,0.9c-3.7,0-6.7-1-8.7-3c-2.1-2-3.1-4.6-3.1-8c0-2.1,0.4-4.1,1.1-5.8
				c0.7-1.8,1.6-3.2,2.6-4.2s2.1-1.8,3.1-2.3c1.8-0.8,4.7-1.7,8.7-2.7s8-1.7,12-2.1c0-2.9-0.3-5.2-1.1-6.9c-0.7-1.6-2-3-3.8-4
				c-1.8-1.1-3.9-1.6-6.5-1.6c-1.8,0-3.4,0.2-4.8,0.7s-2.2,0.9-2.5,1.3l-0.8,1.7C103.4,238.9,102.8,240.4,102.4,241.4z M123.7,248.7
				c-4,0.7-7.5,1.4-10.3,2.3c-2.8,0.8-4.9,1.7-6,2.6c-0.7,0.5-1.3,1.3-1.9,2.4c-0.8,1.5-1.2,3.3-1.2,5.1c0,2.3,0.6,4.1,1.9,5.4
				s3,1.9,5.3,1.9c2.1,0,4.1-0.6,6.1-1.8c2-1.2,4-3,6.1-5.4V248.7z"/>
			<path id="XMLID_1006_" class="st0" d="M142.1,235.1v-2.6c6.2-0.1,15.9-0.2,15.9-0.2c-0.2,6.6-0.1,8.7-0.1,12.2v8.4
				c0.2,8,0.2,12.4,0.3,13c0,1.5,0.2,2.7,0.5,3.4c0.2,0.3,0.4,0.5,0.6,0.7c0.2,0.2,0.6,0.4,1.1,0.5c0.2,0,1.9,0.1,5.2,0.1v2.6
				c-4.7-0.2-8.5-0.3-11.3-0.3c-2.5,0-6.5,0.1-12.2,0.3v-2.6h4.4c0.7,0,1.2-0.1,1.5-0.3c0.4-0.2,0.6-0.5,0.8-0.8
				c0.3-0.6,0.6-1.7,0.6-3.3c0-0.4,0.1-4.8,0.3-13.3v-8.2c0-4.6-0.2-7.3-0.5-8.2c-0.2-0.5-0.5-0.8-1-1
				C147.8,235.2,145.7,235.1,142.1,235.1z M153.4,207.9c1.5,0,2.7,0.5,3.7,1.5s1.5,2.3,1.5,3.7s-0.5,2.6-1.5,3.7
				c-1,1-2.2,1.5-3.7,1.5s-2.7-0.5-3.7-1.5s-1.5-2.2-1.5-3.7s0.5-2.7,1.5-3.7C150.7,208.4,151.9,207.9,153.4,207.9z"/>
			<path id="XMLID_1004_" class="st0" d="M172,259.2h2.8c0,1.8,0.1,3.2,0.3,4.3s0.4,2.1,0.8,3.1c0.4,1,0.9,1.9,1.7,2.6
				s1.6,1.2,2.5,1.6s1.8,0.6,2.8,0.8c0.9,0.1,2.4,0.2,4.3,0.2c3.2,0,5.7-0.8,7.8-2.5c2-1.7,3-4,3-6.9c0-1.3-0.3-2.4-1-3.4
				c-0.6-1-1.5-1.8-2.7-2.3c-1.2-0.6-3.8-1.3-7.7-2.2s-6.5-1.5-7.6-2c-1.7-0.6-3.1-1.4-4.1-2.4c-1-0.9-1.8-2.1-2.4-3.5
				c-0.6-1.4-0.9-3-0.9-4.6c0-2.4,0.6-4.7,1.9-6.8c1.3-2.1,3.3-3.7,6.1-5s5.8-1.9,9-1.9c1.9,0,4.2,0.3,6.8,0.8
				c2.6,0.5,4.7,1.2,6.3,2c-0.2,3.4-0.4,6.9-0.5,10.5h-2.6c-0.2-2.3-0.3-3.7-0.5-4.5c-0.2-0.7-0.5-1.3-0.8-1.9
				c-0.3-0.6-0.9-1.2-1.8-1.8c-0.8-0.6-1.9-1.2-3.2-1.7s-2.9-0.7-4.8-0.7c-2.7,0-4.9,0.8-6.6,2.4c-1.7,1.6-2.5,3.5-2.5,5.7
				c0,1.2,0.2,2.2,0.7,3.1c0.5,0.9,1.1,1.6,1.9,2.1c0.8,0.5,1.9,1,3.4,1.5l7.7,1.9c3.9,1,6.6,1.8,8.1,2.6c1.5,0.7,2.7,1.8,3.6,3.3
				c0.9,1.5,1.3,3.3,1.3,5.4c0,4.2-1.7,7.8-5.2,10.9c-3.5,3.1-8.1,4.7-13.9,4.7c-2.7,0-6.2-0.4-10.6-1.2c-2.4-0.5-3.8-0.8-3.9-1
				c-0.1-0.1-0.2-0.2-0.2-0.5c0-0.2,0-0.5,0.1-0.8c0.3-1.3,0.5-2.6,0.6-3.9C171.9,265.9,172,263.2,172,259.2z"/>
			<path id="XMLID_1001_" class="st0" d="M218.2,241.4l-2.5-0.6c0-0.7,0-1.7,0-2.9c0-1.3,0-2.3,0-3.1c3.9-2.6,7.1-4.3,9.7-5.2
				c1.9-0.6,4.1-1,6.5-1c3.5,0,6.5,0.7,8.9,2s4.2,3.2,5.4,5.7c0.8,1.7,1.2,4.1,1.2,7.1l-0.2,8.5v13.8c0,1.5,0.1,2.6,0.4,3.2
				c0.2,0.5,0.5,0.8,0.9,1c0.3,0.2,1,0.3,1.9,0.4l3,0.3v2.6c-2.5-0.2-4.8-0.3-6.7-0.3s-4.3,0.1-7.4,0.3l0.2-8.2
				c-6.3,4.8-10.1,7.4-11.2,8.1c-1.2,0.6-2.7,0.9-4.5,0.9c-3.7,0-6.7-1-8.7-3c-2.1-2-3.1-4.6-3.1-8c0-2.1,0.4-4.1,1.1-5.8
				c0.7-1.8,1.6-3.2,2.6-4.2s2.1-1.8,3.1-2.3c1.8-0.8,4.7-1.7,8.7-2.7s8-1.7,12-2.1c0-2.9-0.3-5.2-1.1-6.9c-0.7-1.6-2-3-3.8-4
				c-1.8-1.1-3.9-1.6-6.5-1.6c-1.8,0-3.4,0.2-4.8,0.7c-1.4,0.5-2.2,0.9-2.5,1.3l-0.8,1.7C219.2,238.9,218.6,240.4,218.2,241.4z
				 M239.5,248.7c-4,0.7-7.5,1.4-10.3,2.3c-2.8,0.8-4.9,1.7-6,2.6c-0.7,0.5-1.3,1.3-1.9,2.4c-0.8,1.5-1.2,3.3-1.2,5.1
				c0,2.3,0.6,4.1,1.9,5.4c1.3,1.3,3,1.9,5.3,1.9c2.1,0,4.1-0.6,6.1-1.8c2-1.2,4-3,6.1-5.4L239.5,248.7L239.5,248.7z"/>
		</g>
		<g id="XMLID_980_">
			<path id="XMLID_997_" class="st1" d="M262.6,271.8v-52.1c0-3.5-0.3-5.6-0.9-6.3c-0.6-0.7-2.5-1.1-5.7-1.3h-0.8v-2.4h15.1v27.2
				c1.9-3,4.2-5.2,6.7-6.7s5.3-2.2,8.4-2.2c4.8,0,8.7,1.9,11.6,5.7s4.3,8.9,4.3,15.3c0,7.1-1.6,12.8-4.9,17.1s-7.7,6.4-13.1,6.4
				c-2.5,0-4.8-0.5-7-1.4c-2.2-1-4.1-2.4-5.9-4.3h-0.5l-1,5.3h-6.3V271.8z M270.4,263.5c2.1,1.5,4.1,2.6,6.1,3.4
				c2,0.8,3.9,1.1,5.8,1.1c3.6,0,6.3-1.4,8.1-4.3c1.8-2.8,2.7-7.1,2.7-12.8c0-6-0.9-10.6-2.6-13.6s-4.4-4.5-7.9-4.5
				c-2.3,0-4.5,0.6-6.6,1.7c-2,1.1-3.9,2.8-5.7,5v24H270.4z"/>
			<path id="XMLID_994_" class="st1" d="M330.1,265.5c-4.5,4.5-8.9,6.8-13.2,6.8c-3.5,0-6.4-1.1-8.7-3.4c-2.3-2.3-3.5-5.2-3.5-8.6
				c0-4,1.5-7.3,4.6-9.8c3.5-2.9,9.4-4.3,17.6-4.3h1.6v-5.3c0-6.7-2.5-10.1-7.4-10.1c-2.3,0-4.3,0.7-6.1,2.2c-1,0.9-1.7,2.7-2,5.4
				v0.7h-5.1v-7.8c5.3-2.4,10.2-3.6,14.7-3.6c9,0,13.5,4.2,13.5,12.7v18.9c0,3.4,0.3,5.8,0.9,7.2s1.6,2.1,3,2.1c0.5,0,1.2-0.1,2-0.4
				l0.2,2.9c-1.8,0.7-3.4,1-4.8,1C333.4,272.3,331,270.1,330.1,265.5z M328.3,264.6v-16.1h-1.7c-4.4,0-7.9,0.9-10.3,2.8
				c-2.5,1.9-3.7,4.5-3.7,7.8c0,2.5,0.8,4.5,2.3,6.1s3.5,2.4,5.8,2.4C322.8,267.7,325.4,266.7,328.3,264.6z"/>
			<path id="XMLID_992_" class="st1" d="M351.4,271.3v-2.4l26.1-37.7H364c-3.7,0-5.9,0.1-6.5,0.4c-0.6,0.3-1,1.2-1,2.8
				c0,1.1,0,2-0.1,2.8v0.8h-4v-9.3h33.8v2.4l-25.9,37.2h15.1c4,0,11.8,0,11.8,0v2.8h-35.8V271.3z"/>
			<path id="XMLID_989_" class="st1" d="M417.3,265.5c-4.5,4.5-8.9,6.8-13.2,6.8c-3.5,0-6.4-1.1-8.7-3.4c-2.3-2.3-3.5-5.2-3.5-8.6
				c0-4,1.5-7.3,4.6-9.8c3.5-2.9,9.4-4.3,17.6-4.3h1.6v-5.3c0-6.7-2.5-10.1-7.4-10.1c-2.3,0-4.3,0.7-6.1,2.2c-1,0.9-1.7,2.7-2,5.4
				v0.7h-5.1v-7.8c5.3-2.4,10.2-3.6,14.7-3.6c9,0,13.5,4.2,13.5,12.7v18.9c0,3.4,0.3,5.8,0.9,7.2s1.6,2.1,3,2.1c0.5,0,1.2-0.1,2-0.4
				l0.2,2.9c-1.8,0.7-3.4,1-4.8,1C420.6,272.3,418.3,270.1,417.3,265.5z M415.6,264.6v-16.1h-1.7c-4.4,0-7.9,0.9-10.3,2.8
				c-2.5,1.9-3.7,4.5-3.7,7.8c0,2.5,0.8,4.5,2.3,6.1s3.5,2.4,5.8,2.4C410,267.7,412.6,266.7,415.6,264.6z"/>
			<path id="XMLID_986_" class="st1" d="M461.2,265.5c-4.5,4.5-8.9,6.8-13.2,6.8c-3.5,0-6.4-1.1-8.7-3.4c-2.3-2.3-3.5-5.2-3.5-8.6
				c0-4,1.5-7.3,4.6-9.8c3.5-2.9,9.4-4.3,17.6-4.3h1.6v-5.3c0-6.7-2.5-10.1-7.4-10.1c-2.3,0-4.3,0.7-6.1,2.2c-1,0.9-1.7,2.7-2,5.4
				v0.7H439v-7.8c5.3-2.4,10.2-3.6,14.7-3.6c9,0,13.5,4.2,13.5,12.7v18.9c0,3.4,0.3,5.8,0.9,7.2s1.6,2.1,3,2.1c0.5,0,1.2-0.1,2-0.4
				l0.2,2.9c-1.8,0.7-3.4,1-4.8,1C464.5,272.3,462.2,270.1,461.2,265.5z M459.5,264.6v-16.1h-1.7c-4.4,0-7.9,0.9-10.3,2.8
				c-2.5,1.9-3.7,4.5-3.7,7.8c0,2.5,0.8,4.5,2.3,6.1s3.5,2.4,5.8,2.4C453.9,267.7,456.5,266.7,459.5,264.6z"/>
			<path id="XMLID_983_" class="st1" d="M493.3,240.4v20.8c0,3.5,0.3,5.6,0.9,6.3s2.4,1.1,5.5,1.3h1.6v2.4h-22.5v-2.4h0.7
				c3.1-0.2,4.9-0.7,5.5-1.4c0.6-0.7,0.9-2.8,0.9-6.3V239c0-3.5-0.3-5.6-0.9-6.3s-2.4-1.1-5.5-1.4h-0.7v-2.4h14.5v8
				c3.4-6,7.9-9,13.4-9c0.8,0,1.6,0.1,2.5,0.4v11.6H505v-0.7c-0.3-2.4-0.5-3.9-0.7-4.3c-0.2-0.5-0.8-0.7-1.7-0.7
				C498.8,234.2,495.7,236.3,493.3,240.4z"/>
		</g>
	</g>
	<g id="XMLID_955_">
		<circle id="XMLID_961_" class="st2" cx="564.3" cy="251" r="47.6"/>
		
			<linearGradient id="XMLID_2_" gradientUnits="userSpaceOnUse" x1="564.3123" y1="208.2189" x2="564.2884" y2="292.1287" gradientTransform="matrix(1 0 0 -1 0 504)">
			<stop  offset="1.449420e-03" style="stop-color:#FFFFFF"/>
			<stop  offset="1.276558e-02" style="stop-color:#F2F8FB"/>
			<stop  offset="6.246134e-02" style="stop-color:#BBDAED"/>
			<stop  offset="0.114" style="stop-color:#8BBFE0"/>
			<stop  offset="0.1662" style="stop-color:#62A9D5"/>
			<stop  offset="0.2193" style="stop-color:#4197CC"/>
			<stop  offset="0.2735" style="stop-color:#2889C5"/>
			<stop  offset="0.3294" style="stop-color:#157FC0"/>
			<stop  offset="0.388" style="stop-color:#0B79BD"/>
			<stop  offset="0.4537" style="stop-color:#0777BC"/>
		</linearGradient>
		<circle id="XMLID_960_" class="st3" cx="564.3" cy="252.6" r="43.3"/>
		<ellipse id="XMLID_959_" class="st4" cx="564.1" cy="234.8" rx="38.7" ry="28.7"/>
		<g id="XMLID_956_">
			<text transform="matrix(0.8714 -0.3715 0.3922 0.9199 537.3407 276.5189)" class="st5 st6 st7">com</text>
		</g>
	</g>
</g>
</svg>
