<svg width="1053" height="532" viewBox="0 0 1053 532" fill="none" xmlns="http://www.w3.org/2000/svg">
<g clip-path="url(#clip0_1887_29370)">
<g filter="url(#filter0_d_1887_29370)">
<path d="M914.177 174.872L836.878 187.925L837.208 189.882L914.508 176.829L914.177 174.872Z" fill="black"/>
</g>
<path d="M914.623 175.332L837.323 188.385L837.653 190.342L914.953 177.289L914.623 175.332Z" fill="#00BCFF"/>
<path d="M928.082 437.646L877.423 117.803C876.193 110.034 868.359 104.819 859.926 106.155L444.657 171.927C436.224 173.263 430.386 180.643 431.616 188.412L482.275 508.255C483.505 516.024 491.339 521.239 499.771 519.904L915.041 454.131C923.473 452.796 929.312 445.415 928.082 437.646Z" fill="#2C7FFF" fill-opacity="0.1"/>
<path d="M139.65 244.166C133.946 245.015 129.973 250.376 130.823 256.08L180.808 591.841C181.657 597.545 187.019 601.517 192.722 600.667L549.575 549.368C555.278 548.519 559.25 543.157 558.401 537.453L508.416 201.693C507.567 195.989 502.206 192.017 496.502 192.866L139.65 244.166Z" fill="#7DB0FF" fill-opacity="0.13"/>
<path d="M-12.3274 292.562C-18.0396 293.352 -22.0659 298.673 -21.2755 304.385L15.2433 568.312C16.0336 574.025 21.3551 578.051 27.0672 577.261L279.946 542.27C285.659 541.48 289.686 536.159 288.896 530.447L252.376 266.52C251.586 260.807 246.265 256.78 240.553 257.571L-12.3274 292.562Z" fill="#7DB0FF" fill-opacity="0.13"/>
<path d="M1050.43 250.992L1027.18 104.201C1025.85 95.8056 1017.97 90.0779 1009.57 91.4076L842.144 117.926C833.749 119.255 828.021 127.139 829.351 135.534L852.6 282.326C853.93 290.721 861.814 296.449 870.209 295.119L1037.64 268.601C1046.03 267.271 1051.76 259.388 1050.43 250.992Z" fill="#2C7FFF" fill-opacity="0.1"/>
<path d="M949.193 137.566L932.822 34.2007C931.492 25.8056 923.608 20.0779 915.213 21.4076L756.142 46.602C747.747 47.9317 742.019 55.8152 743.349 64.2103L759.72 167.576C761.05 175.971 768.934 181.698 777.329 180.369L936.4 155.174C944.795 153.845 950.523 145.961 949.193 137.566Z" fill="#2C7FFF" fill-opacity="0.1"/>
<path d="M817.995 197.176L788.772 12.668C787.664 5.67165 779.96 1.0779 771.565 2.40756L542.145 38.7441C533.75 40.0738 527.843 46.8233 528.951 53.8197L558.174 238.328C559.282 245.324 566.986 249.918 575.381 248.588L804.801 212.252C813.196 210.922 819.103 204.172 817.995 197.176Z" fill="#2C7FFF" fill-opacity="0.1"/>
<g filter="url(#filter1_d_1887_29370)">
<path d="M829.197 70.999L624.938 103.351L649.164 256.308L853.423 223.956L829.197 70.999Z" fill="white"/>
<path d="M746.974 103.75L697.695 111.555L696.943 106.805L746.221 99L746.974 103.75Z" fill="#FF86B1"/>
<path d="M684.865 237.221L658.391 241.415L657.939 238.564L684.413 234.371L684.865 237.221Z" fill="#D5E6FF"/>
<path d="M832.425 201.85L658.391 229.415L657.939 226.564L831.974 199L832.425 201.85Z" fill="#D5E6FF"/>
<path d="M829.425 191.85L655.391 219.415L654.939 216.564L828.974 189L829.425 191.85Z" fill="#D5E6FF"/>
<path d="M828.425 182.85L654.391 210.415L653.939 207.564L827.974 180L828.425 182.85Z" fill="#D5E6FF"/>
<path d="M827.425 170.85L653.391 198.415L652.939 195.564L826.974 168L827.425 170.85Z" fill="#D5E6FF"/>
<path d="M716.494 126.85L642.391 138.587L641.939 135.737L716.043 124L716.494 126.85Z" fill="#D5E6FF"/>
<path d="M721.494 156.85L647.391 168.587L646.939 165.737L721.043 154L721.494 156.85Z" fill="#D5E6FF"/>
<path fill-rule="evenodd" clip-rule="evenodd" d="M644.402 148.575L718.239 136.903L717.788 134.053L643.939 145.695L644.402 148.575Z" fill="#D5E6FF"/>
<path d="M720.494 146.85L646.391 158.587L645.939 155.737L720.043 144L720.494 146.85Z" fill="#D5E6FF"/>
<path fill-rule="evenodd" clip-rule="evenodd" d="M649.402 178.575L723.239 166.903L722.788 164.053L648.939 175.695L649.402 178.575Z" fill="#D5E6FF"/>
<path d="M725.494 175.85L651.391 187.587L650.939 184.737L725.043 173L725.494 175.85Z" fill="#D5E6FF"/>
<path d="M821.216 155.09L739.711 167.999L731.936 118.909L813.441 106L821.216 155.09Z" fill="#D6E6FF"/>
<mask id="mask0_1887_29370" style="mask-type:luminance" maskUnits="userSpaceOnUse" x="731" y="106" width="91" height="62">
<path d="M813.442 106.001L731.938 118.91L739.713 167.999L821.217 155.09L813.442 106.001Z" fill="#B3D2FF"/>
</mask>
<g mask="url(#mask0_1887_29370)">
<path d="M798.92 175.777C820.919 172.293 835.549 149.239 831.596 124.284C827.644 99.3288 806.606 81.9235 784.606 85.4079C762.607 88.8922 747.978 111.947 751.93 136.902C755.882 161.856 776.92 179.262 798.92 175.777Z" fill="#B3D2FF"/>
</g>
<mask id="mask1_1887_29370" style="mask-type:luminance" maskUnits="userSpaceOnUse" x="731" y="106" width="91" height="62">
<path d="M813.442 106.001L731.938 118.91L739.713 167.999L821.217 155.09L813.442 106.001Z" fill="#89B6F9"/>
</mask>
<g mask="url(#mask1_1887_29370)">
<path d="M808.032 153.748C821.068 151.683 829.738 138.021 827.396 123.233C825.054 108.445 812.587 98.1307 799.55 100.195C786.514 102.26 777.844 115.922 780.186 130.71C782.528 145.498 794.995 155.813 808.032 153.748Z" fill="#89B6F9"/>
</g>
</g>
<g filter="url(#filter2_d_1887_29370)">
<path d="M688.747 220.103L682.733 226.325L683.642 233.954L683.762 234.981L683.768 234.978L691.025 221.313L688.747 220.103Z" fill="white"/>
<path d="M691.515 230.991L693.302 222.524L691.024 221.314L683.767 234.98L684.701 234.501L691.515 230.991Z" fill="white"/>
<path d="M716.506 196.641C715.924 196.332 715.703 195.61 716.012 195.028L725.617 176.942C726.131 175.973 725.761 174.768 724.794 174.254L723.718 173.683C723.136 173.374 722.915 172.652 723.224 172.071C723.533 171.489 724.255 171.268 724.837 171.577L725.912 172.148C728.041 173.279 728.854 175.931 727.723 178.06L718.118 196.147C717.81 196.728 717.088 196.95 716.506 196.641Z" fill="#0094FF"/>
<path d="M716.497 186.344L699.161 216.582L697.931 218.629L695.045 223.452L686.985 219.171L689.365 214.08L690.378 211.918L705.719 180.621L716.497 186.344Z" fill="#98C0FB"/>
<path d="M714.9 188.588L704.753 183.2C704.365 182.994 704.218 182.513 704.424 182.125L713.995 164.101C715.689 160.911 719.648 159.698 722.838 161.392C726.028 163.086 727.241 167.045 725.547 170.235L715.975 188.259C715.77 188.647 715.288 188.794 714.9 188.588Z" fill="#5598FF"/>
<path d="M699.167 216.583L697.936 218.63L689.37 214.081L690.383 211.919L699.167 216.583Z" fill="#0094FF"/>
<path d="M687.553 229.13L684.7 234.501L683.76 234.983L683.64 233.956L686.5 228.571C686.652 228.283 687.011 228.167 687.306 228.324C687.594 228.477 687.706 228.842 687.553 229.13Z" fill="#0094FF"/>
<path d="M687.537 229.773C688.203 229.569 688.577 228.864 688.373 228.198C688.169 227.533 687.465 227.158 686.799 227.362C686.133 227.566 685.759 228.271 685.963 228.937C686.167 229.602 686.872 229.977 687.537 229.773Z" fill="#0094FF"/>
</g>
<path fill-rule="evenodd" clip-rule="evenodd" d="M656.157 91.8557C656.157 91.8557 656.032 93.8386 656.882 94.9152C657.731 95.9918 658.686 97.1918 659.314 96.731C659.942 96.2702 658.898 95.0924 658.898 95.0924C658.898 95.0924 660.431 95.3236 663.498 95.7859C663.539 94.8582 662.95 93.7786 661.73 92.547C659.901 90.6997 658.258 89.899 658.258 89.899L656.157 91.8557Z" fill="#FFAC2C"/>
<path fill-rule="evenodd" clip-rule="evenodd" d="M624.207 117.368C624.207 117.368 625.762 116.132 627.131 116.214C628.5 116.296 630.031 116.393 630.012 117.172C629.993 117.951 628.429 117.767 628.429 117.767C628.429 117.767 629.495 118.893 631.627 121.145C630.89 121.709 629.667 121.843 627.959 121.546C625.398 121.1 623.802 120.21 623.802 120.21L624.207 117.368Z" fill="#FFAC2C"/>
<path fill-rule="evenodd" clip-rule="evenodd" d="M658.668 89.8698C658.305 89.0692 653.501 77.513 640.639 74.0797C630.524 71.3796 614.905 75.596 609.96 91.6988C607.901 98.4043 610.084 106.554 613.344 112.022C616.881 117.955 623.835 120.634 623.835 120.634L624.412 116.894C624.412 116.894 620.623 112.333 619.569 106.232C618.662 100.983 620.17 97.8282 622.144 95.0233C625.352 90.463 628.247 88.9768 632.658 86.3148C636.799 83.8155 640.512 82.7122 645.222 84.169C650.564 85.8211 655.838 92.1835 655.838 92.1835L658.668 89.8698Z" fill="#5598FF"/>
<path fill-rule="evenodd" clip-rule="evenodd" d="M619.594 97.5934C617.493 95.7214 618.655 90.9913 622.187 87.0275C625.72 83.0642 630.286 81.3681 632.387 83.2396C634.487 85.1116 633.325 89.8428 629.793 93.8061C626.26 97.77 621.694 99.4657 619.594 97.5934Z" fill="#FFAC2C"/>
<path fill-rule="evenodd" clip-rule="evenodd" d="M635.527 83.1519C635.527 83.1519 633.541 82.7411 630.008 77.6036C625.845 71.5527 619.184 71.8733 612.715 79.9778C607.929 85.9749 609.208 92.3709 614.278 95.7575C619.936 99.5375 625.583 96.1264 628.742 90.4294C631.688 85.1165 635.527 83.1519 635.527 83.1519Z" fill="#0D264C"/>
<path fill-rule="evenodd" clip-rule="evenodd" d="M815.073 81.1055C815.073 81.1055 813.272 80.9188 812.261 81.6532C811.249 82.3876 810.122 83.2129 810.518 83.8018C810.915 84.3906 812.026 83.4826 812.026 83.4826C812.026 83.4826 809.741 86.4975 810.419 87.327C811.097 88.1565 812.491 87.753 814.24 86.1546C815.989 84.5562 816.778 83.0896 816.778 83.0896L815.073 81.1055Z" fill="#FFAC2C"/>
<path fill-rule="evenodd" clip-rule="evenodd" d="M793.418 70.9595C793.418 70.9595 793.925 71.3613 794.936 73.1888C795.61 74.4071 795.735 75.2948 795.312 75.8518C794.516 75.4064 794.117 75.1837 794.117 75.1837C794.117 75.1837 792.266 78.9182 791.259 78.8381C790.252 78.7581 789.992 77.0152 790.131 74.7619C790.27 72.5086 790.832 71.3502 790.832 71.3502L793.418 70.9595Z" fill="#FFAC2C"/>
<path fill-rule="evenodd" clip-rule="evenodd" d="M816.599 83.5864C819.262 82.503 829.62 73.4391 828.799 62.8687C828.062 53.3789 816.273 41.1714 801.449 43.2578C793.034 44.4419 789.499 52.8897 788.922 59.9685C788.392 66.4736 790.503 71.7025 790.503 71.7025L793.872 71.0251C793.872 71.0251 792.41 64.3114 795.345 59.6408C796.428 57.9182 799.103 55.6368 802.648 55.3423C807.286 54.9571 813.185 57.1655 816.664 60.3183C819.929 63.2783 819.839 67.9192 819.338 70.6885C818.161 77.1965 814.358 80.9589 814.358 80.9589L816.599 83.5864Z" fill="#5598FF"/>
<path fill-rule="evenodd" clip-rule="evenodd" d="M803.353 51.5222C804.437 49.1985 808.87 48.9733 813.255 51.0185C817.639 53.064 820.315 56.6057 819.232 58.9289C818.148 61.2527 813.714 61.4775 809.33 59.4319C804.945 57.3868 802.269 53.8455 803.353 51.5222Z" fill="#FFAC2C"/>
<path fill-rule="evenodd" clip-rule="evenodd" d="M799.989 47.2628C798.23 51.5544 799.59 55.0226 801.8 53.3719C802.625 52.7565 803.659 51.9797 804.402 51.6113C804.83 53.3119 805.754 54.9065 807.161 56.1624C810.202 58.8787 814.565 59.1734 817.888 57.1806C818.83 58.4691 818.408 59.9751 819.631 61.1276C821.201 62.6083 826.61 58.3102 824.666 52.8677C824.678 52.8799 827.575 49.8373 825.283 44.8065C823.085 39.9814 818.066 39.7663 818.066 39.7663C818.066 39.7663 815.413 35.8906 810.179 37.8768C805.61 39.6114 804.008 42.7709 804.008 42.7709C804.008 42.7709 801.465 43.6635 799.989 47.2628Z" fill="#0D264C"/>
<path fill-rule="evenodd" clip-rule="evenodd" d="M731.456 242.826C731.456 242.826 732.513 241.144 732.28 239.792C732.047 238.441 731.782 236.93 731.009 237.035C730.237 237.14 730.593 238.674 730.593 238.674C730.593 238.674 729.356 237.739 726.882 235.868C726.403 236.664 726.405 237.894 726.889 239.558C727.615 242.055 728.676 243.543 728.676 243.543L731.456 242.826Z" fill="#FFAC2C"/>
<path fill-rule="evenodd" clip-rule="evenodd" d="M771.705 235.664C771.705 235.664 769.749 236.008 768.585 235.282C767.421 234.557 766.123 233.74 766.511 233.065C766.9 232.39 768.186 233.298 768.186 233.298C768.186 233.298 767.787 231.8 766.989 228.803C767.906 228.659 769.044 229.126 770.403 230.202C772.441 231.816 773.418 233.36 773.418 233.36L771.705 235.664Z" fill="#FFAC2C"/>
<path fill-rule="evenodd" clip-rule="evenodd" d="M728.304 243.373C728.242 244.25 726.945 256.698 736.607 265.855C744.205 273.057 759.943 276.809 771.976 265.021C776.986 260.112 778.959 251.909 778.705 245.548C778.43 238.646 773.599 232.972 773.599 232.972L771.307 235.983C771.307 235.983 772.458 241.8 770.472 247.664C768.762 252.709 765.931 254.761 762.858 256.283C757.862 258.758 754.608 258.682 749.462 258.915C744.63 259.134 740.84 258.331 737.397 254.802C733.492 250.8 731.896 242.692 731.896 242.692L728.304 243.373Z" fill="#5598FF"/>
<path fill-rule="evenodd" clip-rule="evenodd" d="M766.32 255.243C767.272 257.891 763.993 261.493 758.997 263.289C754.001 265.085 749.178 264.395 748.226 261.748C747.274 259.1 750.554 255.498 755.551 253.702C760.547 251.906 765.369 252.596 766.32 255.243Z" fill="#FFAC2C"/>
<path fill-rule="evenodd" clip-rule="evenodd" d="M745.432 260.325C745.432 260.325 746.98 261.634 747.632 267.835C748.401 275.139 754.407 278.038 763.96 274.005C771.029 271.021 772.958 264.79 770.12 259.393C766.954 253.371 760.364 253.672 754.868 257.169C749.742 260.431 745.432 260.325 745.432 260.325Z" fill="#0D264C"/>
<g filter="url(#filter3_dd_1887_29370)">
<path d="M944.592 211.673C968.703 214.633 990.648 197.488 993.609 173.377C996.569 149.266 979.423 127.321 955.313 124.36C931.202 121.4 909.256 138.546 906.296 162.656C903.336 186.767 920.481 208.712 944.592 211.673Z" fill="#D0E3FE"/>
</g>
<g filter="url(#filter4_d_1887_29370)">
<path d="M946.52 199.782C963.779 201.901 979.487 189.628 981.606 172.37C983.725 155.111 971.452 139.403 954.194 137.284C936.936 135.165 921.227 147.438 919.108 164.696C916.989 181.954 929.262 197.663 946.52 199.782Z" fill="#F0F6FF"/>
</g>
<path fill-rule="evenodd" clip-rule="evenodd" d="M954.478 195.313C954.478 195.313 954.553 193.328 953.677 192.273C952.8 191.218 951.816 190.042 951.199 190.519C950.583 190.995 951.657 192.146 951.657 192.146C951.657 192.146 950.118 191.954 947.041 191.569C947.023 192.497 947.639 193.562 948.889 194.762C950.765 196.563 952.427 197.322 952.427 197.322L954.478 195.313Z" fill="#FBC064"/>
<path fill-rule="evenodd" clip-rule="evenodd" d="M955.492 162.197C955.492 162.197 954.715 164.026 953.473 164.608C952.231 165.189 950.84 165.834 950.485 165.141C950.13 164.447 951.591 163.862 951.591 163.862C951.591 163.862 949.387 163.959 946.439 162.998C946.818 162.15 948.295 160.552 949.938 159.998C952.401 159.167 954.491 159.507 954.491 159.507L955.492 162.197Z" fill="#FBC064"/>
<path fill-rule="evenodd" clip-rule="evenodd" d="M951.934 197.498C952.635 198.028 961.495 208.001 974.436 204.878C984.613 202.422 996.325 191.262 992.984 174.751C991.593 167.876 985.784 161.757 980.31 158.508C974.369 154.983 954.432 159.498 954.432 159.498L955.433 161.998C955.433 161.998 973.765 161.71 977.604 166.567C980.907 170.747 981.087 174.239 980.692 177.646C980.049 183.184 978.215 185.872 975.609 190.317C973.163 194.49 972.768 197.53 967.933 198.498C962.451 199.596 954.934 194.498 954.934 194.498L951.934 197.498Z" fill="#5598FF"/>
<path fill-rule="evenodd" clip-rule="evenodd" d="M981.786 174.207C984.526 174.849 985.763 179.56 984.551 184.729C983.339 189.898 980.136 193.568 977.397 192.927C974.657 192.284 973.42 187.572 974.632 182.403C975.844 177.234 979.047 173.564 981.786 174.207Z" fill="#FBC064"/>
<path fill-rule="evenodd" clip-rule="evenodd" d="M974.672 194.503C974.672 194.503 976.613 193.916 982.17 196.744C988.716 200.074 994.416 196.613 996.232 186.403C997.575 178.849 993.398 173.839 987.326 173.284C980.55 172.663 977.217 178.356 977.16 184.87C977.107 190.945 974.672 194.503 974.672 194.503Z" fill="#0D264C"/>
<path fill-rule="evenodd" clip-rule="evenodd" d="M949.567 143.616C949.567 143.616 949.251 145.398 949.911 146.46C950.571 147.521 951.312 148.706 951.928 148.352C952.544 147.999 951.719 146.826 951.719 146.826C951.719 146.826 954.561 149.322 955.437 148.706C956.313 148.089 956.011 146.67 954.543 144.81C953.075 142.951 951.669 142.058 951.669 142.058L949.567 143.616Z" fill="#FFAC2C"/>
<path fill-rule="evenodd" clip-rule="evenodd" d="M944.065 162.033C944.065 162.033 944.502 161.557 946.397 160.68C947.661 160.096 948.556 160.035 949.081 160.497C948.87 160.818 947.23 162.144 946.921 162.508C946.497 163.01 946.915 163.008 948.416 162.508C949.934 162.498 951.975 163.656 951.924 164.007C950.921 165.008 949.858 165.887 947.62 165.586C945.383 165.285 944.268 164.642 944.268 164.642L944.065 162.033Z" fill="#FFAC2C"/>
<path fill-rule="evenodd" clip-rule="evenodd" d="M952.15 142.271C951.262 139.537 942.967 128.554 932.365 128.611C922.847 128.663 909.822 139.541 910.835 154.477C911.41 162.956 919.581 167.09 926.6 168.176C933.05 169.173 944.434 164.998 944.434 164.998L944.434 161.498C944.434 161.498 931.183 165.009 926.736 161.745C925.096 160.541 923.013 157.709 922.975 154.152C922.924 149.498 925.552 143.773 928.947 140.531C932.135 137.487 936.757 137.911 939.483 138.61C945.89 140.253 949.368 144.317 949.368 144.317L952.15 142.271Z" fill="#5598FF"/>
<path fill-rule="evenodd" clip-rule="evenodd" d="M919.218 153.178C916.978 151.929 917.073 147.492 919.429 143.266C921.785 139.04 925.51 136.626 927.749 137.874C929.989 139.122 929.894 143.561 927.538 147.787C925.182 152.013 921.457 154.426 919.218 153.178Z" fill="#FFAC2C"/>
<path fill-rule="evenodd" clip-rule="evenodd" d="M914.726 156.226C918.88 158.291 922.437 157.183 920.95 154.86C920.395 153.993 919.695 152.906 919.381 152.139C921.108 151.834 922.765 151.028 924.119 149.715C927.047 146.877 927.656 142.546 925.907 139.089C927.26 138.242 928.732 138.771 929.97 137.634C931.56 136.176 927.662 130.471 922.094 132.017C922.107 132.006 919.281 128.898 914.098 130.821C909.127 132.667 908.551 137.656 908.551 137.656C908.551 137.656 904.494 140.023 906.098 145.387C907.499 150.069 910.535 151.894 910.535 151.894C910.535 151.894 911.242 154.495 914.726 156.226Z" fill="#0D264C"/>
</g>
<defs>
<filter id="filter0_d_1887_29370" x="834.89" y="174.872" width="81.6021" height="20.9638" filterUnits="userSpaceOnUse" color-interpolation-filters="sRGB">
<feFlood flood-opacity="0" result="BackgroundImageFix"/>
<feColorMatrix in="SourceAlpha" type="matrix" values="0 0 0 0 0 0 0 0 0 0 0 0 0 0 0 0 0 0 127 0" result="hardAlpha"/>
<feOffset dy="3.96933"/>
<feGaussianBlur stdDeviation="0.992331"/>
<feColorMatrix type="matrix" values="0 0 0 0 0.392157 0 0 0 0 0.556863 0 0 0 0 0.8 0 0 0 0.4 0"/>
<feBlend mode="normal" in2="BackgroundImageFix" result="effect1_dropShadow_1887_29370"/>
<feBlend mode="normal" in="SourceGraphic" in2="effect1_dropShadow_1887_29370" result="shape"/>
</filter>
<filter id="filter1_d_1887_29370" x="615.319" y="61.3801" width="247.722" height="204.546" filterUnits="userSpaceOnUse" color-interpolation-filters="sRGB">
<feFlood flood-opacity="0" result="BackgroundImageFix"/>
<feColorMatrix in="SourceAlpha" type="matrix" values="0 0 0 0 0 0 0 0 0 0 0 0 0 0 0 0 0 0 127 0" result="hardAlpha"/>
<feOffset/>
<feGaussianBlur stdDeviation="4.80944"/>
<feColorMatrix type="matrix" values="0 0 0 0 0.266667 0 0 0 0 0.403922 0 0 0 0 0.713726 0 0 0 0.6 0"/>
<feBlend mode="normal" in2="BackgroundImageFix" result="effect1_dropShadow_1887_29370"/>
<feBlend mode="normal" in="SourceGraphic" in2="effect1_dropShadow_1887_29370" result="shape"/>
</filter>
<filter id="filter2_d_1887_29370" x="678.734" y="160.627" width="53.5" height="82.3564" filterUnits="userSpaceOnUse" color-interpolation-filters="sRGB">
<feFlood flood-opacity="0" result="BackgroundImageFix"/>
<feColorMatrix in="SourceAlpha" type="matrix" values="0 0 0 0 0 0 0 0 0 0 0 0 0 0 0 0 0 0 127 0" result="hardAlpha"/>
<feOffset dy="4"/>
<feGaussianBlur stdDeviation="2"/>
<feComposite in2="hardAlpha" operator="out"/>
<feColorMatrix type="matrix" values="0 0 0 0 0.607843 0 0 0 0 0.686275 0 0 0 0 0.823529 0 0 0 1 0"/>
<feBlend mode="normal" in2="BackgroundImageFix" result="effect1_dropShadow_1887_29370"/>
<feBlend mode="normal" in="SourceGraphic" in2="effect1_dropShadow_1887_29370" result="shape"/>
</filter>
<filter id="filter3_dd_1887_29370" x="894.961" y="115.028" width="107.977" height="107.978" filterUnits="userSpaceOnUse" color-interpolation-filters="sRGB">
<feFlood flood-opacity="0" result="BackgroundImageFix"/>
<feColorMatrix in="SourceAlpha" type="matrix" values="0 0 0 0 0 0 0 0 0 0 0 0 0 0 0 0 0 0 127 0" result="hardAlpha"/>
<feOffset dx="-2" dy="2"/>
<feGaussianBlur stdDeviation="4.5"/>
<feComposite in2="hardAlpha" operator="out"/>
<feColorMatrix type="matrix" values="0 0 0 0 0.176471 0 0 0 0 0.580392 0 0 0 0 0.952941 0 0 0 0.37 0"/>
<feBlend mode="normal" in2="BackgroundImageFix" result="effect1_dropShadow_1887_29370"/>
<feColorMatrix in="SourceAlpha" type="matrix" values="0 0 0 0 0 0 0 0 0 0 0 0 0 0 0 0 0 0 127 0" result="hardAlpha"/>
<feOffset dx="2" dy="-2"/>
<feGaussianBlur stdDeviation="3.5"/>
<feComposite in2="hardAlpha" operator="out"/>
<feColorMatrix type="matrix" values="0 0 0 0 0.176471 0 0 0 0 0.580392 0 0 0 0 0.952941 0 0 0 0.25 0"/>
<feBlend mode="normal" in2="effect1_dropShadow_1887_29370" result="effect2_dropShadow_1887_29370"/>
<feBlend mode="normal" in="SourceGraphic" in2="effect2_dropShadow_1887_29370" result="shape"/>
</filter>
<filter id="filter4_d_1887_29370" x="897.867" y="117.046" width="110.977" height="110.973" filterUnits="userSpaceOnUse" color-interpolation-filters="sRGB">
<feFlood flood-opacity="0" result="BackgroundImageFix"/>
<feColorMatrix in="SourceAlpha" type="matrix" values="0 0 0 0 0 0 0 0 0 0 0 0 0 0 0 0 0 0 127 0" result="hardAlpha"/>
<feOffset dx="3" dy="4"/>
<feGaussianBlur stdDeviation="12"/>
<feComposite in2="hardAlpha" operator="out"/>
<feColorMatrix type="matrix" values="0 0 0 0 0.579271 0 0 0 0 0.670411 0 0 0 0 0.8375 0 0 0 1 0"/>
<feBlend mode="normal" in2="BackgroundImageFix" result="effect1_dropShadow_1887_29370"/>
<feBlend mode="normal" in="SourceGraphic" in2="effect1_dropShadow_1887_29370" result="shape"/>
</filter>
<clipPath id="clip0_1887_29370">
<rect width="1053" height="532" fill="white"/>
</clipPath>
</defs>
</svg>
