<svg width="170" height="60" viewBox="0 0 170 60" fill="none" xmlns="http://www.w3.org/2000/svg">
<path d="M19.8185 22.6871C21.7946 22.6871 23.2365 23.1131 24.1443 23.9649C25.052 24.8098 25.5059 25.9759 25.5059 27.4632C25.5059 28.1336 25.4046 28.776 25.2021 29.3904C24.9996 29.9979 24.668 30.5391 24.2071 31.0139C23.7532 31.4887 23.1457 31.8658 22.3846 32.1451C21.6235 32.4174 20.6844 32.5536 19.5672 32.5536H18.1741V38H14.9272V22.6871H19.8185ZM19.6509 25.3475H18.1741V29.8932H19.2425C19.8499 29.8932 20.3771 29.8129 20.824 29.6523C21.2709 29.4917 21.6165 29.2403 21.8609 28.8982C22.1053 28.556 22.2275 28.1161 22.2275 27.5784C22.2275 26.8243 22.018 26.2657 21.5991 25.9026C21.1801 25.5325 20.5308 25.3475 19.6509 25.3475ZM31.3398 38H28.1453V21.7026H31.3398V38ZM39.499 26.0493C41.0701 26.0493 42.2746 26.3914 43.1125 27.0757C43.9504 27.76 44.3694 28.8004 44.3694 30.1969V38H42.1385L41.5205 36.408H41.4367C41.1015 36.8269 40.7594 37.1691 40.4103 37.4344C40.0611 37.6997 39.6596 37.8953 39.2058 38.0209C38.7519 38.1466 38.2003 38.2095 37.5509 38.2095C36.8596 38.2095 36.2381 38.0768 35.6865 37.8115C35.1419 37.5461 34.7124 37.1411 34.3982 36.5965C34.084 36.0449 33.9269 35.3466 33.9269 34.5017C33.9269 33.2588 34.3633 32.3441 35.2361 31.7575C36.109 31.164 37.4182 30.8358 39.1639 30.773L41.1958 30.7101V30.1969C41.1958 29.5825 41.0352 29.1321 40.714 28.8458C40.3928 28.5595 39.9459 28.4164 39.3733 28.4164C38.8077 28.4164 38.2526 28.4967 37.708 28.6573C37.1633 28.8179 36.6187 29.0204 36.0741 29.2647L35.0162 27.1071C35.6376 26.7789 36.3324 26.5206 37.1005 26.332C37.8756 26.1435 38.6751 26.0493 39.499 26.0493ZM41.1958 32.5745L39.9599 32.6164C38.9265 32.6443 38.2072 32.8294 37.8023 33.1715C37.4042 33.5137 37.2052 33.964 37.2052 34.5227C37.2052 35.0114 37.3484 35.3606 37.6347 35.57C37.921 35.7725 38.2945 35.8738 38.7554 35.8738C39.4397 35.8738 40.0157 35.6713 40.4836 35.2663C40.9584 34.8613 41.1958 34.2852 41.1958 33.5381V32.5745ZM55.8383 34.5227C55.8383 35.3187 55.6498 35.9925 55.2728 36.5441C54.9027 37.0888 54.3476 37.5042 53.6074 37.7905C52.8672 38.0698 51.9455 38.2095 50.8423 38.2095C50.0253 38.2095 49.3236 38.1571 48.737 38.0524C48.1575 37.9476 47.5709 37.7731 46.9774 37.5287V34.8892C47.6128 35.1755 48.2936 35.4129 49.0198 35.6015C49.753 35.783 50.3954 35.8738 50.947 35.8738C51.5685 35.8738 52.0119 35.783 52.2772 35.6015C52.5495 35.4129 52.6857 35.1685 52.6857 34.8683C52.6857 34.6728 52.6298 34.4982 52.5181 34.3446C52.4134 34.184 52.1829 34.0059 51.8268 33.8104C51.4707 33.6079 50.9121 33.3461 50.151 33.0249C49.4178 32.7177 48.8138 32.4069 48.339 32.0927C47.8712 31.7785 47.5221 31.4084 47.2916 30.9825C47.0682 30.5495 46.9565 30.0014 46.9565 29.3381C46.9565 28.2558 47.3754 27.4423 48.2133 26.8976C49.0582 26.346 50.1859 26.0702 51.5964 26.0702C52.3226 26.0702 53.0139 26.1435 53.6702 26.2902C54.3336 26.4368 55.0144 26.6707 55.7127 26.9919L54.7491 29.2962C54.1695 29.0448 53.6214 28.8388 53.1047 28.6782C52.5949 28.5176 52.0747 28.4373 51.544 28.4373C51.0762 28.4373 50.7236 28.5002 50.4862 28.6258C50.2488 28.7515 50.1301 28.9435 50.1301 29.2019C50.1301 29.3904 50.1894 29.558 50.3081 29.7047C50.4338 29.8513 50.6712 30.0154 51.0203 30.1969C51.3765 30.3715 51.8967 30.5984 52.581 30.8777C53.2443 31.1501 53.8204 31.4363 54.3092 31.7366C54.7979 32.0299 55.175 32.3965 55.4403 32.8364C55.7057 33.2693 55.8383 33.8314 55.8383 34.5227ZM63.2644 35.6643C63.6135 35.6643 63.9521 35.6294 64.2803 35.5596C64.6155 35.4897 64.9472 35.4025 65.2754 35.2977V37.6753C64.9332 37.8289 64.5073 37.9546 63.9975 38.0524C63.4948 38.1571 62.9432 38.2095 62.3427 38.2095C61.6444 38.2095 61.016 38.0978 60.4573 37.8743C59.9057 37.6439 59.4693 37.2494 59.1481 36.6908C58.8339 36.1252 58.6768 35.3396 58.6768 34.3341V28.6887H57.1476V27.3375L58.9072 26.2692L59.8289 23.7974H61.8713V26.2902H65.1497V28.6887H61.8713V34.3341C61.8713 34.781 61.997 35.1162 62.2484 35.3396C62.5067 35.5561 62.8454 35.6643 63.2644 35.6643ZM70.8475 26.2902V38H67.6529V26.2902H70.8475ZM69.2554 21.7026C69.7303 21.7026 70.1387 21.8143 70.4809 22.0377C70.823 22.2542 70.9941 22.6627 70.9941 23.2632C70.9941 23.8567 70.823 24.2687 70.4809 24.4991C70.1387 24.7226 69.7303 24.8343 69.2554 24.8343C68.7736 24.8343 68.3617 24.7226 68.0195 24.4991C67.6844 24.2687 67.5168 23.8567 67.5168 23.2632C67.5168 22.6627 67.6844 22.2542 68.0195 22.0377C68.3617 21.8143 68.7736 21.7026 69.2554 21.7026ZM78.9648 38.2095C77.8057 38.2095 76.8176 38 76.0007 37.581C75.1837 37.1551 74.5622 36.4987 74.1363 35.6119C73.7104 34.7252 73.4974 33.5905 73.4974 32.2079C73.4974 30.7765 73.7383 29.6104 74.2201 28.7096C74.7089 27.8019 75.3827 27.135 76.2416 26.7091C77.1074 26.2832 78.1094 26.0702 79.2476 26.0702C80.0576 26.0702 80.7558 26.1505 81.3424 26.3111C81.9359 26.4647 82.4526 26.6498 82.8925 26.8662L81.9498 29.3381C81.4471 29.1356 80.9793 28.9715 80.5463 28.8458C80.1134 28.7131 79.6805 28.6468 79.2476 28.6468C78.689 28.6468 78.2246 28.7795 77.8545 29.0448C77.4845 29.3032 77.2086 29.6942 77.0271 30.2179C76.8455 30.7416 76.7548 31.3979 76.7548 32.187C76.7548 32.962 76.8525 33.6044 77.048 34.1142C77.2436 34.6239 77.5264 35.0045 77.8964 35.2558C78.2665 35.5002 78.7169 35.6224 79.2476 35.6224C79.9109 35.6224 80.5009 35.5351 81.0177 35.3606C81.5344 35.179 82.0371 34.9276 82.5259 34.6064V37.3401C82.0371 37.6474 81.5239 37.8673 80.9862 38C80.4556 38.1397 79.7817 38.2095 78.9648 38.2095Z" fill="#038FEB"/>
<path d="M97.556 38L93.8692 25.9864H93.7749C93.7889 26.2727 93.8098 26.7056 93.8377 27.2852C93.8727 27.8578 93.9041 28.4687 93.932 29.1181C93.9599 29.7675 93.9739 30.354 93.9739 30.8777V38H91.0726V22.6871H95.4926L99.1166 34.397H99.1794L103.023 22.6871H107.443V38H104.416V30.752C104.416 30.2702 104.423 29.7151 104.437 29.0867C104.458 28.4583 104.483 27.8612 104.511 27.2956C104.539 26.7231 104.56 26.2936 104.574 26.0074H104.479L100.531 38H97.556ZM115.854 26.0493C117.425 26.0493 118.63 26.3914 119.467 27.0757C120.305 27.76 120.724 28.8004 120.724 30.1969V38H118.493L117.875 36.408H117.792C117.456 36.8269 117.114 37.1691 116.765 37.4344C116.416 37.6997 116.015 37.8953 115.561 38.0209C115.107 38.1466 114.555 38.2095 113.906 38.2095C113.215 38.2095 112.593 38.0768 112.041 37.8115C111.497 37.5461 111.067 37.1411 110.753 36.5965C110.439 36.0449 110.282 35.3466 110.282 34.5017C110.282 33.2588 110.718 32.3441 111.591 31.7575C112.464 31.164 113.773 30.8358 115.519 30.773L117.551 30.7101V30.1969C117.551 29.5825 117.39 29.1321 117.069 28.8458C116.748 28.5595 116.301 28.4164 115.728 28.4164C115.163 28.4164 114.608 28.4967 114.063 28.6573C113.518 28.8179 112.974 29.0204 112.429 29.2647L111.371 27.1071C111.993 26.7789 112.687 26.5206 113.455 26.332C114.23 26.1435 115.03 26.0493 115.854 26.0493ZM117.551 32.5745L116.315 32.6164C115.281 32.6443 114.562 32.8294 114.157 33.1715C113.759 33.5137 113.56 33.964 113.56 34.5227C113.56 35.0114 113.703 35.3606 113.99 35.57C114.276 35.7725 114.649 35.8738 115.11 35.8738C115.795 35.8738 116.371 35.6713 116.838 35.2663C117.313 34.8613 117.551 34.2852 117.551 33.5381V32.5745ZM130.675 26.0702C131.924 26.0702 132.93 26.4123 133.691 27.0966C134.452 27.774 134.833 28.8632 134.833 30.3645V38H131.638V31.1605C131.638 30.3226 131.485 29.6907 131.177 29.2647C130.877 28.8388 130.402 28.6258 129.753 28.6258C128.775 28.6258 128.108 28.9575 127.752 29.6209C127.396 30.2842 127.218 31.2408 127.218 32.4907V38H124.024V26.2902H126.464L126.893 27.7879H127.072C127.323 27.3829 127.634 27.0547 128.004 26.8034C128.381 26.552 128.796 26.367 129.25 26.2483C129.711 26.1296 130.186 26.0702 130.675 26.0702ZM141.829 38.2095C140.524 38.2095 139.459 37.6997 138.635 36.6803C137.818 35.6538 137.409 34.1491 137.409 32.166C137.409 30.162 137.825 28.6468 138.656 27.6203C139.487 26.5869 140.572 26.0702 141.913 26.0702C142.472 26.0702 142.964 26.147 143.39 26.3006C143.816 26.4542 144.182 26.6602 144.49 26.9186C144.804 27.1769 145.069 27.4667 145.286 27.7879H145.39C145.348 27.5645 145.296 27.2363 145.233 26.8034C145.177 26.3635 145.149 25.9131 145.149 25.4522V21.7026H148.355V38H145.904L145.286 36.4813H145.149C144.947 36.8025 144.692 37.0958 144.385 37.3611C144.085 37.6194 143.725 37.8254 143.306 37.9791C142.887 38.1327 142.395 38.2095 141.829 38.2095ZM142.95 35.6643C143.823 35.6643 144.437 35.406 144.793 34.8892C145.156 34.3655 145.348 33.58 145.369 32.5326V32.187C145.369 31.0488 145.195 30.1795 144.846 29.579C144.497 28.9715 143.847 28.6677 142.898 28.6677C142.192 28.6677 141.641 28.9715 141.243 29.579C140.845 30.1865 140.646 31.0628 140.646 32.2079C140.646 33.3531 140.845 34.2154 141.243 34.795C141.648 35.3745 142.217 35.6643 142.95 35.6643ZM154.89 26.2902V38H151.696V26.2902H154.89ZM153.298 21.7026C153.773 21.7026 154.182 21.8143 154.524 22.0377C154.866 22.2542 155.037 22.6627 155.037 23.2632C155.037 23.8567 154.866 24.2687 154.524 24.4991C154.182 24.7226 153.773 24.8343 153.298 24.8343C152.816 24.8343 152.404 24.7226 152.062 24.4991C151.727 24.2687 151.56 23.8567 151.56 23.2632C151.56 22.6627 151.727 22.2542 152.062 22.0377C152.404 21.8143 152.816 21.7026 153.298 21.7026Z" fill="#0143D9"/>
</svg>
