<?xml version="1.0" encoding="utf-8"?>
<!-- Generator: Adobe Illustrator 19.0.0, SVG Export Plug-In . SVG Version: 6.00 Build 0)  -->
<svg version="1.1" id="Layer_1" xmlns="http://www.w3.org/2000/svg" xmlns:xlink="http://www.w3.org/1999/xlink" x="0px" y="0px"
	 viewBox="-11 157 477 188" style="enable-background:new -11 157 477 188;" xml:space="preserve">
<style type="text/css">
	.st0{fill:#024AA6;}
	.st1{fill:#BB1D1E;}
	.st2{fill:#004EA0;}
	.st3{fill:#BC1C1C;}
</style>
<polygon class="st0" points="-10.9,157.2 -10.9,344.1 91,344.1 91,323.5 76.7,312.9 40.4,342 53.9,296.4 18.2,268.2 62.5,268.2 
	76.2,223.7 91,268.2 91,157.2 "/>
<title>star-worldwide</title>
<desc>Created with Sketch.</desc>
<g id="Group" transform="translate(162.582760, 96.054437)">
	<path id="Shape" class="st1" d="M-10.7,197h7.9c0,0.2-0.1,0.7-0.1,1.2c-0.1,1.2-0.1,1.9-0.1,2.3c0,3.6,1.3,6.2,4.1,7.6
		s7.8,2.2,15.2,2.2h17.2c8.9,0,14.7-0.7,17.4-2.3c2.7-1.6,4.1-4.6,4.1-8.9c0-3.6-0.9-6.2-2.8-7.5c-1.9-1.4-5.7-2.1-11.6-2.1H12.8
		c-8.8,0-14.9-1.2-18.4-3.6c-3.6-2.4-5.3-6.5-5.3-12.4c0-6,2-10.2,6-12.6s11.4-3.6,22.1-3.6h14.9c8.1,0,13.8,0.2,17.1,0.8
		s5.8,1.5,7.6,2.8c1.5,1.2,2.6,2.7,3.3,4.6c0.7,1.9,1.1,4.2,1.1,7v1.7h-7.9v-0.9c0-3.8-1-6.5-3.1-7.8c-2.1-1.3-6.5-2-13.2-2H14.7
		C8,163.3,3.3,164,1,165.4c-2.4,1.4-3.6,3.9-3.6,7.6s1.2,6.3,3.5,7.8c2.3,1.4,7.1,2.2,14.3,2.2h23.5c5.1,0,9,0.2,11.6,0.6
		c2.6,0.3,4.6,1,6.2,1.8c2.2,1.2,3.9,2.8,4.8,5c1,2.1,1.4,5.2,1.4,9.2c0,6.5-2,11-5.9,13.5c-3.9,2.6-11,3.8-21.2,3.8H13.5
		c-8.8,0-15.1-1.2-18.8-3.6c-3.7-2.3-5.6-6.3-5.6-11.8c0-0.7,0.1-2,0.2-3.7C-10.7,197.3-10.7,197.2-10.7,197z"/>
	<polygon id="Shape_1_" class="st1" points="111.3,216 103.2,216 103.2,164.2 70.7,164.2 70.7,157.7 143.7,157.7 143.7,164.2 
		111.2,164.2 111.2,216 	"/>
	<path id="Shape_2_" class="st1" d="M135.2,216l38-58.2h10.9l38.1,58.2h-8.6l-8.6-12.8h-52.1l-8.4,12.8H135.2z M156.8,197H201
		l-22.3-33.5L156.8,197z"/>
	<path id="Shape_3_" class="st1" d="M238.3,216h-8.1v-58.2H277c10.4,0,17.3,1,20.7,3s5.1,5.6,5.1,10.9v7c0,3.6-0.8,6.2-2.6,7.9
		c-1.7,1.7-4.7,2.9-9,3.7c3.6,0.3,6.3,1.5,8.1,3.4c1.8,1.9,2.7,4.6,2.7,8v14.4h-8.1V203c0-3.8-0.9-6.4-2.8-7.8
		c-1.8-1.4-6.2-2.1-13.1-2.1h-39.8L238.3,216L238.3,216z M279.6,164h-41.3v22.4h41.3c5.9,0,9.8-0.7,11.7-1.9
		c1.9-1.3,2.9-3.9,2.9-7.9v-2.8c0-3.9-1-6.5-2.9-7.8C289.3,164.7,285.4,164,279.6,164z"/>
</g>
<g id="Group_1_" transform="translate(162.582760, 163.140879)">
	<polygon id="Shape_4_" class="st2" points="8.2,180.9 3,161.4 -2.1,180.9 -5.2,180.9 -11,157.2 -7.8,157.2 -3.6,176.4 1.5,157.2 
		4.6,157.2 9.7,176.4 13.8,157.2 17.1,157.2 11.3,180.9 	"/>
	<path id="Shape_5_" class="st2" d="M40,169.4c0,3.9-1.5,7.5-3.9,9.7c-1.8,1.7-4.2,2.5-7,2.5c-6.5,0-10.9-5-10.9-12.4
		c0-7.4,4.4-12.4,10.9-12.4C35.7,156.8,40,161.8,40,169.4z M21.1,169.3c0,5.9,3.2,9.8,8,9.8s8-3.9,8-9.6c0-6-3.1-9.9-8-9.9
		C24.3,159.5,21.1,163.4,21.1,169.3z"/>
	<path id="Shape_6_" class="st2" d="M47,180.9h-2.9v-23.7h10.4c4.5,0,6.9,2.2,6.9,6.3c0,2.7-1,4.3-3.6,5.6c2.5,1.1,3.1,2.2,3.1,6.1
		c0.1,3.1,0.2,4,1.3,4.8v0.7h-3.5c-0.4-1-0.7-2.4-0.7-3.9v-2.1c0-2.9-1.2-4.2-3.7-4.2h-7.5L47,180.9L47,180.9z M53.9,168
		c3.1,0,4.5-1.2,4.5-4.1c0-1.4-0.4-2.5-1.2-3.1c-0.7-0.7-1.7-0.9-3.2-0.9h-7v8.1H53.9z"/>
	<polygon id="Shape_7_" class="st2" points="68.8,178.2 80,178.2 80,180.9 65.9,180.9 65.9,157.2 68.8,157.2 	"/>
	<path id="Shape_8_" class="st2" d="M83.4,157.3h8.7c5.7,0,9.2,4.5,9.2,11.8s-3.5,11.8-9.2,11.8h-8.7V157.3z M91.6,178.2
		c4.5,0,6.8-3.1,6.8-9.2s-2.3-9.2-6.8-9.2h-5.3v18.3L91.6,178.2L91.6,178.2z"/>
	<polygon id="Shape_9_" class="st2" points="122.1,180.9 116.9,161.4 111.9,180.9 108.7,180.9 102.9,157.2 106.1,157.2 110.4,176.4 
		115.4,157.2 118.5,157.2 123.6,176.4 127.8,157.2 131,157.2 125.3,180.9 	"/>
	<polygon id="Shape_10_" class="st2" points="136.9,180.9 133.9,180.9 133.9,157.2 136.8,157.2 136.8,180.9 	"/>
	<path id="Shape_11_" class="st2" d="M142.2,157.3h8.7c5.7,0,9.2,4.5,9.2,11.8s-3.5,11.8-9.2,11.8h-8.7V157.3z M150.5,178.2
		c4.5,0,6.8-3.1,6.8-9.2s-2.3-9.2-6.8-9.2h-5.3v18.3L150.5,178.2L150.5,178.2z"/>
	<polygon id="Shape_12_" class="st2" points="167.1,178.2 180.5,178.2 180.5,180.9 164.2,180.9 164.2,157.2 179.9,157.2 
		179.9,159.8 167.1,159.8 167.1,167.4 179.5,167.4 179.5,170 167.1,170 	"/>
	<path id="Shape_13_" class="st2" d="M212.8,181h-1.8l-0.7-3.1c-2.2,2.6-4.6,3.7-7.7,3.7c-6.1,0-10.4-5.1-10.4-12.3
		c0-4.2,1.5-8,4.1-10.2c1.7-1.5,4-2.2,6.8-2.2c5.2,0,8.7,2.7,9.4,7.5h-3c-0.6-3.1-3.1-4.9-6.5-4.9c-4.8,0-8,3.8-8,9.6
		c0,2.9,0.9,5.7,2.4,7.5c1.3,1.5,3.4,2.4,5.7,2.4c4.1,0,7.1-3.1,7.1-7.3V171h-6.9v-2.7h9.4V181z"/>
	<path id="Shape_14_" class="st2" d="M220.7,180.9h-2.9v-23.7h10.4c4.5,0,6.9,2.2,6.9,6.3c0,2.7-1,4.3-3.6,5.6
		c2.5,1.1,3.1,2.2,3.1,6.1c0.1,3.1,0.2,4,1.3,4.8v0.7h-3.5c-0.4-1-0.7-2.4-0.7-3.9v-2.1c0-2.9-1.2-4.2-3.7-4.2h-7.5L220.7,180.9
		L220.7,180.9z M227.7,168c3.1,0,4.5-1.2,4.5-4.1c0-1.4-0.4-2.5-1.2-3.1s-1.7-0.9-3.2-0.9h-7v8.1H227.7z"/>
	<path id="Shape_15_" class="st2" d="M260,169.4c0,3.9-1.5,7.5-3.9,9.7c-1.8,1.7-4.2,2.5-7,2.5c-6.5,0-10.9-5-10.9-12.4
		c0-7.4,4.4-12.4,10.9-12.4C255.7,156.8,260,161.8,260,169.4z M241,169.3c0,5.9,3.2,9.8,8,9.8c4.8,0,8-3.9,8-9.6c0-6-3.1-9.9-8-9.9
		C244.3,159.5,241,163.4,241,169.3z"/>
	<path id="Shape_16_" class="st2" d="M281.1,157.3v16.6c0,4.7-3.4,7.8-8.7,7.8c-5.4,0-8.6-3-8.6-7.8v-16.6h2.9v16.6
		c0,1.8,0.5,3,1.7,3.9c1.1,0.8,2.5,1.2,4.1,1.2c3.6,0,5.8-2,5.8-5.1v-16.6H281.1z"/>
	<path id="Shape_17_" class="st2" d="M289.2,180.9h-2.9v-23.7h9.4c4.5,0,7,2.5,7,7c0,2.2-0.6,3.7-2,5c-1.2,1.2-2.6,1.7-4.4,1.7h-7.1
		L289.2,180.9L289.2,180.9z M295.2,168.2c2.7,0,4.4-1.6,4.4-4.1s-1.7-4.1-4.4-4.1h-6v8.3H295.2z"/>
</g>
<rect id="Rectangle-path_1_" x="-10.9" y="157.2" class="st3" width="101.9" height="15.7"/>
<polygon id="Shape_18_" class="st0" points="100.5,295.4 136.8,268.2 91,268.2 91,323.5 115.7,342 "/>
</svg>
