<?xml version="1.0" encoding="UTF-8"?>
<svg width="717px" height="179px" viewBox="0 0 717 179" version="1.1" xmlns="http://www.w3.org/2000/svg" xmlns:xlink="http://www.w3.org/1999/xlink">
    <!-- Generator: Sketch 62 (91390) - https://sketch.com -->
    <title>Artboard</title>
    <desc>Created with Sketch.</desc>
    <defs>
        <linearGradient x1="49.9653552%" y1="34.2844006%" x2="50.5474232%" y2="86.8482258%" id="linearGradient-1">
            <stop stop-color="#0B4EB5" offset="0%"></stop>
            <stop stop-color="#2472E8" offset="100%"></stop>
        </linearGradient>
    </defs>
    <g id="Artboard" stroke="none" stroke-width="1" fill="none" fill-rule="evenodd">
        <g id="theme-logo" transform="translate(-51.000000, -30.000000)">
            <rect id="Rectangle" x="0" y="0" width="818" height="237.59"></rect>
            <path d="M213,175.24 C201.533333,175.24 191.966667,171.383333 184.3,163.67 C176.633333,155.956667 172.783333,146.4 172.75,135 C172.75,123.666667 176.583333,114.126667 184.25,106.38 C191.916667,98.6333333 201.5,94.79 213,94.85 C220.10732,94.766619 227.104707,96.6084003 233.25,100.18 C239.143215,103.526661 243.953281,108.492898 247.11,114.49 L230.21,124.39 C228.702723,121.26304 226.287609,118.66322 223.28,116.93 C220.118038,115.082062 216.512036,114.131294 212.85,114.18 C207.37191,114.015595 202.073392,116.142975 198.23,120.05 C194.37,123.956667 192.44,128.956667 192.44,135.05 C192.260042,140.583165 194.352162,145.948966 198.23,149.9 C202.075104,153.803356 207.373403,155.927024 212.85,155.76 C216.549745,155.8237 220.200302,154.905885 223.43,153.1 C226.442167,151.404328 228.861143,148.824784 230.36,145.71 L247.41,155.46 C244.066643,161.440289 239.175648,166.410728 233.25,169.85 C227.117132,173.458033 220.115004,175.321809 213,175.24 L213,175.24 Z" id="Path" fill="#0E2940" fill-rule="nonzero"></path>
            <path d="M321.36,163.59 C309.846169,175.207212 292.446052,178.699345 277.341331,172.424367 C262.23661,166.149389 252.432905,151.35593 252.54,135 C252.638339,118.743036 262.464564,104.126285 277.481704,97.8986014 C292.498844,91.6709178 309.785474,95.043832 321.36,106.46 C329.053862,113.937477 333.298316,124.273374 333.08,135 C333.31228,145.743881 329.066721,156.100582 321.36,163.59 L321.36,163.59 Z M278,150.12 C281.85639,154.058446 287.179984,156.211077 292.69,156.06 C298.223187,156.209181 303.570767,154.058563 307.46,150.12 C315.379638,141.630216 315.379638,128.459784 307.46,119.97 C303.585466,116.030708 298.253865,113.869835 292.73,114 C287.197212,113.853342 281.855597,116.029153 278,120 C274.101917,124.00116 272.00065,129.416796 272.18,135 C271.969928,140.623951 274.073298,146.088378 278,150.12 L278,150.12 Z" id="Shape" fill="#0E2940" fill-rule="nonzero"></path>
            <path d="M389.27,94.85 C397.59,94.85 404.466667,97.64 409.9,103.22 C415.333333,108.8 418.033333,116.516667 418.000305,126.37 L418.000305,173.11 L398.4,173.11 L398.4,128.8 C398.4,123.726667 397.03,119.843333 394.29,117.15 C391.55,114.456667 387.883333,113.123333 383.29,113.15 C378.21,113.15 374.15,114.723333 371.11,117.87 C368.07,121.016667 366.56,125.726667 366.58,132 L366.58,173.11 L346.94,173.11 L346.94,97 L366.58,97 L366.58,105.52 C371.353333,98.4066667 378.916667,94.85 389.27,94.85 Z" id="Path" fill="#0E2940" fill-rule="nonzero"></path>
            <path d="M452.91,118.6 C452.91,120.6 454.243333,122.266667 456.91,123.6 C460.067759,125.030438 463.356382,126.152321 466.73,126.95 C470.655943,127.935066 474.519498,129.153906 478.3,130.6 C482.195448,132.104758 485.59552,134.663468 488.12,137.99 C490.888081,141.721929 492.299231,146.287001 492.12,150.93 C492.12,158.75 489.203333,164.75 483.37,168.93 C477.536667,173.11 470.253333,175.216667 461.52,175.25 C445.893333,175.25 435.226667,169.21 429.52,157.13 L446.58,147.54 C448.806667,154.14 453.78,157.44 461.5,157.44 C468.5,157.44 472.003333,155.256667 472.01,150.89 C472.01,148.89 470.676667,147.24 468.01,145.94 C464.846407,144.503854 461.559768,143.355874 458.19,142.51 C454.260726,141.476139 450.397101,140.207187 446.62,138.71 C442.772072,137.197792 439.386672,134.705283 436.8,131.48 C434.044583,127.944654 432.627769,123.548988 432.8,119.07 C432.8,111.556667 435.566667,105.643333 441.1,101.33 C446.633333,97.0166667 453.51,94.86 461.73,94.86 C467.627999,94.770841 473.450253,96.1962776 478.64,99 C483.691041,101.789068 487.850932,105.948959 490.64,111 L473.89,120.13 C471.456667,114.95 467.396667,112.363333 461.71,112.37 C459.484274,112.287039 457.284216,112.868384 455.39,114.04 C453.81566,115.015006 452.872845,116.748568 452.91,118.6 Z" id="Path" fill="#0E2940" fill-rule="nonzero"></path>
            <path d="M555.08,97 L574.72,97 L574.72,173.13 L555.08,173.13 L555.08,164.6 C550.306667,171.706667 542.743333,175.26 532.39,175.26 C524.07,175.26 517.193333,172.47 511.76,166.89 C506.326667,161.31 503.61,153.593333 503.61,143.74 L503.61,97 L523.26,97 L523.26,141.31 C523.26,146.38 524.63,150.31 527.37,152.95 C530.11,155.59 533.76,156.95 538.37,156.95 C543.436667,156.95 547.496667,155.376667 550.55,152.23 C553.603333,149.083333 555.126667,144.363333 555.12,138.07 L555.08,97 Z" id="Path" fill="#0E2940" fill-rule="nonzero"></path>
            <polygon id="Path" fill="#0E2940" fill-rule="nonzero" points="592.68 173.11 592.68 62 612.33 62 612.33 173.11"></polygon>
            <path d="M673.84,115.86 L656.63,115.86 L656.63,147.53 C656.63,150.196667 657.296667,152.126667 658.63,153.32 C660.265326,154.651512 662.311166,155.375859 664.42,155.37 C667.565688,155.519829 670.717303,155.493121 673.86,155.29 L673.86,173.11 C660.36,174.63 650.843333,173.36 645.31,169.3 C639.776667,165.24 637.006667,157.983333 637,147.53 L637,115.86 L623.75,115.86 L623.75,97 L637,97 L637,81.6 L656.64,75.66 L656.64,97 L673.85,97 L673.84,115.86 Z" id="Path" fill="#0E2940" fill-rule="nonzero"></path>
            <path d="M743.27,97 L762.91,97 L762.91,173.13 L743.27,173.13 L743.27,164.13 C737.376667,171.543333 729.103333,175.246667 718.45,175.240009 C708.296667,175.240009 699.593333,171.356667 692.34,163.59 C685.086667,155.823333 681.456667,146.293333 681.45,135 C681.45,123.74 685.08,114.226667 692.34,106.46 C699.6,98.6933333 708.303333,94.81 718.45,94.81 C729.116667,94.81 737.39,98.5133333 743.27,105.92 L743.27,97 Z M707,150.5 C710.969963,154.509288 716.430732,156.68345 722.07,156.5 C727.731676,156.676764 733.214591,154.505312 737.22,150.5 C741.22,146.5 743.22,141.346667 743.22,135.04 C743.22,128.733333 741.22,123.583333 737.22,119.59 C733.214591,115.584688 727.731676,113.413236 722.07,113.59 C716.430732,113.40655 710.969963,115.580712 707,119.59 C703.04,123.59 701.06,128.74 701.06,135.04 C701.06,141.34 703.04,146.493333 707,150.5 Z" id="Shape" fill="#0E2940" fill-rule="nonzero"></path>
            <g id="Page-1" transform="translate(55.000000, 61.000000)">
                <g id="_5">
                    <g id="Group-8">
                        <g id="Group-3" transform="translate(37.000000, 0.000000)" fill="url(#linearGradient-1)">
                            <path d="M19.73,114.630003 L19.73,114.630003 C9.30286392,114.630003 0.85,106.177136 0.85,95.75 L0.85,20.23 C0.692349135,13.3794395 4.256932,6.98070217 10.1648105,3.50910235 C16.0726889,0.0375025294 23.3973111,0.0375025294 29.3051895,3.50910235 C35.213068,6.98070217 38.7776509,13.3794395 38.62,20.23 L38.62,95.75 C38.6200007,100.75902 36.6294909,105.562738 33.086641,109.103713 C29.543791,112.644687 24.7390197,114.632653 19.73,114.630003" id="Fill-1"></path>
                        </g>
                        <path d="M37.85,20.23 L37.85,1.34 L19,1.34 C8.73939195,1.57612575 0.544597515,9.96167534 0.544597515,20.225 C0.544597515,30.4883247 8.73939195,38.8738743 19,39.11 L37.85,39.11 L37.85,20.23" id="Fill-4" fill="#1ABC9C"></path>
                        <path d="M94.5,1.34 L37.85,1.34 L37.85,58 L56.73,39.12 L94.5,39.12 C104.760608,38.8838743 112.955402,30.4983247 112.955402,20.235 C112.955402,9.97167534 104.760608,1.58612575 94.5,1.35" id="Fill-6" fill="#2472E8"></path>
                    </g>
                </g>
            </g>
        </g>
    </g>
</svg>