<?xml version="1.0" encoding="UTF-8"?>
<svg width="427px" height="121px" viewBox="0 0 427 121" version="1.1" xmlns="http://www.w3.org/2000/svg" xmlns:xlink="http://www.w3.org/1999/xlink">
    <!-- Generator: Sketch 51.2 (57519) - http://www.bohemiancoding.com/sketch -->
    <title>tripoto</title>
    <desc>Created with Sketch.</desc>
    <defs></defs>
    <g id="SB-WEB-DESIGN" stroke="none" stroke-width="1" fill="none" fill-rule="evenodd">
        <g id="tripoto.svg" transform="translate(-81.000000, -90.000000)" fill="#3C9DD7">
            <g id="tripoto" transform="translate(80.999448, 90.068542)">
                <path d="M33.1691849,22.3807551 C35.9821769,21.8918225 38.7495352,21.3702944 41.5234126,22.0124259 C42.7620418,22.3057854 43.6747159,22.1265101 44.5547945,21.2757675 C45.2067046,20.6564529 45.9564012,20.372872 46.8364798,20.7379417 C47.3906034,20.9661102 47.8143449,21.3898517 47.8469404,21.9439753 C47.8795359,22.6284809 47.1624348,22.2699303 46.8038843,22.4980989 C46.2823562,22.8240539 45.6956371,23.0522224 45.2067046,23.3781775 C44.1636485,24.0952786 44.522199,25.0405482 44.9459405,25.9206268 C45.4022776,26.8007054 46.2497607,26.7681099 46.9733809,26.4095594 C47.5763977,26.1487953 48.0718494,25.6598628 48.6357516,25.2687167 C49.1572797,24.9101662 49.8091898,24.4864246 50.2981223,25.0731437 C50.9174369,25.839138 51.8105537,26.5269032 51.9278975,27.5569211 C52.0387222,28.5999772 50.8522459,28.5021907 50.3046414,28.9911233 C49.9134954,29.3170783 49.5223493,29.6234761 49.2289898,30.0113626 C48.9356302,30.3699131 48.7400572,30.6958681 48.1859337,30.7023872 C46.3931809,30.7349828 45.522881,31.9736119 44.9654979,33.4469287 C44.5156799,34.5942904 44.1506102,35.7677286 43.5378148,36.8433802 C43.1792642,37.4822521 42.8011564,38.2580251 42.0156047,38.2775824 C41.2333126,38.3101779 41.0181823,37.4822521 40.7443801,36.8759757 C40.3858295,36.1067218 39.8838588,35.5395601 38.9385892,35.7025376 C38.025915,35.8655151 37.4066005,36.4196387 37.2110274,37.316015 C37.0024162,38.2775824 37.4620128,39.0109812 38.3355723,39.3369363 C39.4438195,39.7508992 39.7697745,40.5755654 39.997943,41.6316598 C40.4868756,43.9915743 42.2274755,45.0215922 44.5939091,44.4772473 C46.9081899,43.9329023 49.727701,44.878172 50.7707571,46.8339022 C51.6573548,48.4962729 52.8894649,48.9395718 54.6170266,48.7896325 C56.4488939,48.6266549 57.615813,49.7023066 57.7135995,51.5080975 C57.7787905,52.6489401 57.5636602,53.7408895 57.165995,54.8002434 C55.9925569,57.9294118 54.2161019,60.6935105 52.0159054,63.2098834 C50.4187257,65.054789 49.2452875,67.0561529 50.2557482,69.6311977 C50.5165122,70.3157033 51.0054448,71.1957819 50.3404965,71.6195235 C49.5256089,72.1606089 48.7824314,71.3587595 48.1891932,70.7720404 C47.9284292,70.5014977 47.7458943,70.1201303 47.5535809,69.7876562 C45.7771259,66.6910833 44.8807495,63.3989374 45.4022776,59.8134319 C45.7282326,57.4339601 44.58739,55.8367804 42.6642553,54.6763805 C39.6328734,52.8510323 39.2091318,50.4715605 41.5234126,47.6683471 C42.0123452,47.081628 42.0123452,46.7882685 41.3930306,46.3645269 C39.6002779,45.0933023 37.99006,43.4961226 36.0473679,42.5899676 C32.885604,41.1036126 31.2460502,38.4177431 29.7564357,35.6145297 C28.6481885,33.5447152 28.7687919,31.2956254 30.2779637,29.2779637 C30.7114839,28.710802 31.0276603,28.0393346 31.3536154,27.3874245 C31.7969142,26.4649717 31.6339367,25.6272673 30.7343008,25.0405482 C29.8868177,24.5059819 29.1175638,24.5190201 28.3026762,25.2361212 C19.9973417,32.5375141 16.3825003,41.6968508 18.0676879,52.5837491 C20.531908,68.5555461 35.5714736,79.7032085 52.1495469,77.0629727 C67.0945856,74.660684 78.2520266,60.4392656 76.6776638,45.4551124 C76.530984,43.9785361 75.4716301,43.1897249 73.9070459,43.391817 C71.3645966,43.717772 68.8938574,41.9022024 68.5027113,39.447761 C68.3853675,38.7306599 68.1963136,38.0461543 67.7399765,37.4268397 C66.9902799,36.4489746 67.2836395,35.8818128 68.5222686,35.8492173 C68.7308799,35.8394387 68.9590484,35.793805 69.1741787,35.7188353 C69.5653248,35.5721556 70.165082,35.7188353 70.2628686,35.1321163 C70.3508764,34.6562219 69.839127,34.5453972 69.5457675,34.30745 C68.8123686,33.7142118 68.193054,33.1992029 68.3723293,31.9605737 C68.5516046,30.8458075 67.9029541,29.7766749 66.736035,29.2877424 C65.2040463,28.6684278 65.2366418,27.2831189 65.8233609,26.354147 C66.5306833,25.2784954 65.9863384,25.0438077 65.3572452,24.5613943 C58.1080051,19.0983878 50.0373583,17.1752531 41.1257475,18.9875631 C38.2573431,19.5742822 35.4541298,20.4869563 33.0420625,22.2960068 L33.1691849,22.3807551 Z M94.8398786,48.5093111 C94.865955,59.2006364 91.1239912,68.5555461 84.9536622,77.1607592 C78.858303,85.6355902 71.876346,93.3607247 64.9726182,101.183646 C59.4411612,107.441982 53.7597648,113.569937 48.4466977,119.991252 C47.8762764,120.675757 47.4851303,121.327667 46.5496393,120.252016 C34.2285388,106.203353 21.5162922,92.4154551 10.2056523,77.4867142 C5.28373121,70.9676134 1.95898979,63.8617935 0.687765136,55.745513 C-1.88727969,39.0892104 2.93685492,24.9101662 15.0623824,13.4039532 C25.0692022,3.85347055 37.2925162,-0.253562957 51.0478189,0.724302165 C72.7531651,2.25955041 90.6806923,18.7528755 94.2010067,40.1029306 C94.6573438,42.8735485 94.9181078,45.6441663 94.8855123,48.4636774 L94.8398786,48.5093111 Z M156.02164,40.0018846 L144.039532,40.0018846 C144.039532,34.8843904 144.437198,28.7890312 144.935909,25.2035257 L137.145583,26.4095594 C134.743295,30.1906378 133.243901,35.308132 132.549617,39.904098 L125.851241,42.3813564 L125.851241,46.6513674 L131.848814,46.6513674 L131.848814,77.4215232 C131.848814,87.88468 136.640353,91.4049945 145.036955,91.4049945 C149.535134,91.4049945 153.329251,90.2967473 156.924535,88.2106351 L155.725021,83.810242 C153.528084,84.4947476 151.829858,84.8858936 150.030586,84.8858936 C145.036955,84.8858936 144.033013,82.4738263 144.033013,74.9768604 L144.033013,46.6187719 L154.528766,46.6187719 L156.028159,39.9236553 L156.02164,40.0018846 Z M179.007989,50.8887829 C178.910203,44.7934237 177.313023,40.1974576 176.60896,38.6980644 L175.109567,38.6980644 L160.422033,42.6747159 L160.422033,46.4557944 C165.816589,46.6513674 167.117149,47.661828 167.117149,54.9306254 L167.117149,78.9861074 C167.117149,84.6577251 165.917635,85.6681857 160.523079,85.9615453 L160.523079,89.951235 L187.499118,89.951235 L187.499118,86.0299958 C180.30529,85.8344228 179.307868,84.7261757 179.307868,79.0382602 L179.307868,62.6427217 C179.307868,53.9462412 181.605851,51.1495469 189.497222,51.1495469 C191.495327,51.1495469 192.593795,51.34512 193.897615,51.8340525 L196.391172,39.0240194 C195.608879,38.6980644 194.305059,38.5024914 193.001239,38.5024914 C187.622981,38.5024914 182.212127,43.0006709 179.017768,50.7909964 L179.007989,50.8887829 Z M224.772077,90.0359833 L224.772077,86.0593318 C219.074383,85.8637588 218.275793,84.7555116 218.275793,79.0512984 L218.275793,38.9946835 L216.375475,38.9946835 L199.393217,42.6942732 L199.393217,46.4753517 C204.784514,46.6709247 206.085074,47.6813853 206.085074,54.9664805 L206.085074,79.0480389 C206.085074,84.7294352 204.88556,85.7301172 199.491004,86.0299958 L199.491004,90.0327237 L224.768817,90.0327237 L224.772077,90.0359833 Z M219.172169,25.4349538 C219.172169,21.2366529 215.880023,17.8402013 211.577417,17.8402013 C207.284589,17.8402013 203.884878,21.2366529 203.884878,25.4349538 C203.884878,29.6299952 207.284589,33.0297062 211.47963,33.0297062 C215.775718,33.0297062 219.172169,29.6299952 219.172169,25.4349538 Z M269.727796,66.1988912 C269.727796,80.6875927 265.536014,84.4849689 258.342187,84.4849689 C254.942475,84.4849689 251.047313,82.8877892 248.449451,79.6869108 L248.449451,52.2089008 C251.748116,48.7146628 255.444446,47.1142235 259.440655,47.1142235 C266.334604,47.1142235 269.731056,51.5146166 269.731056,66.2151889 L269.727796,66.1988912 Z M247.856213,47.110964 C247.66064,43.2190608 246.259033,39.8193497 245.757062,38.7208812 L244.257669,38.7208812 L229.570135,42.71709 L229.570135,46.5144663 C234.967951,46.7100393 236.265252,47.7139808 236.265252,55.0088546 L236.265252,98.6705323 C236.265252,104.368226 235.065737,105.365649 229.671181,105.665527 L229.671181,109.661736 L255.454225,109.661736 L255.454225,105.665527 C249.456652,105.469954 248.478787,104.263921 248.478787,98.7715784 L248.478787,85.8637588 C251.673146,89.4492642 256.171326,90.8508709 260.865079,90.8508709 C274.261831,90.8508709 282.769257,81.6589387 282.769257,64.3507261 C282.769257,46.7491539 274.587786,38.7632554 263.081573,38.7632554 C256.888427,38.7632554 251.119023,42.3487608 247.892068,47.0425134 L247.856213,47.110964 Z M338.28266,64.800544 C338.28266,48.4147842 328.888636,38.6263543 314.201102,38.6263543 C299.614614,38.6263543 289.819665,48.9134954 289.819665,65.1004227 C289.819665,81.6589387 299.213689,91.2746124 313.901223,91.2746124 C327.493548,91.2746124 338.28266,82.3760398 338.28266,64.7744676 L338.28266,64.800544 Z M324.993473,64.800544 C324.993473,78.989367 321.39493,85.78227 314.302148,85.78227 C305.80776,85.78227 303.112111,79.1881995 303.112111,64.699498 C303.112111,50.5106751 305.908806,44.3175293 313.901223,44.3175293 C321.196097,44.3175293 324.993473,49.9109178 324.993473,64.800544 Z M374.147493,40.0214419 L362.162127,40.0214419 C362.162127,34.923505 362.559792,28.8281458 363.061762,25.2328617 L355.271437,26.4323762 C352.869148,30.2297524 351.369755,35.3244297 350.675471,39.9203958 L343.977095,42.4172114 L343.977095,46.7132988 L349.974668,46.7132988 L349.974668,77.4899738 C349.974668,87.979207 354.766207,91.473445 363.143251,91.473445 C367.641431,91.473445 371.422509,90.3782361 375.04061,88.2790856 L373.834577,83.8852117 C371.618082,84.5827555 369.923116,84.9836802 368.130363,84.9836802 C363.110656,84.9836802 362.132791,82.5716129 362.132791,75.0746469 L362.132791,46.6839629 L372.628543,46.6839629 L374.127936,39.9692891 L374.147493,40.0214419 Z M427.001103,64.800544 C427.001103,48.4147842 417.613598,38.6263543 402.919545,38.6263543 C388.333057,38.6263543 378.538108,48.9134954 378.538108,65.1004227 C378.538108,81.6589387 387.932132,91.2746124 402.626185,91.2746124 C416.208732,91.2746124 427.001103,82.3760398 427.001103,64.7744676 L427.001103,64.800544 Z M413.711916,64.800544 C413.711916,78.989367 410.116632,85.78227 403.020591,85.78227 C394.529462,85.78227 391.830554,79.1881995 391.830554,64.699498 C391.830554,50.5106751 394.627249,44.3175293 402.619666,44.3175293 C409.91454,44.3175293 413.711916,49.9109178 413.711916,64.800544 Z" id="Shape"></path>
            </g>
        </g>
    </g>
</svg>