<svg width="170" height="60" viewBox="0 0 170 60" fill="none" xmlns="http://www.w3.org/2000/svg">
<path d="M38.5372 22.2311L28.2571 32.5101L24.2571 36.5101C24.2813 36.327 24.2933 36.1427 24.2932 35.9581C24.2937 35.3366 24.1597 34.7223 23.9003 34.1575C23.641 33.5927 23.2624 33.0907 22.7907 32.6861C22.319 32.2814 21.7652 31.9837 21.1675 31.8133C20.5698 31.6429 19.9423 31.604 19.3281 31.6991L29.6161 21.4141H35.3292C36.0744 21.9761 36.9827 22.2795 37.9161 22.2781C38.124 22.2779 38.3316 22.2622 38.5372 22.2311Z" fill="#ED763B"/>
<path d="M37.9301 21.4095C38.487 21.4098 39.0358 21.2761 39.5301 21.0195C39.0358 21.2829 38.4842 21.4203 37.9241 21.4195C37.8501 21.4195 37.7751 21.4195 37.7031 21.4105L37.9301 21.4095Z" fill="#ED6F4A"/>
<path d="M40.3642 20.3994C40.3459 20.4223 40.3251 20.4431 40.3022 20.4614C40.2045 20.5552 40.101 20.6427 39.9922 20.7234C40.123 20.6235 40.2473 20.5153 40.3642 20.3994Z" fill="#ED6F4A"/>
<path d="M41.378 17.9655C41.378 18.083 41.3719 18.2005 41.36 18.3175C41.3544 18.3897 41.3443 18.4615 41.33 18.5325C41.324 18.5775 41.315 18.6185 41.306 18.6605C41.2578 18.9015 41.1827 19.1363 41.082 19.3605C41.043 19.4445 41.002 19.5275 40.957 19.6085C40.93 19.6565 40.906 19.7085 40.877 19.7515C40.8205 19.8488 40.7577 19.9424 40.689 20.0315C40.623 20.1155 40.558 20.1985 40.483 20.2785C40.4467 20.3214 40.408 20.3621 40.367 20.4005C40.2501 20.5167 40.1258 20.6252 39.995 20.7255L39.989 20.7315C39.8441 20.8402 39.6906 20.9368 39.53 21.0205C39.0357 21.277 38.4869 21.4108 37.93 21.4105H37.7C36.8267 21.3565 36.0063 20.9729 35.405 20.3371C34.8037 19.7014 34.4663 18.8611 34.461 17.9861C34.4557 17.1111 34.7828 16.2667 35.3763 15.6237C35.9698 14.9807 36.7853 14.5871 37.658 14.5225H37.929C38.048 14.5225 38.161 14.5285 38.284 14.5405C38.6596 14.5808 39.026 14.6821 39.369 14.8405C39.438 14.8735 39.509 14.9065 39.569 14.9405C39.669 14.9915 39.76 15.0505 39.855 15.1135C39.9222 15.1564 39.987 15.2032 40.049 15.2535C40.061 15.2655 40.076 15.2745 40.088 15.2865C40.139 15.3255 40.188 15.3665 40.237 15.4115C40.276 15.4505 40.317 15.4895 40.356 15.5275L40.776 16.0345L40.866 16.1775C40.896 16.2255 40.92 16.2775 40.946 16.3205C40.9454 16.3224 40.9454 16.3245 40.946 16.3265C40.97 16.3685 40.991 16.4065 41.012 16.4485C41.0294 16.4806 41.0445 16.5141 41.057 16.5485C41.0652 16.5629 41.0722 16.5779 41.078 16.5935L41.087 16.6235L41.346 17.6095C41.3628 17.7275 41.3735 17.8463 41.378 17.9655Z" fill="#00B5EA"/>
<path d="M20.2136 32.51C20.1389 32.504 20.0643 32.501 19.9896 32.501C19.2064 32.5002 18.4461 32.7656 17.8335 33.2536C17.2209 33.7416 16.7923 34.4233 16.618 35.1869C16.4436 35.9504 16.5338 36.7506 16.8739 37.4561C17.2139 38.1617 17.7837 38.7307 18.4896 39.07C18.5466 39.097 18.6026 39.121 18.6596 39.145C18.7166 39.169 18.7596 39.184 18.8086 39.201L18.9606 39.255C19.0672 39.2879 19.1758 39.3146 19.2856 39.335C19.5155 39.3854 19.7502 39.4102 19.9856 39.409C20.0741 39.4096 20.1625 39.4056 20.2506 39.397C21.1218 39.3306 21.9355 38.9363 22.5274 38.2936C23.1194 37.6509 23.4457 36.8077 23.4403 35.9339C23.435 35.0601 23.0985 34.2209 22.4988 33.5855C21.899 32.9501 21.0806 32.5657 20.2086 32.51H20.2136Z" fill="#ED763B"/>
<path d="M41.374 17.9648C41.374 18.0824 41.368 18.1999 41.356 18.3168C41.3504 18.389 41.3403 18.4608 41.326 18.5318C41.32 18.5768 41.311 18.6178 41.302 18.6598C41.2538 18.9008 41.1787 19.1356 41.078 19.3598C41.039 19.4438 40.998 19.5268 40.953 19.6078C40.926 19.6558 40.902 19.7078 40.873 19.7508C40.8165 19.8482 40.7537 19.9417 40.685 20.0308C40.619 20.1148 40.554 20.1978 40.479 20.2778C40.4428 20.3207 40.4041 20.3615 40.363 20.3998C40.3447 20.4227 40.3239 20.4435 40.301 20.4618C40.2033 20.5556 40.0998 20.6431 39.991 20.7238L39.985 20.7298C39.8401 20.8385 39.6866 20.9352 39.526 21.0188C39.0317 21.2822 38.4801 21.4196 37.92 21.4188C37.846 21.4188 37.771 21.4188 37.7 21.4098C36.8267 21.3558 36.0064 20.9722 35.4051 20.3365C34.8038 19.7008 34.4663 18.8605 34.461 17.9854C34.4557 17.1104 34.7828 16.266 35.3763 15.623C35.9698 14.98 36.7854 14.5864 37.658 14.5218C37.7451 14.5133 37.8326 14.5093 37.92 14.5098C38.1178 14.5101 38.3151 14.5272 38.51 14.5608C38.555 14.5668 38.599 14.5758 38.644 14.5848C38.6504 14.5887 38.6576 14.5908 38.665 14.5908C38.707 14.5998 38.751 14.6118 38.793 14.6238C38.885 14.6478 38.975 14.6748 39.067 14.7078C39.2369 14.7707 39.4017 14.8466 39.56 14.9348L39.571 14.9398C39.671 14.9908 39.762 15.0498 39.857 15.1128C39.9243 15.1558 39.9891 15.2025 40.051 15.2528C40.063 15.2648 40.078 15.2738 40.09 15.2858C40.141 15.3248 40.19 15.3658 40.239 15.4108C40.278 15.4498 40.319 15.4888 40.358 15.5268C40.5148 15.6812 40.6555 15.8511 40.778 16.0338L40.868 16.1768C40.898 16.2248 40.922 16.2768 40.948 16.3198C40.9474 16.3218 40.9474 16.3239 40.948 16.3258C40.981 16.3858 41.008 16.4448 41.034 16.5048C41.043 16.5198 41.049 16.5318 41.058 16.5468C41.0662 16.5612 41.0732 16.5763 41.079 16.5918L41.088 16.6218C41.1815 16.8386 41.2525 17.0645 41.3 17.2958C41.306 17.3288 41.312 17.3578 41.318 17.3958C41.33 17.4678 41.339 17.5388 41.348 17.6138C41.3626 17.7303 41.3713 17.8474 41.374 17.9648Z" fill="white"/>
<path d="M41.374 17.9648C41.374 18.0824 41.368 18.1999 41.356 18.3168C41.3504 18.389 41.3403 18.4608 41.326 18.5318C41.32 18.5768 41.311 18.6178 41.302 18.6598C41.2538 18.9008 41.1787 19.1356 41.078 19.3598C41.039 19.4438 40.998 19.5268 40.953 19.6078C40.926 19.6558 40.902 19.7078 40.873 19.7508C40.8165 19.8482 40.7537 19.9417 40.685 20.0308C40.619 20.1148 40.554 20.1978 40.479 20.2778C40.4428 20.3207 40.4041 20.3615 40.363 20.3998C40.3447 20.4227 40.3239 20.4435 40.301 20.4618C40.2033 20.5556 40.0998 20.6431 39.991 20.7238L39.985 20.7298C39.8401 20.8385 39.6866 20.9352 39.526 21.0188C39.0317 21.2822 38.4801 21.4196 37.92 21.4188C37.846 21.4188 37.771 21.4188 37.7 21.4098C36.8267 21.3558 36.0064 20.9722 35.4051 20.3365C34.8038 19.7008 34.4663 18.8605 34.461 17.9854C34.4557 17.1104 34.7828 16.266 35.3763 15.623C35.9698 14.98 36.7854 14.5864 37.658 14.5218C37.7451 14.5133 37.8326 14.5093 37.92 14.5098C38.1178 14.5101 38.3151 14.5272 38.51 14.5608C38.555 14.5668 38.599 14.5758 38.644 14.5848C38.6504 14.5887 38.6576 14.5908 38.665 14.5908C38.707 14.5998 38.751 14.6118 38.793 14.6238C38.885 14.6478 38.975 14.6748 39.067 14.7078C39.2369 14.7707 39.4017 14.8466 39.56 14.9348L39.571 14.9398C39.671 14.9908 39.762 15.0498 39.857 15.1128C39.9243 15.1558 39.9891 15.2025 40.051 15.2528C40.063 15.2648 40.078 15.2738 40.09 15.2858C40.141 15.3248 40.19 15.3658 40.239 15.4108C40.278 15.4498 40.319 15.4888 40.358 15.5268C40.5148 15.6812 40.6555 15.8511 40.778 16.0338L40.868 16.1768C40.898 16.2248 40.922 16.2768 40.948 16.3198C40.9474 16.3218 40.9474 16.3239 40.948 16.3258C40.981 16.3858 41.008 16.4448 41.034 16.5048C41.043 16.5198 41.049 16.5318 41.058 16.5468C41.0662 16.5612 41.0732 16.5763 41.079 16.5918L41.088 16.6218C41.1815 16.8386 41.2525 17.0645 41.3 17.2958C41.306 17.3288 41.312 17.3578 41.318 17.3958C41.33 17.4678 41.339 17.5388 41.348 17.6138C41.3626 17.7303 41.3713 17.8474 41.374 17.9648Z" fill="#ED763B"/>
<path d="M33.6171 17.9655C33.617 17.2971 33.7727 16.638 34.0718 16.0403C34.3709 15.4427 34.8051 14.923 35.3401 14.5225H20.1481C19.6455 14.5228 19.1491 14.6338 18.6942 14.8475C17.9504 15.1862 17.3553 15.7841 17.0201 16.5295C16.8116 16.9802 16.7034 17.4708 16.7031 17.9675V21.4105H35.3391C34.804 21.0096 34.3698 20.4895 34.0709 19.8915C33.7719 19.2935 33.6166 18.634 33.6171 17.9655Z" fill="#00B5EA"/>
<path d="M37.9514 32.501H36.9403V32.51H22.5714C23.1066 32.9109 23.5411 33.4309 23.8405 34.0288C24.1399 34.6268 24.296 35.2863 24.2963 35.955C24.2965 36.1396 24.2845 36.324 24.2603 36.507C24.1867 37.0775 23.9992 37.6274 23.7089 38.1241C23.4185 38.6207 23.0313 39.0539 22.5703 39.398H41.3703V35.925C41.3706 35.0177 41.0106 34.1474 40.3695 33.5053C39.7284 32.8633 38.8587 32.502 37.9514 32.501Z" fill="#263E91"/>
<path d="M68.8325 37.5714C67.9056 36.7307 67.2451 35.6371 66.9325 34.4254C66.5473 33.0858 66.3543 31.6983 66.3595 30.3044C66.3632 29.1218 66.5235 27.9449 66.8365 26.8044C67.1044 25.7301 67.6141 24.731 68.3265 23.8834C69.398 22.6022 70.9188 21.7793 72.5775 21.5834C74.1548 21.3299 75.7704 21.4746 77.2775 22.0044C78.8544 22.6256 80.1282 23.8354 80.8295 25.3784C81.5777 26.9369 81.9471 28.6501 81.9075 30.3784C81.9304 31.5826 81.7819 32.784 81.4665 33.9464C81.214 34.8427 80.8288 35.6962 80.3235 36.4784C79.4214 37.8283 78.0359 38.7808 76.4525 39.1394C75.077 39.5299 73.6249 39.5643 72.2325 39.2394C70.9722 38.9922 69.7994 38.4168 68.8325 37.5714ZM71.8755 26.1504C70.9088 27.4178 70.478 29.0137 70.6755 30.5954C70.611 32.0461 70.9872 33.4825 71.7545 34.7154C72.1063 35.1285 72.5688 35.4324 73.0875 35.5914C73.7073 35.8296 74.3891 35.8525 75.0235 35.6564C75.7613 35.395 76.3802 34.8762 76.7665 34.1954C77.3661 33.0349 77.6499 31.7372 77.5895 30.4324C77.6676 29.2199 77.4163 28.0088 76.8625 26.9274C76.4909 26.2509 75.896 25.7243 75.1795 25.4374C74.5648 25.2206 73.8964 25.2091 73.2745 25.4044C72.7545 25.5344 72.274 25.789 71.8745 26.1464L71.8755 26.1504Z" fill="#1D1E3F"/>
<path d="M87.9518 43.2826C87.9561 43.5716 87.9022 43.8584 87.7933 44.1261C87.6844 44.3938 87.5226 44.6368 87.3178 44.8406C87.122 45.048 86.8854 45.2128 86.623 45.3246C86.3607 45.4365 86.078 45.493 85.7928 45.4906H83.6328V29.3296C83.6328 26.3003 84.4995 24.2336 86.2328 23.1296C87.9155 22.043 89.8777 21.4688 91.8808 21.4766C92.9763 21.4838 94.0611 21.693 95.0808 22.0936C96.0811 22.4493 96.9683 23.0655 97.6508 23.8786C98.9845 25.7718 99.6543 28.053 99.5558 30.3666C99.667 32.7222 98.9974 35.0487 97.6508 36.9846C97.0964 37.7598 96.3624 38.3891 95.5117 38.8188C94.6609 39.2484 93.7188 39.4655 92.7658 39.4516C91.8028 39.4716 90.8479 39.2715 89.9738 38.8666C89.1101 38.4172 88.4028 37.7168 87.9448 36.8576L87.9518 43.2826ZM95.1818 30.5636C95.2667 29.1994 94.9354 27.8415 94.2318 26.6696C93.9312 26.2277 93.5223 25.8703 93.0442 25.6315C92.5661 25.3927 92.0347 25.2805 91.5008 25.3056C90.9778 25.2864 90.4586 25.4018 89.9929 25.6406C89.5271 25.8794 89.1305 26.2337 88.8408 26.6696C88.157 27.8477 87.8469 29.2055 87.9518 30.5636C87.8562 31.8677 88.1902 33.1673 88.9028 34.2636C89.2028 34.7052 89.611 35.0625 90.0884 35.3015C90.5658 35.5404 91.0965 35.6531 91.6298 35.6286C92.1438 35.6425 92.6527 35.5243 93.1079 35.2854C93.5631 35.0464 93.9494 34.6946 94.2298 34.2636C94.9198 33.1574 95.2522 31.8655 95.1818 30.5636Z" fill="#1D1E3F"/>
<path d="M105.572 43.2826C105.576 43.5719 105.522 43.859 105.413 44.1267C105.303 44.3945 105.141 44.6373 104.935 44.8406C104.74 45.0481 104.504 45.213 104.242 45.3248C103.98 45.4367 103.698 45.4932 103.413 45.4906H101.258V29.3296C101.258 26.3003 102.124 24.2336 103.858 23.1296C105.541 22.043 107.503 21.4688 109.506 21.4766C110.601 21.4844 111.686 21.6935 112.706 22.0936C113.705 22.4507 114.592 23.0667 115.275 23.8786C116.608 25.7722 117.278 28.053 117.181 30.3666C117.29 32.7222 116.621 35.0482 115.275 36.9846C114.72 37.7598 113.986 38.3891 113.136 38.8188C112.285 39.2484 111.343 39.4655 110.39 39.4516C109.427 39.4716 108.472 39.2715 107.598 38.8666C106.734 38.4167 106.027 37.7165 105.569 36.8576L105.572 43.2826ZM112.802 30.5636C112.887 29.1989 112.555 27.8407 111.849 26.6696C111.55 26.2278 111.142 25.8703 110.665 25.6314C110.188 25.3925 109.658 25.2803 109.125 25.3056C108.601 25.2861 108.081 25.4013 107.615 25.6401C107.148 25.8789 106.751 26.2334 106.461 26.6696C105.776 27.8475 105.466 29.2054 105.571 30.5636C105.475 31.8677 105.809 33.1672 106.522 34.2636C106.822 34.7051 107.23 35.0624 107.708 35.3013C108.185 35.5403 108.716 35.653 109.249 35.6286C109.763 35.643 110.272 35.525 110.727 35.286C111.183 35.047 111.569 34.6949 111.849 34.2636C112.541 33.1582 112.873 31.8658 112.802 30.5636Z" fill="#1D1E3F"/>
<path d="M131.041 33.8076H134.216C133.851 35.4658 132.905 36.9391 131.55 37.9615C130.111 38.9959 128.368 39.521 126.598 39.4536C125.537 39.5087 124.477 39.3211 123.499 38.9053C122.522 38.4894 121.652 37.8561 120.956 37.0536C119.6 35.4982 118.923 33.2705 118.924 30.3705C118.785 28.0427 119.482 25.7419 120.89 23.8825C121.587 23.0801 122.457 22.4469 123.436 22.0311C124.414 21.6152 125.474 21.4276 126.536 21.4825C127.63 21.4186 128.725 21.5944 129.744 21.9978C130.763 22.4011 131.682 23.0221 132.436 23.8175C133.889 25.7314 134.609 28.1026 134.466 30.5016V31.2166C134.475 31.3708 134.453 31.5255 134.4 31.6706H123.432C123.38 32.7472 123.718 33.8064 124.382 34.6555C124.683 35.0112 125.065 35.2906 125.495 35.4712C125.925 35.6517 126.391 35.7282 126.857 35.6945C127.5 35.7136 128.135 35.5566 128.696 35.2405C128.828 35.1931 128.948 35.115 129.045 35.0125C129.145 34.9055 129.266 34.7845 129.391 34.6555C129.503 34.4454 129.667 34.267 129.867 34.1365C130.21 33.8984 130.623 33.7826 131.041 33.8076ZM123.432 28.7445H129.898C129.894 27.8058 129.581 26.8943 129.009 26.1505C128.706 25.8381 128.34 25.595 127.934 25.4379C127.529 25.2808 127.094 25.2135 126.661 25.2405C126.238 25.2254 125.816 25.2986 125.423 25.4553C125.03 25.6119 124.674 25.8487 124.378 26.1505C123.743 26.8627 123.404 27.7908 123.432 28.7445Z" fill="#1D1E3F"/>
<path d="M145.814 21.4141H145.482C144.306 21.4135 143.135 21.5737 142.002 21.8901C140.927 22.1801 139.923 22.6872 139.051 23.3801C138.13 24.1556 137.412 25.1447 136.961 26.2611C136.416 27.6767 136.157 29.1866 136.2 30.7031V36.1761H136.217V39.4481H138.525C138.83 39.4516 139.133 39.3916 139.414 39.272C139.695 39.1523 139.949 38.9756 140.158 38.7531C140.378 38.5351 140.551 38.275 140.668 37.9884C140.785 37.7018 140.843 37.3946 140.838 37.0851V36.1761V30.1611C140.744 29.084 141.077 28.0131 141.765 27.1791C142.151 26.8361 142.603 26.5749 143.093 26.4113C143.584 26.2477 144.102 26.185 144.617 26.2271H146.142V21.4131L145.814 21.4141Z" fill="#1D1E3F"/>
<path d="M64.2414 36.1732C64.0226 35.954 63.7618 35.7811 63.4748 35.6648C63.1877 35.5485 62.8801 35.4912 62.5704 35.4962H61.5504V35.4902H55.2734L64.6074 25.2672V21.4082H50.1784V22.9012C50.1718 23.1976 50.227 23.4922 50.3405 23.7661C50.4539 24.04 50.6232 24.2873 50.8374 24.4922C51.0463 24.7 51.2947 24.8637 51.568 24.9736C51.8413 25.0836 52.1339 25.1375 52.4284 25.1322H59.1134L49.6484 35.8322V39.4192H64.9404V37.8502C64.9476 37.5374 64.8892 37.2265 64.7688 36.9376C64.6484 36.6487 64.4687 36.3883 64.2414 36.1732Z" fill="#1D1E3F"/>
<path d="M151.183 17.0479C151.578 17.0515 151.966 17.1547 152.311 17.3478C152.673 17.5411 152.971 17.8358 153.168 18.1958C153.368 18.5443 153.473 18.9391 153.473 19.3409C153.473 19.7426 153.368 20.1374 153.168 20.4858C152.973 20.8443 152.678 21.139 152.32 21.3348C151.972 21.5336 151.579 21.6381 151.179 21.6381C150.778 21.6381 150.385 21.5336 150.037 21.3348C149.679 21.1385 149.384 20.8439 149.188 20.4858C148.988 20.1374 148.883 19.7426 148.883 19.3409C148.883 18.9391 148.988 18.5443 149.188 18.1958C149.386 17.8357 149.684 17.541 150.047 17.3478C150.394 17.1533 150.785 17.05 151.183 17.0479ZM151.183 17.4278C150.854 17.4298 150.53 17.5151 150.242 17.6758C149.94 17.838 149.692 18.0839 149.527 18.3839C149.359 18.674 149.271 19.0032 149.271 19.3383C149.271 19.6735 149.359 20.0027 149.527 20.2928C149.692 20.5913 149.938 20.8368 150.237 21.0008C150.526 21.1666 150.854 21.2538 151.187 21.2538C151.52 21.2538 151.848 21.1666 152.137 21.0008C152.436 20.8371 152.681 20.5915 152.845 20.2928C153.012 20.0024 153.1 19.6733 153.1 19.3383C153.1 19.0034 153.012 18.6743 152.845 18.3839C152.681 18.0835 152.432 17.8375 152.13 17.6758C151.841 17.5143 151.515 17.4289 151.183 17.4278ZM150.177 20.6098V18.1418H151.025C151.237 18.1323 151.449 18.1552 151.654 18.2098C151.781 18.2534 151.89 18.3373 151.964 18.4488C152.039 18.5548 152.079 18.6812 152.08 18.8109C152.081 18.8982 152.064 18.9849 152.031 19.0658C151.998 19.1466 151.949 19.2201 151.887 19.2818C151.751 19.419 151.568 19.4994 151.375 19.5068C151.452 19.5372 151.523 19.5816 151.584 19.6378C151.723 19.787 151.846 19.9509 151.949 20.1268L152.249 20.6098H151.763L151.544 20.2208C151.441 20.006 151.299 19.8116 151.127 19.6469C151.033 19.584 150.921 19.5541 150.808 19.5618H150.574V20.6098H150.177ZM150.577 19.2208H151.06C151.224 19.2383 151.389 19.2033 151.532 19.1208C151.573 19.0882 151.606 19.0464 151.628 18.9988C151.649 18.9512 151.66 18.8992 151.658 18.8468C151.66 18.7753 151.638 18.7052 151.597 18.6469C151.555 18.5878 151.496 18.5428 151.428 18.5178C151.298 18.4819 151.163 18.4673 151.028 18.4748H150.575L150.577 19.2208Z" fill="black"/>
</svg>
